<?xml version="1.0" encoding="UTF-8"?>
<svg id="Layer_1" data-name="Layer 1" xmlns="http://www.w3.org/2000/svg" viewBox="0 0 534.69 266.16">
  <defs>
    <style>
      .cls-1 {
        fill: #ffe5b0;
      }
    </style>
  </defs>
  <g>
    <path class="cls-1" d="M351.57,184.38c-4.07,1.21-8.48-.08-9.64-4.49-1.96.17-4.38.64-6.11-.54-.44-.3-2.2-1.86-2.44-2.27-.53-.91-.39-1.93-.67-2.92-3.35.17-7.09-1.35-7.53-5.06-.12-.96-.14-3.13-.03-4.08.19-1.56,4.07-5.69,5.32-6.96,10.46-10.62,20.91-21.23,31.43-31.84,10.79-10.87,19.95-23.2,36.86-24.16,15.49-.88,22.19,10.51,31.34,20.49,10.04,10.96,20.52,21.56,30.51,32.55,2.3,2.53,5.21,5.23,7.27,7.89,2.41,3.12,4.39,8.19-1.92,6.87l-.23.17c0,4.06-3.4,5.77-7.06,5.64-1.17,2.72-4.26,5.36-7.37,3.79-.31,4.2-3.78,5.81-7.56,4.52-1.16,3.94-4.67,6.2-8.61,4.29-1.13,3.04-4.89,4.02-7.87,3.66-.66-.08-1.8-.65-2.27-.6s-1.93,1.54-2.63,1.88c-2.19,1.07-6.34,1.54-8.02-.64-1.35,1.49-1.95,2.59-4.12,2.83-2.3.25-4.46.18-5.71-2.02-1.29,1.83-4.04,2.94-6.25,2.36-.82-.22-2.24-1.75-2.55-1.75-4.08,2.29-9.54,3.65-12.11-1.41-3.52,2.03-8.37,2.28-10.62-1.63-4.21,2.73-8.38,1.84-10.65-2.67-1.76,1.05-4.31,1.67-6.36,1.42s-4.58-3.26-4.4-5.33ZM385.36,189.7c.49,1.15-1.01,1.98-.89,2.61.85,4.59,8.13,2.76,10.68.78l-.39-2.23-.31-.31-9.08-.85ZM397.03,190.32c.54,1.21.14,2.19-.56,3.17,1.36,2.13,4.76,1.62,6.4.1,1.78-1.64.14-1.81.1-3.68-2.09-.23-3.92-.32-5.93.4ZM405.22,190.11c.03,1.84-.68,2.72,1.13,3.89,1.03.67,3.8.46,4.93.02.35-.14,2.04-1.74,2.11-2-.39-.96-1.01-1.71-1.01-2.92-2.43.1-4.7,1.25-7.16,1.02ZM375.36,188.71l-1.44,1.88c1.77,3.7,6.42,2.86,9.39,1.15-.23-.8-.4-1.36.21-2.03-2.68.5-5.51-.57-8.16-1ZM414.64,188.68c.34,1.91-.29,3.73,2.2,4.25.9.19,3.56-.24,4.47-.56,1.01-.36,1.75-1.06,2.55-1.75-1.03-.83-1.44-2.08-1.43-3.38l-7.78,1.44ZM395.19,190.52l.51,2.04c.68-.52.8-1.22.72-2.04h-1.23ZM363.26,187.68c1.26,4.49,6.13,5.24,9.37,2.29l.02-2.5c-2.47-.92-5.02-1.34-7.63-1.68-.4.76-.87,1.58-1.75,1.88ZM425.7,190.32c2.89,1.04,7.2.54,8.35-2.73-.82-1.19-1.6-1.85-1.83-3.38-2.81-.27-5.15.74-7.55,2.02.21.77.94,1.19,1.14,2.03.18.75.1,1.34-.12,2.06ZM423.45,187.25c0,.94.36,1.98,1.23,2.46.36-.97-.14-2.21-1.23-2.46ZM352.61,183.99c.03,2.61,2.11,4.86,4.79,4.69.77-.05,4.34-.89,4.58-1.57.36-1.83.33-2.67-1.33-3.72-1.46-.93-3.4-.86-4.98-1.47-.22,1.3-1.94,1.85-3.06,2.06ZM441.67,180.08c-2.46.6-4.43,2.19-6.67,3.27-.19.26.27.96.31,1.36.16,1.44-.45,2.68,1.37,2.93,3.68.52,5.05-1.39,6.4-4.42-.78-1.01-1.28-1.82-1.4-3.14ZM383.93,186.84h10.24c.33-1.62-.96-2.13-1.18-3.64-.14-.99.13-1.79.09-2.58-.02-.39-.31-.86-.35-1.45-.05-.73-.13-1.95.43-2.45,1.45-1.33,1.14,1.8,1.23,2.43.22,1.58.16,2.17.24,3.64.08,1.35,1.61,2.23.77,3.84,2.33-.55,4.42.43,6.75.2.65-1.75-.74-2.71-.97-4.24-.12-.8.02-1.6-.07-2.39-.13-1.24-.89-2.44.02-3.8-2.94-.82-5.63-.12-8.49,0-3.05.13-4.27-.77-6.76-1.03-2.32-.25-4.59.38-6.94-.02-1.08-.18-2.09-.59-3.09-1,.05.56-.43,1.21-.47,1.58-.05.39.19.83.15,1.36-.05.74-.56,1.55-.61,2.29-.07.99.35,1.92.19,3.05-.11.81-.58,1.25-.8,1.96,2.94.07,5.96,1.9,8.71,2.25.51.07.2-.11.21-.22.3-1.98-.05-2.09-.13-3.77-.04-.83.23-1.5.23-2.26,0-1.09-.74-4.64.91-5.02s.5,2.12.49,2.97c-.02,1.33.04,2.77.04,4.11,0,1.04.59,2.61-.12,3.56-.25.33-.68.28-.72.61ZM403.38,186.63c2.76-.44,5.66-.25,8.31-1.22.19-1.42-.98-2.32-1.26-3.48-.13-.55-.05-1.12-.18-1.66-.41-1.65-1.18-2.83-.53-4.7-2.34.67-4.73.96-7.17.82.18.64-.23,1.4-.2,1.94.03.46.5,1.06.59,1.67.13.9-.1,1.9.07,2.8.24,1.27,1.36,2.29.36,3.83ZM433.28,183.77c.23.77.23,1.86,1.02,2.25l-.4-2.11-.62-.14ZM412.39,185.4l9.01-1.84c-.18-1.49-1.45-2.11-2.02-3.4-.28-.63-.99-2.36-1.16-2.93-.22-.71-.04-1.53-.09-2.26-2.48-.08-4.93.02-7.37.41.67.68.29,1.48.45,2.31.24,1.21.57,2.29.82,3.68.23,1.28,1.56,2.61.36,4.04ZM365.09,181.11c.37,1.43,7.53,3.12,7.96,2.84.88-1.81-.03-3.6.28-5.56.08-.49.39-1.02.52-1.53.25-1.02-.14-1.85,1.07-2.61-.14-.2-.26-.27-.51-.31-1.54-.25-3.24-.12-4.82-.5-1.02-.25-1.87-.84-2.86-1.13.56.86-.28,1.58-.4,2.37-.24,1.58.15,5.21-.75,6.22-.12.14-.3.23-.49.22ZM343.2,179.28c.28,4.1,4.84,5.49,8.26,4.1.21-.9.16-1.91.93-2.58-2.28-1.29-4.56-2.31-6.45-4.2,0,1.59-1.34,2.37-2.74,2.68ZM444.17,182.49c2.7,1.68,5.87-.24,6.11-3.34l-1.23-2.26-.28-.06-5.02,2.46.42,3.2ZM422.42,183.15l7.96-2.79c.31-.91-1.18-1.9-1.7-2.75-.26-.44-1.57-2.91-1.66-3.25-.16-.6-.33-2.25.46-2.44,1.02-.25.94,1.42,1.14,1.87.38.84,1.04,2.21,1.47,3.03.64,1.22,2.07,1.88,1.34,3.47l8.6-2.87c-.71-.41-.5-.85-.81-1.34-.25-.4-.88-.65-1.21-1.05-1.34-1.6-1.1-2.73-1.78-4.16-.18-.38-.73-.56-.87-1.18-.12-.55-.01-1.14-.04-1.7-5.1,2.48-10.18,4.98-15.68,6.54.18.66.21,1.41.42,2.06.27.83.73,2.35,1.03,3.07.47,1.14,1.82,1.8,1.33,3.48ZM352.6,182.95c.83,0,1.53-.54,2.04-1.12-.25-.33-1.03-.69-1.39-.48l-.65,1.6ZM355.26,178.24c1.21.33,2.49.54,3.68.92,1.09.35,4.41,2.03,5.27,1.28.61-.53.02-2.37.04-3.11.02-.62.48-3.04.68-3.64.23-.7.78-1.2,1.17-1.79-.99-.27-2.3-.57-3.21-.99-1.45-.66-2.36-2.18-4.16-2.29.05.97-.87,1.63-1.17,2.42-.19.5-.95,2.8-1.04,3.26-.3,1.49.43,2.88-1.27,3.94ZM334.85,177.14c.2.23,1.83,1.63,2.06,1.72,1.56.6,3.43.3,5.01-.04l.96-2.63,1.52-.62c-2.66-1.28-5.76-1.24-8.26-2.85l-2.19,1.34c.14,1.11.15,2.19.91,3.07ZM453.8,179.01c1.24-.13,3.85-2.36,4.02-3.59.09-.66-.52-.63-.88-1.09-.47-.59-.61-1.25-1.05-1.83-.81.3-5.15,2.51-5.16,3.16.71.6.47,2.22.87,2.77.26.36,1.71.62,2.19.57ZM343.38,178.03c.36.36,1.89-1.21,1.64-1.43-.95-.1-1.69.43-1.64,1.43ZM346.45,172.91c.77.23,1.02,1.18,1.77,1.61.98.57,2.39.5,3.49,1.02s1.81,1.72,2.93,2.29c-.12-.65.4-1.15.43-1.74.02-.47-.23-.94-.24-1.43,0-.46,1.06-3.97,1.29-4.46.14-.3,1.62-1.78,1.39-1.99-2.58-.24-4.2-2.67-6.66-3.46-.18.38-.9.94-1.02,1.21-.19.43-.05.92-.22,1.42-.2.6-1.12,1.16-1.37,1.9-.37,1.11-.14,2.98-1.79,3.22v.4ZM440.24,177.21l6.02-3.09c1.22-1.56-.2-1.58-.9-2.39-.56-.65-.84-1.78-1.34-2.49-.47-.67-1.32-1.2-1.82-1.87-.32-.43-1.28-2.54-1.67-2.63-1.52.6-2.99,1.41-4.16,2.57.11.4.39.67.51,1.09.46,1.56,1.33,4.34,2.34,5.64.83,1.06,2.25,1.53,1.02,3.18ZM458.87,174.55c2.66.23,5.13-.72,5.84-3.48.55-2.13.18-1.54-.81-2.89-.32-.44-.4-1.04-.83-1.42l-4.73,4.3c.29,1.2.73,2.17.53,3.48ZM456.82,171.9c.14.8.47,1.65,1.23,2.04.13-.81-.22-1.5-.41-2.25l-.82.21ZM447.82,173.32l5.53-3.37c.77-1.65-1.11-2.07-1.95-2.97-.58-.62-.79-1.43-1.24-2.04-.92-1.24-2.12-2.49-3.07-3.71l-5,2.78c.79.67,1.11,1.93,1.63,2.66.46.64,1.36,1.17,1.81,1.87.41.65.51,1.46.97,2.1.61.87,2.11,1.23,1.32,2.67ZM326.81,163.72c-.1.07-.65,2.13-.65,2.33,0,.58.18,2.42.28,3.03.36,2.17,2.7,3.8,4.78,4.02,2.57.26,1.18-1.01,2.74-2.33-1.26-1.98-4.08-3.13-5.32-4.91-.37-.54-.83-2.81-1.83-2.13ZM339.55,164.79c-.27.3-.33.9-.67,1.27-.37.4-1.76.74-1.64,1.22s7.06,4.41,8.06,4.79c1.44-.81.94-2.24,1.4-3.52.31-.87,1.13-1.46,1.48-2.21.36-.79.12-1.72,1.34-2.13-1.76-1.53-3.24-3.4-5.53-4.2.13,1.43-1.37,1.33-2.04,1.95-.45.42-.71,1.48-1.24,2.04-.35.36-.94.52-1.17.78ZM468.56,168.98c1.55-.46-.71-5.15-1.36-5.06l-1.96,1.35c.34.88.33,2.45.64,3.2.29.69,2.09.69,2.68.52ZM452.59,166.3c.34.3.96.33,1.38.77.54.58.45,1.38.92,1.94l5.83-4.4c-.48-.68-1.33-.59-1.84-1.22-.37-.45-.37-.99-.64-1.41-.39-.61-1.42-2.11-1.84-2.66s-1.34-1.01-1.81-1.67c-.42-.59-.5-1.19-.92-1.74l-5.42,4.61,1.32,1.34c.83.79,2.43,3.88,3.04,4.43ZM337.03,153.46c.08,1.26-1.35,1.82-2.15,2.66-.43.45-.66,1.13-1.11,1.55s-1.09.5-1.43.82c-.37.34-.49.96-1.03,1.43s-1.15.54-1.62,1.01c.48.52.35,1.6.8,2.05.25.25.86.37,1.21.63,1.43,1.08,2.7,2.38,4.21,3.36-.18-1.69.96-1.53,1.63-2.26.29-.31.33-.88.58-1.16s.9-.48,1.28-.87c.54-.56.78-1.45,1.31-1.96.69-.65,1.76-.59,2.25-1.45-.72-1.57-2.2-2.05-3.36-2.94-1.06-.8-1.53-2.06-2.56-2.87ZM458.53,160.16c.84,1.02.89,1.14,1.6,2.19.38.56,1.52.79,1.41,1.76,1.3-.64,1.79-2.35,3.27-2.66v-.3s-7.28-8.1-7.28-8.1l-2.66,1.85-.09.3c.65.46.76,1.34,1.22,1.86s1.24.85,1.73,1.55c.33.47.49,1.19.79,1.56ZM381.67,154.69c2.15.88,4.15,0,6.24-.01,1.08-.01,2.06.46,3.07.44,1.3-.02,2.83-.76,4.2-.63.37-1.62-.43-3.01-.59-4.42-.1-.86.04-1.75-.04-2.62-.09-1.07-.77-2.09-.19-3.39l-10.24-1.02c-.36,2.27-.72,4.54-1.08,6.81-.08.5-.4,1.01-.45,1.56-.11,1.35.48,2.17-.93,3.3ZM398.98,144.05c-1.06.03-2.12-.02-3.17,0-.27,1.08.33,2.03.41,2.97s-.07,1.93,0,2.86c.12,1.53.85,2.78,0,4.4l4.51.21c.56-1.66-1.02-2.55-1.22-3.8s-.22-4.12-.23-5.53c0-.36,0-.71.21-1.02l-.3-.3c-.08,0-.14.2-.2.2ZM374.3,153.46c.82.14,6.25.97,6.53.8.68-.43.17-2.74.23-3.56.13-1.52.55-3.41.8-4.93.2-1.2-.06-2.18,1.04-3.16l-4.1-.41c.45,1.71-.81,2.89-1.14,4.29s-.1,1.92-.95,3.35c-.68,1.15-1.76,2.39-2.42,3.62ZM401.74,154.08l5.32-.2c.43-1.57-.84-2.38-1.18-3.63-.29-1.07-.04-2.11-.11-3s-.93-1.87-.34-2.79c-1.56.25-3.16.34-4.71,0,.7,1.78.12,3.97.36,5.66.19,1.35,1.5,2.25.66,3.96ZM406.65,144.05c-.27.27.54,2.49.6,2.99.11.91-.17,1.79.07,2.8.32,1.39,1.55,2.14.77,3.84l5.13-1.12c.41-1.12-.66-1.84-1.08-2.62s-.43-1.46-.73-2.13c-.22-.48-.81-.86-.97-1.48-.21-.81-.05-1.65-.1-2.46l-3.69.21ZM367.34,150.6c1.62,1.42,4.29,1.06,6.14,2.25-.47-2.03,1.34-3.06,1.95-4.5.35-.84.35-1.77.66-2.62.41-1.14,1.36-2.19,1.4-3.53l-4.82-1.43c.75,1.91-1.13,3.57-2.01,5.05s-1.52,3.17-2.69,4.47c-.16.17-.38.3-.62.3ZM414.03,152.24c.63-.24,4.86-1.92,4.92-2.18.37-1.48-1.29-1.59-1.81-2.67-.23-.49-1-2.39-1.18-2.92-.15-.45-.19-2.38-.61-2.46l-3.79,1.57c-.01.78-.05,1.47.2,2.23.2.61.6.84.78,1.26.27.62.25,1.32.5,1.96.42,1.08,1.6,1.91.98,3.21ZM416.48,141.39c.64.59.5,1.34.76,2,.36.92.88,2.49,1.25,3.26.5,1.05,2.15,1.47,1.48,3.13.76-.38,1.61-.44,2.39-.78.48-.21,3.09-1.71,2.71-2.26-.55-.24-1.38-.97-1.71-1.47-.27-.42-.31-.95-.55-1.29-.88-1.27-2.16-2.42-2.43-4.02l-3.89,1.44ZM361.81,146.71c1.99.07,3.49,1.2,4.71,2.66.04-1.29,1.06-1.93,1.61-2.8.39-.62.49-1.37.88-1.98.85-1.33,2.48-2.32,2.54-4.24l-4.01-2.04c-.04,3.32-3.19,4.83-4.4,7.58l-1.34.81ZM425.91,146.91c1.2-.54,2.64-.1,3.68-.92-.56-.26-.29-1.03-.44-1.3-.05-.08-.81-.3-1.06-.48-.95-.67-.74-1.49-1.18-2.3-.25-.46-.86-.8-1.17-1.29-.55-.86-.97-2.23-1.57-3.14l-2.76,1.94c.63.89,1.19,1.83,1.75,2.75s.95,1.71,1.48,2.61c.44.74,1.34,1.12,1.27,2.11ZM356.92,143.2c1.78.71,2.57,2.79,4.48,3.3-.19-.78.79-2.46,1.26-3.14.72-1.02,1.83-1.78,2.59-2.94.46-.7.67-1.59,1.23-2.25l-.06-.26c-.44-.65-.96-1.23-1.54-1.76-.17-.15-1.51-1.27-1.64-1.12.04,1.63-1.56,2.59-2.56,3.68-.46.5-.87,1.26-1.35,1.72-.92.87-2.42,1.2-2.41,2.76ZM430.14,143.7c.35.43.15.95.37,1.37,1.04-1.46,2.79-1.55,4.23-2.33,1.23-.67,1.94-1.71,2.95-2.58.17-.15.49-.19.51-.21.15-.15-.38-.31-.58-.53-.67-.77-1.09-1.78-1.77-2.54-.71-.8-1.77-1.18-2.36-1.94-.55-.71-1.14-2.14-1.64-2.97-.44-.32-1.69,1.82-2.26,1.93-.87,1.14,1.28,2.23,1.86,2.88.54.61.76,1.44,1.23,2.05.84,1.1,2.93,2,1.33,3.58-.52.11-.48-.83-.7-1.14-.24-.34-1.2-.72-1.65-1.22-.57-.61-.93-1.68-1.43-2.26-.65-.74-2.12-1.24-2.05-2.56l-3.68,1.85c-.02.34.45.19.72.4.66.5,2.5,3.13,3,3.96.25.43.42,1.3.63,1.52s1.07.42,1.32.72ZM354.91,141.94c.06.07.53.28.55.26.08-1.67,1.33-1.89,2.26-2.76.52-.48,3.97-4,4.11-4.29,1.24-2.72-1.55-2.32-2.81-3.99l-7.23,6.87c-.08.45,1.65,1.58,2.03,2.02.48.56.76,1.52,1.09,1.88ZM432.46,131.15c1.55.29,1.61,1.63,2.25,2.56.48.69,1.51,1.19,2.13,1.96.87,1.06,1.39,2.56,1.76,3.87,1.26-.83,3.07-.69,3.39-2.46l-7.08-7.48c-.87.39-1.95.64-2.46,1.54ZM395.6,136.67l2.26-.3v-1.75s-2.26.21-2.26.21c.16.66.38,1.2,0,1.84ZM392.32,136.68h2.66s-.24-1.8-.24-1.8l-2.42-.24v2.05ZM388.85,136.05l2.65.43v-2.05s-2.46-.41-2.46-.41l-.19,2.03ZM398.9,136.24c1.14-.01,2.35.2,3.44-.21l-.19-1.81-3.47.19.23,1.82ZM404.61,133.4l-1.84.72c.4.56.62,1.25.61,1.95l1.84-.41-.62-2.25ZM385.56,135.24l2.25.62c-.04-.64.72-1.72.32-2.27-.17-.24-1.1-.29-1.31-.16-.09.06-.8,1.58-1.26,1.81ZM406.05,135.24l2.03-.61-1.04-2.03-1.62.4.63,2.24ZM384.64,134.82l1.29-1.73-1.49-1.12-1.33,1.72,1.53,1.14ZM408.94,133.98c.3.17,1-.2,1.19-.5l-1.13-2.14-1.31.72,1.26,1.92ZM391.51,133.18c.82.55,7.86-.01,9.28-.22,5.99-.85,15.81-6.51,16.51-13.18.31-2.95-.96-3.07-2.45-4.92-4.53-5.6-10.09-9.2-17.72-8.69-8.19.54-18.56,7.77-17.49,16.87.49,4.12,6.1,8.8,9.96,9.49.59.1,1.18,0,1.77.08l.14.57ZM413.21,131.77l-2.15-1.81-1.52,1.12,1.52,2.07,2.15-1.38ZM380.24,131.56c-.13.19,1.61,1.35,1.92,1.41l1.56-1.61-1.75-.82-1.74,1.02ZM416.28,129.72c-.72.22-2.37-1.44-2.73-1.41l-1.77,1.3c.89.59,1.68,2.09,2.78,1.55.51-.25,1.34-.99,1.72-1.45ZM381.47,130.12c.06-.08-1.03-1.27-1.33-1.23l-1.53,1.13,1.12,1.09,1.74-.99ZM414.03,127.87l2.97,1.41,1.12-1.61c-1.04.04-2.26-.21-2.97-1.02l-1.13,1.22ZM377.17,127.67l.92,1.63,1.53-1.03-.61-1.63-1.84,1.03ZM419.15,125.42c-.99-.03-2.05.25-2.76-.61l-.91,1.33c1.16.87,3.69,1.38,3.68-.72ZM376.55,126.85l2.05-.83-.21-.81-2.05.41.21,1.23ZM375.94,122.96l.21,2.25c1.06-1.01,2.26-.62,1.84-2.46l-2.05.2ZM416.69,124.39c.93.31,1.83.57,2.84.38l.64-2.22c-1.37.47-3.4-.1-3.48,1.84ZM417.71,122.14l2.66-.2v-2.05s-2.22.65-2.22.65l-.44,1.6ZM375.94,122.14l2.02-.44.14-1.41-1.96-.41-.21,2.25ZM418.33,119.89l1.82-.64.03-1-1.62.42-.22,1.21ZM376.14,119.27l2.05-.1c.29-.17.77-1.74.6-1.94l-2.03-.63-.62,2.66ZM419.55,116l-1.41.74.5,1.51,1.32-.83-.4-1.41ZM377.17,116.2l2.04.41.8-1.57c.07-.69-2.19-.61-1.82-1.71l2.53.59.95-1.1c-.54-.25-1.93-1.93-2.45-1.65-.52.43-2.25,4.85-2.05,5.03ZM416.28,114.57l1.37,1.4,1.7-.6-.61-2.04-2.45,1.23ZM415.97,114.36l2.33-1.73-.89-1.33-2.34,1.55.91,1.51ZM382.28,112.31c.19-.93,1.33-1.18,1.84-1.95l-2.32-1.5-1.98,1.5,2.45,1.95ZM411.18,109.22l3.39,2.87,2.53-1.42-1.54-2.04c-.04.4-2.43,1.77-2.56,1.64,0-.55.9-1.6,1.32-1.85.7-.42,1.13.29,1.13-.29l-2.56-1.95-1.72,3.05ZM382.7,108.42l2.36,1.18,1.53-1.27-1.53-1.49c-.64.39-1.48.74-2.1,1.13-.2.13-.37-.02-.26.46ZM410.55,104.94c0,1.14-1.43,2.68-.31,3.48l2.15-2.56-1.84-.92ZM387,108.01l2.04-1.33-.94-1.32-2.13,1.11c.43.48,1.07.8,1.02,1.54ZM406.88,106.55l1.81.63,1.03-2.86-2.46-.82-.39,3.05ZM389.04,104.94l.94,1.4,1.74-.72-.22-1.3-2.46.62ZM404.4,102.89l-.39,2.53,1.83.74c0-.93.38-1.88,1.02-2.56l-2.45-.72ZM401.34,104.93l1.83.42.82-2.66-2.66-.2c.48.8-.15,1.58,0,2.45ZM392.74,105.35l1.83-.41-.2-1.63-2.25.62.63,1.43ZM395.61,104.73h1.63c-.05-.75-.04-1.4.41-2.04l-2.66.41.62,1.63ZM398.47,104.53l1.85-.09.6-1.96-2.87.21c.3.57.46,1.19.41,1.84Z"/>
    <path class="cls-1" d="M388.9,144.11c.27-.23.62-.28.96-.27-.02,1.85-.7,3.99-.63,5.84.06,1.52,1.54,2.79.33,4.21-.5.59-1.9.89-1.65.2,1.32-1.24.38-1.69.04-2.91-.41-1.44-.2-6.1.94-7.07Z"/>
  </g>
  <g>
    <path class="cls-1" d="M357.26,81.78c4.07-1.21,8.48.08,9.64,4.49,1.96-.17,4.38-.64,6.11.54.44.3,2.2,1.86,2.44,2.27.53.91.39,1.93.67,2.92,3.35-.17,7.09,1.35,7.53,5.06.12.96.14,3.13.03,4.08-.19,1.56-4.07,5.69-5.32,6.96-10.46,10.62-20.91,21.23-31.43,31.84-10.79,10.87-19.95,23.2-36.86,24.16-15.49.88-22.19-10.51-31.34-20.49-10.04-10.96-20.52-21.56-30.51-32.55-2.3-2.53-5.21-5.23-7.27-7.89-2.41-3.12-4.39-8.19,1.92-6.87l.23-.17c0-4.06,3.4-5.77,7.06-5.64,1.17-2.72,4.26-5.36,7.37-3.79.31-4.2,3.78-5.81,7.56-4.52,1.16-3.94,4.67-6.2,8.61-4.29,1.13-3.04,4.89-4.02,7.87-3.66.66.08,1.8.65,2.27.6s1.93-1.54,2.63-1.88c2.19-1.07,6.34-1.54,8.02.64,1.35-1.49,1.95-2.59,4.12-2.83,2.3-.25,4.46-.18,5.71,2.02,1.29-1.83,4.04-2.94,6.25-2.36.82.22,2.24,1.75,2.55,1.75,4.08-2.29,9.54-3.65,12.11,1.41,3.52-2.03,8.37-2.28,10.62,1.63,4.21-2.73,8.38-1.84,10.65,2.67,1.76-1.05,4.31-1.67,6.36-1.42,1.96.24,4.58,3.26,4.4,5.33ZM323.48,76.46c-.49-1.15,1.01-1.98.89-2.61-.85-4.59-8.13-2.76-10.68-.78l.39,2.23.31.31,9.08.85ZM311.81,75.84c-.54-1.21-.14-2.19.56-3.17-1.36-2.13-4.76-1.62-6.4-.1-1.78,1.64-.14,1.81-.1,3.68,2.09.23,3.92.32,5.93-.4ZM303.61,76.05c-.03-1.84.68-2.72-1.13-3.89-1.03-.67-3.8-.46-4.93-.02-.35.14-2.04,1.74-2.11,2,.39.96,1.01,1.71,1.01,2.92,2.43-.1,4.7-1.25,7.16-1.02ZM333.47,77.45l1.44-1.88c-1.77-3.7-6.42-2.86-9.39-1.15.23.8.4,1.36-.21,2.03,2.68-.5,5.51.57,8.16,1ZM294.19,77.48c-.34-1.91.29-3.73-2.2-4.25-.9-.19-3.56.24-4.47.56-1.01.36-1.75,1.06-2.55,1.75,1.03.83,1.44,2.08,1.43,3.38l7.78-1.44ZM313.65,75.63l-.51-2.04c-.68.52-.8,1.22-.72,2.04h1.23ZM345.58,78.48c-1.26-4.49-6.13-5.24-9.37-2.29l-.02,2.5c2.47.92,5.02,1.34,7.63,1.68.4-.76.87-1.58,1.75-1.88ZM283.14,75.84c-2.89-1.04-7.2-.54-8.35,2.73.82,1.19,1.6,1.85,1.83,3.38,2.81.27,5.15-.74,7.55-2.02-.21-.77-.94-1.19-1.14-2.03-.18-.75-.1-1.34.12-2.06ZM285.39,78.91c0-.94-.36-1.98-1.23-2.46-.36.97.14,2.21,1.23,2.46ZM356.22,82.17c-.03-2.61-2.11-4.86-4.79-4.69-.77.05-4.34.89-4.58,1.57-.36,1.83-.33,2.67,1.33,3.72,1.46.93,3.4.86,4.98,1.47.22-1.3,1.94-1.85,3.06-2.06ZM267.16,86.08c2.46-.6,4.43-2.19,6.67-3.27.19-.26-.27-.96-.31-1.36-.16-1.44.45-2.68-1.37-2.93-3.68-.52-5.05,1.39-6.4,4.42.78,1.01,1.28,1.82,1.4,3.14ZM324.91,79.32h-10.24c-.33,1.62.96,2.13,1.18,3.64.14.99-.13,1.79-.09,2.58.02.39.31.86.35,1.45.05.73.13,1.95-.43,2.45-1.45,1.33-1.14-1.8-1.23-2.43-.22-1.58-.16-2.17-.24-3.64-.08-1.35-1.61-2.23-.77-3.84-2.33.55-4.42-.43-6.75-.2-.65,1.75.74,2.71.97,4.24.12.8-.02,1.6.07,2.39.13,1.24.89,2.44-.02,3.8,2.94.82,5.63.12,8.49,0,3.05-.13,4.27.77,6.76,1.03,2.32.25,4.59-.38,6.94.02,1.08.18,2.09.59,3.09,1-.05-.56.43-1.21.47-1.58.05-.39-.19-.83-.15-1.36.05-.74.56-1.55.61-2.29.07-.99-.35-1.92-.19-3.05.11-.81.58-1.25.8-1.96-2.94-.07-5.96-1.9-8.71-2.25-.51-.07-.2.11-.21.22-.3,1.98.05,2.09.13,3.77.04.83-.23,1.5-.23,2.26,0,1.09.74,4.64-.91,5.02s-.5-2.12-.49-2.97c.02-1.33-.04-2.77-.04-4.11,0-1.04-.59-2.61.12-3.56.25-.33.68-.28.72-.61ZM305.46,79.53c-2.76.44-5.66.25-8.31,1.22-.19,1.42.98,2.32,1.26,3.48.13.55.05,1.12.18,1.66.41,1.65,1.18,2.83.53,4.7,2.34-.67,4.73-.96,7.17-.82-.18-.64.23-1.4.2-1.94-.03-.46-.5-1.06-.59-1.67-.13-.9.1-1.9-.07-2.8-.24-1.27-1.36-2.29-.36-3.83ZM275.56,82.39c-.23-.77-.23-1.86-1.02-2.25l.4,2.11.62.14ZM296.45,80.76l-9.01,1.84c.18,1.49,1.45,2.11,2.02,3.4.28.63.99,2.36,1.16,2.93.22.71.04,1.53.09,2.26,2.48.08,4.93-.02,7.37-.41-.67-.68-.29-1.48-.45-2.31-.24-1.21-.57-2.29-.82-3.68-.23-1.28-1.56-2.61-.36-4.04ZM343.75,85.05c-.37-1.43-7.53-3.12-7.96-2.84-.88,1.81.03,3.6-.28,5.56-.08.49-.39,1.02-.52,1.53-.25,1.02.14,1.85-1.07,2.61.14.2.26.27.51.31,1.54.25,3.24.12,4.82.5,1.02.25,1.87.84,2.86,1.13-.56-.86.28-1.58.4-2.37.24-1.58-.15-5.21.75-6.22.12-.14.3-.23.49-.22ZM365.64,86.88c-.28-4.1-4.84-5.49-8.26-4.1-.21.9-.16,1.91-.93,2.58,2.28,1.29,4.56,2.31,6.45,4.2,0-1.59,1.34-2.37,2.74-2.68ZM264.66,83.66c-2.7-1.68-5.87.24-6.11,3.34l1.23,2.26.28.06,5.02-2.46-.42-3.2ZM286.41,83.01l-7.96,2.79c-.31.91,1.18,1.9,1.7,2.75.26.44,1.57,2.91,1.66,3.25.16.6.33,2.25-.46,2.44-1.02.25-.94-1.42-1.14-1.87-.38-.84-1.04-2.21-1.47-3.03-.64-1.22-2.07-1.88-1.34-3.47l-8.6,2.87c.71.41.5.85.81,1.34.25.4.88.65,1.21,1.05,1.34,1.6,1.1,2.73,1.78,4.16.18.38.73.56.87,1.18.12.55.01,1.14.04,1.7,5.1-2.48,10.18-4.98,15.68-6.54-.18-.66-.21-1.41-.42-2.06-.27-.83-.73-2.35-1.03-3.07-.47-1.14-1.82-1.8-1.33-3.48ZM356.24,83.21c-.83,0-1.53.54-2.04,1.12.25.33,1.03.69,1.39.48l.65-1.6ZM353.58,87.92c-1.21-.33-2.49-.54-3.68-.92-1.09-.35-4.41-2.03-5.27-1.28-.61.53-.02,2.37-.04,3.11-.02.62-.48,3.04-.68,3.64-.23.7-.78,1.2-1.17,1.79.99.27,2.3.57,3.21.99,1.45.66,2.36,2.18,4.16,2.29-.05-.97.87-1.63,1.17-2.42.19-.5.95-2.8,1.04-3.26.3-1.49-.43-2.88,1.27-3.94ZM373.98,89.01c-.2-.23-1.83-1.63-2.06-1.72-1.56-.6-3.43-.3-5.01.04l-.96,2.63-1.52.62c2.66,1.28,5.76,1.24,8.26,2.85l2.19-1.34c-.14-1.11-.15-2.19-.91-3.07ZM255.04,87.14c-1.24.13-3.85,2.36-4.02,3.59-.09.66.52.63.88,1.09.47.59.61,1.25,1.05,1.83.81-.3,5.15-2.51,5.16-3.16-.71-.6-.47-2.22-.87-2.77-.26-.36-1.71-.62-2.19-.57ZM365.45,88.13c-.36-.36-1.89,1.21-1.64,1.43.95.1,1.69-.43,1.64-1.43ZM362.38,93.25c-.77-.23-1.02-1.18-1.77-1.61-.98-.57-2.39-.5-3.49-1.02s-1.81-1.72-2.93-2.29c.12.65-.4,1.15-.43,1.74-.02.47.23.94.24,1.43,0,.46-1.06,3.97-1.29,4.46-.14.3-1.62,1.78-1.39,1.99,2.58.24,4.2,2.67,6.66,3.46.18-.38.9-.94,1.02-1.21.19-.43.05-.92.22-1.42.2-.6,1.12-1.16,1.37-1.9.37-1.11.14-2.98,1.79-3.22v-.4ZM268.6,88.95l-6.02,3.09c-1.22,1.56.2,1.58.9,2.39.56.65.84,1.78,1.34,2.49.47.67,1.32,1.2,1.82,1.87.32.43,1.28,2.54,1.67,2.63,1.52-.6,2.99-1.41,4.16-2.57-.11-.4-.39-.67-.51-1.09-.46-1.56-1.33-4.34-2.34-5.64-.83-1.06-2.25-1.53-1.02-3.18ZM249.96,91.6c-2.66-.23-5.13.72-5.84,3.48-.55,2.13-.18,1.54.81,2.89.32.44.4,1.04.83,1.42l4.73-4.3c-.29-1.2-.73-2.17-.53-3.48ZM252.01,94.26c-.14-.8-.47-1.65-1.23-2.04-.13.81.22,1.5.41,2.25l.82-.21ZM261.02,92.84l-5.53,3.37c-.77,1.65,1.11,2.07,1.95,2.97.58.62.79,1.43,1.24,2.04.92,1.24,2.12,2.49,3.07,3.71l5-2.78c-.79-.67-1.11-1.93-1.63-2.66-.46-.64-1.36-1.17-1.81-1.87-.41-.65-.51-1.46-.97-2.1-.61-.87-2.11-1.23-1.32-2.67ZM382.03,102.44c.1-.07.65-2.13.65-2.33,0-.58-.18-2.42-.28-3.03-.36-2.17-2.7-3.8-4.78-4.02-2.57-.26-1.18,1.01-2.74,2.33,1.26,1.98,4.08,3.13,5.32,4.91.37.54.83,2.81,1.83,2.13ZM369.28,101.37c.27-.3.33-.9.67-1.27.37-.4,1.76-.74,1.64-1.22s-7.06-4.41-8.06-4.79c-1.44.81-.94,2.24-1.4,3.52-.31.87-1.13,1.46-1.48,2.21-.36.79-.12,1.72-1.34,2.13,1.76,1.53,3.24,3.4,5.53,4.2-.13-1.43,1.37-1.33,2.04-1.95.45-.42.71-1.48,1.24-2.04.35-.36.94-.52,1.17-.78ZM240.28,97.17c-1.55.46.71,5.15,1.36,5.06l1.96-1.35c-.34-.88-.33-2.45-.64-3.2-.29-.69-2.09-.69-2.68-.52ZM256.25,99.86c-.34-.3-.96-.33-1.38-.77-.54-.58-.45-1.38-.92-1.94l-5.83,4.4c.48.68,1.33.59,1.84,1.22.37.45.37.99.64,1.41.39.61,1.42,2.11,1.84,2.66s1.34,1.01,1.81,1.67c.42.59.5,1.19.92,1.74l5.42-4.61-1.32-1.34c-.83-.79-2.43-3.88-3.04-4.43ZM371.8,112.69c-.08-1.26,1.35-1.82,2.15-2.66.43-.45.66-1.13,1.11-1.55s1.09-.5,1.43-.82c.37-.34.49-.96,1.03-1.43s1.15-.54,1.62-1.01c-.48-.52-.35-1.6-.8-2.05-.25-.25-.86-.37-1.21-.63-1.43-1.08-2.7-2.38-4.21-3.36.18,1.69-.96,1.53-1.63,2.26-.29.31-.33.88-.58,1.16s-.9.48-1.28.87c-.54.56-.78,1.45-1.31,1.96-.69.65-1.76.59-2.25,1.45.72,1.57,2.2,2.05,3.36,2.94,1.06.8,1.53,2.06,2.56,2.87ZM250.31,106c-.84-1.02-.89-1.14-1.6-2.19-.38-.56-1.52-.79-1.41-1.76-1.3.64-1.79,2.35-3.27,2.66v.3s7.28,8.1,7.28,8.1l2.66-1.85.09-.3c-.65-.46-.76-1.34-1.22-1.86s-1.24-.85-1.73-1.55c-.33-.47-.49-1.19-.79-1.56ZM327.16,111.47c-2.15-.88-4.15,0-6.24.01-1.08.01-2.06-.46-3.07-.44-1.3.02-2.83.76-4.2.63-.37,1.62.43,3.01.59,4.42.1.86-.04,1.75.04,2.62.09,1.07.77,2.09.19,3.39l10.24,1.02c.36-2.27.72-4.54,1.08-6.81.08-.5.4-1.01.45-1.56.11-1.35-.48-2.17.93-3.3ZM309.86,122.11c1.06-.03,2.12.02,3.17,0,.27-1.08-.33-2.03-.41-2.97-.08-.93.07-1.93,0-2.86-.12-1.53-.85-2.78,0-4.4l-4.51-.21c-.56,1.66,1.02,2.55,1.22,3.8.2,1.25.22,4.12.23,5.53,0,.36,0,.71-.21,1.02l.3.3c.08,0,.14-.2.2-.2ZM334.53,112.7c-.82-.14-6.25-.97-6.53-.8-.68.43-.17,2.74-.23,3.56-.13,1.52-.55,3.41-.8,4.93-.2,1.2.06,2.18-1.04,3.16l4.1.41c-.45-1.71.81-2.89,1.14-4.29.33-1.4.1-1.92.95-3.35.68-1.15,1.76-2.39,2.42-3.62ZM307.09,112.08l-5.32.2c-.43,1.57.84,2.38,1.18,3.63.29,1.07.04,2.11.11,3s.93,1.87.34,2.79c1.56-.25,3.16-.34,4.71,0-.7-1.78-.12-3.97-.36-5.66-.19-1.35-1.5-2.25-.66-3.96ZM302.18,122.11c.27-.27-.54-2.49-.6-2.99-.11-.91.17-1.79-.07-2.8-.32-1.39-1.55-2.14-.77-3.84l-5.13,1.12c-.41,1.12.66,1.84,1.08,2.62s.43,1.46.73,2.13c.22.48.81.86.97,1.48.21.81.05,1.65.1,2.46l3.69-.21ZM341.5,115.56c-1.62-1.42-4.29-1.06-6.14-2.25.47,2.03-1.34,3.06-1.95,4.5-.35.84-.35,1.77-.66,2.62-.41,1.14-1.36,2.19-1.4,3.53l4.82,1.43c-.75-1.91,1.13-3.57,2.01-5.05s1.52-3.17,2.69-4.47c.16-.17.38-.3.62-.3ZM294.81,113.92c-.63.24-4.86,1.92-4.92,2.18-.37,1.48,1.29,1.59,1.81,2.67.23.49,1,2.39,1.18,2.92.15.45.19,2.38.61,2.46l3.79-1.57c.01-.78.05-1.47-.2-2.23-.2-.61-.6-.84-.78-1.26-.27-.62-.25-1.32-.5-1.96-.42-1.08-1.6-1.91-.98-3.21ZM292.35,124.77c-.64-.59-.5-1.34-.76-2-.36-.92-.88-2.49-1.25-3.26-.5-1.05-2.15-1.47-1.48-3.13-.76.38-1.61.44-2.39.78-.48.21-3.09,1.71-2.71,2.26.55.24,1.38.97,1.71,1.47.27.42.31.95.55,1.29.88,1.27,2.16,2.42,2.43,4.02l3.89-1.44ZM347.02,119.45c-1.99-.07-3.49-1.2-4.71-2.66-.04,1.29-1.06,1.93-1.61,2.8-.39.62-.49,1.37-.88,1.98-.85,1.33-2.48,2.32-2.54,4.24l4.01,2.04c.04-3.32,3.19-4.83,4.4-7.58l1.34-.81ZM282.93,119.24c-1.2.54-2.64.1-3.68.92.56.26.29,1.03.44,1.3.05.08.81.3,1.06.48.95.67.74,1.49,1.18,2.3.25.46.86.8,1.17,1.29.55.86.97,2.23,1.57,3.14l2.76-1.94c-.63-.89-1.19-1.83-1.75-2.75-.58-.95-.95-1.71-1.48-2.61-.44-.74-1.34-1.12-1.27-2.11ZM351.92,122.95c-1.78-.71-2.57-2.79-4.48-3.3.19.78-.79,2.46-1.26,3.14-.72,1.02-1.83,1.78-2.59,2.94-.46.7-.67,1.59-1.23,2.25l.06.26c.44.65.96,1.23,1.54,1.76.17.15,1.51,1.27,1.64,1.12-.04-1.63,1.56-2.59,2.56-3.68.46-.5.87-1.26,1.35-1.72.92-.87,2.42-1.2,2.41-2.76ZM278.69,122.46c-.35-.43-.15-.95-.37-1.37-1.04,1.46-2.79,1.55-4.23,2.33-1.23.67-1.94,1.71-2.95,2.58-.17.15-.49.19-.51.21-.15.15.38.31.58.53.67.77,1.09,1.78,1.77,2.54.71.8,1.77,1.18,2.36,1.94.55.71,1.14,2.14,1.64,2.97.44.32,1.69-1.82,2.26-1.93.87-1.14-1.28-2.23-1.86-2.88-.54-.61-.76-1.44-1.23-2.05-.84-1.1-2.93-2-1.33-3.58.52-.11.48.83.7,1.14.24.34,1.2.72,1.65,1.22.57.61.93,1.68,1.43,2.26.65.74,2.12,1.24,2.05,2.56l3.68-1.85c.02-.34-.45-.19-.72-.4-.66-.5-2.5-3.13-3-3.96-.25-.43-.42-1.3-.63-1.52s-1.07-.42-1.32-.72ZM353.93,124.22c-.06-.07-.53-.28-.55-.26-.08,1.67-1.33,1.89-2.26,2.76-.52.48-3.97,4-4.11,4.29-1.24,2.72,1.55,2.32,2.81,3.99l7.23-6.87c.08-.45-1.65-1.58-2.03-2.02-.48-.56-.76-1.52-1.09-1.88ZM276.38,135.01c-1.55-.29-1.61-1.63-2.25-2.56-.48-.69-1.51-1.19-2.13-1.96-.87-1.06-1.39-2.56-1.76-3.87-1.26.83-3.07.69-3.39,2.46l7.08,7.48c.87-.39,1.95-.64,2.46-1.54ZM313.24,129.48l-2.26.3v1.75s2.26-.21,2.26-.21c-.16-.66-.38-1.2,0-1.84ZM316.51,129.48h-2.66s.24,1.8.24,1.8l2.42.24v-2.05ZM319.98,130.11l-2.65-.43v2.05s2.46.41,2.46.41l.19-2.03ZM309.94,129.91c-1.14.01-2.35-.2-3.44.21l.19,1.81,3.47-.19-.23-1.82ZM304.23,132.76l1.84-.72c-.4-.56-.62-1.25-.61-1.95l-1.84.41.62,2.25ZM323.27,130.92l-2.25-.62c.04.64-.72,1.72-.32,2.27.17.24,1.1.29,1.31.16.09-.06.8-1.58,1.26-1.81ZM302.78,130.92l-2.03.61,1.04,2.03,1.62-.4-.63-2.24ZM324.19,131.33l-1.29,1.73,1.49,1.12,1.33-1.72-1.53-1.14ZM299.89,132.17c-.3-.17-1,.2-1.19.5l1.13,2.14,1.31-.72-1.26-1.92ZM317.32,132.98c-.82-.55-7.86.01-9.28.22-5.99.85-15.81,6.51-16.51,13.18-.31,2.95.96,3.07,2.45,4.92,4.53,5.6,10.09,9.2,17.72,8.69,8.19-.54,18.56-7.77,17.49-16.87-.49-4.12-6.1-8.8-9.96-9.49-.59-.1-1.18,0-1.77-.08l-.14-.57ZM295.63,134.39l2.15,1.81,1.52-1.12-1.52-2.07-2.15,1.38ZM328.59,134.6c.13-.19-1.61-1.35-1.92-1.41l-1.56,1.61,1.75.82,1.74-1.02ZM292.55,136.44c.72-.22,2.37,1.44,2.73,1.41l1.77-1.3c-.89-.59-1.68-2.09-2.78-1.55-.51.25-1.34.99-1.72,1.45ZM327.37,136.04c-.06.08,1.03,1.27,1.33,1.23l1.53-1.13-1.12-1.09-1.74.99ZM294.81,138.29l-2.97-1.41-1.12,1.61c1.04-.04,2.26.21,2.97,1.02l1.13-1.22ZM331.67,138.49l-.92-1.63-1.53,1.03.61,1.63,1.84-1.03ZM289.69,140.74c.99.03,2.05-.25,2.76.61l.91-1.33c-1.16-.87-3.69-1.38-3.68.72ZM332.28,139.31l-2.05.83.21.81,2.05-.41-.21-1.23ZM332.9,143.2l-.21-2.25c-1.06,1.01-2.26.62-1.84,2.46l2.05-.2ZM292.14,141.77c-.93-.31-1.83-.57-2.84-.38l-.64,2.22c1.37-.47,3.4.1,3.48-1.84ZM291.12,144.02l-2.66.2v2.05s2.22-.65,2.22-.65l.44-1.6ZM332.89,144.02l-2.02.44-.14,1.41,1.96.41.21-2.25ZM290.51,146.27l-1.82.64-.03,1,1.62-.42.22-1.21ZM332.69,146.89l-2.05.1c-.29.17-.77,1.74-.6,1.94l2.03.63.62-2.66ZM289.28,150.16l1.41-.74-.5-1.51-1.32.83.4,1.41ZM331.67,149.96l-2.04-.41-.8,1.57c-.07.69,2.19.61,1.82,1.71l-2.53-.59-.95,1.1c.54.25,1.93,1.93,2.45,1.65.52-.43,2.25-4.85,2.05-5.03ZM292.55,151.59l-1.37-1.4-1.7.6.61,2.04,2.45-1.23ZM292.86,151.8l-2.33,1.73.89,1.33,2.34-1.55-.91-1.51ZM326.55,153.84c-.19.93-1.33,1.18-1.84,1.95l2.32,1.5,1.98-1.5-2.45-1.95ZM297.66,156.94l-3.39-2.87-2.53,1.42,1.54,2.04c.04-.4,2.43-1.77,2.56-1.64,0,.55-.9,1.6-1.32,1.85-.7.42-1.13-.29-1.13.29l2.56,1.95,1.72-3.05ZM326.14,157.74l-2.36-1.18-1.53,1.27,1.53,1.49c.64-.39,1.48-.74,2.1-1.13.2-.13.37.02.26-.46ZM298.29,161.22c0-1.14,1.43-2.68.31-3.48l-2.15,2.56,1.84.92ZM321.84,158.14l-2.04,1.33.94,1.32,2.13-1.11c-.43-.48-1.07-.8-1.02-1.54ZM301.95,159.6l-1.81-.63-1.03,2.86,2.46.82.39-3.05ZM319.79,161.21l-.94-1.4-1.74.72.22,1.3,2.46-.62ZM304.43,163.26l.39-2.53-1.83-.74c0,.93-.38,1.88-1.02,2.56l2.45.72ZM307.49,161.22l-1.83-.42-.82,2.66,2.66.2c-.48-.8.15-1.58,0-2.45ZM316.09,160.81l-1.83.41.2,1.63,2.25-.62-.63-1.43ZM313.23,161.43h-1.63c.05.75.04,1.4-.41,2.04l2.66-.41-.62-1.63ZM310.37,161.63l-1.85.09-.6,1.96,2.87-.21c-.3-.57-.46-1.19-.41-1.84Z"/>
    <path class="cls-1" d="M319.94,122.05c-.27.23-.62.28-.96.27.02-1.85.7-3.99.63-5.84-.06-1.52-1.54-2.79-.33-4.21.5-.59,1.9-.89,1.65-.2-1.32,1.24-.38,1.69-.04,2.91.41,1.44.2,6.1-.94,7.07Z"/>
  </g>
  <g>
    <path class="cls-1" d="M179.09,184.38c-4.07,1.21-8.48-.08-9.64-4.49-1.96.17-4.38.64-6.11-.54-.44-.3-2.2-1.86-2.44-2.27-.53-.91-.39-1.93-.67-2.92-3.35.17-7.09-1.35-7.53-5.06-.12-.96-.14-3.13-.03-4.08.19-1.56,4.07-5.69,5.32-6.96,10.46-10.62,20.91-21.23,31.43-31.84,10.79-10.87,19.95-23.2,36.86-24.16,15.49-.88,22.19,10.51,31.34,20.49,10.04,10.96,20.52,21.56,30.51,32.55,2.3,2.53,5.21,5.23,7.27,7.89,2.41,3.12,4.39,8.19-1.92,6.87l-.23.17c0,4.06-3.4,5.77-7.06,5.64-1.17,2.72-4.26,5.36-7.37,3.79-.31,4.2-3.78,5.81-7.56,4.52-1.16,3.94-4.67,6.2-8.61,4.29-1.13,3.04-4.89,4.02-7.87,3.66-.66-.08-1.8-.65-2.27-.6s-1.93,1.54-2.63,1.88c-2.19,1.07-6.34,1.54-8.02-.64-1.35,1.49-1.95,2.59-4.12,2.83-2.3.25-4.46.18-5.71-2.02-1.29,1.83-4.04,2.94-6.25,2.36-.82-.22-2.24-1.75-2.55-1.75-4.08,2.29-9.54,3.65-12.11-1.41-3.52,2.03-8.37,2.28-10.62-1.63-4.21,2.73-8.38,1.84-10.65-2.67-1.76,1.05-4.31,1.67-6.36,1.42s-4.58-3.26-4.4-5.33ZM212.88,189.7c.49,1.15-1.01,1.98-.89,2.61.85,4.59,8.13,2.76,10.68.78l-.39-2.23-.31-.31-9.08-.85ZM224.55,190.32c.54,1.21.14,2.19-.56,3.17,1.36,2.13,4.76,1.62,6.4.1,1.78-1.64.14-1.81.1-3.68-2.09-.23-3.92-.32-5.93.4ZM232.74,190.11c.03,1.84-.68,2.72,1.13,3.89,1.03.67,3.8.46,4.93.02.35-.14,2.04-1.74,2.11-2-.39-.96-1.01-1.71-1.01-2.92-2.43.1-4.7,1.25-7.16,1.02ZM202.88,188.71l-1.44,1.88c1.77,3.7,6.42,2.86,9.39,1.15-.23-.8-.4-1.36.21-2.03-2.68.5-5.51-.57-8.16-1ZM242.16,188.68c.34,1.91-.29,3.73,2.2,4.25.9.19,3.56-.24,4.47-.56,1.01-.36,1.75-1.06,2.55-1.75-1.03-.83-1.44-2.08-1.43-3.38l-7.78,1.44ZM222.71,190.52l.51,2.04c.68-.52.8-1.22.72-2.04h-1.23ZM190.78,187.68c1.26,4.49,6.13,5.24,9.37,2.29l.02-2.5c-2.47-.92-5.02-1.34-7.63-1.68-.4.76-.87,1.58-1.75,1.88ZM253.22,190.32c2.89,1.04,7.2.54,8.35-2.73-.82-1.19-1.6-1.85-1.83-3.38-2.81-.27-5.15.74-7.55,2.02.21.77.94,1.19,1.14,2.03.18.75.1,1.34-.12,2.06ZM250.97,187.25c0,.94.36,1.98,1.23,2.46.36-.97-.14-2.21-1.23-2.46ZM180.13,183.99c.03,2.61,2.11,4.86,4.79,4.69.77-.05,4.34-.89,4.58-1.57.36-1.83.33-2.67-1.33-3.72-1.46-.93-3.4-.86-4.98-1.47-.22,1.3-1.94,1.85-3.06,2.06ZM269.19,180.08c-2.46.6-4.43,2.19-6.67,3.27-.19.26.27.96.31,1.36.16,1.44-.45,2.68,1.37,2.93,3.68.52,5.05-1.39,6.4-4.42-.78-1.01-1.28-1.82-1.4-3.14ZM211.44,186.84h10.24c.33-1.62-.96-2.13-1.18-3.64-.14-.99.13-1.79.09-2.58-.02-.39-.31-.86-.35-1.45-.05-.73-.13-1.95.43-2.45,1.45-1.33,1.14,1.8,1.23,2.43.22,1.58.16,2.17.24,3.64.08,1.35,1.61,2.23.77,3.84,2.33-.55,4.42.43,6.75.2.65-1.75-.74-2.71-.97-4.24-.12-.8.02-1.6-.07-2.39-.13-1.24-.89-2.44.02-3.8-2.94-.82-5.63-.12-8.49,0-3.05.13-4.27-.77-6.76-1.03-2.32-.25-4.59.38-6.94-.02-1.08-.18-2.09-.59-3.09-1,.05.56-.43,1.21-.47,1.58-.05.39.19.83.15,1.36-.05.74-.56,1.55-.61,2.29-.07.99.35,1.92.19,3.05-.11.81-.58,1.25-.8,1.96,2.94.07,5.96,1.9,8.71,2.25.51.07.2-.11.21-.22.3-1.98-.05-2.09-.13-3.77-.04-.83.23-1.5.23-2.26,0-1.09-.74-4.64.91-5.02s.5,2.12.49,2.97c-.02,1.33.04,2.77.04,4.11,0,1.04.59,2.61-.12,3.56-.25.33-.68.28-.72.61ZM230.9,186.63c2.76-.44,5.66-.25,8.31-1.22.19-1.42-.98-2.32-1.26-3.48-.13-.55-.05-1.12-.18-1.66-.41-1.65-1.18-2.83-.53-4.7-2.34.67-4.73.96-7.17.82.18.64-.23,1.4-.2,1.94.03.46.5,1.06.59,1.67.13.9-.1,1.9.07,2.8.24,1.27,1.36,2.29.36,3.83ZM260.8,183.77c.23.77.23,1.86,1.02,2.25l-.4-2.11-.62-.14ZM239.91,185.4l9.01-1.84c-.18-1.49-1.45-2.11-2.02-3.4-.28-.63-.99-2.36-1.16-2.93-.22-.71-.04-1.53-.09-2.26-2.48-.08-4.93.02-7.37.41.67.68.29,1.48.45,2.31.24,1.21.57,2.29.82,3.68.23,1.28,1.56,2.61.36,4.04ZM192.6,181.11c.37,1.43,7.53,3.12,7.96,2.84.88-1.81-.03-3.6.28-5.56.08-.49.39-1.02.52-1.53.25-1.02-.14-1.85,1.07-2.61-.14-.2-.26-.27-.51-.31-1.54-.25-3.24-.12-4.82-.5-1.02-.25-1.87-.84-2.86-1.13.56.86-.28,1.58-.4,2.37-.24,1.58.15,5.21-.75,6.22-.12.14-.3.23-.49.22ZM170.71,179.28c.28,4.1,4.84,5.49,8.26,4.1.21-.9.16-1.91.93-2.58-2.28-1.29-4.56-2.31-6.45-4.2,0,1.59-1.34,2.37-2.74,2.68ZM271.69,182.49c2.7,1.68,5.87-.24,6.11-3.34l-1.23-2.26-.28-.06-5.02,2.46.42,3.2ZM249.94,183.15l7.96-2.79c.31-.91-1.18-1.9-1.7-2.75-.26-.44-1.57-2.91-1.66-3.25-.16-.6-.33-2.25.46-2.44,1.02-.25.94,1.42,1.14,1.87.38.84,1.04,2.21,1.47,3.03.64,1.22,2.07,1.88,1.34,3.47l8.6-2.87c-.71-.41-.5-.85-.81-1.34-.25-.4-.88-.65-1.21-1.05-1.34-1.6-1.1-2.73-1.78-4.16-.18-.38-.73-.56-.87-1.18-.12-.55-.01-1.14-.04-1.7-5.1,2.48-10.18,4.98-15.68,6.54.18.66.21,1.41.42,2.06.27.83.73,2.35,1.03,3.07.47,1.14,1.82,1.8,1.33,3.48ZM180.11,182.95c.83,0,1.53-.54,2.04-1.12-.25-.33-1.03-.69-1.39-.48l-.65,1.6ZM182.78,178.24c1.21.33,2.49.54,3.68.92,1.09.35,4.41,2.03,5.27,1.28.61-.53.02-2.37.04-3.11.02-.62.48-3.04.68-3.64.23-.7.78-1.2,1.17-1.79-.99-.27-2.3-.57-3.21-.99-1.45-.66-2.36-2.18-4.16-2.29.05.97-.87,1.63-1.17,2.42-.19.5-.95,2.8-1.04,3.26-.3,1.49.43,2.88-1.27,3.94ZM162.37,177.14c.2.23,1.83,1.63,2.06,1.72,1.56.6,3.43.3,5.01-.04l.96-2.63,1.52-.62c-2.66-1.28-5.76-1.24-8.26-2.85l-2.19,1.34c.14,1.11.15,2.19.91,3.07ZM281.32,179.01c1.24-.13,3.85-2.36,4.02-3.59.09-.66-.52-.63-.88-1.09-.47-.59-.61-1.25-1.05-1.83-.81.3-5.15,2.51-5.16,3.16.71.6.47,2.22.87,2.77.26.36,1.71.62,2.19.57ZM170.9,178.03c.36.36,1.89-1.21,1.64-1.43-.95-.1-1.69.43-1.64,1.43ZM173.97,172.91c.77.23,1.02,1.18,1.77,1.61.98.57,2.39.5,3.49,1.02s1.81,1.72,2.93,2.29c-.12-.65.4-1.15.43-1.74.02-.47-.23-.94-.24-1.43,0-.46,1.06-3.97,1.29-4.46.14-.3,1.62-1.78,1.39-1.99-2.58-.24-4.2-2.67-6.66-3.46-.18.38-.9.94-1.02,1.21-.19.43-.05.92-.22,1.42-.2.6-1.12,1.16-1.37,1.9-.37,1.11-.14,2.98-1.79,3.22v.4ZM267.76,177.21l6.02-3.09c1.22-1.56-.2-1.58-.9-2.39-.56-.65-.84-1.78-1.34-2.49-.47-.67-1.32-1.2-1.82-1.87-.32-.43-1.28-2.54-1.67-2.63-1.52.6-2.99,1.41-4.16,2.57.11.4.39.67.51,1.09.46,1.56,1.33,4.34,2.34,5.64.83,1.06,2.25,1.53,1.02,3.18ZM286.39,174.55c2.66.23,5.13-.72,5.84-3.48.55-2.13.18-1.54-.81-2.89-.32-.44-.4-1.04-.83-1.42l-4.73,4.3c.29,1.2.73,2.17.53,3.48ZM284.34,171.9c.14.8.47,1.65,1.23,2.04.13-.81-.22-1.5-.41-2.25l-.82.21ZM275.33,173.32l5.53-3.37c.77-1.65-1.11-2.07-1.95-2.97-.58-.62-.79-1.43-1.24-2.04-.92-1.24-2.12-2.49-3.07-3.71l-5,2.78c.79.67,1.11,1.93,1.63,2.66.46.64,1.36,1.17,1.81,1.87.41.65.51,1.46.97,2.1.61.87,2.11,1.23,1.32,2.67ZM154.33,163.72c-.1.07-.65,2.13-.65,2.33,0,.58.18,2.42.28,3.03.36,2.17,2.7,3.8,4.78,4.02,2.57.26,1.18-1.01,2.74-2.33-1.26-1.98-4.08-3.13-5.32-4.91-.37-.54-.83-2.81-1.83-2.13ZM167.07,164.79c-.27.3-.33.9-.67,1.27-.37.4-1.76.74-1.64,1.22s7.06,4.41,8.06,4.79c1.44-.81.94-2.24,1.4-3.52.31-.87,1.13-1.46,1.48-2.21.36-.79.12-1.72,1.34-2.13-1.76-1.53-3.24-3.4-5.53-4.2.13,1.43-1.37,1.33-2.04,1.95-.45.42-.71,1.48-1.24,2.04-.35.36-.94.52-1.17.78ZM296.08,168.98c1.55-.46-.71-5.15-1.36-5.06l-1.96,1.35c.34.88.33,2.45.64,3.2.29.69,2.09.69,2.68.52ZM280.1,166.3c.34.3.96.33,1.38.77.54.58.45,1.38.92,1.94l5.83-4.4c-.48-.68-1.33-.59-1.84-1.22-.37-.45-.37-.99-.64-1.41-.39-.61-1.42-2.11-1.84-2.66s-1.34-1.01-1.81-1.67c-.42-.59-.5-1.19-.92-1.74l-5.42,4.61,1.32,1.34c.83.79,2.43,3.88,3.04,4.43ZM164.55,153.46c.08,1.26-1.35,1.82-2.15,2.66-.43.45-.66,1.13-1.11,1.55s-1.09.5-1.43.82c-.37.34-.49.96-1.03,1.43s-1.15.54-1.62,1.01c.48.52.35,1.6.8,2.05.25.25.86.37,1.21.63,1.43,1.08,2.7,2.38,4.21,3.36-.18-1.69.96-1.53,1.63-2.26.29-.31.33-.88.58-1.16s.9-.48,1.28-.87c.54-.56.78-1.45,1.31-1.96.69-.65,1.76-.59,2.25-1.45-.72-1.57-2.2-2.05-3.36-2.94-1.06-.8-1.53-2.06-2.56-2.87ZM286.05,160.16c.84,1.02.89,1.14,1.6,2.19.38.56,1.52.79,1.41,1.76,1.3-.64,1.79-2.35,3.27-2.66v-.3s-7.28-8.1-7.28-8.1l-2.66,1.85-.09.3c.65.46.76,1.34,1.22,1.86s1.24.85,1.73,1.55c.33.47.49,1.19.79,1.56ZM209.19,154.69c2.15.88,4.15,0,6.24-.01,1.08-.01,2.06.46,3.07.44,1.3-.02,2.83-.76,4.2-.63.37-1.62-.43-3.01-.59-4.42-.1-.86.04-1.75-.04-2.62-.09-1.07-.77-2.09-.19-3.39l-10.24-1.02c-.36,2.27-.72,4.54-1.08,6.81-.08.5-.4,1.01-.45,1.56-.11,1.35.48,2.17-.93,3.3ZM226.49,144.05c-1.06.03-2.12-.02-3.17,0-.27,1.08.33,2.03.41,2.97s-.07,1.93,0,2.86c.12,1.53.85,2.78,0,4.4l4.51.21c.56-1.66-1.02-2.55-1.22-3.8s-.22-4.12-.23-5.53c0-.36,0-.71.21-1.02l-.3-.3c-.08,0-.14.2-.2.2ZM201.82,153.46c.82.14,6.25.97,6.53.8.68-.43.17-2.74.23-3.56.13-1.52.55-3.41.8-4.93.2-1.2-.06-2.18,1.04-3.16l-4.1-.41c.45,1.71-.81,2.89-1.14,4.29s-.1,1.92-.95,3.35c-.68,1.15-1.76,2.39-2.42,3.62ZM229.26,154.08l5.32-.2c.43-1.57-.84-2.38-1.18-3.63-.29-1.07-.04-2.11-.11-3s-.93-1.87-.34-2.79c-1.56.25-3.16.34-4.71,0,.7,1.78.12,3.97.36,5.66.19,1.35,1.5,2.25.66,3.96ZM234.17,144.05c-.27.27.54,2.49.6,2.99.11.91-.17,1.79.07,2.8.32,1.39,1.55,2.14.77,3.84l5.13-1.12c.41-1.12-.66-1.84-1.08-2.62s-.43-1.46-.73-2.13c-.22-.48-.81-.86-.97-1.48-.21-.81-.05-1.65-.1-2.46l-3.69.21ZM194.86,150.6c1.62,1.42,4.29,1.06,6.14,2.25-.47-2.03,1.34-3.06,1.95-4.5.35-.84.35-1.77.66-2.62.41-1.14,1.36-2.19,1.4-3.53l-4.82-1.43c.75,1.91-1.13,3.57-2.01,5.05s-1.52,3.17-2.69,4.47c-.16.17-.38.3-.62.3ZM241.55,152.24c.63-.24,4.86-1.92,4.92-2.18.37-1.48-1.29-1.59-1.81-2.67-.23-.49-1-2.39-1.18-2.92-.15-.45-.19-2.38-.61-2.46l-3.79,1.57c-.01.78-.05,1.47.2,2.23.2.61.6.84.78,1.26.27.62.25,1.32.5,1.96.42,1.08,1.6,1.91.98,3.21ZM244,141.39c.64.59.5,1.34.76,2,.36.92.88,2.49,1.25,3.26.5,1.05,2.15,1.47,1.48,3.13.76-.38,1.61-.44,2.39-.78.48-.21,3.09-1.71,2.71-2.26-.55-.24-1.38-.97-1.71-1.47-.27-.42-.31-.95-.55-1.29-.88-1.27-2.16-2.42-2.43-4.02l-3.89,1.44ZM189.33,146.71c1.99.07,3.49,1.2,4.71,2.66.04-1.29,1.06-1.93,1.61-2.8.39-.62.49-1.37.88-1.98.85-1.33,2.48-2.32,2.54-4.24l-4.01-2.04c-.04,3.32-3.19,4.83-4.4,7.58l-1.34.81ZM253.42,146.91c1.2-.54,2.64-.1,3.68-.92-.56-.26-.29-1.03-.44-1.3-.05-.08-.81-.3-1.06-.48-.95-.67-.74-1.49-1.18-2.3-.25-.46-.86-.8-1.17-1.29-.55-.86-.97-2.23-1.57-3.14l-2.76,1.94c.63.89,1.19,1.83,1.75,2.75s.95,1.71,1.48,2.61c.44.74,1.34,1.12,1.27,2.11ZM184.44,143.2c1.78.71,2.57,2.79,4.48,3.3-.19-.78.79-2.46,1.26-3.14.72-1.02,1.83-1.78,2.59-2.94.46-.7.67-1.59,1.23-2.25l-.06-.26c-.44-.65-.96-1.23-1.54-1.76-.17-.15-1.51-1.27-1.64-1.12.04,1.63-1.56,2.59-2.56,3.68-.46.5-.87,1.26-1.35,1.72-.92.87-2.42,1.2-2.41,2.76ZM257.66,143.7c.35.43.15.95.37,1.37,1.04-1.46,2.79-1.55,4.23-2.33,1.23-.67,1.94-1.71,2.95-2.58.17-.15.49-.19.51-.21.15-.15-.38-.31-.58-.53-.67-.77-1.09-1.78-1.77-2.54-.71-.8-1.77-1.18-2.36-1.94-.55-.71-1.14-2.14-1.64-2.97-.44-.32-1.69,1.82-2.26,1.93-.87,1.14,1.28,2.23,1.86,2.88.54.61.76,1.44,1.23,2.05.84,1.1,2.93,2,1.33,3.58-.52.11-.48-.83-.7-1.14-.24-.34-1.2-.72-1.65-1.22-.57-.61-.93-1.68-1.43-2.26-.65-.74-2.12-1.24-2.05-2.56l-3.68,1.85c-.02.34.45.19.72.4.66.5,2.5,3.13,3,3.96.25.43.42,1.3.63,1.52s1.07.42,1.32.72ZM182.42,141.94c.06.07.53.28.55.26.08-1.67,1.33-1.89,2.26-2.76.52-.48,3.97-4,4.11-4.29,1.24-2.72-1.55-2.32-2.81-3.99l-7.23,6.87c-.08.45,1.65,1.58,2.03,2.02.48.56.76,1.52,1.09,1.88ZM259.98,131.15c1.55.29,1.61,1.63,2.25,2.56.48.69,1.51,1.19,2.13,1.96.87,1.06,1.39,2.56,1.76,3.87,1.26-.83,3.07-.69,3.39-2.46l-7.08-7.48c-.87.39-1.95.64-2.46,1.54ZM223.12,136.67l2.26-.3v-1.75s-2.26.21-2.26.21c.16.66.38,1.2,0,1.84ZM219.84,136.68h2.66s-.24-1.8-.24-1.8l-2.42-.24v2.05ZM216.37,136.05l2.65.43v-2.05s-2.46-.41-2.46-.41l-.19,2.03ZM226.41,136.24c1.14-.01,2.35.2,3.44-.21l-.19-1.81-3.47.19.23,1.82ZM232.12,133.4l-1.84.72c.4.56.62,1.25.61,1.95l1.84-.41-.62-2.25ZM213.08,135.24l2.25.62c-.04-.64.72-1.72.32-2.27-.17-.24-1.1-.29-1.31-.16-.09.06-.8,1.58-1.26,1.81ZM233.57,135.24l2.03-.61-1.04-2.03-1.62.4.63,2.24ZM212.16,134.82l1.29-1.73-1.49-1.12-1.33,1.72,1.53,1.14ZM236.46,133.98c.3.17,1-.2,1.19-.5l-1.13-2.14-1.31.72,1.26,1.92ZM219.03,133.18c.82.55,7.86-.01,9.28-.22,5.99-.85,15.81-6.51,16.51-13.18.31-2.95-.96-3.07-2.45-4.92-4.53-5.6-10.09-9.2-17.72-8.69-8.19.54-18.56,7.77-17.49,16.87.49,4.12,6.1,8.8,9.96,9.49.59.1,1.18,0,1.77.08l.14.57ZM240.73,131.77l-2.15-1.81-1.52,1.12,1.52,2.07,2.15-1.38ZM207.76,131.56c-.13.19,1.61,1.35,1.92,1.41l1.56-1.61-1.75-.82-1.74,1.02ZM243.8,129.72c-.72.22-2.37-1.44-2.73-1.41l-1.77,1.3c.89.59,1.68,2.09,2.78,1.55.51-.25,1.34-.99,1.72-1.45ZM208.99,130.12c.06-.08-1.03-1.27-1.33-1.23l-1.53,1.13,1.12,1.09,1.74-.99ZM241.55,127.87l2.97,1.41,1.12-1.61c-1.04.04-2.26-.21-2.97-1.02l-1.13,1.22ZM204.69,127.67l.92,1.63,1.53-1.03-.61-1.63-1.84,1.03ZM246.66,125.42c-.99-.03-2.05.25-2.76-.61l-.91,1.33c1.16.87,3.69,1.38,3.68-.72ZM204.07,126.85l2.05-.83-.21-.81-2.05.41.21,1.23ZM203.46,122.96l.21,2.25c1.06-1.01,2.26-.62,1.84-2.46l-2.05.2ZM244.21,124.39c.93.31,1.83.57,2.84.38l.64-2.22c-1.37.47-3.4-.1-3.48,1.84ZM245.23,122.14l2.66-.2v-2.05s-2.22.65-2.22.65l-.44,1.6ZM203.46,122.14l2.02-.44.14-1.41-1.96-.41-.21,2.25ZM245.85,119.89l1.82-.64.03-1-1.62.42-.22,1.21ZM203.66,119.27l2.05-.1c.29-.17.77-1.74.6-1.94l-2.03-.63-.62,2.66ZM247.07,116l-1.41.74.5,1.51,1.32-.83-.4-1.41ZM204.69,116.2l2.04.41.8-1.57c.07-.69-2.19-.61-1.82-1.71l2.53.59.95-1.1c-.54-.25-1.93-1.93-2.45-1.65-.52.43-2.25,4.85-2.05,5.03ZM243.8,114.57l1.37,1.4,1.7-.6-.61-2.04-2.45,1.23ZM243.49,114.36l2.33-1.73-.89-1.33-2.34,1.55.91,1.51ZM209.8,112.31c.19-.93,1.33-1.18,1.84-1.95l-2.32-1.5-1.98,1.5,2.45,1.95ZM238.69,109.22l3.39,2.87,2.53-1.42-1.54-2.04c-.04.4-2.43,1.77-2.56,1.64,0-.55.9-1.6,1.32-1.85.7-.42,1.13.29,1.13-.29l-2.56-1.95-1.72,3.05ZM210.22,108.42l2.36,1.18,1.53-1.27-1.53-1.49c-.64.39-1.48.74-2.1,1.13-.2.13-.37-.02-.26.46ZM238.07,104.94c0,1.14-1.43,2.68-.31,3.48l2.15-2.56-1.84-.92ZM214.52,108.01l2.04-1.33-.94-1.32-2.13,1.11c.43.48,1.07.8,1.02,1.54ZM234.4,106.55l1.81.63,1.03-2.86-2.46-.82-.39,3.05ZM216.56,104.94l.94,1.4,1.74-.72-.22-1.3-2.46.62ZM231.92,102.89l-.39,2.53,1.83.74c0-.93.38-1.88,1.02-2.56l-2.45-.72ZM228.86,104.93l1.83.42.82-2.66-2.66-.2c.48.8-.15,1.58,0,2.45ZM220.26,105.35l1.83-.41-.2-1.63-2.25.62.63,1.43ZM223.12,104.73h1.63c-.05-.75-.04-1.4.41-2.04l-2.66.41.62,1.63ZM225.98,104.53l1.85-.09.6-1.96-2.87.21c.3.57.46,1.19.41,1.84Z"/>
    <path class="cls-1" d="M216.42,144.11c.27-.23.62-.28.96-.27-.02,1.85-.7,3.99-.63,5.84.06,1.52,1.54,2.79.33,4.21-.5.59-1.9.89-1.65.2,1.32-1.24.38-1.69.04-2.91-.41-1.44-.2-6.1.94-7.07Z"/>
  </g>
  <g>
    <path class="cls-1" d="M183.12,83.49c4.07-1.21,8.48.08,9.64,4.49,1.96-.17,4.38-.64,6.11.54.44.3,2.2,1.86,2.44,2.27.53.91.39,1.93.67,2.92,3.35-.17,7.09,1.35,7.53,5.06.12.96.14,3.13.03,4.08-.19,1.56-4.07,5.69-5.32,6.96-10.46,10.62-20.91,21.23-31.43,31.84s-19.95,23.2-36.86,24.16c-15.49.88-22.19-10.51-31.34-20.49-10.04-10.96-20.52-21.56-30.51-32.55-2.3-2.53-5.21-5.23-7.27-7.89-2.41-3.12-4.39-8.19,1.92-6.87l.23-.17c0-4.06,3.4-5.77,7.06-5.64,1.17-2.72,4.26-5.36,7.37-3.79.31-4.2,3.78-5.81,7.56-4.52,1.16-3.94,4.67-6.2,8.61-4.29,1.13-3.04,4.89-4.02,7.87-3.66.66.08,1.8.65,2.27.6s1.93-1.54,2.63-1.88c2.19-1.07,6.34-1.54,8.02.64,1.35-1.49,1.95-2.59,4.12-2.83,2.3-.25,4.46-.18,5.71,2.02,1.29-1.83,4.04-2.94,6.25-2.36.82.22,2.24,1.75,2.55,1.75,4.08-2.29,9.54-3.65,12.11,1.41,3.52-2.03,8.37-2.28,10.62,1.63,4.21-2.73,8.38-1.84,10.65,2.67,1.76-1.05,4.31-1.67,6.36-1.42s4.58,3.26,4.4,5.33ZM149.33,78.16c-.49-1.15,1.01-1.98.89-2.61-.85-4.59-8.13-2.76-10.68-.78l.39,2.23.31.31,9.08.85ZM137.66,77.55c-.54-1.21-.14-2.19.56-3.17-1.36-2.13-4.76-1.62-6.4-.1-1.78,1.64-.14,1.81-.1,3.68,2.09.23,3.92.32,5.93-.4ZM129.47,77.75c-.03-1.84.68-2.72-1.13-3.89-1.03-.67-3.8-.46-4.93-.02-.35.14-2.04,1.74-2.11,2,.39.96,1.01,1.71,1.01,2.92,2.43-.1,4.7-1.25,7.16-1.02ZM159.33,79.16l1.44-1.88c-1.77-3.7-6.42-2.86-9.39-1.15.23.8.4,1.36-.21,2.03,2.68-.5,5.51.57,8.16,1ZM120.05,79.18c-.34-1.91.29-3.73-2.2-4.25-.9-.19-3.56.24-4.47.56-1.01.36-1.75,1.06-2.55,1.75,1.03.83,1.44,2.08,1.43,3.38l7.78-1.44ZM139.5,77.34l-.51-2.04c-.68.52-.8,1.22-.72,2.04h1.23ZM171.43,80.19c-1.26-4.49-6.13-5.24-9.37-2.29l-.02,2.5c2.47.92,5.02,1.34,7.63,1.68.4-.76.87-1.58,1.75-1.88ZM108.99,77.55c-2.89-1.04-7.2-.54-8.35,2.73.82,1.19,1.6,1.85,1.83,3.38,2.81.27,5.15-.74,7.55-2.02-.21-.77-.94-1.19-1.14-2.03-.18-.75-.1-1.34.12-2.06ZM111.24,80.62c0-.94-.36-1.98-1.23-2.46-.36.97.14,2.21,1.23,2.46ZM182.08,83.88c-.03-2.61-2.11-4.86-4.79-4.69-.77.05-4.34.89-4.58,1.57-.36,1.83-.33,2.67,1.33,3.72,1.46.93,3.4.86,4.98,1.47.22-1.3,1.94-1.85,3.06-2.06ZM93.02,87.79c2.46-.6,4.43-2.19,6.67-3.27.19-.26-.27-.96-.31-1.36-.16-1.44.45-2.68-1.37-2.93-3.68-.52-5.05,1.39-6.4,4.42.78,1.01,1.28,1.82,1.4,3.14ZM150.76,81.03h-10.24c-.33,1.62.96,2.13,1.18,3.64.14.99-.13,1.79-.09,2.58.02.39.31.86.35,1.45.05.73.13,1.95-.43,2.45-1.45,1.33-1.14-1.8-1.23-2.43-.22-1.58-.16-2.17-.24-3.64-.08-1.35-1.61-2.23-.77-3.84-2.33.55-4.42-.43-6.75-.2-.65,1.75.74,2.71.97,4.24.12.8-.02,1.6.07,2.39.13,1.24.89,2.44-.02,3.8,2.94.82,5.63.12,8.49,0,3.05-.13,4.27.77,6.76,1.03,2.32.25,4.59-.38,6.94.02,1.08.18,2.09.59,3.09,1-.05-.56.43-1.21.47-1.58.05-.39-.19-.83-.15-1.36.05-.74.56-1.55.61-2.29.07-.99-.35-1.92-.19-3.05.11-.81.58-1.25.8-1.96-2.94-.07-5.96-1.9-8.71-2.25-.51-.07-.2.11-.21.22-.3,1.98.05,2.09.13,3.77.04.83-.23,1.5-.23,2.26,0,1.09.74,4.64-.91,5.02s-.5-2.12-.49-2.97c.02-1.33-.04-2.77-.04-4.11,0-1.04-.59-2.61.12-3.56.25-.33.68-.28.72-.61ZM131.31,81.23c-2.76.44-5.66.25-8.31,1.22-.19,1.42.98,2.32,1.26,3.48.13.55.05,1.12.18,1.66.41,1.65,1.18,2.83.53,4.7,2.34-.67,4.73-.96,7.17-.82-.18-.64.23-1.4.2-1.94-.03-.46-.5-1.06-.59-1.67-.13-.9.1-1.9-.07-2.8-.24-1.27-1.36-2.29-.36-3.83ZM101.41,84.1c-.23-.77-.23-1.86-1.02-2.25l.4,2.11.62.14ZM122.3,82.46l-9.01,1.84c.18,1.49,1.45,2.11,2.02,3.4.28.63.99,2.36,1.16,2.93.22.71.04,1.53.09,2.26,2.48.08,4.93-.02,7.37-.41-.67-.68-.29-1.48-.45-2.31-.24-1.21-.57-2.29-.82-3.68-.23-1.28-1.56-2.61-.36-4.04ZM169.6,86.76c-.37-1.43-7.53-3.12-7.96-2.84-.88,1.81.03,3.6-.28,5.56-.08.49-.39,1.02-.52,1.53-.25,1.02.14,1.85-1.07,2.61.14.2.26.27.51.31,1.54.25,3.24.12,4.82.5,1.02.25,1.87.84,2.86,1.13-.56-.86.28-1.58.4-2.37.24-1.58-.15-5.21.75-6.22.12-.14.3-.23.49-.22ZM191.49,88.59c-.28-4.1-4.84-5.49-8.26-4.1-.21.9-.16,1.91-.93,2.58,2.28,1.29,4.56,2.31,6.45,4.2,0-1.59,1.34-2.37,2.74-2.68ZM90.52,85.37c-2.7-1.68-5.87.24-6.11,3.34l1.23,2.26.28.06,5.02-2.46-.42-3.2ZM112.26,84.71l-7.96,2.79c-.31.91,1.18,1.9,1.7,2.75.26.44,1.57,2.91,1.66,3.25.16.6.33,2.25-.46,2.44-1.02.25-.94-1.42-1.14-1.87-.38-.84-1.04-2.21-1.47-3.03-.64-1.22-2.07-1.88-1.34-3.47l-8.6,2.87c.71.41.5.85.81,1.34.25.4.88.65,1.21,1.05,1.34,1.6,1.1,2.73,1.78,4.16.18.38.73.56.87,1.18.12.55.01,1.14.04,1.7,5.1-2.48,10.18-4.98,15.68-6.54-.18-.66-.21-1.41-.42-2.06-.27-.83-.73-2.35-1.03-3.07-.47-1.14-1.82-1.8-1.33-3.48ZM182.09,84.92c-.83,0-1.53.54-2.04,1.12.25.33,1.03.69,1.39.48l.65-1.6ZM179.43,89.63c-1.21-.33-2.49-.54-3.68-.92-1.09-.35-4.41-2.03-5.27-1.28-.61.53-.02,2.37-.04,3.11-.02.62-.48,3.04-.68,3.64-.23.7-.78,1.2-1.17,1.79.99.27,2.3.57,3.21.99,1.45.66,2.36,2.18,4.16,2.29-.05-.97.87-1.63,1.17-2.42.19-.5.95-2.8,1.04-3.26.3-1.49-.43-2.88,1.27-3.94ZM199.84,90.72c-.2-.23-1.83-1.63-2.06-1.72-1.56-.6-3.43-.3-5.01.04l-.96,2.63-1.52.62c2.66,1.28,5.76,1.24,8.26,2.85l2.19-1.34c-.14-1.11-.15-2.19-.91-3.07ZM80.89,88.85c-1.24.13-3.85,2.36-4.02,3.59-.09.66.52.63.88,1.09.47.59.61,1.25,1.05,1.83.81-.3,5.15-2.51,5.16-3.16-.71-.6-.47-2.22-.87-2.77-.26-.36-1.71-.62-2.19-.57ZM191.31,89.83c-.36-.36-1.89,1.21-1.64,1.43.95.1,1.69-.43,1.64-1.43ZM188.24,94.95c-.77-.23-1.02-1.18-1.77-1.61-.98-.57-2.39-.5-3.49-1.02s-1.81-1.72-2.93-2.29c.12.65-.4,1.15-.43,1.74-.02.47.23.94.24,1.43,0,.46-1.06,3.97-1.29,4.46-.14.3-1.62,1.78-1.39,1.99,2.58.24,4.2,2.67,6.66,3.46.18-.38.9-.94,1.02-1.21.19-.43.05-.92.22-1.42.2-.6,1.12-1.16,1.37-1.9.37-1.11.14-2.98,1.79-3.22v-.4ZM94.45,90.65l-6.02,3.09c-1.22,1.56.2,1.58.9,2.39.56.65.84,1.78,1.34,2.49.47.67,1.32,1.2,1.82,1.87.32.43,1.28,2.54,1.67,2.63,1.52-.6,2.99-1.41,4.16-2.57-.11-.4-.39-.67-.51-1.09-.46-1.56-1.33-4.34-2.34-5.64-.83-1.06-2.25-1.53-1.02-3.18ZM75.82,93.31c-2.66-.23-5.13.72-5.84,3.48-.55,2.13-.18,1.54.81,2.89.32.44.4,1.04.83,1.42l4.73-4.3c-.29-1.2-.73-2.17-.53-3.48ZM77.86,95.97c-.14-.8-.47-1.65-1.23-2.04-.13.81.22,1.5.41,2.25l.82-.21ZM86.87,94.54l-5.53,3.37c-.77,1.65,1.11,2.07,1.95,2.97.58.62.79,1.43,1.24,2.04.92,1.24,2.12,2.49,3.07,3.71l5-2.78c-.79-.67-1.11-1.93-1.63-2.66-.46-.64-1.36-1.17-1.81-1.87-.41-.65-.51-1.46-.97-2.1-.61-.87-2.11-1.23-1.32-2.67ZM207.88,104.15c.1-.07.65-2.13.65-2.33,0-.58-.18-2.42-.28-3.03-.36-2.17-2.7-3.8-4.78-4.02-2.57-.26-1.18,1.01-2.74,2.33,1.26,1.98,4.08,3.13,5.32,4.91.37.54.83,2.81,1.83,2.13ZM195.14,103.08c.27-.3.33-.9.67-1.27.37-.4,1.76-.74,1.64-1.22s-7.06-4.41-8.06-4.79c-1.44.81-.94,2.24-1.4,3.52-.31.87-1.13,1.46-1.48,2.21-.36.79-.12,1.72-1.34,2.13,1.76,1.53,3.24,3.4,5.53,4.2-.13-1.43,1.37-1.33,2.04-1.95.45-.42.71-1.48,1.24-2.04.35-.36.94-.52,1.17-.78ZM66.13,98.88c-1.55.46.71,5.15,1.36,5.06l1.96-1.35c-.34-.88-.33-2.45-.64-3.2-.29-.69-2.09-.69-2.68-.52ZM82.1,101.56c-.34-.3-.96-.33-1.38-.77-.54-.58-.45-1.38-.92-1.94l-5.83,4.4c.48.68,1.33.59,1.84,1.22.37.45.37.99.64,1.41.39.61,1.42,2.11,1.84,2.66s1.34,1.01,1.81,1.67c.42.59.5,1.19.92,1.74l5.42-4.61-1.32-1.34c-.83-.79-2.43-3.88-3.04-4.43ZM197.66,114.4c-.08-1.26,1.35-1.82,2.15-2.66.43-.45.66-1.13,1.11-1.55s1.09-.5,1.43-.82c.37-.34.49-.96,1.03-1.43s1.15-.54,1.62-1.01c-.48-.52-.35-1.6-.8-2.05-.25-.25-.86-.37-1.21-.63-1.43-1.08-2.7-2.38-4.21-3.36.18,1.69-.96,1.53-1.63,2.26-.29.31-.33.88-.58,1.16s-.9.48-1.28.87c-.54.56-.78,1.45-1.31,1.96-.69.65-1.76.59-2.25,1.45.72,1.57,2.2,2.05,3.36,2.94,1.06.8,1.53,2.06,2.56,2.87ZM76.16,107.71c-.84-1.02-.89-1.14-1.6-2.19-.38-.56-1.52-.79-1.41-1.76-1.3.64-1.79,2.35-3.27,2.66v.3s7.28,8.1,7.28,8.1l2.66-1.85.09-.3c-.65-.46-.76-1.34-1.22-1.86s-1.24-.85-1.73-1.55c-.33-.47-.49-1.19-.79-1.56ZM153.02,113.17c-2.15-.88-4.15,0-6.24.01-1.08.01-2.06-.46-3.07-.44-1.3.02-2.83.76-4.2.63-.37,1.62.43,3.01.59,4.42.1.86-.04,1.75.04,2.62.09,1.07.77,2.09.19,3.39l10.24,1.02c.36-2.27.72-4.54,1.08-6.81.08-.5.4-1.01.45-1.56.11-1.35-.48-2.17.93-3.3ZM135.71,123.82c1.06-.03,2.12.02,3.17,0,.27-1.08-.33-2.03-.41-2.97-.08-.93.07-1.93,0-2.86-.12-1.53-.85-2.78,0-4.4l-4.51-.21c-.56,1.66,1.02,2.55,1.22,3.8s.22,4.12.23,5.53c0,.36,0,.71-.21,1.02l.3.3c.08,0,.14-.2.2-.2ZM160.39,114.4c-.82-.14-6.25-.97-6.53-.8-.68.43-.17,2.74-.23,3.56-.13,1.52-.55,3.41-.8,4.93-.2,1.2.06,2.18-1.04,3.16l4.1.41c-.45-1.71.81-2.89,1.14-4.29.33-1.4.1-1.92.95-3.35.68-1.15,1.76-2.39,2.42-3.62ZM132.95,113.79l-5.32.2c-.43,1.57.84,2.38,1.18,3.63.29,1.07.04,2.11.11,3s.93,1.87.34,2.79c1.56-.25,3.16-.34,4.71,0-.7-1.78-.12-3.97-.36-5.66-.19-1.35-1.5-2.25-.66-3.96ZM128.03,123.82c.27-.27-.54-2.49-.6-2.99-.11-.91.17-1.79-.07-2.8-.32-1.39-1.55-2.14-.77-3.84l-5.13,1.12c-.41,1.12.66,1.84,1.08,2.62s.43,1.46.73,2.13c.22.48.81.86.97,1.48.21.81.05,1.65.1,2.46l3.69-.21ZM167.35,117.26c-1.62-1.42-4.29-1.06-6.14-2.25.47,2.03-1.34,3.06-1.95,4.5-.35.84-.35,1.77-.66,2.62-.41,1.14-1.36,2.19-1.4,3.53l4.82,1.43c-.75-1.91,1.13-3.57,2.01-5.05s1.52-3.17,2.69-4.47c.16-.17.38-.3.62-.3ZM120.66,115.63c-.63.24-4.86,1.92-4.92,2.18-.37,1.48,1.29,1.59,1.81,2.67.23.49,1,2.39,1.18,2.92.15.45.19,2.38.61,2.46l3.79-1.57c.01-.78.05-1.47-.2-2.23-.2-.61-.6-.84-.78-1.26-.27-.62-.25-1.32-.5-1.96-.42-1.08-1.6-1.91-.98-3.21ZM118.2,126.48c-.64-.59-.5-1.34-.76-2-.36-.92-.88-2.49-1.25-3.26-.5-1.05-2.15-1.47-1.48-3.13-.76.38-1.61.44-2.39.78-.48.21-3.09,1.71-2.71,2.26.55.24,1.38.97,1.71,1.47.27.42.31.95.55,1.29.88,1.27,2.16,2.42,2.43,4.02l3.89-1.44ZM172.88,121.16c-1.99-.07-3.49-1.2-4.71-2.66-.04,1.29-1.06,1.93-1.61,2.8-.39.62-.49,1.37-.88,1.98-.85,1.33-2.48,2.32-2.54,4.24l4.01,2.04c.04-3.32,3.19-4.83,4.4-7.58l1.34-.81ZM108.78,120.95c-1.2.54-2.64.1-3.68.92.56.26.29,1.03.44,1.3.05.08.81.3,1.06.48.95.67.74,1.49,1.18,2.3.25.46.86.8,1.17,1.29.55.86.97,2.23,1.57,3.14l2.76-1.94c-.63-.89-1.19-1.83-1.75-2.75s-.95-1.71-1.48-2.61c-.44-.74-1.34-1.12-1.27-2.11ZM177.77,124.66c-1.78-.71-2.57-2.79-4.48-3.3.19.78-.79,2.46-1.26,3.14-.72,1.02-1.83,1.78-2.59,2.94-.46.7-.67,1.59-1.23,2.25l.06.26c.44.65.96,1.23,1.54,1.76.17.15,1.51,1.27,1.64,1.12-.04-1.63,1.56-2.59,2.56-3.68.46-.5.87-1.26,1.35-1.72.92-.87,2.42-1.2,2.41-2.76ZM104.54,124.17c-.35-.43-.15-.95-.37-1.37-1.04,1.46-2.79,1.55-4.23,2.33-1.23.67-1.94,1.71-2.95,2.58-.17.15-.49.19-.51.21-.15.15.38.31.58.53.67.77,1.09,1.78,1.77,2.54.71.8,1.77,1.18,2.36,1.94.55.71,1.14,2.14,1.64,2.97.44.32,1.69-1.82,2.26-1.93.87-1.14-1.28-2.23-1.86-2.88-.54-.61-.76-1.44-1.23-2.05-.84-1.1-2.93-2-1.33-3.58.52-.11.48.83.7,1.14.24.34,1.2.72,1.65,1.22.57.61.93,1.68,1.43,2.26.65.74,2.12,1.24,2.05,2.56l3.68-1.85c.02-.34-.45-.19-.72-.4-.66-.5-2.5-3.13-3-3.96-.25-.43-.42-1.3-.63-1.52s-1.07-.42-1.32-.72ZM179.78,125.93c-.06-.07-.53-.28-.55-.26-.08,1.67-1.33,1.89-2.26,2.76-.52.48-3.97,4-4.11,4.29-1.24,2.72,1.55,2.32,2.81,3.99l7.23-6.87c.08-.45-1.65-1.58-2.03-2.02-.48-.56-.76-1.52-1.09-1.88ZM102.23,136.72c-1.55-.29-1.61-1.63-2.25-2.56-.48-.69-1.51-1.19-2.13-1.96-.87-1.06-1.39-2.56-1.76-3.87-1.26.83-3.07.69-3.39,2.46l7.08,7.48c.87-.39,1.95-.64,2.46-1.54ZM139.09,131.19l-2.26.3v1.75s2.26-.21,2.26-.21c-.16-.66-.38-1.2,0-1.84ZM142.37,131.19h-2.66s.24,1.8.24,1.8l2.42.24v-2.05ZM145.84,131.82l-2.65-.43v2.05s2.46.41,2.46.41l.19-2.03ZM135.79,131.62c-1.14.01-2.35-.2-3.44.21l.19,1.81,3.47-.19-.23-1.82ZM130.08,134.46l1.84-.72c-.4-.56-.62-1.25-.61-1.95l-1.84.41.62,2.25ZM149.13,132.62l-2.25-.62c.04.64-.72,1.72-.32,2.27.17.24,1.1.29,1.31.16.09-.06.8-1.58,1.26-1.81ZM128.64,132.63l-2.03.61,1.04,2.03,1.62-.4-.63-2.24ZM150.04,133.04l-1.29,1.73,1.49,1.12,1.33-1.72-1.53-1.14ZM125.75,133.88c-.3-.17-1,.2-1.19.5l1.13,2.14,1.31-.72-1.26-1.92ZM143.18,134.68c-.82-.55-7.86.01-9.28.22-5.99.85-15.81,6.51-16.51,13.18-.31,2.95.96,3.07,2.45,4.92,4.53,5.6,10.09,9.2,17.72,8.69,8.19-.54,18.56-7.77,17.49-16.87-.49-4.12-6.1-8.8-9.96-9.49-.59-.1-1.18,0-1.77-.08l-.14-.57ZM121.48,136.1l2.15,1.81,1.52-1.12-1.52-2.07-2.15,1.38ZM154.45,136.3c.13-.19-1.61-1.35-1.92-1.41l-1.56,1.61,1.75.82,1.74-1.02ZM118.41,138.15c.72-.22,2.37,1.44,2.73,1.41l1.77-1.3c-.89-.59-1.68-2.09-2.78-1.55-.51.25-1.34.99-1.72,1.45ZM153.22,137.74c-.06.08,1.03,1.27,1.33,1.23l1.53-1.13-1.12-1.09-1.74.99ZM120.66,140l-2.97-1.41-1.12,1.61c1.04-.04,2.26.21,2.97,1.02l1.13-1.22ZM157.52,140.19l-.92-1.63-1.53,1.03.61,1.63,1.84-1.03ZM115.54,142.45c.99.03,2.05-.25,2.76.61l.91-1.33c-1.16-.87-3.69-1.38-3.68.72ZM158.13,141.02l-2.05.83.21.81,2.05-.41-.21-1.23ZM158.75,144.91l-.21-2.25c-1.06,1.01-2.26.62-1.84,2.46l2.05-.2ZM118,143.48c-.93-.31-1.83-.57-2.84-.38l-.64,2.22c1.37-.47,3.4.1,3.48-1.84ZM116.97,145.73l-2.66.2v2.05s2.22-.65,2.22-.65l.44-1.6ZM158.75,145.73l-2.02.44-.14,1.41,1.96.41.21-2.25ZM116.36,147.98l-1.82.64-.03,1,1.62-.42.22-1.21ZM158.54,148.59l-2.05.1c-.29.17-.77,1.74-.6,1.94l2.03.63.62-2.66ZM115.14,151.87l1.41-.74-.5-1.51-1.32.83.4,1.41ZM157.52,151.66l-2.04-.41-.8,1.57c-.07.69,2.19.61,1.82,1.71l-2.53-.59-.95,1.1c.54.25,1.93,1.93,2.45,1.65.52-.43,2.25-4.85,2.05-5.03ZM118.41,153.3l-1.37-1.4-1.7.6.61,2.04,2.45-1.23ZM118.72,153.51l-2.33,1.73.89,1.33,2.34-1.55-.91-1.51ZM152.41,155.55c-.19.93-1.33,1.18-1.84,1.95l2.32,1.5,1.98-1.5-2.45-1.95ZM123.51,158.64l-3.39-2.87-2.53,1.42,1.54,2.04c.04-.4,2.43-1.77,2.56-1.64,0,.55-.9,1.6-1.32,1.85-.7.42-1.13-.29-1.13.29l2.56,1.95,1.72-3.05ZM151.99,159.45l-2.36-1.18-1.53,1.27,1.53,1.49c.64-.39,1.48-.74,2.1-1.13.2-.13.37.02.26-.46ZM124.14,162.92c0-1.14,1.43-2.68.31-3.48l-2.15,2.56,1.84.92ZM147.69,159.85l-2.04,1.33.94,1.32,2.13-1.11c-.43-.48-1.07-.8-1.02-1.54ZM127.81,161.31l-1.81-.63-1.03,2.86,2.46.82.39-3.05ZM145.64,162.92l-.94-1.4-1.74.72.22,1.3,2.46-.62ZM130.29,164.97l.39-2.53-1.83-.74c0,.93-.38,1.88-1.02,2.56l2.45.72ZM133.35,162.93l-1.83-.42-.82,2.66,2.66.2c-.48-.8.15-1.58,0-2.45ZM141.95,162.52l-1.83.41.2,1.63,2.25-.62-.63-1.43ZM139.08,163.14h-1.63c.05.75.04,1.4-.41,2.04l2.66-.41-.62-1.63ZM136.22,163.33l-1.85.09-.6,1.96,2.87-.21c-.3-.57-.46-1.19-.41-1.84Z"/>
    <path class="cls-1" d="M145.79,123.76c-.27.23-.62.28-.96.27.02-1.85.7-3.99.63-5.84-.06-1.52-1.54-2.79-.33-4.21.5-.59,1.9-.89,1.65-.2-1.32,1.24-.38,1.69-.04,2.91.41,1.44.2,6.1-.94,7.07Z"/>
  </g>
</svg>