<?xml version="1.0" encoding="UTF-8"?>
<svg id="Layer_1" data-name="Layer 1" xmlns="http://www.w3.org/2000/svg" viewBox="0 0 388.38 464.17">
  <defs>
    <style>
      .cls-1 {
        fill: #ffe5b0;
      }
    </style>
  </defs>
  <path class="cls-1" d="M165.14,78.4c.82-5.78,7.11-11.21,11.88-13.98,12.24-7.13,40.12-.25,44.03,14.98.61,2.36-.09,5.89-.15,8.34l10.05-.3c.21-1.51.28-4.53,2.23-4.82.34-.05,3.37.34,3.63.5.39.25.73,1.82.91,1.74.99-.8,2.37-1.53,3.59-1.87,4.84-1.34,12.21-.87,13.52,5.03,2.24-1.25,3.9-2.13,6.5-2.55,14.44-2.3,25.54,12.09,19.13,25.45-3.39,7.07-18.46,11.03-24.63,6.12-.59-.47-.76-1.09-1.29-1.43-.92,4.33-5.66,5.37-9.45,6.07-.4,3.16-1.02,6.4-1.18,9.59-.69,13.28,1.76,28.44,10.91,38.51,10.91,12.01,23.19,20,35.49,30.03,16.09,13.11,35.52,37.66,41.54,57.6,8,26.48,6.74,53.63-6.28,78.21-9.99,18.86-22.65,32.01-40.88,43.03-12.92,7.81-26.86,10.46-41.79,11.67-2.74.22-5.29,1.21-8.02-.03-.83,2.28-2.33,3.41-4.86,2.83-1.26-.29-1.41-1.49-1.94-1.8-.68-.39-2.51-.28-3.13-1.18-1.51-2.18-.71-9.92-.88-12.77-.67-.67-9.84,1.59-11.03,2.34-1.13.71-1.16,2.36-1.92,2.96-.83.65-1.92.09-1.99.16-.06.06-.06.99-.57,1.59s-1.76,1.22-2.56,1.32c-.2,4.5-.67,13.65-5.5,15.62-4.54,1.86-12.81,2.08-15.15-3.23-1.18-3.99-1.28-8.29-1.8-12.42-1.27.24-3.12-.37-3.88-1.44-.37-.51-.38-1.39-.44-1.44-.08-.07-1.16.49-1.99-.16-.92-.72-.62-2.28-2.31-3.15-1.25-.64-9.97-2.82-10.64-2.15-.21,3.17.68,9.9-.79,12.57-.65,1.18-2.42.91-3.22,1.37-.61.36-.64,1.6-2.18,1.84-2.53.4-3.75-.65-4.61-2.88-2.73,1.23-5.28.25-8.02.03-23.77-1.92-40.17-7.7-58.2-23.42-26.18-22.82-39.6-56.59-34.73-91.34,4.11-29.37,19.2-50.98,40.19-71.02,10.19-9.72,22.89-17.38,33.49-27.43,11.33-10.74,16.66-18.46,18.21-34.67.64-6.66-.26-14.15-1.15-20.76-3.79-.7-8.53-1.74-9.45-6.07-.53.35-.7.96-1.29,1.43-6.2,4.93-21.48.91-24.71-6.33-6.07-13.59,4.9-27.69,19.46-25.2,2.51.43,4.09,1.31,6.26,2.51,1.28-5.94,8.92-6.42,13.74-4.97,1.13.34,2.45,1.06,3.36,1.81.18.08.52-1.5.91-1.74.26-.16,3.29-.55,3.63-.5,2.23.33,1.84,3.98,2.23,4.25,2.56-.57,5.13-.66,7.75-.57.25-2.46-.34-5.53,0-7.9ZM214.29,74.24c-.88-2.78-4.51-5.03-6.99-6.37-8.27-4.48-20.99-5.96-29.51-1.25-.66.37-3.21,2.06-3.44,2.59-.06.13-.07.47.14.43.51-.46,1.08-.87,1.68-1.2,2.34-1.27,5.13-2.81,7.66-3.4-3.68,2.76-8.42,4.04-11.65,7.46-2.25,2.38-4.23,7.61-4.7,10.82-.03.23-.15,1,.25.54.68-4.99,4.16-9.86,8.07-12.9.85-.66,2.66-1.92,3.71-1.75-4.66,4.14-9.74,9.08-10.34,15.66l2.18-3.71c2.49-3,4.81-5.58,8.19-7.61.5-.3,3.15-1.83,3.42-1.6.55.46-.43.62-.57.71-12.9,8.47-15.19,15.73-14.08,31.33,1.42,20.03,30.64,27.53,43.39,13.21,7.46-8.38,7.38-15.77,4.99-26.24-1.48-6.44-4.38-13.92-10.73-16.86.55-1.31,3.86,1.36,4.44,1.87,2.9,2.56,5.42,7.27,6.62,10.91.03-5.8-2.39-11.8-7.04-15.38,1.93-.31,2.91,1.84,4.31,2.73ZM154.72,84.37c-.77-.59-1.63-.25-2.48-.04-.85,4.82-.03,9.66.25,14.48.27,4.7-.06,9.35,1.44,13.93,1.36-1.58,1.61-4.95,1.73-7.03.23-3.92.55-16.86-.38-20.04-.13-.45-.32-.9-.56-1.3ZM236.1,84.33c-.85-.2-1.71-.55-2.48.04-.46.44-.87,2.53-.93,3.23-.44,4.84-.5,19.29.82,23.6.17.56.25,1.15.76,1.54,1.74-4.44,1.31-9.27,1.58-13.93.28-4.82,1.1-9.66.25-14.48ZM140.65,84.36c-9.6.99-6.96,15.16-5.6,21.54.68,3.2,1.3,6.22,4.08,8.27s5.06,2.15,7.75,0c3.1-2.49,3.42-7.81,3.61-11.62.26-5.09-.22-10.41-.01-15.53-.16-.86-3.09-1.86-3.96-2.07-1.37-.33-4.52-.73-5.87-.59ZM253.95,102.68c-.04-2.17.85-4.64.88-6.77.02-1.83-.33-5.62-1.1-7.22-2.3-4.77-7.34-4.84-11.9-3.74-1.16.28-3.83,1.13-3.98,2.34-.7,5.82.38,13.29.34,19.23.58,2.06.51,4.46,1.83,6.22,1.11,1.48,3.6,3.13,5.47,3.11,1.69-.02,4.96-2.45,5.84-3.88s1.4-7.25,1.5-9.13c.17-3.41-.19-6.57-.58-9.93,1.3,1.58,1.12,4.22,1.15,6.18l.57,3.59ZM132.66,104.41c.3-3.02-.38-6.1-.3-9.06.04-1.37,1-4.72.17-5.61-.45-.47-3.67-2.01-4.41-2.2-6.58-1.7-12.18.41-16.73,5.23l3.1-1.79,2.65-.94c-1.97,2.17-7.34,4.45-7.19,7.88,0,.19.53.03.61.58.2,1.5-.65,3.11-.62,4.61.1,6.65,7.17,10.45,13.1,10.51,5.24.05,7.58-3.24,8.4-8.01.24-1.41-.26-3.45.94-4.37.03.72-.03,1.44,0,2.16.01.35-.22,1.07.28,1ZM280.1,99.81c-1.49-9.75-12.76-15.58-21.75-11.54-.57.26-2.79,1.51-2.92,1.98.84,4.73.17,9.39.25,14.16.5.07.27-.65.28-1,.03-.72-.02-1.44,0-2.16,1.2.93.7,2.97.94,4.37,1.11,6.45,4.48,8.68,10.91,7.62,4.6-.76,8.94-3.05,10.2-7.91.72-2.79-.11-3.54-.21-5.95-.07-1.54.59-1.33.59-1.46.02-.38-.47-1.03-.29-1.56l2.01,3.45ZM164.14,88.32c-2.1.24-4.6-.18-6.75,0v14.37c2.15.35.12-3.82,2.01-4.02l.72,6.32,1.3-7.47h.85c-.4.45.64,6.41,1.15,5.75-.09-1.12.26-1.65,1.16-2.22l.28-13.01c-.32-.11-.59.27-.72.29ZM230.24,89.18c-2.9.34-6.38-.25-9.34,0v14.37s1.73-7.47,1.73-7.47h.85c.07,1.28-.08,2.6-.01,3.89.04.73.32,4.49.44,4.73.07.13.38.36.43.28l.92-6.41.81-.48,1.44,7.47c.59.46,1.89-5.15,1.43-5.75,1.47-.35.94,1.77,2.01,2.3v-13.22c-.32-.11-.59.27-.72.29ZM221.76,117.05c.1-.87-.06-1.65-.24-2.49-.1-.47-.4-1.63-.9-1.82l-.27,4.01,1.42.3ZM230.96,113.03h-8.05c.8,1.47-.11,3.51,0,4.73.05.49.66,1.1.79,1.8.55,2.9-.72,6.51-3.67,7.55.13.93.96,1.11,1.13,2.17.56,3.45-2.69,7.75-6.3,7.31.57,1.39.85,3.18.51,4.68-.3,1.36-2.88,3.46-3.06,4.15-.15.57.39,2.57.25,3.68-.19,1.54-1.52,3.28-3.17,3.3,1.51,3.33.34,8.4-4.02,7.47,1.57,3.01.95,7.12-2.88,7.47.07.73.72,1.21,1,2.01s.29,1.74.47,2.55c1.55.24,3.11.56,4.62.98,5.65,1.59,11.54,2.86,16.41,6.29,22.32,15.72,27.76,38.35,28.94,64.45.45,9.97-4.33,25.31-9.66,33.75-3.45,5.46-7.78,9.28-13.19,12.68-12.63,7.93-27.25,12.02-42.21,10-19.19-2.58-33.44-7.4-45.59-23.1-11.54-14.9-12.96-27.79-11.81-46.26.74-11.93,6.28-23.22,12.54-33.15,7.64-12.12,17.62-19.81,31.3-24.16,1.42-.45,2.9-.66,4.3-1.17l1.02-3.29c-3.42-.58-5.94-4.42-4.61-7.77.25-.64.9-.87.88-1.56-4.38.48-6.29-4.1-5.4-7.84.16-.68.83-.95.8-1.64-4.47-.35-6.3-3.94-4.6-8.04-3.91-.54-5.34-5.62-3.16-8.62-4.25-.59-5.27-6.28-2.59-9.2-4.58-.49-4.34-5.87-1.15-8.19-1.24-.38-1.45-.83-1.45-2.14h-2c.17,2.78-.77,8.01-4.59,5.73.56,1.22,1.17,2.4,1.65,3.66,4.33,11.52,5.45,24.4,1.59,36.22-6.67,20.4-28.26,31.9-39.69,48.82-15.59,23.08-20.62,50.84-16.97,78.36,2.72,20.56,14.92,38.33,33.04,48.29,6.78,4.02,13.2,7.99,20.95,9.94-.14-4.69,7.4-3.43,7.48.57,1.3-.74,2.87,1.04,2.87,2.16v10.49c2.92-.61,8.08-.42,10.72-1.78,1.95-1.01-.09-5.61,3.94-4.25.04-3.42,3.05-3.35,5.46-2.3v-7.61c0-6.4,6.44-10.97,12.48-10.18,6.55.86,8.59,12.15,8.5,17.5,2.61-.49,5.02-.86,5.17,2.59,4.03-1.36,1.98,3.24,3.94,4.25,2.63,1.37,7.79,1.17,10.72,1.78v-10.49c0-1.11,1.56-2.9,2.87-2.16.08-4,7.62-5.26,7.48-.57,3.33-1.24,7.01-2.11,10.25-3.69,5.47-2.65,13.02-7.45,18-11.02,29.28-20.96,30.61-58.97,23.05-91.33-2.86-12.22-12.93-30.52-21.55-39.66-13.12-13.9-30.38-25.57-33.98-45.91-1.76-9.94-.57-17.01,2.02-26.56.65-2.41,1.57-4.81,2.79-6.98-.76.12-1.24.58-2.14.43-2.3-.39-2.64-5.38-2.46-7.19ZM164.85,115.04l-.29-1.73-3.45.58.31,1.42c1.23,0,2.2-1.05,3.43-.28ZM164.86,116.19c-5.31,1.01-6.44,7.48.29,6.89.17-.4-.29-.86-.29-1v-5.89ZM217.45,126.24c3.97,1.03,6.54-6.13,3.02-8.04-.74,1.42-.19,3.04-.62,4.55-.41,1.42-1.85,2.17-2.39,3.49ZM165.71,124.23c-8.04,2.62-1.25,12.59,4.01,5.36-1.32-1.65-3.64-3.22-4.01-5.36ZM148.76,128.54l-.58-1.43c.08.63-.12,1.26-.13,1.87-.13,10.14-.06,18.51-1.64,28.69-.28,1.8-.88,3.55-1.1,5.36l1.28-2.59c4.17-10.22,5.21-21.52,3.89-32.46-1.09.6-.49-.66-1.14-.86l-.57,1.43ZM216.44,127.13c-1.4,2.31-3,3.91-5.31,5.3,2.12,2.43,5.05,3.86,7.31.7,2.17-3.04.5-4.18-2-6ZM243.03,163.03c-.22-1.81-.82-3.56-1.1-5.36-1.58-10.17-1.52-18.55-1.64-28.69,0-.38.02-1.78-.41-1.87-1.3,4.88-.26,10.22-.29,15.23-.72.05-.49.07-.57-.43-.3-2.05-.74-4.62-.88-6.62-.04-.61.22-1.14.19-1.66-.08-1.55-.12-3.09-.18-4.65-.01-.35.22-1.07-.28-1-1.32,10.94-.29,22.24,3.89,32.46l1.28,2.59ZM166.1,139.65c3.16,3.19,9.37-1.88,7.8-5.36-.3-.67-3.36-2.03-4.03-1.99-.44.02-1.25.75-1.86.98-.57.21-1.98.33-2.23.5-.33.23-.96,2.4-.94,2.94.02.8.7,2.37,1.26,2.93ZM209.95,132.88c-2.26.67-4.28,2.15-6.57,2.72-3.4.83-11.62,1.55-15.09,1.28-2.29-.18-8.44-1.34-10.56-2.08-1.12-.39-1.73-1.34-2.8-1.65.55,1.87.36,3.66-.29,5.46,4.29.27,5.03,5.55,2.88,8.62,4.93.03,7.52,5.67,4.6,9.48,5.59.63,6.65,3.84,5.17,8.91,2.23-.06,4.03,2.47,3.74,4.6l2.87.29c-.04-2.29,2-3.66,3.73-4.74-2.32-3-.23-7.17,3.45-7.62-1.93-2.71-1.05-5.8,1.36-7.9-2.14-3.81.95-7.01,4.39-8.2-2.09-3.58-.27-7.39,3.73-8.05l-.61-1.12ZM210.77,135.5c-2.61.36-3.63,2.22-3.38,4.68.23,2.28.75,1.45,2.12,2.19.56.3,1.52,1.78,2.02,1.68,1.84-2.22,3.19-3.47,1.86-6.42-.57-1.27-1.14-2.34-2.62-2.13ZM136.12,180.84c.54.12.68-.3,1-.57,8.95-7.49,15.7-22.78,17.6-34.13.49-2.95.24-5.74-.21-8.68-.5-.07-.27.65-.28,1-.37,10.71-2.99,19.41-7.93,28.86l-10.18,13.53ZM175.97,141.29c-2.45-2.43-2.83-.36-4.59.54-1.64.84-3,.14-2.97,2.91.04,3,3.81,4.67,6.07,3.07,1.8-1.27,3.32-4.69,1.48-6.51ZM208.83,151.82c.44.31,1.84-1.83,1.94-2.22.56-2.16-.84-6.44-3.45-6.06-2.07.3-5.84,3.81-3.68,6.15,2.28-.69,4.44-.43,5.19,2.13ZM180.31,156.92c.25-.3.95-2.98.95-3.52.01-2.27-2.12-5-4.47-4.75-.81.09-3.28,2.06-3.61,3.01-1.36,3.92,1.3,6.38,5.07,6.49.95.03.6-.4,1.15-.84.24-.19.73-.18.91-.39ZM202,157.79c2.21.59,2.45,2.19,4.8.76,3.11-1.88.73-7.54-1.27-7.56-3.08-.03-5.44,4.1-3.53,6.8ZM184.88,165.24c.68-.76,1.33-3.95.81-4.8-.64-1.06-4.28-1.61-5.48-1.45-2.94.4-3.44,6.26-.08,7.29,1.47.45,3.7.12,4.75-1.05ZM201.28,159.64c-2.49.37-3.88,2.38-3.24,4.83.08.29.5,1.14.73,1.28.12.07,2.5.65,2.68.64,4.78-.22,4.13-7.39-.17-6.75ZM185.46,167.69c-.53.12-.95.61-1.48.82-.57.22-1.79.19-2.04.54-2.59,5.8,7.33,5.03,7.36.73.01-1.91-2.27-2.46-3.84-2.1ZM201.93,171.36c-.3-3.96-4.48-4.82-6.32-1.29-.08.59.03.37.42.42,1.96.26,3.99.23,5.89.86ZM136.4,359.86l-.95.81c-4.47-1.49-8.12-3.43-11.95-6.16-44.38-31.62-59.35-97.13-24.16-141.34,11.31-14.21,27.21-25.84,37.47-40.41.65-.92,1.36-2.01,1.6-3.14-4.21,4.54-8.8,8.74-13.08,13.21-1.71,1.79-3.28,4.09-5.02,5.9-9.99,10.45-21.55,19.55-30.3,31.2-16.2,21.58-20.51,42.49-19.14,69.36.99,19.36,11.98,42.85,26.72,55.47,13.14,11.25,27.4,21.83,44.71,25.7.16.04.46.09.42-.13-.57-.85-2.63-1.79-1.73-2.88,1.03-.7,3.89,1.32,5.18.87-.73-.42-.42-1.36-.72-1.87-.4-.69-3.79-1.26-3.59-3.16,3.55.61,6.74,2.28,10.06,3.44-.22-.43-.29-.79-.3-1.28-.12-4.08-.21-8.91,0-12.96.08-1.55.22-3.68.87-5.01-.25-.24-5.76-1.5-6.67-1.81-4.49-1.51-8.6-3.91-12.67-6.3-8.5-4.98-16.96-10.72-22.66-18.88l-.82.4c.83,1.16,1.68,2.35,2.59,3.44.36.43,2.53,2.1,1.29,2.16l-1.01-.86-.04.53-.38.03c-2.75-1.51-4.09-4.73-6.4-6.81-.31-.28-.18-.53-.95-.35,5.09,8.17,11.97,15.53,19.86,21.09,3.29,2.33,9.57,6.12,13.18,7.8,2.43,1.13,5.37,1.65,7.77,2.87.34.17,2.19,1.15,1.73,1.57-7.29-.7-14.11-4.85-20.2-8.68-14.06-8.84-24.15-20.08-30.02-35.79-6.86-18.33-11.69-41.03-7.74-60.47,2.97-14.61,10.28-28.7,19.46-40.31l10.05-12.22c-3.69,3.67-7.57,7.36-11.07,11.2-10.91,11.99-18.99,24.2-23.11,40.11-11.62,44.82,10.16,89.49,49.04,112.41.84.5,1.66,1.09,2.67,1.22ZM254.53,367.62c3.46-1.16,7.16-2.74,10.45-4.35,9.24-4.52,20.1-13.26,27.78-20.21,11.8-10.69,22.13-31.99,24.1-47.74,2.49-19.98.09-43.09-9.29-61.03-9.42-18.01-23.64-29.44-37.36-43.68-2.44-2.53-4.76-5.21-7.19-7.75-4.28-4.48-8.87-8.67-13.08-13.21.24,1.12.95,2.21,1.6,3.14,10.26,14.57,26.16,26.2,37.47,40.41,17.26,21.68,24.79,56.48,18.89,83.52-3.36,15.38-11.14,26.46-19.05,39.57-2.3,3.82-5.24,6.89-8.45,9.94.29.47.63-.1.86-.29,4.17-3.44,7.36-7.75,11.06-11.64.89-.93,2.98-3.29,3.88-3.88.2-.13.49-.32.58,0-7.45,12.11-18.72,21.08-29.91,29.57l-12.33,7.64ZM189.14,173.76c-.36,0-1.41.86-1.95,1.1-1.77.77-3.1.23-2.81,2.97.34,3.19,6.98,1.45,6.63-2.28-.08-.82-1.1-1.81-1.87-1.79ZM190.36,180.32c-.48.1-.9.53-1.35.68-1.33.43-2.07-.37-2.31,1.71-.82,6.96,7.08,6.19,7.2.85.04-1.62-1.88-3.57-3.53-3.24ZM195.61,184.29c3.73-1.17,1.43-3.44-1.15-4.02.68,1.24,1.33,2.54,1.15,4.02ZM198.48,184.87l-3.17.71c-1.79,5.51-8.71,5.66-10.27-.06l-.35-2.95c-3.9,7.17,2.87,11.35,9.39,8.67,3.25-1.33,3.93-3,4.4-6.37ZM251.99,359.9c.16-.17,3.51-1.77,4.23-2.22,26.57-16.56,46-43.31,49.74-74.98,3.62-30.6-5.09-54.24-25.43-76.58-3.49-3.84-7.37-7.41-10.93-11.2-.47.28.09.64.29.86,1.2,1.42,2.73,2.79,3.87,4.17,11.54,14.03,20.73,27.74,24.87,45.82,5.75,25.07-3.76,66.81-21.84,85.64-6.48,6.75-25.57,20.37-34.79,20.97-.42.03-1.14.26-1-.42,2.72-2.16,6.41-2.58,9.49-4.01,3.19-1.48,8.26-4.57,11.28-6.53,8.72-5.65,16.12-13.54,21.75-22.22l-.71-.15c-5.33,6.41-10.93,12.96-17.76,17.89-3.76,2.72-9.45,6.43-13.69,8.15-.42.17-.84.18-.6-.31.17-.34,2.3-1.39,2.85-1.75,3.36-2.27,6.95-4.89,10.18-7.35,5.76-4.41,10.76-8.66,14.85-14.75-.93-.98-1.41.74-2.15,1.58-7.83,8.94-22.72,19.39-34,23.19-.91.31-6.42,1.57-6.67,1.81.65,1.33.79,3.46.87,5.01.21,4.05.12,8.88,0,12.96-.01.49-.08.85-.3,1.28l12.84-4.83c1.61-.41,2.07-1.32,2.73-2.02ZM106.23,198.09l-4.4,2.92c-14.65,12.19-26.87,27.18-36.7,43.49l.55.53c-2.94,5.91-5.76,12.06-7.38,18.5-.06.23-.19.96.22.51.99-2.44,1.49-5.18,2.45-7.61,1.2-3.03,3.31-5.77,4.17-8.91.5,0,.62-.16.55.41-.29,2.66-2.25,5.78-3.15,8.35-4.15,11.78-6.98,25.13-6.03,37.64,1.74,22.85,16.09,53.76,34.06,68.24,4.09,3.3,9.23,6.29,14.07,8.35l-8.61-5.47c-27.87-23.23-46.15-63.76-35.01-99.93,6.9-22.37,20.22-42.91,36.86-59.12,2.73-2.66,5.75-5.08,8.34-7.89ZM323.16,244.59c-9.63-16.42-22.04-31.36-36.64-43.58l-4.4-2.92c2.59,2.81,5.61,5.23,8.34,7.89,6.71,6.53,11.83,12.13,17.18,19.89,12.07,17.51,22.07,38.01,23.06,59.7,1.25,27.69-16.51,62.73-38.39,79.46l-8.76,5.46c1.34-.19,2.72-1.03,3.93-1.67,17.33-9.19,27.57-24.64,35.49-42.1,10.95-24.11,11.61-45.53,2.83-70.46-.9-2.57-2.86-5.69-3.15-8.35-.06-.57.06-.42.55-.41.85,3.14,2.97,5.88,4.17,8.91.96,2.42,1.45,5.17,2.45,7.61.41.46.28-.27.22-.51-1.63-6.43-4.45-12.58-7.38-18.5l.5-.44ZM229.26,206.68c.87-.15,3.45-.15,3.86-.84l-.15-4.31-4.27,1.19.56,3.97ZM193.3,206.42c-5.05,2.66-10.19,6.3-14.37,10.2-5.72,5.33-12.92,12.03-16.14,19.2-3.81,8.48-5.05,19.66-2.39,28.65,5.34,18.08,36.76,26.79,52.07,17.86,10.88-6.35,15.65-16.53,16.19-28.93.58-13.39-6.46-22.22-15.22-31.33-5.43-5.65-10.31-9.13-16.87-13.3-1.1-.7-2.96-.96-3.26-2.35ZM237.85,265.03c.9-4.44,2.76-8.91,3.41-13.4,1.11-7.63.55-16.16-.58-23.77-.88-5.96-2.5-11.88-4.71-17.43l-4.44,2.16c2.8,3.89,4.01,10.18,4.3,14.95.13,2.13-.3,4.89.02,6.88.15.93,1.1,2.41,1.43,3.45,2.99,9.49.99,16.59.28,25.88-.02.32-.23,1.34.28,1.29ZM93.29,212.74c-.54-.13-.68.3-1.01.57-3.85,3.24-7.9,9.61-10.84,13.87-5.34,7.73-10.73,16.26-14.44,24.93-10.88,25.35-10.81,49.36.95,74.33,11.53,24.47,26.6,39.86,52.2,49.24,9.37,3.43,20.26,7.16,30.22,8.29.89.1,1.81,0,2.7.03l-.58-5.75c-1.33.56-3.01.19-4.41-.04-17.83-2.93-40.47-19.3-53.22-31.85-15.43-15.19-25.18-39.18-26.01-60.77-.65-16.71,1.87-35.2,9.25-50.26,3.98-8.13,9.48-15.63,15.19-22.59ZM304.53,351.24c6.59-6.99,11.65-15.92,15.76-24.61,17.2-36.35,8.35-67.98-13.4-99.45-2.94-4.26-6.99-10.64-10.84-13.87-.32-.27-.47-.7-1.01-.57,4.07,5,8.09,10.18,11.44,15.71,16.45,27.13,17.4,67.23,2.98,95.39-6.81,13.3-14.1,21.62-25.65,30.96-10.93,8.83-23.7,17.89-37.33,21.87-3.23.94-7.36,2.18-10.63,1.58l-.58,5.75c.89-.03,1.81.07,2.7-.03,10.12-1.15,20.68-4.9,30.22-8.29,11.3-4.03,26.75-16.41,34.33-25.74,12.95-15.95,21.62-40.07,22.15-60.61.12-4.71-.39-8.93-.58-13.52-.07-1.57.04-3.16,0-4.74.75-.07.48-.04.56.43,1.08,5.81,1.05,12.22,1.15,18.11.06,3.66.29,7.18,0,10.9-1.02,13.44-7.17,25.65-12.52,37.77l-8.74,12.95ZM296.19,283.14l1.45-12.49c1.86-17.03-2.13-32.75-10.78-47.29-.19-.31-.29-.79-.72-.86,3.07,10.26,7,20.34,8.87,30.93,2.07,9.67,1.45,17.9.89,27.53-.03.46-.22,1.97.3,2.17ZM202.21,344.63c-.18-1.68-.92-3.59-1.58-5.17-.8-1.89-1.67-4.21-3.59-5.03-5.58-2.39-11.25,2.15-11.99,7.84-.04.32-.35,1.25.2,1.21.69-4.15,4.18-6.95,8.05-8.04.13.64-.31.65-.7.87-2.7,1.51-4.33,2.1-5.86,5.06-2.45,4.74-1.8,15.63-1.78,21.23.03,6.73-.28,20.82,3.22,26.38,2.63,4.18,6.21,6.12,9.38,1.14,4.55-7.15,5.66-19.25,5.82-27.52.14-7.39.56-14.59-3.69-21.04-.77-1.16-1.74-1.69-2.57-2.59-.3-.32-.52-.18-.35-.95l2.86,2.16,2.59,4.45ZM155.28,344.1c-.62.2-1.27,2.57-1.34,3.26-.67,6.18.9,14.03.43,20.41-.47,4.12-.64,10.73.22,14.87.41,1.97,2.06,5.01,3.49,1.91,1.95-4.23,1.18-13.63,1.32-18.49.15-5.54.95-11.07.26-16.64-.19-1.5-.47-4.19-1.97-4.93-.62-.3-1.75-.6-2.4-.38ZM231.75,344.12c-2.64.43-2.81,3.28-3.08,5.54-.66,5.48-.09,12.23.1,17.76.15,4.35-.18,13.46,1.51,17.11,1.43,3.1,3.08.06,3.49-1.91.85-4.13.69-10.72.22-14.87-.53-6.35,1.21-14.56.41-20.67-.23-1.76-.7-3.29-2.63-2.97ZM162.27,353.25v-5.32c0-.16-.44-.91-.57-1.15l-.3.3.87,6.17ZM226.07,347.94c-.23,1.6.17,3.66,0,5.32l.87-6.17-.3-.3c-.15.29-.54.9-.57,1.15ZM181.81,378.54c.99-1.06,1.21-3.57,1.4-5.06.65-5.31.85-14.18.29-19.47-.15-1.36-.49-3.38-2.16-3.53-1.56-.14-1.66,1.39-1.79,2.67-.33,3.33-.26,8.94-.05,12.33.27,4.22,1.61,8.87,2.31,13.06ZM208.18,350.73c-2.59-1.05-3.18,1.46-3.37,3.53-.5,5.37-.34,13.85.32,19.21.19,1.58.46,3.74,1.26,5.06.44-1.08.7-2.24.92-3.39,1.32-6.91,2.06-14.42,1.53-21.48-.04-.55-.36-2.67-.65-2.94ZM177.79,379.11c.43-3.82,1.05-7.48.88-11.36-.07-1.61-.53-3.54-.6-5.15-.06-1.4.45-8.67.17-9.08-.33-.47-1.33-.44-1.54.21-.13.39-.29,1.75-.33,2.25-.51,6.14-.55,15.17.7,21.13.11.51.27,1.76.73,2ZM210.84,379.11c1.12-3.64.99-7.08,1.14-10.79.17-4.08.35-8.23,0-12.34-.1-1.25-.2-3.61-1.88-2.46-.19,3,.31,6.03.17,9.08-.25,5.5-.81,8.9.03,14.6.07.45.13,1.73.53,1.91ZM161.12,384.57c.37-.08.63-.47.79-.79,1.6-3.08,1.05-15.94.92-20.03-.1-3.21-.24-6.42-.28-9.64l-.58,2.72c.41,6.75.1,13.41-.26,20.14-.14,2.52-.41,5.09-.58,7.6ZM227.22,384.57c-.17-2.52-.45-5.09-.58-7.6-.36-6.72-.67-13.39-.26-20.14l-.58-2.72c-.04,3.21-.18,6.42-.28,9.64-.13,4.1-.68,16.95.92,20.03.17.32.42.7.79.79ZM174.62,366.47l.57-9.19c-3.36,1.44-7.6,2.53-11.2,1.72l.57,15.52c.62.11-.08-1.54.71-1.15s.15,1.72.72,2.16c.61.47,4.19.28,5.03.13,1.49-.27,1.27-1.56,1.03-2.69l.44-.44.98.26c.15-.16-.13-2.13,0-2.68.06-.22.56-.18.58-.38.08-.64-.72-4.15-.3-4.7,1.17-.3.09,1.3.86,1.43ZM224.34,359c-3.6.8-7.85-.28-11.2-1.72l.57,9.19c.76-.13-.31-1.74.86-1.43.42.55-.38,4.06-.3,4.7.02.19.53.15.58.38.14.56-.14,2.5,0,2.68h1.3c.41.64-.81,2.32.91,2.81.72.21,4.41.35,5.06,0,.93-.51.11-1.84.92-2.24s.09,1.25.71,1.15l.57-15.52Z"/>
  <path class="cls-1" d="M191.51,224.88c12.41-1.94,26.71,10.75,27.92,22.81,2.01,20.06-10.88,32.87-31.02,29-17.31-3.32-22.25-20.71-16.22-35.79,2.53-6.31,12.54-14.97,19.32-16.03ZM210.74,270.11c6.91-6.56,8.95-17.83,5.33-26.53-5.2-12.49-21.83-22.42-33.94-12.85-10.53,8.32-14.44,21.61-8.5,34.02,5.95,12.42,27.66,14.33,37.11,5.36Z"/>
  <path class="cls-1" d="M194.38,240.68c6.25-1.04,13.26,5.84,13.56,11.9.5,9.98-8.76,16.56-18.08,13.17-9.19-3.35-10.23-17.89-1.63-22.6.88-.48,5.31-2.33,6.15-2.47ZM191.84,250.65l1.46-1.56-3.73-1.17-.56,1.88,2.84.85ZM191.01,252.39l-2.87-.28c-.17,3.35,1.47,7.65,5.46,7.47-1.76-1.96-2.95-4.45-2.58-7.18Z"/>
</svg>