<?xml version="1.0" encoding="UTF-8"?>
<svg id="Layer_1" data-name="Layer 1" xmlns="http://www.w3.org/2000/svg" viewBox="0 0 289.74 282.52">
  <defs>
    <style>
      .cls-1 {
        fill: #1f2b5f;
      }
    </style>
  </defs>
  <path class="cls-1" d="M203.54,70.73c.55.29,1.16,1.75,1.15,2.41-.09,4.69-6.52,6.55-10.14,7.63,1.84.46,3.12,2.89,2.36,4.66-1.43,3.31-6.96,4.69-10.13,5.5,1.42,1.16,2.56,1.72,2.69,3.71.12,1.8-.55,2.8-1.92,3.89-1.8,1.44-4.34,2.26-6.57,2.54l1,1.22c1.17,1.75-.06,3.19-1.38,4.39-1.25,1.14-2.87,1.33-4.43,1.81,1.88.44,3.78,1.13,4.47,3.11,1.17,3.38-2.38,4.75-4.95,5.53,3.25.55,5.8,3.83,2.86,6.53-1.06.97-2.17,1.03-3.45,1.46,1.29.42,2.29.83,2.87,2.12,1.12,2.46-.52,4.4-2.74,5.34,1.9,1.2,4.67,2.79,4.22,5.46-.34,2.02-1.68,3.13-3.58,3.62,1.35.44,2.52.89,3.55,1.92,2.46,2.45,1.26,5.67-2.05,6.26l-2.45.22c2.43,1.3,5.35,3.26,2.92,6.1-.83.97-2,1.51-3.26,1.59-.88.05-1.8-.21-2.63-.06,5.81,3.98,11.25,8.21,16.34,13.06,6.34,6.05,11.52,12,16.72,19.02,4.5,6.06,8.89,12.19,12.4,18.87,12.62,6,24.92,12.65,36.98,19.66,1.02.6,2.2,1.06,3.2,1.68.45.28,1.91,1.19.74,1.46-.35.08-1.47-.25-1.89-.35-4.13-.98-8.1-2.61-12.15-3.85-7.09-2.16-14.31-3.7-21.51-5.36-2.3-.53-4.56-1.32-6.91-1.6,1.66,1.8,3.86,3.05,5.81,4.52,10.32,7.82,20.63,15.7,30.67,23.88.7.57,2.66,2.03,3.09,2.6.59.8-.41,1.13-1.11,1.04-2.92-.38-6.31-2.68-9.02-3.93-1.82-.84-3.79-1.38-5.62-2.2-11.34-5.13-22.11-11.52-33.04-17.43-39.23-21.22-78.99-41.61-117.62-63.83-9.08-5.22-17.81-11.05-26.68-16.63-6.18-3.89-10.97-7.51-15.39-13.41-1.94-2.6-3.89-5.34-4.51-8.58-3.44-4.09-7.83-7.94-11.15-12.05-.62-.77-.4-1.63.57-1.85l16.39,4.2c5.51-3.54,12.36-7.35,19.02-7.84,9.83-.73,21.39,1.05,30.41,5.08l8.62,4.4c-.39-1.52-1.24-2.98-1.64-4.48-1.22-4.55-1.9-9.82-2.63-14.49-.25-1.63-.73-3.32-.88-4.96-.88-9.55,2.47-25.07,9.57-31.79,3.5-3.31,11.34-6.81,15.93-8.5,16.45-6.05,33.42-11.82,50.53-15.72,9.76-2.23,19.37-5.22,29.25-6.96,3.06-.54,6.27-.62,9.14-1.08,2.09-.34,4.06.65,5.15,2.46.79,1.32.6,2.03-.2,3.32-1.7,2.73-4.43,4.35-7.31,5.57,2.32.64,6.16,2.12,5.72,5.09-.47,3.13-4.4,6.42-7.11,7.79-1,.51-2.09.82-3.09,1.34,4.57,1.76,4.53,5.8,1.25,8.99-1.11,1.08-2.56,1.66-3.91,2.35l-5.32,2.1,2.77,1.46ZM44.25,125.64c4.08,8.26,10.48,15.23,18.38,20.08,5.44,3.34,10.88,6.64,16.26,10.08,17.47,11.17,35.93,20.72,53.99,30.89,7.16,3.24,14.21,8.19,21.37,11.26,5.98,2.57,13.47,4.22,19.77,6.13,7.67,2.32,15.44,5.1,23.3,6.67,3.55.71,7.21.71,10.76,1.41.16-.06-.03-.85-.06-1.02-.43-2-1.63-5.26-2.35-7.27-3.76-10.5-10.27-21.05-17.08-29.87-2.27-2.93-6.25-6.35-9.15-8.72-10.58-8.65-22.99-16.91-34.83-23.68-2.09-1.19-4.39-2.27-6.43-3.54-.26-.16-1.05-.73-1.08-.98l.35-.58c.18-.05,1.01.22,1.23.32,5.16,2.19,10.27,5.92,15.27,8.5,1.39.89,2.74,1.87,4.12,2.77,3.71,2.41,7.43,4.82,10.99,7.47,2.04.53,6.02,1.53,7.6-.37.65-.79.76-1.31.19-2.14-.45-.65-2.69-2.64-3.37-3.01-.7-.38-3.29-.58-4.29-.79-1.98-.42-4.4-.96-6.08-2.11-.43-.29-.97-.84-.39-1.26.75-.33,1.32.34,1.96.58,2.57.97,10.07,2.44,12.64,1.69,3.32-.97,1.09-4.03-.86-5.12-2.89-1.6-5.54-1.1-8.64-1.75-2.24-.47-5.64-1.31-7.69-2.21-.39-.17-1.42-.61-1.41-1.04,0-.36.27-.59.63-.54,5.07.99,10.36,3.15,15.59,2.51,1.5-.18,2.35-.53,2.9-2.06.66-1.86-2.64-3.88-3.72-5.03-1.24.24-2.48.31-3.74.33-3.76.05-8.93-.14-12.56-1.01-.46-.11-2.3-.43-2.36-.89.01-.42.34-.57.72-.6,5,.23,10.36,1.04,15.35.79,2.09-.1,6.4-1.02,4.87-4.01-.39-.76-2.13-2.04-2.94-2.14-.42-.05-2.2.36-2.82.41-3.43.28-13.7.39-16.68-.6-1.09-.36-1.26-.91-.06-1.14,4.8-.03,9.78.34,14.56.14,1.99-.09,7.72-.66,9.06-2,2.07-2.07-1.97-4.26-3.72-4.67-5.74.8-11.75,1.07-17.55,1.05-.93,0-6.54-.23-6.75-.93.19-.64.98-.56,1.54-.61,7.04-.54,14.09.02,21.1-1.05,1.52-.23,6.59-1.14,6.95-2.9.48-2.41-4.04-3.38-5.57-4.1-6.98,1.02-14.52,1.72-21.59,1.68-1.06,0-3.64-.07-4.56-.35-.28-.09-.67-.33-.57-.67.22-.71,3.55-.46,4.26-.5,7.77-.37,19.05-.43,26.31-2.74,1.2-.38,2.52-1.22,3.13-2.37.4-.75-1.21-2.17-1.92-2.34-9.09,1.22-18.53,2.14-27.7,2.38-1.08.03-2.39.1-3.44.05-.57-.03-2.01-.07-2.38-.45-.44-.96.63-1,1.31-1.1,9.93-.84,20.13-.84,29.97-2.38,2.68-.42,8.68-1.42,10.5-3.42.52-.57.78-1.24.67-1.99-.17-1.18-.82-1.27-1.58-1.98-.45-.42-1.04-1.29-1.62-1.37-.48-.07-2.39.6-3.04.73-8.33,1.7-16.57,2.43-24.97,3.55-3.31-.09-7.87,1.34-11.03,1.06-1.51-.14-1.36-1.3-.11-1.62,11.75-1.65,23.67-2.19,35.3-4.62,1.19-.25,2.38-.63,3.57-.9,3-.68,9.71-1.72,11.04-4.89.55-1.31-1.36-2.6-2.02-3.62-6.65,1.15-13.29,2.36-19.92,3.6-8.72,1.64-17.39,3.41-26.16,4.81-.58.09-2.42.47-2.85.36-.64-.15-.77-.77-.25-1.16.11-.08.54-.18.72-.23,5.2-1.53,11.08-2.09,16.42-3.11,6.24-1.18,12.46-2.51,18.7-3.7,5.52-1.06,17.21-2.24,21.35-5.69,1.08-.9,2.31-2.7,1.01-3.9-.66-.62-2.74-1.66-3.61-1.93-.23-.07-.46,0-.68.02-12.32,4.04-25.12,6.14-37.82,8.63-5.73,1.12-12.33,2.98-18.07,3.5-.42.04-1.6.16-1.36-.56s2.06-1.16,2.75-1.33c7.01-1.78,14.74-2.83,21.87-4.31,11.73-2.43,24.95-4.78,36.15-8.9,1.75-.64,5.63-2.19,6.98-3.29,1.77-1.46,3.24-4.03.82-5.64-.46-.31-2.61-1.46-3.01-1.45-.46.02-1.31.51-1.77.66-21.43,6.9-43.88,10.52-65.8,15.51-.73.17-1.85.83-2.55.41-.4-.24-.43-.57-.19-.94.55-.91,5.24-1.6,6.44-1.88,18.85-4.49,37.77-7.89,56.41-13.31,5.67-1.65,15.31-3.86,18.14-9.65.64-1.32.36-1.93-.8-2.72-.49-.33-5.25-2.29-5.58-2.24-4.29,1.75-8.83,2.76-13.27,4.02-12.29,3.47-24.61,6.79-36.92,10.24-6.51,1.82-13,3.45-19.53,5.16-2.97.78-5.91,1.88-8.92,2.47-.57-.56.47-.98.92-1.18,6.08-2.68,13.76-4.05,20.21-5.85,5.53-1.55,11.01-3.37,16.54-4.93,10.44-2.94,21-5.52,31.43-8.53,5-1.45,14.24-3.95,17.45-8.06.8-1.03,1.55-1.58.44-2.71-1.79-1.83-4.64-1.37-6.96-1.13-10.44,1.06-19.96,4.57-29.98,7.13-4.79,1.23-9.72,1.9-14.46,3.38-10.49,3.27-21.13,6.26-31.46,10.03-1.45.53-2.82,1.29-4.27,1.82-7.55,2.77-18.32,5.93-22.52,13.37-3.51,6.22-5.36,13.26-5.95,20.31-.36,4.29.27,7.43.88,11.58.64,4.42,1.2,9.51,2.25,13.82.42,1.72,1.42,3.64,1.76,5.38.22,1.14.12,1.28-.8,1.89-4.01,2.65-8.38,4.89-12.36,7.61-4.72,3.23-8.99,7.63-13.56,11.05-.98.73-2.01,1.3-3.06,1.9-.25.1-.51-.07-.6-.31-.72-3.47-.63-7.76-2.34-10.93-1.27-2.35-5.21-5.65-7.65-6.71-3.21-1.4-8.17-1.04-11.37.26-.94.38-1.8,1.23-2.99.88-2.26-1.21-4.4-2.67-6.68-3.86-3.56-1.85-7.4-3.23-10.96-5.11l8.65,10.01Z"/>
  <path class="cls-1" d="M66.51,129.27c-.63-2.01-3.79-3.59-5.75-3.02-5.5,1.6-2.72,10.05,2.8,8.72,2.48-.6,3.68-3.38,2.95-5.7Z"/>
</svg>