<?xml version="1.0" encoding="UTF-8"?>
<svg id="Layer_1" data-name="Layer 1" xmlns="http://www.w3.org/2000/svg" viewBox="0 0 544.12 468.08">
  <defs>
    <style>
      .cls-1 {
        fill: #1f2b5f;
      }
    </style>
  </defs>
  <path class="cls-1" d="M470.87,391.26l1.37,1.02,1.8,6.9.95-.32c-.66,4.49-6.05,4.75-9.5,6.19-34.46,14.35-69,17.04-106.07,17.89-34.94.8-77.83-1.19-109.32-17.48-3.46-1.79-5.25-.71-5.92-5.49-.51-3.62.66-6.45.59-9.95-2.09-.43-10.59-4.48-11.01-6.28-.11-.47.39-1.21.27-1.36-.04-.06-.87-.04-1.29-.55-.95-1.17-.8-3.18.02-4.37,1.49-2.16,5.2-5.59,7.17-7.73s4-4.45,6.02-6.66c2.84-3.09,6.98-5.7,7.67-10.42.4-2.72-2.95-14.42-3.65-18.07-.84-4.33-1.25-8.76-2.13-13.09-.44-.65-2.56.07-3.51.04-16.43-.49-27.59-5.48-37.19-18.94-15.79-22.13-17.88-48.74-23.86-74.41-3.63-15.57-12.41-36.13-27.02-44.31-4.32-2.42-11.11-4.87-14.95-7.56-1.27-.89-2.59-2.43-1.6-4.11,1.48-2.51,9.82,1.7,11.96,2.31,2.56.73,4.73.96,7.39.88,1.05-.03,4.91-.75,5.53-.5,1.04.42,1.69,2.54,1.83,3.58.07.5-.21,1.01-.11,1.67.47,3.26,3.95,5.25,6.06,7.6,2.57,2.87,5.25,5.82,7.76,8.73,13.89,16.14,16.82,41.8,23,61.65,8.01,25.76,26.88,42.8,54.86,42.17.84-.02,3.98-.28,4.6-.47,1.41-.44,3.78-4.04,4.89-5.25,1.38-1.51,4.95-4.83,5.62-6.43,1.86-4.46-1.98-14.71-2.82-19.81-.79-4.81-2.29-18.08-.88-22.25,1.29-3.81,5.34-6.61,7.92-9.51.78-.87,1.43-1.99,2.21-2.86,3.5-3.94,12.98-13.08,13.19-18.22-.9-9.13-3.67-18.36-3.19-27.58.22-4.32.62-6.46-.09-11.01-2.31-14.69-5.99-31.79-10.47-45.96-6.96-22.04-24.21-48.2-4.05-68.58,4.39-4.43,20.92-10.89,27.3-12.97,18.07-5.89,40.35-4.43,59.11-3.65,18.3.76,37.76,1.9,55.72,5.48,33,6.56,36.09,35.79,28.07,63.69-1.31,4.57-3.27,8.92-4.58,13.49-4.92,17.21-8.44,34.77-13.32,51.98-.36,1.26-1.45,3.43-1.61,4.44s.36,3.22.26,4.67c-.52,7.4-2.6,15.68-3.16,23.15-.18,2.36-.41,5.16,1.25,6.98,7.59,8.35,20.82,16.11,21.59,28.5.43,6.96-2.46,13.13-4.11,19.69-.92,3.64-3.07,11.19-3.2,14.58-.08,1.97,3.08,5.2,4.66,6.43,5.63,4.38,17.38,8.56,21.48,14.03,2.05,2.74,2.24,5.36,2.09,8.69-.42,9.2-5.9,28.89-2.37,36.62,1.06,2.33,7.82,7.94,10.15,9.82,4.04,3.27,8.7,5.96,12.66,9.21,2.11,1.73,5.34,4.4,4.91,7.42-.41,2.85-1.73,4.75-3.79,6.68-4.48,4.19-11.38,7.94-17.12,9.99ZM428.7,56.83c-2.9-1.21-5.74-2.6-8.81-3.4-16.63-4.35-39.64-5.4-56.97-6.12-15.41-.64-31.23-1.45-46.57.68-6.71.93-13.33,2.54-19.54,5.19,7.46-.66,14.89-2.31,22.36-3.01,12.92-1.21,23.76.13,36.45.64,11.08.45,22.26-.18,33.3.94,12.81,1.3,25.59,4.53,38.36,5.4.34.02,1.5.22,1.44-.33ZM373.53,141.62c.18,2.17,0,4.74,0,6.97,0,.12.42.48.32.79.44-.24.9-.33,1.4-.34,10.01-.1,27.21-.05,34.89,7.31.9.87,1.32,2.57,1.83,3.08.63.63,2.67,1.4,3.22,2.64l2.71,4.73c0-2.26.33-4.54.69-6.76,3.67-22.54,12.83-44.16,14.23-66.61.66-10.58-3.35-30.18-14.74-34.1-6.84-2.36-21.88-3.98-29.5-4.74-11.36-1.13-22.85-.48-34.25-.94-21.09-.85-50.36-5.9-64.9,13.7-11.85,15.98-.06,48.56,4.3,66.23,2.57,10.4,4.62,20.93,7.2,31.32,1.33-1.07,2.31-2.78,3.48-3.97,5.31-5.45,13.5-9.25,20.87-11.15,4.64-1.2,9.54-2.17,14.33-2-1.09-7.28,4.14-14.17,9.19-18.87,1.54-1.43,5.76-5.19,7.54-5.77,2.75-.89,7.1-.33,9.26,1.66,4.33,3.96,7.45,10.95,7.93,16.8ZM420.14,170.94c1.49-4.88,1.53-10.05,2.63-14.96.86-3.82,2.57-7.74,3.62-11.6,2.18-8.03,4.28-16.9,6.02-25.05,3.85-18.05,8.57-40.68-3.89-56.46-1.01-1.28-3.17-3.9-4.89-3.04,4.36,3.23,6.86,9.11,8.71,14.11,2.13,5.75,3.34,12.41,3.03,18.55-.96,19.13-7.14,33.7-11.34,51.75-1.81,7.77-2.12,16.22-5.44,23.45l1.54,3.25ZM279.36,62.53c-.59-.14-.75.33-1.11.63-12.1,10.16-11.54,24.36-7.14,38.21,1.34,4.2,3.49,8.06,5,12.12,7.33,19.67,12.68,40.15,14.98,61.1.22,2.04.22,4.14.48,6.18l3.01-1.28c-.81-7.4-3.09-14.55-4.65-21.8-2.6-12-4.67-26.36-8.82-37.78-5.48-15.1-12.74-27.92-8.24-44.7,1.28-4.76,3.49-8.83,6.5-12.68ZM350.15,159.44c5.22.73,9.59,1.01,14.28-1.56,4.39-2.4,6.1-3.73,5.94-8.99-.23-7.5-.82-15.59-6.35-21.23-1.8-1.84-4.5-2.37-7-1.6-.68.21-5.47,4.29-6.33,5.09-4.11,3.82-9.69,11.15-8.24,17.08.08.33.75.1.64.36-1.21.86-.22,2.75.26,3.86,1.47,3.44,3.98,5.01,6.79,6.99ZM410.31,159.22c-2.85-1.64-3.94,1.67-6.25,2.79l-9.29,4.5c2.4-.57,4.82-1.36,7.14-2.21.89-.33,9.63-3.41,8.4-5.07ZM309.8,159.21c-3.24,1.27.11,3.97,1.8,5.01,7.88,4.84,20.44,4.61,29.42,5.78l18.24-.97c.52-.4-.03-.58-.47-.63-1.18-.15-2.58.11-3.81,0-12.29-1.1-24.51-1.17-36.69-3.58-3.08-.61-8.3-1.8-8.5-5.61ZM338.97,172.53c-4.48-.38-8.99-.83-13.42-1.64-4.57-.84-10.45-2.44-14.39-4.95-1.66-1.06-3.55-2.53-4.05-4.51-2.35,1.55-.28,3.49,1.27,4.75,1.33,1.08,2.88.64,2.32,3.26-.24,1.11-1.43,1.61-1.97,2.48-1.36,2.16-1.03,4.14-4.62,3.93.94.75,4.5,1.42,5.51,1.13.36-.1.11-1.25,1.05-1.54l2.95-.06c-.59-.72-1.61-1.02-1.13-2.23l2.72-.3c-1.22-1.59-.41-2.64,1.47-2.84,3.27-.33,5.07.92,7.96,1.5,4.12.82,8.74.79,12.91,1.36l1.44-.33ZM411.26,161.43c-1.31.46-2.05,1.73-3.38,2.48-4.76,2.65-12.06,3.37-17.22,5.45.58.86,1.62.7,2.18,1.78.66,1.27.1,2.28.42,3.38s2.18,1.08,2.17,2.92c-.01,2.17-2.89,3.92-4.7,4.51-13.28,4.28-30.43,1.44-44.25,2.43l-3.38.51c6.46.68,12.99.83,19.51.65,10.93-.3,25.08-1.05,35.72-3.28,4.06-.85,13.76-2.87,17.14-4.42,1.05-.48,2.03-1.19,2.13-2.46-1.44.94-3.03.45-4.56.67-4.18.61-10.68,3.33-14.55,2.43-2.52-.58-1.09-4.56-.92-6.43.04-.43-.31-.98-.25-1.56.11-1.24,1.33-1.98,2.32-2.47,1.93-.95,11.19-4.33,11.92-5.37l-.29-1.22ZM417.59,173.78c.34-.5-4.95-10.42-5.54-10.42-3.36,2.59-8.08,3.18-11.79,4.98-.7.34-1.82,1.06-1.94,1.87l.26,6.75c4.77.26,9.17-2.15,13.88-2.77,1.73-.22,3.48.17,5.14-.42ZM343.09,173.16h8.56l-4.28-.57-4.28.57ZM142.03,173.22c-.41-.24-1.05-.02-1.19.45-.11.47-.09.88.28,1.24.6.58,4.65,1.52,5.71,1.73l-4.24-2.58c-.34-.1-.45-.78-.56-.85ZM164.27,176.01l-2.21.64c2.59,4.03-1.78,5.06-5.16,4.36l-7.52-2.94c4.55,2.68,9.15,4.54,13.16,8.08,13.38,11.79,20.97,28.1,26.55,44.78,7.59,22.7,7.8,48.05,23.85,67.45,6.74,8.15,25.36,15.89,35.85,14.91,2.42-.23,3.95-3.04,5.85-4.45-9.33.16-19.02-2.03-26.8-7.29-4.18-2.83-7.81-6.67-11.88-9.68-3.3-4.67-7.27-9.12-9.52-14.42-.66-.04-.18.89-.07,1.18.95,2.34,2.98,5.49,4.38,7.67,3.24,5.07,7.88,10.97,12.84,14.43,1.63,1.14,3.91,1.7,5.05,3.19-2.8.39-5.59-1.37-7.76-3.02-22.63-17.28-23.79-50.5-31.08-75.76-4-13.88-10.81-24.26-20.62-34.54-.7-.73-4.04-4.07-4.27-4.61-.5-1.17,1.48.29,1.73.49,4.14,3.33,10.62,10.23,13.62,14.6,1.61,2.34,2.62,5.1,4.35,7.38.22.29.64,1,.58.05-2.05-3.44-3.77-7.38-6.35-10.46-2.71-3.24-5.62-6.47-8.39-9.68-1.76-2.04-4.25-3.54-5.23-6.18l-2.22,1.75c.06-2.92,2.93-4.89,1.26-7.92ZM338.34,182.04c-2.99-.03-6.05-.06-9.03-.32-7.07-.62-15.14-1.71-22.11-2.94-3.08-.54-6.01-1.73-9.12-2.13,1.37,1.62,4.51,2.24,6.59,2.76,3.86.95,7.43,1.12,11.28,1.71,7.19,1.11,12.91,2.66,20.28,1.5.52-.08,1.91-.12,2.11-.58ZM421.48,195.28c-.21-.39,1.68-7.48,1.75-8.72.23-3.9-2.73-6.96-6.67-6.34-4.97.78-11.65,3.5-16.84,4.72-14.34,3.36-32.61,4.5-47.27,4.07-13.36-.39-31.38-3.11-44.57-5.84-4.68-.97-8.9-3.52-13.81-1.46-2.51,1.06-2.18,8.78-2.05,11.29.21,4.17,1.28,8.27,1.88,12.39.44,3.03.46,6.67,1.07,9.71.35,1.75,2.64,2.81,4.19,3.41,18.14,7.06,45.57,8.79,65.02,8.24,9.62-.27,19.57-1.21,29.06-2.96,5.35-.99,9.86-3.06,15.06-4.28.47-.11.85-.26.73.41-5.17,3.18-10.48,4.98-16.43,6.09-24.96,4.66-60.97,4.44-85.35-2.91-4.15-1.25-9.43-2.53-12.52-5.54-1.74,2.81-3.14,5.86-5.1,8.53-4.43,6.02-10.04,11.5-15.03,16.99-.62.69-3.51,4.48-2.84,5.21,4.68,2.21,9.6,4.33,14.65,5.81,28.06,8.18,59.34,11.62,88.5,7.8,18.97-2.49,45.22-6.18,61.61-16.07.76-.46,3.93-2.52,3.86-3.32-1.33-3.64-4.39-5.6-6.93-8.29-3.44-3.63-6.96-7.22-10.28-10.96-1.05-1.18-2.36-1.85-3.04-3.62-2.04-5.27,1.53-16.8,1.91-22.85.11-1.75-.42-1.22-.56-1.48ZM296.49,294.26c24.5,4.73,49.48,6.05,74.35,3.48,13.11-1.36,27.24-4.47,40.11-7.44,6.87-1.58,15.89-3.91,22.18-6.99.47-.23,1.38-.45,1.55-.99.57-4.64,1.59-9.51,2.74-14.06,1.97-7.78,5.63-15.2,3.96-23.45-1.55,1.12-2.64,2.77-4.2,3.88-14.68,10.42-45.54,14.56-63.52,16.69-26.98,3.2-64.99-.61-90.48-10.27-3.94-1.49-8.24-3.53-11.73-5.86-.56.76.94,16.71,1.3,18.82,1.39,8.15,6.84,16.74.9,24.12-4.73,5.88-10.8,12.74-16.03,18.2-1.58,1.65-4.6,3.77-5.84,5.57-.18.27-.43.33-.31.79,1.46.82,2.81,1.74,4.32,2.5,9.1,4.55,22.51,7.33,32.65,8.88,7.03,1.08,14.16.6,21.2.99,11.93.66,23.88,2.73,35.82,3.18,27.32,1.04,53.16-3.37,79.19-10.88,13.12-3.79,26.16-7.46,37.35-15.61-2.03-3.45-6.11-4.57-9.3-6.55-5.15-3.19-15.06-8.43-17.6-13.78-.27-.58-.44-1.04-.37-1.69-7.9,3.71-15.92,6.36-24.41,8.4-16.98,4.09-33.72,7.5-51.21,8.71-16.53,1.14-38.2.56-54.26-3.44-2.68-.67-6.21-1.51-8.36-3.21ZM390.97,365.27c20.65-4.08,42.42-6.11,62.39-12.92,1.95-.66,5.9-2.1,7.38-3.42.63-.56-.42-2.08-.57-2.92-1.62-9.28,1.53-21.78,2.46-31.31.24-2.47.4-4.96.32-7.44-2.41,1.75-4.3,4.05-6.8,5.71-7.9,5.25-19.51,8.56-28.63,11.31-25.85,7.82-52.35,12.63-79.5,11.5-15.55-.65-31.07-2.55-46.62-3.48-13.7-.81-37.09-4.58-48.32-12.55-.7-.5-1.14-1.33-1.92-1.72-.02,5.31.8,10.71,1.63,15.96.8,5.12,3.39,13.53,3.45,18.13.01.93-.66,1.81-.6,2.15.37,1.92,8.61,4.34,10.57,4.97,15.08,4.82,31.37,8.36,47.23,9.2,8.86.47,18.75.6,27.56-.05.21-.02,1.17-.45,1.14.2-.03.58-5.36,1.34-6.18,1.42-22.85,2.39-43.24-.4-65-6.96-5.29-1.59-11.44-3.93-16-6.98-.52,4.51-4.73,7.08-7.46,10.14-1.14,1.27-2.03,2.87-3.16,4.13-2.22,2.46-7.25,6.73-8.74,9.33-.57,1,.06,2.63-1.25,2.72v.31c2.19.61,4.2,2.07,6.34,3.01,12.85,5.62,25.43,11.86,39.25,14.96,31.44,7.07,63.36,8.07,95.34,4.86,9.64-.97,19.21-2.49,28.85-3.49,9.64-.99,17.75-1.42,27.43-3.33,16.25-3.21,37.54-7.77,51.08-17.4,2.4-1.71,4.42-3.91,6.93-5.28-1.09-2.87-3.54-4.78-5.87-6.64-6.47-5.16-13.87-9.75-19.67-15.84-.67-.7-2.32-3.52-2.83-3.51-.38,0-3.18,1.81-3.9,2.14-17.35,7.86-43.68,11.11-62.68,13.09-1.05.11-2.18.49-3.2.61-.63.07-.45-.06-.45-.61Z"/>
  <path class="cls-1" d="M102.77,242.26l2.17.37.04,1.22c-.47-.05-.85-.29-1.34-.25-1.97.18-6.68,1.69-8.73,2.38-.41.14-3.83,1-2.93,1.98,2.62-.71,5.18-2.1,7.78-2.83,3.48-.97,8.22-2.56,5.85,3.15,4.37-.17,5.13,1.95,2.85,5.39,1.53-.48,2.44.83,3.63.97,1.83.22,4.72-.68,6.67-.68,7.27,0,16.03.48,20.58,7.03,6.42,9.21,10.52,23.87,14.14,34.68,4.03,12.02,8.7,25.29,11.57,37.57,5.62,24.07,2.15,52.33-23.86,62.06-18.44,6.89-36.21,5.04-54.54-.79-11.21-3.56-24.46-14.12-29.17-25.04-11.19-25.97-2.29-52.9,7.7-77.42,3.36-8.23,13.04-28.08,20.65-32.29,1.6-.88,3.33-.89,4.85-1.8-1.24-1.14-1.03-3.03-.27-4.4.31-.55,1.46-1.32,1.52-1.67.11-.62-1.19-1.03-1.26-1.87-.06-.7.54-1.18.54-1.57,0-.8-1.27-1.61.71-2.52l-7.63-22.79-5.73-8.54c-.52-.93-.12-2.06.8-2.52,3.4-1.69,13.57-7.19,17.05-6.13,2.6.79,1.22,5.18,1.29,6.96.08,1.99.38,4.64.64,6.65,1.01,7.63,3.53,15.07,4.4,22.7ZM96.1,208.66c.09-.35-.13-.82-.46-.87s-5.99,1.48-6.77,1.73c-1.8.59-4.42,1.66-5.77,2.95l13-3.8ZM92.62,245.44l8.85-3.05c-2-10.81-6.55-21.64-5.37-32.77-4.46,2.64-9.99,4.66-15.21,4.76-.32.29,2.05,2.75,2.35,3.19,3.62,5.26,6.64,14.91,8.27,21.21.54,2.1.96,4.49,1.11,6.66ZM104.66,245.75c-.43-.43-10.25,2.96-11.66,3.4-.32.1-.94-.05-.7.55.13.31.7.75,1.09.77,1.19.07,6.88-1.75,8.66-2.12.69-.14,1.4-.02,2.1-.12l.47-.48.04-2.02ZM134.73,266.63c-.19-.59-.41-.8.21-1.22l.92.62c2.66-1.63-1.1-5.02-2.76-6.07-4.4-2.79-9.29-2.71-14.34-3.12l-7.23.7-.84,1.85c2.15-.26,3.42.6,3.17,2.85l.95-.31-1.58,2.53c2.31.34,1.52-.26,1.99-.84.73-.88,1.71-1.12,2.77-.74.19,1.12-1.2.61-1.95,1.03-.16.09-1.65,1.41-1.71,1.51-.26.4.41,1.87.18,2.53h1.26s-.49-2.23-.49-2.23c.91-1.42,3.44-.6,3.62-.68.58-.28,1.12-1.94,1.48-2.48l.79,2.21-1.26.48,1.73,1.12,1.45-2.7-.64-1.11,1.57.02c.43,1.75.21,1.23-.62,2.36l.64.63c-2.02,1.06.45,2.73.64,1.9l-.63-.94c1.76-.97-.02-2.22,1.11-3.33l1.3,2.2c.17,1-1.24,1.96-.03,2.86.79,0-.02-1.02.76-1.69.32-.27.6-.23.98-.21l-1.26-1.26c.96.03,2.35.9,3.15,1.46.3.21.21.66.49.77.94.35.42-2.52,1.74-2.22l.32,1.9-.92.03-.03.92,3.11-1.31ZM91,261.63c-1.11-.8-9.03,3.32-4.42,5.48.25.12.65-.15.87-.04.09.05.85,1.14,1.51,1.19.19-.95.43-1.8,1.42-2.22-.2.94-.81,1.1-.35,2.18l-.6.35c1.26-.58,1.85,1,2.71.83.42-.08,1.08-1.22,2.05-.83.03-.56.15-.68-.49-.65-1.18.06-1.36,1.41-2.05.48-.22-1.67,2.15-.87,1.92-2.53-.03-.18-1.01-.03-.65-.8,1.06.71,1.28-1.15-.15-.95-.68.09-1.09,1.15-1.75.16l.94-.63-.97-2.04ZM121.79,268.58c-.46-.98-1.82-.44-2.56-1.11-.51-.47.21-1.82-.61-2.05-1.02,2.48,1.03,3.32,3.17,3.16ZM132.57,294.25c-3.04-5.51-6.17-11.56-9.7-16.77-.57-.85-2.37-3.51-3.21-3.77-1.07-.32-2.06.24-3.09.27-9.2.21-23.83.99-31.54-4.63-.97-.71-1.39-1.83-2.4-2.36-.68.17-6.73,10.39-7.51,11.83-7.44,13.89-17.15,38.73-18.65,54.26-.79,8.16-.92,16.18.64,24.25.54.06.34-1.09.33-1.44-.15-3.37-.53-6.71-.33-10.13.6-10.37,7.12-26.11,12.55-35,3.51-5.75,7.35-11.05,12.85-15.05,1.83-1.33,10.36-6.33,12.17-6.53,1.78-.2,7.82-.06,8.72,1.75.58,1.18-1.98-.58-2.21-.65-1.51-.44-4.59-.62-6.16-.43-2.01.24-10.28,5.07-12.22,6.49-10.85,7.95-20.5,28.81-23.59,41.72-2.58,10.8-1.35,27.84,5.36,37.01,16.18,22.11,57.27,27.66,80.56,14.98,5.31-2.89,6.44-4.75,8.43-10.27,2.36-6.54,3.69-13.4,4.99-20.22.55,0,.68-.18.61.45-.87,7.97-3.76,16.24-6.32,23.8l2.35-2.08c12.33-16.86,9.29-37.02,3.83-55.76-3.58-12.27-7.94-24.7-11.97-36.85-2.44-7.34-4.2-15-8-21.79-4.93,4.56-11.89,4.98-18.23,6.02,3.79,5.25,7.44,11.17,10.52,16.9.5.94,1.5,2.67,1.83,3.56.2.54-.21.53-.61.46Z"/>
  <path class="cls-1" d="M350.39,153.51c-1.26-.87-3.01-2.02-4.12-3.01-.83-.74-2.67-2.62-.55-2.63,2.69,1.65,6.68.16,9.74.25-2.25-2.82,2.24-1.57,2.54-1.9.06-.07-.12-1.08.29-1.77s1.45-.83,1.91-1.26c.13-.12,2.05-2.57,2.23-2.84.99-1.48-.07-4.63-.72-6.26-.82-2.07-1.54-2.72-2.16-5.11-.02-.09-1.24-.82-.61-1.47,1.41-1.46,6.19,4.92,6.78,6.06,1.71,3.27,2.73,10.39,2.76,14.07.06,7.12-10.51,11.86-16.45,10.4-1.72-.42-6.6-2.56-6.42-4.69.22-2.63,4.02,2.11,4.77.16Z"/>
  <path class="cls-1" d="M152.54,330.4c.01,10.38.38,20.86-1.73,31.08-1.27,6.16-6.21,24.83-9.83,29.16-.23.27-1.42,1.57-1.75,1.26,2.3-2.87,3.91-6.49,5.08-9.98,3.38-10.07,6.76-24.32,7.28-34.88.27-5.38-.24-10.8.32-16.17l.63-.47Z"/>
  <path class="cls-1" d="M125.59,329.12c.68,4.15,1.25,8.33,1.58,12.53,1.23,15.44,1.03,30.93-3.57,45.87-.66,2.14-1.8,5.46-3.4,6.9.86-2.43,2.06-4.76,2.7-7.28,4.15-16.18,4.77-30.48,3.31-47.08-.26-2.99-1.13-6.22-1.28-9.18-.03-.63-.32-2.05.65-1.76Z"/>
  <path class="cls-1" d="M94.68,323.74c-2.01.33-7.25,4.57-8.73,6.17-3.36,3.6-7.54,13.93-8.46,18.8-1.06,5.61-.8,11.84-.41,17.51-.81-.4-.89-1.88-.96-2.68-1.07-13.14,2.77-29.72,13.49-38.2,3.38-2.68,7.89-4.28,11.56-1.28-.59.28-1.46-.31-1.74-.31-1.37,0-3.52-.2-4.76,0Z"/>
  <path class="cls-1" d="M150.96,319.61c-.85.21-.75-.57-.92-1.13-.86-2.82-1.23-6.19-1.96-9.15-3.25-13.3-7.4-25.28-13.54-37.5-.27-.54-.6-.52.09-1.03.97,1.2,1.75,2.52,2.43,3.9,2.27,4.6,4.67,10.64,6.37,15.5,3.31,9.44,5.51,19.61,7.52,29.41Z"/>
  <path class="cls-1" d="M87.86,278.09c.18.92-.27.51-.7.71-13.11,6.37-18.26,19.62-24.27,31.87-.21.43.21.88-.71.7-.04-.77.3-1.43.58-2.11,4.34-10.7,9.8-20.67,18.93-27.99,1.74-1.39,3.81-3.28,6.17-3.18Z"/>
  <path class="cls-1" d="M113.86,372.87c-.75,6.74-2.33,17.01-7.77,21.55-.36.3-.51.77-1.11.63l2.8-3.38c2.79-3.95,4.72-13.42,5.45-18.33.08-.55-.17-.53.62-.47Z"/>
  <path class="cls-1" d="M123.05,318.66c-.83.15-.56-.16-.78-.63-3.16-6.77-3.78-16.21-11.9-19.34l.47-.62c7.91,3.68,9.8,13.04,12.21,20.6Z"/>
  <path class="cls-1" d="M134.78,299.33l3.49,18.39-2.32-8.61c-.25-2.74-1.29-5.45-1.71-8.11-.1-.62-.47-1.93.55-1.66Z"/>
  <path class="cls-1" d="M84.37,383.65l-2.67-2.56c-1.81-3.56-3.48-7.23-4.62-11.07l7.29,13.63Z"/>
  <path class="cls-1" d="M108.78,340.54c1.58,4.53,3.35,9.11,3.81,13.95l-4.39-13.53.58-.42Z"/>
  <path class="cls-1" d="M139.86,338.79c-.07.79-.54,2.13-.64,3.01-.9-.18,0-1.82,0-2.06v-7.93c0-.06.43-.5.63-.48-.15,2.42.2,5.05,0,7.45Z"/>
  <path class="cls-1" d="M139.54,326.59c-.46.07-.44-.56-.53-.89-.6-2.11-.68-4.83-.73-7.04.49-.04.54.8.6,1.14.38,2.14.39,4.6.66,6.78Z"/>
  <path class="cls-1" d="M130.02,262.56l.96,1.58-1.58-.32-.03.91-1.24.04c.35-.84.13-1.35,1.2-1.33l.08-.64.61-.24Z"/>
</svg>