<?xml version="1.0" encoding="UTF-8"?>
<svg id="Layer_1" data-name="Layer 1" xmlns="http://www.w3.org/2000/svg" xmlns:xlink="http://www.w3.org/1999/xlink" viewBox="0 0 1200 1200">
  <defs>
    <style>
      .cls-1 {
        fill: none;
      }

      .cls-2 {
        fill: #fff5df;
      }

      .cls-3 {
        fill: url(#Matte);
      }

      .cls-4 {
        fill: #ffcf96;
      }
    </style>
    <pattern id="Matte" x="0" y="0" width="700" height="700" patternTransform="translate(-6329.77 -1457.25) scale(.7)" patternUnits="userSpaceOnUse" viewBox="0 0 700 700">
      <g>
        <rect class="cls-1" width="700" height="700"/>
        <g>
          <g>
            <path class="cls-2" d="M475.65,658.17c-.36-1.52-.8-3.52-1.02-5.04-.19-1.36.51-4.83-1.54-5.23-2.74-.54-10.09,4.48-12.57,6.04-.67.43-.88,1.32-.41,2l5.06,6.09,7.64,16.84c-1.44.85-.4,1.37-.34,1.98.03.3-.39.72-.29,1.25.12.64,1.15.85,1.11,1.33-.02.27-.84.95-1.03,1.4-.48,1.1-.49,2.57.55,3.34-1.09.82-2.42.96-3.57,1.76-5.5,3.83-11.34,19.78-13.26,26.35-5.72,19.56-10.41,40.88.21,59.88,4.46,7.99,15.45,15.03,24.31,16.87,14.49,3.02,28.24,3.03,41.81-3.7,19.15-9.5,19.57-31.41,13.37-49.39-3.16-9.17-7.79-18.96-11.82-27.85-3.63-7.99-7.92-18.89-13.56-25.43-4.01-4.65-10.75-4.34-16.31-3.76-1.49.15-3.64,1.07-5.05,1.05-.93-.02-1.73-.94-2.86-.46,1.47-2.81.72-4.38-2.61-3.9,1.37-4.56-2.14-2.97-4.73-1.95-1.94.76-3.78,2.04-5.74,2.78-.77-.68,1.78-1.61,2.08-1.75,1.51-.69,5-2.22,6.49-2.51.37-.07.69.08,1.05.08l-.13-.93-1.69-.11c-1.27-5.77-3.79-11.27-5.16-17.03ZM463.41,653.94c.93-1.09,2.85-2.12,4.18-2.71.57-.25,4.77-1.87,5.04-1.86s.46.35.42.63l-9.65,3.94ZM471.92,673.42c-1.75-4.7-4.82-11.85-8-15.59-.27-.31-2.28-2.01-2.05-2.26,3.99-.49,8.06-2.47,11.27-4.84-.03,8.62,4.31,16.54,6.69,24.66l-6.53,3.03c-.29-1.65-.79-3.45-1.37-5.01ZM482.67,679.28l-.33.4c-.52.13-1.08.1-1.6.26-1.33.42-5.54,2.26-6.46,2.3-.3.01-.77-.28-.89-.51-.24-.45.25-.38.49-.48,1.05-.45,8.3-3.82,8.66-3.53l.13,1.55ZM504.92,692.59l-.05-.71.7-.1-.4-1.43c-1.04-.12-.41,2.03-1.16,1.84-.23-.06-.19-.41-.44-.55-.66-.36-1.79-.92-2.53-.87l1.07.87c-.29.02-.51,0-.73.24-.54.58.15,1.29-.45,1.35-.99-.6,0-1.44-.2-2.19l-1.17-1.58c-.78.94.68,1.76-.59,2.64l.56.67c-.08.65-2.1-.44-.64-1.41l-.54-.43c.55-.93.76-.55.29-1.85l-1.2.11.58.8-.9,2.18-1.41-.72.93-.47-.78-1.63c-.23.44-.51,1.75-.93,2.01-.13.08-2.13-.35-2.72.81l.55,1.67-.97.1c.13-.52-.5-1.6-.33-1.92.04-.08,1.07-1.21,1.19-1.29.54-.38,1.65-.1,1.41-.94-.84-.21-1.57.05-2.06.79-.32.48.34.88-1.46.8l1.01-2.06-.7.32c0-1.75-1.03-2.3-2.65-1.93l.5-1.48,5.48-1.1c3.9-.09,7.64-.53,11.23,1.26,1.36.68,4.5,2.97,2.59,4.43l-.75-.4c-.44.37-.26.51-.07.95l-2.28,1.25ZM474.24,692.44l-.67.56c.58.71.82-.13,1.33-.26,1.08-.26,1.06,1.17.19.71-.21.61.52.42.56.56.31,1.25-1.57.82-1.27,2.09.61.66.63-.4,1.53-.53.48-.07.4.02.42.46-.77-.22-1.19.71-1.5.8-.64.19-1.22-.97-2.14-.43l.43-.32c-.44-.79.01-.96.1-1.7-.73.4-.85,1.07-.91,1.81-.51.01-1.18-.77-1.25-.79-.18-.07-.46.17-.66.1-3.7-1.29,2.03-5.07,2.95-4.54l.91,1.48ZM494.77,691.67c.64.11.2,1.21.63,1.52.62.46,1.62-.07,2.04.65-1.62.29-3.26-.2-2.67-2.17ZM508.17,712.26c-.32-.65-1.23-1.9-1.69-2.58-2.8-4.14-6.06-8.39-9.38-12.11,4.77-1.3,10.07-2.17,13.48-6.05,3.45,4.9,5.4,10.62,7.84,16.05,4.04,8.98,8.37,18.15,12.07,27.26,5.66,13.92,9.57,29.12,1.47,42.99l-1.64,1.78c1.36-5.99,2.93-12.55,2.96-18.72,0-.49-.08-.34-.5-.29-.46,5.32-.93,10.68-2.22,15.87-1.09,4.39-1.81,5.9-5.65,8.53-16.83,11.54-48.72,10.54-62.85-5.11-5.86-6.49-8.15-19.44-7.02-27.91,1.34-10.13,7.09-26.86,14.77-33.8,1.37-1.24,7.32-5.59,8.84-5.93,1.18-.27,3.56-.37,4.75-.16.18.03,2.28,1.18,1.74.32-.83-1.31-5.46-.95-6.81-.65-1.37.3-7.51,4.8-8.8,5.96-3.9,3.49-6.42,7.86-8.65,12.54-3.45,7.24-7.2,19.8-6.84,27.79.12,2.63.67,5.16,1.05,7.73.04.27.28,1.13-.14,1.13-1.83-6.06-2.36-12.2-2.4-18.51-.08-12.01,5.4-31.79,10-43.01.48-1.17,4.31-9.46,4.81-9.65.81.32,1.22,1.15,2.02,1.62,6.34,3.69,17.48,1.94,24.51,1.06.79-.1,1.5-.61,2.35-.45.67.13,2.25,2.03,2.75,2.63,3.11,3.71,5.99,8.09,8.75,12.07.32.02.63,0,.43-.4Z"/>
            <path class="cls-2" d="M523.81,730.62c-.64.23-.62-.38-.79-.79-.88-2.09-1.43-4.64-2.22-6.85-3.54-9.92-7.66-18.77-13.33-27.64-.25-.39-.5-.35-.01-.8.84.85,1.54,1.79,2.17,2.79,2.1,3.34,4.41,7.78,6.1,11.37,3.28,6.97,5.77,14.58,8.08,21.92Z"/>
            <path class="cls-2" d="M503.28,688.59l.86,1.13-1.24-.12.05.7-.95.13c.2-.67,0-1.05.82-1.11v-.5s.46-.24.46-.24Z"/>
          </g>
          <path class="cls-2" d="M66.4,711.84l-1.24-.02-.15.67c.26.02.5-.08.77,0,1.07.3,3.53,1.61,4.6,2.2.21.12,2.02.94,1.42,1.39-1.38-.66-2.66-1.69-4.03-2.36-1.83-.89-4.3-2.25-3.56,1.16-2.4-.54-3.04.57-2.12,2.7-.8-.42-1.43.21-2.11.17-1.03-.06-2.55-.85-3.63-1.05-4.03-.74-8.93-1.35-12.12,1.82-4.49,4.46-8.23,12.18-11.33,17.8-3.45,6.26-7.37,13.15-10.2,19.66-5.54,12.78-6.47,28.8,6.98,36.81,9.53,5.68,19.57,6.44,30.32,5.06,6.57-.85,14.99-5.37,18.7-10.94,8.82-13.27,6.6-29.1,3.53-43.7-1.03-4.9-4.4-16.88-8.2-19.98-.8-.65-1.76-.83-2.51-1.49.8-.51.88-1.58.59-2.41-.12-.34-.68-.88-.67-1.08,0-.36.76-.45.89-.91.1-.38-.18-.71-.14-.93.08-.44.87-.77-.14-1.47l6.52-11.87,4.04-4.16c.38-.47.28-1.13-.19-1.48-1.72-1.28-6.8-5.35-8.83-5.12-1.52.18-1.2,2.75-1.42,3.73-.24,1.1-.68,2.53-1.03,3.62-1.33,4.13-3.48,8-4.73,12.14ZM73.48,693.89c-.01-.2.15-.44.34-.43s3.18,1.42,3.58,1.64c.94.51,2.28,1.37,2.9,2.21l-6.82-3.42ZM71.7,714.63l-4.6-2.58c2.2-5.79,5.81-11.34,6.28-17.63,2.21,1.92,5.07,3.59,7.96,4.17.15.19-1.42,1.32-1.63,1.53-2.54,2.55-5.18,7.6-6.72,10.93-.51,1.11-.98,2.39-1.29,3.58ZM64.99,713.59c.28-.2,5.38,2.67,6.12,3.06.17.09.53.07.33.38-.1.16-.46.35-.68.32-.67-.08-3.64-1.66-4.59-2.05-.37-.15-.78-.15-1.15-.28l-.22-.31.18-1.12ZM46.22,722.13c.16-.31.31-.4,0-.7l-.57.25c-1.31-1.17,1.11-2.67,2.14-3.09,2.72-1.1,5.42-.57,8.27-.29l3.94,1.11.28,1.11c-1.16-.36-1.96-.01-2.05,1.26l-.49-.27.62,1.56c-1.31-.04-.81-.3-1.02-.66-.31-.56-.83-.79-1.46-.69-.22.6.6.46.98.77.08.07.77.95.8,1.01.1.25-.42,1-.35,1.38l-.7-.13.5-1.18c-.36-.88-1.85-.68-1.94-.74-.3-.22-.42-1.19-.57-1.52l-.66,1.15.65.39-1.07.45-.53-1.64.47-.55-.87-.15c-.41.93-.24.66.11,1.37l-.42.28c1.02.79-.52,1.47-.55.99l.45-.46c-.88-.71.23-1.23-.28-1.96l-.94,1.09c-.19.54.49,1.21-.27,1.59-.43-.08.11-.56-.25-1.01-.15-.18-.31-.19-.52-.22l.83-.57c-.53-.08-1.39.26-1.89.49-.19.09-.18.34-.35.37-.56.1.02-1.44-.74-1.41l-.37,1.02.51.11-.08.51-1.59-1.04ZM70.97,723.77c.7-.33,4.67,2.75,1.9,3.48-.15.04-.34-.15-.48-.11-.05.02-.59.55-.96.51,0-.55-.06-1.04-.56-1.37.02.54.34.69-.03,1.24l.3.26c-.64-.45-1.13.37-1.58.19-.22-.09-.48-.79-1.05-.67.04-.31-.01-.39.34-.31.65.15.61.92,1.09.48.29-.91-1.1-.7-.81-1.59.03-.1.56.08.44-.38-.66.29-.59-.76.18-.51.37.12.49.75.96.26l-.46-.45.74-1.03ZM53.2,724.52c.35-.5,1.05-.06,1.53-.36.33-.21.07-1.03.55-1.08.32,1.48-.91,1.74-2.07,1.44ZM44.63,737.67c2.24-2.75,4.59-5.79,7.07-8.32.4-.41,1.67-1.71,2.16-1.77.63-.07,1.12.34,1.69.46,5.08,1.04,13.11,2.95,17.95.61.61-.3.95-.88,1.57-1.07.36.17,2.69,6.44,2.97,7.32,2.73,8.45,5.61,23.2,4.87,31.96-.39,4.61-1.12,9.06-2.8,13.38-.31-.02-.08-.64-.04-.83.42-1.85.97-3.67,1.2-5.58.71-5.81-1.32-15.19-3.43-20.67-1.36-3.54-2.96-6.87-5.61-9.64-.88-.92-5.1-4.55-6.09-4.85s-4.33-.82-5.01.09c-.44.59,1.15-.12,1.29-.14.88-.09,2.61.12,3.46.38,1.09.34,5.19,3.85,6.12,4.83,5.21,5.5,8.47,18.04,8.88,25.5.34,6.25-2.06,15.57-6.7,19.98-11.2,10.63-34.54,9.56-46.17.19-2.65-2.14-3.09-3.28-3.64-6.54-.65-3.86-.7-7.8-.73-11.71-.31-.06-.36-.17-.38.19-.32,4.51.45,9.38,1.11,13.83l-1.1-1.39c-5.14-10.59-1.42-21.46,3.49-31.3,3.22-6.44,6.89-12.9,10.35-19.22,2.09-3.82,3.84-7.89,6.63-11.28,2.28,3.02,6.09,3.96,9.5,5.17-2.63,2.53-5.25,5.44-7.53,8.31-.37.47-1.1,1.33-1.38,1.79-.17.28.06.31.29.32Z"/>
        </g>
        <g>
          <g>
            <path class="cls-2" d="M755.68,621.95c2.45-1.85,4.1-3.76,4.87-6.8.81-3.21-2.39-6.48-4.47-8.59-3.92-3.97-8.65-7.42-12.66-11.42-2.31-2.3-8.99-9.15-9.87-11.79-2.94-8.77,5.25-29.46,6.75-39.38.54-3.58.64-6.44-1.27-9.64-3.81-6.39-16.05-12.26-21.65-17.65-1.57-1.51-4.62-5.37-4.31-7.49.53-3.65,3.72-11.58,5.13-15.42,2.54-6.91,6.38-13.26,6.7-20.85.58-13.51-12.85-23.42-20.12-33.33-1.59-2.17-1.01-5.17-.55-7.7,1.46-8.03,4.66-16.75,6.07-24.71.28-1.56-.02-4.05.25-5.08s1.72-3.3,2.26-4.62c7.26-18.08,13.07-36.69,20.37-54.76,1.94-4.8,4.55-9.3,6.5-14.09,11.87-29.29,11.86-61.29-23.12-72.17-19.03-5.92-39.98-9.38-59.7-12.3-20.22-2.99-44.18-7.12-64.41-2.81-7.14,1.52-25.78,6.62-31.04,10.92-24.16,19.76-8.47,50.05-3.46,74.72,3.23,15.86,5.26,34.79,6.08,50.96.25,5.01-.42,7.28-1.16,11.93-1.57,9.93.37,20.23.3,30.23-.81,5.54-12.12,14.35-16.36,18.22-.94.86-1.78,1.99-2.72,2.85-3.13,2.85-7.83,5.42-9.66,9.4-2.01,4.35-1.9,18.89-1.59,24.19.32,5.62,3.31,17.15.79,21.77-.9,1.66-5.15,4.84-6.82,6.32-1.34,1.19-4.32,4.81-5.9,5.13-.69.14-4.12.06-5.04-.02-30.37-2.52-48.86-23.13-54.59-51.94-4.41-22.2-4.66-50.32-17.85-69.38-2.38-3.44-4.94-6.94-7.4-10.34-2.02-2.79-5.56-5.34-5.7-8.92-.03-.73.33-1.24.31-1.79-.04-1.13-.5-3.51-1.58-4.08-.64-.34-4.9,0-6.04-.09-2.89-.22-5.22-.71-7.91-1.79-2.25-.9-10.8-6.42-12.69-3.87-1.27,1.71-.02,3.52,1.26,4.64,3.85,3.35,10.92,6.78,15.32,9.9,14.89,10.52,22.05,33.79,24.2,51.06,3.54,28.48,2.77,57.54,17.33,83.3,8.86,15.68,20.37,22.35,38.11,24.76,1.03.14,3.4-.4,3.8.36.45,4.78.4,9.63.81,14.41.35,4.04,2.63,17.09,1.89,19.99-1.29,5.03-6.07,7.38-9.49,10.4-2.45,2.16-4.85,4.38-7.28,6.52s-6.78,5.39-8.64,7.55c-1.03,1.19-1.42,3.36-.52,4.73.39.6,1.3.67,1.33.74.1.18-.52.91-.45,1.44.26,1.99,8.99,7.36,11.21,8.06-.33,3.8-1.92,6.72-1.78,10.7.18,5.26,2.24,4.29,5.78,6.63,32.23,21.23,78.44,28.29,116.37,31.42,40.24,3.32,77.95,4.35,116.9-7.25,3.9-1.16,9.76-.82,11-5.61l-1.06.23-1.16-7.68-1.37-1.26c6.45-1.56,14.36-4.83,19.68-8.86ZM726.96,264.05c-13.72-2.4-27.19-7.35-40.91-10.23-11.83-2.48-24-3.07-35.95-4.83-13.67-2.01-25.26-4.69-39.39-4.86-8.16-.1-16.4.84-24.55.7,7.03-2.16,14.38-3.15,21.75-3.39,16.85-.55,33.89,2.14,50.5,4.59,18.69,2.76,43.48,6.53,60.99,13.14,3.23,1.22,6.15,3.04,9.15,4.69,0,.6-1.23.25-1.59.19ZM652.47,330.28c-2.12-2.39-6.76-3.5-9.84-2.85-2,.42-7,4.01-8.83,5.39-6,4.51-12.46,11.37-12.11,19.38-5.18-.74-10.58-.24-15.75.52-8.2,1.22-17.5,4.39-23.87,9.69-1.39,1.16-2.66,2.9-4.22,3.9-1.6-11.55-2.62-23.19-4.21-34.74-2.7-19.62-11.74-56.25,2.92-72.2,17.98-19.56,49.1-10.75,71.84-7.42,12.29,1.8,24.81,2.41,36.98,4.93,8.16,1.69,24.26,5.17,31.4,8.5,11.89,5.55,13.99,27.23,12.07,38.61-4.08,24.14-16.47,46.51-23.02,70.5-.65,2.37-1.26,4.8-1.52,7.25l-2.4-5.43c-.46-1.41-2.58-2.47-3.19-3.23-.49-.61-.75-2.51-1.63-3.55-7.47-8.85-26.1-10.87-36.95-11.9-.54-.05-1.06,0-1.56.2.14-.33-.27-.77-.26-.9.25-2.42.74-5.18.8-7.55.15-6.39-2.43-14.31-6.67-19.1ZM704.95,382.75c4.41-7.45,5.72-16.56,8.57-24.77,6.6-19.06,14.96-34.13,18.19-54.74,1.04-6.62.49-13.97-1.16-20.43-1.44-5.63-3.47-12.28-7.82-16.28,1.96-.74,4,2.35,4.94,3.85,11.69,18.51,4,42.47-2.24,61.58-2.81,8.62-6.09,17.99-9.38,26.44-1.58,4.06-3.88,8.1-5.25,12.14-1.76,5.19-2.39,10.78-4.56,15.9l-1.29-3.69ZM557.73,265.96c-6.79,17.65-.4,32.37,3.81,49.34,3.19,12.84,3.79,28.63,5.23,41.92.87,8.03,2.52,16.03,2.55,24.13l-3.4,1.04c-.04-2.23.2-4.5.19-6.74-.09-22.95-3.55-45.74-9.23-67.88-1.17-4.57-3.06-8.99-4.03-13.69-3.18-15.49-2.16-30.94,12.1-40.55.42-.28.65-.77,1.27-.56-3.7,3.82-6.56,7.98-8.48,12.99ZM625.22,357.65c-.39-1.26-1.25-3.42.16-4.21.16-.27-.6-.1-.65-.46-.89-6.58,5.99-13.89,10.88-17.55,1.02-.76,6.67-4.63,7.43-4.78,2.8-.55,5.66.33,7.4,2.53,5.34,6.74,5.06,15.57,4.45,23.72-.43,5.71-2.43,6.96-7.46,9.05-5.38,2.24-10.08,1.44-15.65.05-2.82-2.46-5.36-4.45-6.56-8.34ZM687.27,377.16c-2.61.66-5.31,1.23-7.98,1.58l10.57-3.81c2.62-.94,4.18-4.4,7.08-2.3,1.15,1.95-8.67,4.28-9.67,4.53ZM596.67,368.19c12.91,3.99,26.14,5.47,39.32,8.07,1.32.26,2.86.14,4.12.44.47.11,1.05.37.43.74l-19.86-1.04c-9.58-2.29-23.21-3.48-31.19-9.62-1.72-1.32-5.03-4.63-1.38-5.64-.22,4.15,5.29,6.04,8.56,7.05ZM616.58,379.08c-4.45-1.1-9.46-1.59-13.82-2.95-3.06-.95-4.87-2.52-8.45-2.53-2.06,0-3.06,1.04-1.91,2.9l-2.98.02c-.66,1.25.42,1.7.97,2.55l-3.2-.27c-1.05.21-.91,1.48-1.31,1.55-1.13.2-4.9-.94-5.84-1.85,3.87.64,3.73-1.54,5.46-3.73.69-.88,2.03-1.28,2.42-2.45.91-2.77-.82-2.47-2.14-3.79-1.53-1.54-3.55-3.88-.83-5.29.32,2.2,2.19,4.01,3.87,5.34,3.98,3.17,10.16,5.57,15.02,7,4.7,1.38,9.54,2.38,14.34,3.31l-1.6.19ZM697.9,376.49c-.92,1.04-11.32,3.64-13.52,4.46-1.13.42-2.53,1.07-2.79,2.4-.12.62.19,1.25.1,1.72-.39,2.01-2.4,6.15.26,7.07,4.1,1.41,11.45-.79,16.04-.97,1.68-.07,3.35.65,5.01-.21-.25,1.37-1.39,2.03-2.59,2.43-3.84,1.28-14.58,2.37-19.07,2.82-11.78,1.19-27.18.38-39.05-.53-7.08-.55-14.13-1.46-21.05-2.93l3.72-.17c15.07.51,33.32,5.55,48.19,2.43,2.03-.43,5.35-1.99,5.61-4.34.22-1.99-1.81-2.23-2.02-3.41s.5-2.26-.07-3.71c-.48-1.23-1.63-1.19-2.15-2.18,5.83-1.66,13.81-1.6,19.27-3.93,1.53-.65,2.47-1.95,3.95-2.3l.18,1.36ZM697.56,389.1c-5.17.13-10.21,2.23-15.35,1.41l.49-7.34c.22-.86,1.52-1.51,2.32-1.8,4.23-1.52,9.41-1.63,13.34-4.04.64.07,5.23,11.41,4.81,11.91-1.86.45-3.71-.18-5.61-.14ZM627.27,379.92l4.57,1.11-9.27-.98,4.7-.13ZM405.36,358.11l4.3,3.28c-1.13-.35-5.41-1.83-5.99-2.53-.36-.43-.34-.88-.16-1.38.21-.5.93-.66,1.34-.36.11.08.15.83.51.98ZM426.34,371.13l2.6-1.64c.76,2.97,3.29,4.88,4.96,7.29,2.63,3.8,5.42,7.63,7.98,11.44,2.44,3.63,3.85,8.09,5.68,12.05-.04,1.03-.42.22-.62-.12-1.62-2.67-2.39-5.77-3.87-8.49-2.75-5.07-8.98-13.29-13.08-17.36-.25-.24-2.23-2.05-1.82-.73.19.61,3.42,4.6,4.1,5.48,9.45,12.25,15.63,24.27,18.38,39.76,5,28.19,2.47,64.28,24.99,85.58,2.15,2.03,4.98,4.26,8.05,4.16-1.06-1.75-3.47-2.62-5.1-4.04-4.97-4.31-9.32-11.23-12.25-17.09-1.26-2.52-3.1-6.17-3.86-8.8-.09-.33-.51-1.38.21-1.27,1.83,5.99,5.62,11.27,8.66,16.7,4.06,3.72,7.55,8.3,11.76,11.84,7.82,6.58,18.07,10.06,28.19,10.95-2.22,1.31-4.2,4.18-6.84,4.15-11.46-.14-30.74-10.65-37.11-20.24-15.16-22.84-12.49-50.32-18.12-75.76-4.14-18.7-10.49-37.23-23.63-51.52-3.94-4.28-8.71-6.83-13.33-10.25l7.81,4.05c3.58,1.14,8.43.53,6.09-4.13l2.47-.44c1.46,3.47-1.88,5.28-2.27,8.44ZM614.05,389.5c-8.11.42-14.13-1.92-21.79-3.94-4.11-1.08-7.95-1.67-12.02-3.15-2.2-.8-5.53-1.83-6.82-3.74,3.32.78,6.37,2.41,9.63,3.35,7.4,2.13,16.03,4.23,23.61,5.71,3.2.62,6.51,1.01,9.74,1.38-.27.48-1.78.36-2.35.39ZM705.35,414.62c-1.11,6.52-6.29,18.59-4.68,24.53.54,1.99,1.88,2.86,2.88,4.26,3.17,4.43,6.57,8.71,9.88,13.04,2.45,3.21,5.54,5.67,6.56,9.77-.01.88-3.68,2.75-4.56,3.16-18.88,8.83-47.72,9.83-68.54,10.36-32.01.81-65.49-6.49-94.93-18.56-5.3-2.17-10.38-5.04-15.19-7.96-.64-.87,2.92-4.65,3.67-5.32,6.03-5.38,12.73-10.66,18.22-16.68,2.43-2.67,4.3-5.81,6.5-8.65,3,3.61,8.58,5.6,12.93,7.43,25.55,10.75,64.53,15.1,92.08,12.91,6.56-.52,12.52-1.86,18.48-4.71.21-.71-.21-.59-.74-.53-5.77.73-10.88,2.46-16.79,2.92-10.48.81-21.36.69-31.81-.12-21.12-1.63-50.63-6.64-69.46-16.36-1.61-.83-3.97-2.24-4.15-4.18-.31-3.36.08-7.31-.04-10.64-.17-4.53-.86-9.09-.61-13.63.15-2.73.67-11.14,3.51-11.99,5.54-1.67,9.82,1.58,14.78,3.16,13.97,4.47,33.18,9.47,47.59,11.42,15.83,2.14,35.74,3,51.65,1,5.75-.72,13.3-2.91,18.77-3.19,4.34-.22,7.19,3.43,6.49,7.63-.22,1.34-3.07,8.79-2.89,9.24.12.3.75-.21.43,1.67ZM566.95,510.27c16.93,6.17,40.33,9.28,58.35,9.93,19.08.69,37.6-1.09,56.45-3.58,9.42-1.25,18.41-3.19,27.39-6.31-.15.7-.03,1.22.21,1.88,2.15,6.09,12.28,12.89,17.49,16.93,3.23,2.51,7.51,4.19,9.32,8.15-13.05,7.54-27.58,10.03-42.22,12.63-29.04,5.16-57.52,6.98-86.99,2.73-12.88-1.85-25.57-5.45-38.42-7.54-7.58-1.23-15.35-1.52-22.84-3.5-10.8-2.84-25-7.39-34.34-13.35-1.55-.99-2.91-2.14-4.4-3.2-.08-.51.2-.56.42-.82,1.55-1.81,5.06-3.76,6.96-5.37,6.3-5.32,13.65-12.05,19.44-17.88,7.27-7.31,2.35-17.24,1.78-26.22-.15-2.33.05-19.77.74-20.53,3.51,2.92,7.93,5.62,12.03,7.69,26.49,13.37,67.22,21.84,96.79,21.46,19.72-.25,53.6-1.21,70.69-10.81,1.82-1.02,3.19-2.68,5-3.72.86,9.13-3.95,16.74-6.97,24.94-1.77,4.79-3.42,9.95-4.57,14.91-.24.56-1.25.7-1.79.89-7.16,2.62-17.2,4.1-24.81,5.03-14.28,1.75-29.93,3.51-44.29,3.48-27.22-.06-54.12-4.34-80.1-12.27,2.14,2.08,5.86,3.4,8.69,4.43ZM652.87,594.23c1.13-.01,2.39-.29,3.54-.29,20.8.02,49.69-.48,69.37-7.01.82-.27,4.06-1.91,4.47-1.87.55.05,2.02,3.29,2.66,4.13,5.58,7.25,13.07,13.07,19.48,19.4,2.31,2.28,4.74,4.63,5.6,7.87-2.88,1.2-5.32,3.35-8.11,4.92-15.76,8.88-39.34,11.38-57.3,13-10.69.96-19.52.5-30.08.47-10.55-.03-21.1.53-31.64.48-34.99-.17-69.44-4.91-102.68-16.15-14.61-4.94-27.52-13.14-40.79-20.69-2.21-1.26-4.22-3.08-6.53-3.98l.04-.34c1.43.06.93-1.79,1.66-2.8,1.91-2.64,7.85-6.69,10.53-9.1,1.37-1.23,2.52-2.86,3.9-4.11,3.3-3,8.16-5.3,9.23-10.13,4.59,3.82,10.99,7.06,16.53,9.39,22.81,9.59,44.57,14.94,69.58,14.97.9,0,6.75-.21,6.85-.83.11-.7-.98-.34-1.21-.35-9.62-.3-20.32-1.57-29.85-3.09-17.08-2.72-34.32-8.42-50.09-15.36-2.05-.9-10.7-4.47-10.88-6.59-.03-.38.8-1.25.89-2.26.46-5-1.38-14.39-1.67-20.03s-.56-11.73.06-17.47c.8.52,1.18,1.47,1.88,2.09,11.24,9.91,36.14,16.67,50.88,19.12,16.73,2.78,33.32,6.62,50.08,9.09,29.26,4.32,58.51,2.14,87.39-3.37,10.19-1.94,23.14-4.2,32.3-8.98,2.9-1.51,5.21-3.79,8.02-5.41-.19,2.7-.65,5.38-1.2,8.02-2.09,10.21-6.93,23.39-6.24,33.62.06.94,1.03,2.69.28,3.23-1.75,1.26-6.19,2.36-8.38,2.86-22.4,5.09-46.2,4.8-69.03,6.86-.07.59-.27.71.41.71Z"/>
            <path class="cls-2" d="M634.04,360.57c-1.38-.95-3.28-2.2-4.49-3.28-.9-.81-2.9-2.85-.59-2.86,2.93,1.8,7.27.17,10.61.27-2.45-3.07,2.44-1.71,2.76-2.07.07-.07-.13-1.17.32-1.92s1.58-.9,2.08-1.37c.14-.14,2.24-2.79,2.43-3.09,1.08-1.61-.08-5.04-.78-6.82-.89-2.25-1.68-2.96-2.35-5.56-.02-.09-1.35-.89-.66-1.6,1.53-1.59,6.74,5.36,7.38,6.59,1.86,3.56,2.97,11.31,3,15.32.07,7.75-11.44,12.91-17.92,11.33-1.87-.46-7.18-2.79-6.98-5.11.24-2.86,4.38,2.3,5.2.17Z"/>
          </g>
          <g>
            <path class="cls-2" d="M306.17,292.99c1.07-1.44,1.68-2.78,1.61-4.61-.07-1.93-2.4-3.23-3.91-4.08-2.84-1.58-6.06-2.74-8.96-4.32-1.67-.91-6.53-3.65-7.46-4.98-3.08-4.43-1.89-17.35-2.67-23.14-.28-2.09-.7-3.71-2.29-5.19-3.18-2.95-10.99-4.23-15.01-6.33-1.12-.59-3.47-2.25-3.64-3.49-.3-2.13.19-7.09.35-9.47.29-4.28,1.39-8.47.33-12.77-1.89-7.65-11.03-11-16.72-15.35-1.24-.95-1.41-2.73-1.57-4.22-.5-4.73-.14-10.14-.65-14.82-.1-.92-.68-2.26-.69-2.89s.42-2.13.51-2.95c1.1-11.31,1.3-22.67,2.42-33.98.3-3,1.03-5.95,1.33-8.95,1.84-18.33-3.4-36.24-24.76-36.6-11.62-.19-23.91,1.3-35.42,2.9-11.81,1.64-25.89,3.26-36.51,8.98-3.75,2.02-13.34,7.93-15.58,11.2-10.28,15.02,3.46,29.4,10.31,42.38,4.4,8.35,8.64,18.61,11.75,27.52.96,2.76.96,4.14,1.31,6.87.75,5.82,3.52,11.26,5.12,16.87.45,3.23-4.43,10.02-6.17,12.88-.39.63-.67,1.41-1.06,2.04-1.28,2.1-3.49,4.32-3.87,6.84-.41,2.76,2.03,10.88,3.07,13.8,1.1,3.09,4.66,9.06,4.01,12.05-.23,1.07-2.09,3.56-2.78,4.65-.55.89-1.63,3.4-2.46,3.84-.36.19-2.3.71-2.82.82-17.41,3.57-31.13-4.94-39.06-20.12-6.11-11.7-10.85-27.39-21.36-35.9-1.9-1.53-3.9-3.07-5.83-4.57-1.59-1.23-3.98-2.08-4.65-4.06-.13-.4-.02-.75-.12-1.05-.21-.63-.85-1.88-1.55-2.03-.42-.09-2.74.8-3.4.94-1.66.35-3.04.46-4.72.29-1.41-.14-7.09-1.82-7.73-.09-.43,1.16.57,1.97,1.47,2.39,2.7,1.24,7.22,2.01,10.2,3.03,10.05,3.45,17.87,15.29,21.91,24.61,6.65,15.36,10.98,31.74,23.35,43.77,7.53,7.32,15.06,9.17,25.38,7.61.6-.09,1.84-.78,2.19-.42,1.04,2.6,1.8,5.32,2.81,7.93.85,2.2,4.27,9.13,4.33,10.87.1,3.03-2.19,5.12-3.61,7.38-1.02,1.61-2,3.24-3.01,4.84s-2.91,4.13-3.6,5.64c-.38.84-.24,2.11.48,2.73.32.27.84.16.87.19.09.08-.14.6-.02.88.47,1.07,6.24,2.65,7.59,2.67.44,2.18.03,4.07.76,6.28.96,2.91,1.96,2.03,4.32,2.76,21.51,6.6,48.53,2.98,70.27-1.48,23.06-4.74,44.33-10.34,64.23-23.21,1.99-1.29,5.33-2.06,5.23-4.94l-.56.31-1.91-4.11-.97-.48c3.36-1.93,7.24-5.05,9.56-8.18ZM231.46,97.41c-8.07.91-16.42.34-24.57.98-7.03.55-13.93,2.21-20.91,3.19-7.98,1.12-14.91,1.51-22.84,3.73-4.58,1.28-9.04,3.16-13.62,4.42,3.58-2.36,7.53-4.12,11.62-5.46,9.34-3.07,19.32-4.36,29.01-5.71,10.91-1.52,25.4-3.47,36.28-2.64,2.01.15,3.94.69,5.89,1.12.1.33-.65.34-.86.37ZM200.62,146.68c-1.58-.99-4.36-.85-5.97.02-1.05.56-3.26,3.39-4.06,4.46-2.62,3.51-5.11,8.4-3.6,12.83-3.02.44-5.96,1.6-8.73,2.87-4.39,2.02-9.07,5.33-11.77,9.33-.59.88-1.01,2.06-1.72,2.87-2.79-6.2-5.27-12.55-8.05-18.75-4.73-10.54-15.79-29.56-10.2-40.88,6.86-13.89,25.71-14.06,38.98-15.92,7.17-1.01,14.28-2.72,21.5-3.3,4.85-.39,14.43-1.08,18.97-.39,7.56,1.16,12.29,12.95,13.08,19.63,1.67,14.18-1.6,28.73-1.33,43.22.03,1.43.08,2.89.34,4.3l-2.23-2.65c-.49-.71-1.85-.96-2.31-1.28-.38-.26-.83-1.28-1.49-1.72-5.63-3.73-16.39-1.81-22.63-.61-.31.06-.59.17-.84.37.03-.21-.28-.39-.29-.46-.25-1.39-.43-3.02-.79-4.36-.96-3.6-3.71-7.61-6.86-9.59ZM238.59,167.44c1.25-4.89.49-10.21.74-15.26.57-11.75,2.78-21.55,1.21-33.61-.5-3.87-2.01-7.9-4-11.25-1.73-2.91-3.96-6.3-7.04-7.83.98-.73,2.62.66,3.4,1.34,9.57,8.45,9.2,23.11,8.84,34.83-.16,5.29-.46,11.07-.92,16.33-.22,2.53-.84,5.17-.95,7.65-.13,3.19.43,6.42.05,9.65l-1.33-1.85ZM137.07,126.21c-.91,10.99,5.08,18.18,10.22,26.99,3.89,6.67,6.81,15.4,9.79,22.6,1.8,4.35,4.04,8.56,5.38,13.09l-1.73,1.14c-.39-1.24-.63-2.55-1-3.8-3.81-12.83-9.48-25.01-16.29-36.47-1.41-2.36-3.19-4.53-4.5-7-4.32-8.15-6.28-16.96.12-24.68.19-.23.23-.54.62-.52-1.44,2.75-2.36,5.54-2.62,8.66ZM189.86,166.46c-.43-.64-1.26-1.71-.6-2.38.04-.18-.35.04-.44-.15-1.58-3.54,1.08-8.75,3.21-11.6.44-.59,2.97-3.69,3.38-3.89,1.48-.77,3.22-.74,4.55.2,4.1,2.9,5.38,7.88,6.37,12.54.7,3.26-.22,4.29-2.69,6.29-2.64,2.13-5.41,2.46-8.75,2.59-1.98-.91-3.73-1.61-5.04-3.59ZM227.78,167.21c-1.35.79-2.77,1.56-4.21,2.19l5.29-3.86c1.31-.96,1.62-3.15,3.59-2.45.96.9-4.15,3.82-4.67,4.12ZM175.61,177.03c7.88.12,15.52-1.22,23.32-1.93.78-.07,1.62-.39,2.38-.43.28-.01.65.03.36.34l-11.29,2.67c-5.74.29-13.56,1.86-19.03-.27-1.18-.46-3.58-1.77-1.69-2.93.56,2.36,3.95,2.51,5.94,2.54ZM188.54,179.87c-2.67.12-5.55.66-8.22.62-1.87-.03-3.14-.61-5.14-.03-1.15.33-1.54,1.08-.6,1.94l-1.66.5c-.16.81.51.88.96,1.27l-1.84.37c-.56.29-.27.98-.48,1.08-.6.3-2.9.28-3.57-.08,2.27-.28,1.84-1.48,2.44-2.98.24-.61.93-1.05.95-1.77.06-1.7-.86-1.25-1.82-1.77-1.11-.61-2.62-1.59-1.33-2.82.54,1.18,1.88,1.88,3.04,2.36,2.75,1.12,6.6,1.45,9.55,1.46s5.73-.23,8.57-.5l-.86.37ZM233.62,165.1c-.34.73-5.74,3.89-6.84,4.71-.56.42-1.24,1.01-1.17,1.8.03.37.31.67.34.94.11,1.19-.34,3.83,1.31,3.91,2.52.12,6.28-2.32,8.82-3.17.93-.31,1.98-.18,2.77-.94.08.81-.45,1.36-1.05,1.78-1.94,1.35-7.77,3.71-10.21,4.7-6.4,2.6-15.15,4.67-21.94,6.1-4.05.85-8.15,1.5-12.26,1.81l2.05-.7c8.52-2.19,19.55-2.35,27.36-6.54,1.07-.57,2.67-1.99,2.43-3.35-.2-1.15-1.38-.95-1.69-1.58s-.09-1.34-.65-2.06c-.47-.61-1.11-.4-1.56-.87,2.99-1.88,7.47-3.16,10.14-5.36.75-.62,1.06-1.49,1.83-1.93l.32.73ZM235.49,172.21c-2.87.92-5.35,2.92-8.36,3.3l-.93-4.19c-.02-.52.6-1.1,1-1.39,2.11-1.55,5-2.45,6.8-4.45.37-.07,4.8,5.53,4.64,5.88-.97.56-2.11.51-3.16.84ZM194.66,178.59l2.74-.13-5.35.97,2.61-.84ZM66.9,202.74l2.94,1.13c-.69,0-3.33-.14-3.77-.43-.27-.18-.33-.44-.32-.74.04-.31.41-.52.69-.42.07.03.22.44.44.47ZM80.78,206.59l1.19-1.34c.91,1.54,2.64,2.19,3.97,3.27,2.1,1.7,4.28,3.38,6.34,5.1s3.48,3.9,5.15,5.81c.14.58-.2.19-.37.03-1.34-1.23-2.28-2.84-3.55-4.12-2.37-2.38-7.2-5.96-10.16-7.57-.18-.1-1.58-.78-1.14-.11.21.31,2.67,2.02,3.19,2.39,7.3,5.31,12.72,11.02,16.8,19.24,7.42,14.95,11.91,35.57,28.01,43.8,1.54.79,3.48,1.57,5.19,1.01-.88-.8-2.37-.9-3.52-1.42-3.49-1.6-7.05-4.76-9.66-7.56-1.12-1.2-2.75-2.94-3.6-4.29-.11-.17-.51-.69-.09-.74,2,3.05,4.99,5.38,7.58,7.93,2.88,1.42,5.59,3.41,8.52,4.7,5.45,2.4,11.76,2.67,17.57,1.51-1.03,1.1-1.66,3.03-3.15,3.44-6.44,1.8-18.95-.92-24.08-5.25-12.23-10.3-15.23-26.11-22.55-39.43-5.38-9.78-11.97-19.12-21.67-24.96-2.91-1.75-5.99-2.4-9.14-3.55l5.03.98c2.19.05,4.81-1.09,2.73-3.31l1.31-.65c1.39,1.7-.18,3.26.11,5.09ZM188.83,186.12c-4.47,1.56-8.22,1.24-12.84,1.37-2.48.07-4.72.37-7.24.21-1.36-.08-3.39-.12-4.43-.97,1.99-.11,3.96.31,5.94.3,4.49-.02,9.66-.26,14.15-.68,1.89-.17,3.81-.5,5.68-.82-.07.31-.94.49-1.25.6ZM244.04,185.21c.45,3.83-.48,11.43,1.4,14.49.63,1.02,1.52,1.29,2.31,1.91,2.5,1.96,5.1,3.8,7.67,5.68,1.9,1.39,4.03,2.27,5.27,4.39.14.49-1.61,2.14-2.03,2.51-9.12,8.03-25.09,13.32-36.66,17.03-17.78,5.7-37.71,7.1-56.17,5.17-3.32-.35-6.63-1.12-9.81-1.97-.5-.38.87-3.08,1.18-3.58,2.5-4,5.38-8.05,7.46-12.32.92-1.89,1.45-3.95,2.22-5.9,2.27,1.53,5.72,1.73,8.45,2.04,16.06,1.83,38.58-2.12,53.64-7.86,3.59-1.37,6.7-3.09,9.57-5.67,0-.43-.22-.3-.5-.17-3.11,1.36-5.69,3.16-8.92,4.38-5.73,2.17-11.84,3.89-17.82,5.15-12.09,2.55-29.42,4.58-41.55,2.23-1.04-.2-2.59-.6-3.01-1.66-.72-1.83-1.15-4.1-1.77-5.95-.84-2.5-1.97-4.94-2.58-7.53-.36-1.55-1.45-6.34,0-7.29,2.83-1.84,5.75-.73,8.79-.65,8.55.21,20.12-.14,28.5-1.41,9.21-1.39,20.49-4.18,29.07-7.9,3.1-1.35,6.96-3.81,9.98-4.86,2.39-.83,4.59.74,4.88,3.21.09.78-.28,5.42-.11,5.65.11.15.39-.24.52.86ZM182.26,261.42c10.48.68,24.09-1.42,34.28-4.01,10.79-2.74,20.86-6.77,31-11.25,5.07-2.24,9.78-4.8,14.29-8.02.03.42.19.69.42,1.02,2.2,3.06,8.98,5.2,12.56,6.61,2.22.88,4.89,1.11,6.55,3.04-6.06,6.36-13.79,10.13-21.56,13.99-15.41,7.65-31.05,13.33-48.23,15.78-7.51,1.07-15.2,1.14-22.73,2.08-4.44.55-8.84,1.66-13.36,1.79-6.51.18-15.2-.04-21.4-1.84-1.03-.3-1.98-.72-2.98-1.07-.13-.27.02-.34.1-.53.57-1.27,2.22-2.94,3.02-4.14,2.65-4.01,5.67-8.98,7.95-13.19,2.87-5.28-1.51-10.03-3.3-14.96-.47-1.28-3.21-11.07-2.95-11.61,2.44,1.06,5.36,1.84,7.99,2.33,17.01,3.14,41.19,1.21,57.68-3.85,10.99-3.37,29.8-9.46,37.79-17.63.85-.87,1.34-2.02,2.19-2.9,1.98,4.97.53,10.01.18,15.1-.2,2.97-.29,6.13-.12,9.09-.04.35-.58.59-.85.79-3.58,2.64-8.95,5.11-13.06,6.88-7.71,3.32-16.18,6.87-24.21,9.2-15.24,4.43-31,6.44-46.84,6.26,1.54.81,3.83.94,5.59,1.06ZM244.1,294.32c.63-.19,1.29-.55,1.93-.74,11.65-3.4,27.73-8.41,37.67-15.29.42-.29,1.96-1.73,2.2-1.78.32-.06,1.67,1.51,2.17,1.87,4.31,3.15,9.45,5.17,14.08,7.66,1.67.9,3.41,1.82,4.42,3.48-1.42,1.14-2.43,2.75-3.73,4.08-7.37,7.55-20.15,12.81-29.94,16.66-5.83,2.29-10.84,3.48-16.75,5.19-5.91,1.71-11.72,3.75-17.63,5.45-19.61,5.64-39.66,8.63-60.11,7.78-8.98-.37-17.55-2.84-26.22-4.89-1.45-.34-2.87-1.03-4.3-1.16l-.03-.19c.81-.2.23-1.15.47-1.84.64-1.79,3.3-5.03,4.4-6.82.56-.91.94-2.01,1.51-2.94,1.36-2.22,3.7-4.3,3.51-7.18,3.2,1.38,7.3,2.15,10.79,2.54,14.34,1.63,27.39,1.06,41.39-3.02.5-.15,3.74-1.22,3.7-1.59-.05-.41-.6-.03-.73,0-5.43,1.41-11.63,2.45-17.21,3.16-10,1.28-20.59.91-30.55-.39-1.3-.17-6.72-.75-7.16-1.9-.08-.21.24-.83.13-1.41-.56-2.87-3.13-7.83-4.22-10.94s-2.24-6.47-2.83-9.79c.53.16.9.63,1.39.86,7.92,3.7,22.96,3.41,31.61,2.36,9.82-1.19,19.73-1.76,29.51-3.12,17.08-2.38,33.09-8.39,48.35-16.21,5.39-2.76,12.26-6.14,16.6-10.32,1.37-1.32,2.29-2.97,3.6-4.34.33,1.54.51,3.12.65,4.69.5,6.06-.04,14.22,2.02,19.84.19.51,1.02,1.34.69,1.76-.78.99-3.08,2.34-4.22,2.97-11.7,6.52-25.07,10.26-37.51,15.15.06.34-.04.44.35.33Z"/>
            <path class="cls-2" d="M195.27,166.65c-.93-.31-2.2-.69-3.05-1.1-.64-.3-2.09-1.12-.8-1.51,1.93.53,4.1-1.1,5.98-1.59-1.87-1.32,1.08-1.36,1.21-1.61.03-.05-.26-.64-.14-1.13s.74-.76.94-1.11c.06-.1.79-1.93.86-2.13.34-1.08-.87-2.81-1.55-3.69-.87-1.12-1.42-1.38-2.23-2.73-.03-.05-.9-.28-.63-.79.6-1.14,4.65,1.89,5.21,2.48,1.62,1.69,3.51,5.84,4.19,8.08,1.31,4.33-4.29,9.1-8.17,9.27-1.12.05-4.48-.38-4.75-1.72-.33-1.64,2.83.57,2.94-.75Z"/>
          </g>
          <g>
            <path class="cls-2" d="M141.95,706.81l-1.37.69-2.68,5.81-.79-.43c-.12,4.07,4.6,5.15,7.42,6.96,28.18,18.1,58.28,25.91,90.89,32.49,30.74,6.2,68.95,11.19,99.32,1.76,3.34-1.04,4.75.2,6.09-3.92,1.02-3.12.43-5.8,1.04-8.88,1.91-.05,10.06-2.3,10.72-3.82.17-.4-.15-1.13-.03-1.24.05-.04.78.11,1.23-.28,1.03-.88,1.21-2.69.67-3.86-.98-2.14-3.71-5.76-5.11-7.96s-2.83-4.56-4.27-6.83c-2.02-3.18-5.27-6.13-5.14-10.41.08-2.47,4.87-12.27,6.07-15.39,1.42-3.69,2.49-7.54,3.94-11.23.49-.51,2.25.46,3.09.59,14.6,2.15,25.23-.5,35.84-10.88,17.43-17.06,23.46-40.24,32.79-61.98,5.66-13.19,16.65-29.96,30.84-34.89,4.2-1.46,10.58-2.56,14.4-4.33,1.27-.59,2.67-1.74,2.06-3.38-.91-2.45-8.94-.04-10.93.16-2.37.24-4.33.1-6.67-.39-.92-.19-4.22-1.43-4.8-1.31-.98.21-1.89,1.98-2.18,2.87-.14.43.03.92-.16,1.49-.93,2.81-4.32,4.01-6.55,5.76-2.72,2.13-5.55,4.31-8.22,6.49-14.81,12.07-21.44,34.28-30.01,50.84-11.13,21.5-30.48,33.58-55.1,28.63-.74-.15-3.48-.87-3.99-1.14-1.18-.62-2.71-4.16-3.5-5.41-.98-1.55-3.61-5.05-3.95-6.57-.94-4.23,4.07-12.68,5.61-17.06,1.46-4.13,4.87-15.62,4.27-19.52-.54-3.57-3.68-6.68-5.5-9.65-.55-.89-.95-1.98-1.5-2.88-2.47-4.03-9.41-13.6-8.78-18.17,2.23-7.93,6.13-15.64,7.16-23.86.48-3.86.47-5.81,1.81-9.71,4.35-12.62,10.29-27.14,16.48-38.96,9.62-18.38,28.97-38.77,14.36-59.95-3.18-4.61-16.77-12.91-22.07-15.75-15.03-8.04-34.95-10.26-51.64-12.52-16.28-2.21-33.66-4.26-50.08-3.93-30.18.61-37.51,25.94-34.82,51.84.44,4.24,1.48,8.4,1.92,12.64,1.64,15.98,1.98,32.04,3.59,48.02.12,1.17.74,3.26.73,4.17s-.82,2.79-.96,4.08c-.71,6.62-.17,14.26-.85,20.95-.22,2.11-.45,4.62-2.2,5.97-8.02,6.18-20.93,10.96-23.56,21.78-1.48,6.08.11,11.99.53,18.04.24,3.36.95,10.36.53,13.38-.24,1.75-3.54,4.11-5.13,4.95-5.67,2.98-16.7,4.83-21.18,9.01-2.24,2.1-2.82,4.38-3.21,7.35-1.08,8.19.67,26.45-3.66,32.72-1.3,1.89-8.16,5.78-10.51,7.08-4.09,2.25-8.63,3.9-12.64,6.14-2.14,1.2-5.41,3.05-5.51,5.78-.09,2.59.78,4.47,2.3,6.5,3.29,4.41,8.8,8.8,13.56,11.52ZM231.82,418c2.75-.62,5.48-1.39,8.32-1.62,15.38-1.22,35.87,1.47,51.3,3.56,13.71,1.86,27.82,3.63,41.03,7.93,5.78,1.88,11.37,4.34,16.45,7.66-6.49-1.76-12.79-4.38-19.28-6.18-11.22-3.1-21.01-3.62-32.3-5.16-9.86-1.35-19.63-3.66-29.57-4.41-11.52-.86-23.32-.02-34.73-1.27-.3-.03-1.36-.04-1.22-.51ZM267.21,501.59c-.5,1.89-.75,4.19-1.1,6.16-.02.1-.44.36-.41.65-.35-.28-.75-.43-1.19-.52-8.82-1.66-24.03-4.33-31.98.97-.93.62-1.57,2.07-2.1,2.44-.66.46-2.58.82-3.26,1.83l-3.14,3.75c.36-2,.43-4.06.46-6.08.3-20.49-4.39-41.03-2.09-61.08,1.08-9.45,7.71-26.13,18.39-27.81,6.41-1,19.96-.07,26.81.45,10.22.79,20.26,3.17,30.41,4.56,18.77,2.57,45.42,2.71,55.18,22.32,7.95,15.98-7.58,42.91-14.21,57.83-3.9,8.78-7.37,17.76-11.28,26.54-1-1.15-1.61-2.82-2.45-4.05-3.84-5.65-10.47-10.29-16.68-13.13-3.91-1.79-8.08-3.42-12.35-4.02,2.11-6.26-1.43-13.17-5.15-18.11-1.13-1.51-4.27-5.49-5.76-6.28-2.29-1.22-6.22-1.4-8.44,0-4.45,2.82-8.31,8.5-9.65,13.59ZM221.43,520.16c-.55-4.55.23-9.12.03-13.63-.16-3.51-1.05-7.24-1.38-10.81-.67-7.44-1.12-15.6-1.37-23.08-.56-16.56-1.17-37.28,12.32-49.27,1.09-.97,3.41-2.95,4.79-1.92-4.36,2.17-7.49,6.97-9.92,11.1-2.79,4.74-4.9,10.44-5.6,15.91-2.16,17.05,1.01,30.9,1.87,47.5.37,7.15-.68,14.66,1.11,21.57l-1.87,2.63ZM362.84,446.53c.55-.03.61.41.88.73,9.09,10.88,6.36,23.34.3,34.87-1.84,3.5-4.35,6.57-6.32,9.92-9.57,16.22-17.52,33.48-22.85,51.62-.52,1.77-.85,3.62-1.39,5.38l-2.45-1.6c1.88-6.41,5.02-12.37,7.54-18.52,4.18-10.2,8.27-22.55,13.73-31.99,7.22-12.47,15.65-22.66,14.31-38.19-.38-4.41-1.69-8.35-3.74-12.22ZM285.07,521.01c-4.72-.18-8.63-.62-12.37-3.62-3.5-2.81-4.8-4.26-3.83-8.87,1.38-6.59,3.17-13.64,8.95-17.76,1.88-1.34,4.35-1.39,6.44-.31.57.29,4.16,4.65,4.79,5.49,3.03,4.02,6.81,11.38,4.6,16.38-.12.28-.68-.03-.62.22.93.95-.24,2.46-.84,3.37-1.84,2.8-4.31,3.8-7.1,5.1ZM231.95,511.35c2.78-1,3.22,2.1,5.08,3.44l7.5,5.43c-2.03-.88-4.05-1.96-5.96-3.08-.74-.43-7.97-4.53-6.62-5.8ZM320.75,527.16c2.67,1.63-.72,3.49-2.38,4.15-7.72,3.03-18.79.86-26.9.47l-15.96-3.72c-.4-.43.12-.5.51-.49,1.07.05,2.26.5,3.36.6,11.03.96,21.84,2.82,32.97,2.61,2.82-.05,7.61-.28,8.39-3.62ZM292.88,534.33c4.02.37,8.08.68,12.11.66,4.17-.02,9.61-.51,13.49-2.11,1.64-.67,3.53-1.68,4.29-3.35,1.83,1.74-.3,3.13-1.87,4-1.35.75-2.65.11-2.56,2.51.04,1.02,1.01,1.64,1.35,2.5.86,2.13.25,3.82,3.46,4.2-.95.51-4.2.55-5.05.13-.3-.15.1-1.12-.68-1.53l-2.6-.52c.63-.54,1.59-.65,1.35-1.79l-2.35-.7c1.33-1.22.78-2.27-.85-2.74-2.83-.81-4.63.02-7.27.07-3.77.08-7.84-.68-11.62-.83l-1.22-.52ZM230.77,513.15c1.09.61,1.53,1.85,2.6,2.72,3.79,3.09,10.12,4.88,14.36,7.52-.64.67-1.54.36-2.2,1.23-.78,1.02-.45,1.99-.91,2.92s-2.1.61-2.38,2.24c-.33,1.92,1.93,3.92,3.45,4.72,11.06,5.87,26.66,6.06,38.7,9.11l2.91.98c-5.82-.42-11.61-1.31-17.34-2.5-9.61-1.99-21.99-4.88-31.04-8.51-3.45-1.39-11.7-4.7-14.45-6.6-.86-.59-1.61-1.37-1.49-2.51,1.12,1.06,2.61.87,3.92,1.31,3.59,1.19,8.91,4.62,12.48,4.44,2.32-.12,1.68-3.86,1.83-5.54.03-.39.42-.81.47-1.34.1-1.12-.86-1.96-1.66-2.54-1.56-1.15-9.2-5.59-9.69-6.62l.45-1.03ZM223.23,523.07c-.22-.49,6.01-8.43,6.53-8.33,2.56,2.81,6.64,4.08,9.63,6.25.57.41,1.44,1.23,1.42,1.96l-1.29,5.92c-4.25-.52-7.76-3.35-11.83-4.63-1.49-.47-3.1-.39-4.47-1.18ZM289.14,534.24l-7.56-1.35,3.87.17,3.69,1.18ZM466.75,565.92c.4-.15.93.15.98.59.02.43-.06.79-.44,1.05-.62.42-4.35.61-5.32.63l4.16-1.61c.31-.04.52-.62.63-.66ZM446.67,564.89l1.86.91c-2.92,3.15.78,4.75,3.87,4.67l7.11-1.42c-4.45,1.65-8.8,2.57-12.9,5.06-13.68,8.31-22.95,21.53-30.5,35.38-10.28,18.86-14.45,41.22-31.68,55.84-7.24,6.14-24.91,10.05-34.01,7.53-2.1-.58-3.01-3.31-4.47-4.85,8.22,1.61,17.13,1.2,24.82-2.22,4.14-1.84,7.95-4.67,12.02-6.68,3.65-3.61,7.86-6.92,10.68-11.24.59.07.02.81-.13,1.05-1.2,1.91-3.5,4.38-5.07,6.09-3.66,3.96-8.69,8.46-13.61,10.73-1.62.75-3.73.89-4.96,2.03,2.41.78,5.16-.33,7.33-1.45,22.71-11.71,28.96-40.87,39.37-62.04,5.72-11.63,13.36-19.73,23.65-27.27.73-.54,4.21-2.96,4.5-3.4.63-.96-1.36.02-1.61.16-4.18,2.29-10.99,7.37-14.33,10.75-1.79,1.81-3.11,4.09-5,5.84-.24.22-.72.78-.52-.04,2.35-2.72,4.49-5.92,7.25-8.24,2.9-2.43,5.98-4.83,8.93-7.23,1.87-1.53,4.32-2.46,5.6-4.64l1.69,1.89c.41-2.59-1.82-4.78.13-7.2ZM291.95,542.83c2.65.45,5.36.9,8.03,1.13,6.34.56,13.65.88,20,.89,2.8,0,5.59-.59,8.39-.45-1.46,1.21-4.33,1.27-6.26,1.4-3.56.23-6.74-.18-10.24-.26-6.53-.15-11.82.32-18.15-1.87-.45-.15-1.67-.4-1.77-.84ZM216.41,541.45c.24-.32-.31-6.87-.18-7.98.41-3.48,3.5-5.72,6.89-4.56,4.27,1.47,9.74,4.93,14.13,6.82,12.14,5.23,28.1,9.1,41.12,11.03,11.86,1.75,28.21,2.19,40.29,1.85,4.29-.12,8.42-1.71,12.43.88,2.05,1.33.54,8.1.03,10.3-.84,3.65-2.43,7.11-3.61,10.65-.86,2.61-1.46,5.82-2.47,8.41-.58,1.49-2.77,2.07-4.24,2.36-17.13,3.39-41.64.59-58.74-2.95-8.46-1.75-17.1-4.15-25.21-7.19-4.58-1.71-8.23-4.25-12.63-6.15-.4-.17-.71-.36-.71.25,4.06,3.62,8.48,6.05,13.55,7.96,21.31,8.04,53.17,13.52,75.85,10.85,3.86-.45,8.73-.75,11.94-2.92,1.09,2.75,1.85,5.67,3.16,8.33,2.96,6.02,7.06,11.74,10.61,17.37.44.71,2.39,4.51,1.69,5.05-4.48,1.21-9.16,2.32-13.85,2.83-26.08,2.82-54.25.93-79.41-7.04-16.37-5.18-38.97-12.58-51.9-23.89-.6-.53-3.08-2.84-2.89-3.54,1.75-3.01,4.76-4.26,7.43-6.23,3.61-2.67,7.28-5.28,10.81-8.06,1.11-.88,2.37-1.27,3.26-2.72,2.63-4.33,1.29-15.08,1.9-20.49.18-1.56.57-1.02.73-1.22ZM311.26,648.55c-22.39.33-44.66-2.44-66.23-8.62-11.37-3.26-23.36-8.24-34.27-12.89-5.82-2.48-13.43-5.95-18.49-9.66-.38-.28-1.15-.62-1.21-1.12.22-4.19.09-8.65-.21-12.85-.52-7.19-2.59-14.31.19-21.34,1.19,1.23,1.9,2.86,3.1,4.09,11.33,11.52,37.94,20.03,53.49,24.74,23.33,7.07,57.51,9.68,81.54,5.16,3.72-.7,7.84-1.82,11.29-3.33.37.76-3.46,14.61-4.11,16.42-2.51,6.98-8.67,13.71-4.59,21.17,3.25,5.94,7.53,12.95,11.3,18.6,1.14,1.7,3.47,4.05,4.28,5.84.12.26.33.36.15.75-1.42.5-2.76,1.1-4.21,1.53-8.75,2.59-21.04,2.93-30.24,2.71-6.38-.15-12.6-1.7-18.89-2.46-10.65-1.29-21.52-1.35-32.14-2.83-24.3-3.38-46.43-11.34-68.24-22.07-11-5.41-21.93-10.71-30.54-19.66,2.34-2.73,6.11-3.07,9.24-4.32,5.05-2.01,14.63-5.07,17.72-9.41.33-.47.55-.85.59-1.44,6.39,4.52,13.07,8.12,20.24,11.26,14.35,6.29,28.61,11.93,43.87,15.75,14.42,3.61,33.66,6.51,48.47,5.49,2.48-.17,5.72-.36,7.89-1.52ZM216.62,696.42c-17.6-6.85-36.51-12.07-53.08-21.22-1.62-.89-4.88-2.78-5.98-4.18-.47-.6.7-1.77.96-2.49,2.89-7.94,2.07-19.48,2.76-28.05.18-2.22.43-4.44.89-6.63,1.86,1.93,3.16,4.26,5.11,6.12,6.15,5.88,15.89,10.63,23.51,14.5,21.6,10.97,44.26,19.39,68.42,22.67,13.84,1.88,27.85,2.63,41.73,4.26,12.23,1.44,33.49,1.79,44.66-3.49.69-.33,1.22-.99,1.97-1.22-.82,4.69-2.39,9.33-3.95,13.85s-5.12,11.42-5.9,15.48c-.16.82.3,1.7.19,2-.63,1.64-8.29,2.48-10.12,2.72-14.08,1.89-29.03,2.45-43.18.7-7.9-.98-16.66-2.42-24.34-4.38-.18-.05-.97-.58-1.04,0-.06.52,4.52,2.02,5.24,2.23,19.81,5.71,38.26,6.45,58.52,4.07,4.92-.58,10.72-1.68,15.23-3.65-.25,4.07,3.07,7,4.99,10.13.8,1.3,1.34,2.86,2.14,4.15,1.57,2.53,5.34,7.09,6.26,9.62.35.97-.47,2.31.67,2.6l-.05.27c-2.03.19-4.04,1.17-6.08,1.66-12.24,2.94-24.33,6.47-37.03,7.04-28.89,1.3-57.25-2.84-84.99-10.71-8.36-2.37-16.58-5.23-24.94-7.62-8.36-2.39-15.46-4.04-23.7-7.25-13.85-5.39-31.95-12.77-42.39-23.41-1.85-1.89-3.29-4.15-5.29-5.75,1.42-2.36,3.88-3.67,6.23-4.95,6.53-3.54,13.79-6.43,19.87-10.9.7-.52,2.6-2.74,3.05-2.66.33.06,2.52,2.1,3.11,2.5,14.09,9.68,36.84,16.68,53.32,21.43.91.26,1.84.77,2.74,1.04.54.16.41.02.49-.47Z"/>
            <path class="cls-2" d="M284.52,516.2c1.31-.44,3.1-.99,4.31-1.57.9-.43,2.95-1.59,1.13-2.13-2.73.75-5.8-1.53-8.46-2.21,2.64-1.87-1.54-1.91-1.71-2.27-.04-.07.37-.9.19-1.6s-1.04-1.08-1.33-1.56c-.08-.14-1.13-2.72-1.22-3-.48-1.52,1.22-3.97,2.18-5.22,1.22-1.58,2.01-1.96,3.14-3.86.04-.07,1.27-.39.89-1.12-.85-1.61-6.56,2.7-7.35,3.53-2.29,2.4-4.94,8.27-5.88,11.44-1.83,6.12,6.1,12.84,11.59,13.07,1.58.07,6.32-.56,6.7-2.45.46-2.32-3.99.82-4.15-1.05Z"/>
          </g>
          <g>
            <path class="cls-2" d="M100.71,342.14c-.27-2.01-.57-4.66-.64-6.65-.07-1.78,1.31-6.17-1.29-6.96-3.47-1.06-13.64,4.45-17.05,6.13-.92.47-1.32,1.59-.8,2.52l5.73,8.54,7.63,22.79c-1.98.9-.7,1.72-.71,2.52,0,.4-.6.88-.54,1.57.07.84,1.37,1.25,1.26,1.87-.06.35-1.21,1.12-1.52,1.67-.76,1.36-.97,3.25.27,4.4-1.52.91-3.26.92-4.85,1.8-7.62,4.21-17.3,24.06-20.65,32.29-10,24.52-18.9,51.45-7.7,77.42,4.71,10.92,17.96,21.48,29.17,25.04,18.33,5.83,36.1,7.68,54.54.79,26.02-9.73,29.48-37.99,23.86-62.06-2.87-12.27-7.54-25.55-11.57-37.57-3.63-10.81-7.72-25.47-14.14-34.68-4.56-6.54-13.31-7.04-20.58-7.03-1.95,0-4.84.9-6.67.68-1.2-.15-2.11-1.45-3.63-.97,2.27-3.43,1.52-5.56-2.85-5.39,2.37-5.71-2.37-4.12-5.85-3.15-2.61.73-5.16,2.13-7.78,2.83-.9-.99,2.52-1.85,2.93-1.98,2.04-.7,6.76-2.2,8.73-2.38.49-.05.88.2,1.34.25l-.04-1.22-2.17-.37c-.87-7.63-3.4-15.07-4.4-22.7ZM85.45,335.04c1.35-1.28,3.97-2.36,5.77-2.95.77-.25,6.42-1.78,6.77-1.73s.55.52.46.87l-13,3.8ZM93.86,361.35c-1.63-6.31-4.65-15.95-8.27-21.21-.3-.44-2.68-2.9-2.35-3.19,5.22-.1,10.75-2.11,15.21-4.76-1.18,11.13,3.37,21.96,5.37,32.77l-8.85,3.05c-.15-2.17-.57-4.56-1.11-6.66ZM106.97,370.35l-.47.48c-.7.1-1.4-.02-2.1.12-1.78.37-7.47,2.19-8.66,2.12-.39-.02-.96-.46-1.09-.77-.24-.61.37-.45.7-.55,1.42-.45,11.24-3.83,11.66-3.4l-.04,2.02ZM133.96,390.52l.03-.92.92-.03-.32-1.9c-1.32-.3-.8,2.57-1.74,2.22-.29-.11-.19-.56-.49-.77-.81-.56-2.2-1.43-3.15-1.46l1.26,1.26c-.38-.01-.66-.06-.98.21-.78.67.02,1.68-.76,1.69-1.2-.9.2-1.86.03-2.86l-1.3-2.2c-1.13,1.11.65,2.36-1.11,3.33l.63.94c-.19.82-2.66-.84-.64-1.9l-.64-.63c.84-1.13,1.05-.6.62-2.36l-1.57-.02.64,1.11-1.45,2.7-1.73-1.12,1.26-.48-.79-2.21c-.36.53-.89,2.2-1.48,2.48-.17.08-2.71-.74-3.62.68l.49,2.23h-1.26c.24-.65-.43-2.13-.18-2.53.06-.1,1.55-1.42,1.71-1.51.75-.42,2.14.09,1.95-1.03-1.06-.38-2.04-.14-2.77.74-.47.57.32,1.18-1.99.84l1.58-2.53-.95.31c.25-2.26-1.03-3.11-3.17-2.85l.84-1.85,7.23-.7c5.06.41,9.94.33,14.34,3.12,1.66,1.05,5.42,4.44,2.76,6.07l-.92-.62c-.62.42-.4.62-.21,1.22l-3.11,1.31ZM94.33,386.24l-.94.63c.66,1,1.07-.06,1.75-.16,1.43-.2,1.21,1.66.15.95-.36.76.62.62.65.8.23,1.66-2.13.85-1.92,2.53.7.93.87-.43,2.05-.48.63-.03.51.08.49.65-.97-.39-1.64.75-2.05.83-.86.16-1.45-1.41-2.71-.83l.6-.35c-.46-1.08.15-1.24.35-2.18-.99.41-1.23,1.26-1.42,2.22-.66-.05-1.42-1.15-1.51-1.19-.22-.11-.62.16-.87.04-4.61-2.15,3.31-6.28,4.42-5.48l.97,2.04ZM120.97,387.99c.82.23.1,1.59.61,2.05.74.67,2.1.13,2.56,1.11-2.13.15-4.19-.69-3.17-3.16ZM135.54,416.37c-.33-.89-1.33-2.62-1.83-3.56-3.07-5.73-6.72-11.65-10.52-16.9,6.34-1.04,13.3-1.46,18.23-6.02,3.8,6.79,5.57,14.45,8,21.79,4.03,12.14,8.4,24.58,11.97,36.85,5.46,18.74,8.5,38.91-3.83,55.76l-2.35,2.08c2.56-7.56,5.46-15.83,6.32-23.8.07-.63-.06-.45-.61-.45-1.3,6.81-2.63,13.68-4.99,20.22-1.99,5.52-3.13,7.38-8.43,10.27-23.29,12.68-64.38,7.13-80.56-14.98-6.71-9.16-7.94-26.21-5.36-37.01,3.09-12.91,12.74-33.77,23.59-41.72,1.94-1.42,10.2-6.24,12.22-6.49,1.56-.19,4.65,0,6.16.43.23.07,2.79,1.82,2.21.65-.89-1.81-6.94-1.95-8.72-1.75-1.81.21-10.34,5.21-12.17,6.53-5.5,4-9.34,9.3-12.85,15.05-5.43,8.9-11.95,24.63-12.55,35-.2,3.41.18,6.76.33,10.13.02.35.21,1.5-.33,1.44-1.55-8.07-1.42-16.08-.64-24.25,1.5-15.53,11.21-40.37,18.65-54.26.78-1.45,6.83-11.66,7.51-11.83,1.01.52,1.42,1.65,2.4,2.36,7.71,5.62,22.34,4.84,31.54,4.63,1.03-.02,2.02-.59,3.09-.27.84.26,2.64,2.92,3.21,3.77,3.53,5.21,6.67,11.26,9.7,16.77.41.07.82.09.61-.46Z"/>
            <path class="cls-2" d="M154.89,452.97c.01,10.38.38,20.86-1.73,31.08-1.27,6.16-6.21,24.83-9.83,29.16-.23.27-1.42,1.57-1.75,1.26,2.3-2.87,3.91-6.49,5.08-9.98,3.38-10.07,6.76-24.32,7.28-34.88.27-5.38-.24-10.8.32-16.17l.63-.47Z"/>
            <path class="cls-2" d="M127.94,451.7c.68,4.15,1.25,8.33,1.58,12.53,1.23,15.44,1.03,30.93-3.57,45.87-.66,2.14-1.8,5.46-3.4,6.9.86-2.43,2.06-4.76,2.7-7.28,4.15-16.18,4.77-30.48,3.31-47.08-.26-2.99-1.13-6.22-1.28-9.18-.03-.63-.32-2.05.65-1.76Z"/>
            <path class="cls-2" d="M97.03,446.31c-2.01.33-7.25,4.57-8.73,6.17-3.36,3.6-7.54,13.93-8.46,18.8-1.06,5.61-.8,11.84-.41,17.51-.81-.4-.89-1.88-.96-2.68-1.07-13.14,2.77-29.72,13.49-38.2,3.38-2.68,7.89-4.28,11.56-1.28-.59.28-1.46-.31-1.74-.31-1.37,0-3.52-.2-4.76,0Z"/>
            <path class="cls-2" d="M153.31,442.19c-.85.21-.75-.57-.92-1.13-.86-2.82-1.23-6.19-1.96-9.15-3.25-13.3-7.4-25.28-13.54-37.5-.27-.54-.6-.52.09-1.03.97,1.2,1.75,2.52,2.43,3.9,2.27,4.6,4.67,10.64,6.37,15.5,3.31,9.44,5.51,19.61,7.52,29.41Z"/>
            <path class="cls-2" d="M90.21,400.67c.18.92-.27.51-.7.71-13.11,6.37-18.26,19.62-24.27,31.87-.21.43.21.88-.71.7-.04-.77.3-1.43.58-2.11,4.34-10.7,9.8-20.67,18.93-27.99,1.74-1.39,3.81-3.28,6.17-3.18Z"/>
            <path class="cls-2" d="M116.21,495.45c-.75,6.74-2.33,17.01-7.77,21.55-.36.3-.51.77-1.11.63l2.8-3.38c2.79-3.95,4.72-13.42,5.45-18.33.08-.55-.17-.53.62-.47Z"/>
            <path class="cls-2" d="M125.4,441.24c-.83.15-.56-.16-.78-.63-3.16-6.77-3.78-16.21-11.9-19.34l.47-.62c7.91,3.68,9.8,13.04,12.21,20.6Z"/>
            <path class="cls-2" d="M137.13,421.9l3.49,18.39-2.32-8.61c-.25-2.74-1.29-5.45-1.71-8.11-.1-.62-.47-1.93.55-1.66Z"/>
            <path class="cls-2" d="M86.72,506.23l-2.67-2.56c-1.81-3.56-3.48-7.23-4.62-11.07l7.29,13.63Z"/>
            <path class="cls-2" d="M111.13,463.12c1.58,4.53,3.35,9.11,3.81,13.95l-4.39-13.53.58-.42Z"/>
            <path class="cls-2" d="M142.21,461.37c-.07.79-.54,2.13-.64,3.01-.9-.18,0-1.82,0-2.06v-7.93c0-.06.43-.5.63-.48-.15,2.42.2,5.05,0,7.45Z"/>
            <path class="cls-2" d="M141.89,449.17c-.46.07-.44-.56-.53-.89-.6-2.11-.68-4.83-.73-7.04.49-.04.54.8.6,1.14.38,2.14.39,4.6.66,6.78Z"/>
            <path class="cls-2" d="M132.37,385.14l.96,1.58-1.58-.32-.03.91-1.24.04c.35-.84.13-1.35,1.2-1.33l.08-.64.61-.24Z"/>
          </g>
          <g>
            <path class="cls-2" d="M475.65-41.83c-.36-1.52-.8-3.52-1.02-5.04-.19-1.36.51-4.83-1.54-5.23-2.74-.54-10.09,4.48-12.57,6.04-.67.43-.88,1.32-.41,2l5.06,6.09,7.64,16.84c-1.44.85-.4,1.37-.34,1.98.03.3-.39.72-.29,1.25.12.64,1.15.85,1.11,1.33-.02.27-.84.95-1.03,1.4-.48,1.1-.49,2.57.55,3.34-1.09.82-2.42.96-3.57,1.76-5.5,3.83-11.34,19.78-13.26,26.35-5.72,19.56-10.41,40.88.21,59.88,4.46,7.99,15.45,15.03,24.31,16.87,14.49,3.02,28.24,3.03,41.81-3.7,19.15-9.5,19.57-31.41,13.37-49.39-3.16-9.17-7.79-18.96-11.82-27.85-3.63-7.99-7.92-18.89-13.56-25.43-4.01-4.65-10.75-4.34-16.31-3.76-1.49.15-3.64,1.07-5.05,1.05-.93-.02-1.73-.94-2.86-.46,1.47-2.81.72-4.38-2.61-3.9,1.37-4.56-2.14-2.97-4.73-1.95-1.94.76-3.78,2.04-5.74,2.78-.77-.68,1.78-1.61,2.08-1.75,1.51-.69,5-2.22,6.49-2.51.37-.07.69.08,1.05.08l-.13-.93-1.69-.11c-1.27-5.77-3.79-11.27-5.16-17.03ZM463.41-46.06c.93-1.09,2.85-2.12,4.18-2.71.57-.25,4.77-1.87,5.04-1.86s.46.35.42.63l-9.65,3.94ZM471.92-26.58c-1.75-4.7-4.82-11.85-8-15.59-.27-.31-2.28-2.01-2.05-2.26,3.99-.49,8.06-2.47,11.27-4.84-.03,8.62,4.31,16.54,6.69,24.66l-6.53,3.03c-.29-1.65-.79-3.45-1.37-5.01ZM482.67-20.72l-.33.4c-.52.13-1.08.1-1.6.26-1.33.42-5.54,2.26-6.46,2.3-.3.01-.77-.28-.89-.51-.24-.45.25-.38.49-.48,1.05-.45,8.3-3.82,8.66-3.53l.13,1.55ZM504.92-7.41l-.05-.71.7-.1-.4-1.43c-1.04-.12-.41,2.03-1.16,1.84-.23-.06-.19-.41-.44-.55-.66-.36-1.79-.92-2.53-.87l1.07.87c-.29.02-.51,0-.73.24-.54.58.15,1.29-.45,1.35-.99-.6,0-1.44-.2-2.19l-1.17-1.58c-.78.94.68,1.76-.59,2.64l.56.67c-.08.65-2.1-.44-.64-1.41l-.54-.43c.55-.93.76-.55.29-1.85l-1.2.11.58.8-.9,2.18-1.41-.72.93-.47-.78-1.63c-.23.44-.51,1.75-.93,2.01-.13.08-2.13-.35-2.72.81l.55,1.67-.97.1c.13-.52-.5-1.6-.33-1.92.04-.08,1.07-1.21,1.19-1.29.54-.38,1.65-.1,1.41-.94-.84-.21-1.57.05-2.06.79-.32.48.34.88-1.46.8l1.01-2.06-.7.32c0-1.75-1.03-2.3-2.65-1.93l.5-1.48,5.48-1.1c3.9-.09,7.64-.53,11.23,1.26,1.36.68,4.5,2.97,2.59,4.43l-.75-.4c-.44.37-.26.51-.07.95l-2.28,1.25ZM474.24-7.56l-.67.56c.58.71.82-.13,1.33-.26,1.08-.26,1.06,1.17.19.71-.21.61.52.42.56.56.31,1.25-1.57.82-1.27,2.09.61.66.63-.4,1.53-.53.48-.07.4.02.42.46-.77-.22-1.19.71-1.5.8-.64.19-1.22-.97-2.14-.43l.43-.32c-.44-.79.01-.96.1-1.7-.73.4-.85,1.07-.91,1.81-.51.01-1.18-.77-1.25-.79-.18-.07-.46.17-.66.1-3.7-1.29,2.03-5.07,2.95-4.54l.91,1.48ZM494.77-8.33c.64.11.2,1.21.63,1.52.62.46,1.62-.07,2.04.65-1.62.29-3.26-.2-2.67-2.17ZM508.17,12.26c-.32-.65-1.23-1.9-1.69-2.58-2.8-4.14-6.06-8.39-9.38-12.11,4.77-1.3,10.07-2.17,13.48-6.05,3.45,4.9,5.4,10.62,7.84,16.05,4.04,8.98,8.37,18.15,12.07,27.26,5.66,13.92,9.57,29.12,1.47,42.99l-1.64,1.78c1.36-5.99,2.93-12.55,2.96-18.72,0-.49-.08-.34-.5-.29-.46,5.32-.93,10.68-2.22,15.87-1.09,4.39-1.81,5.9-5.65,8.53-16.83,11.54-48.72,10.54-62.85-5.11-5.86-6.49-8.15-19.44-7.02-27.91,1.34-10.13,7.09-26.86,14.77-33.8,1.37-1.24,7.32-5.59,8.84-5.93,1.18-.27,3.56-.37,4.75-.16.18.03,2.28,1.18,1.74.32-.83-1.31-5.46-.95-6.81-.65-1.37.3-7.51,4.8-8.8,5.96-3.9,3.49-6.42,7.86-8.65,12.54-3.45,7.24-7.2,19.8-6.84,27.79.12,2.63.67,5.16,1.05,7.73.04.27.28,1.13-.14,1.13-1.83-6.06-2.36-12.2-2.4-18.51-.08-12.01,5.4-31.79,10-43.01.48-1.17,4.31-9.46,4.81-9.65.81.32,1.22,1.15,2.02,1.62,6.34,3.69,17.48,1.94,24.51,1.06.79-.1,1.5-.61,2.35-.45.67.13,2.25,2.03,2.75,2.63,3.11,3.71,5.99,8.09,8.75,12.07.32.02.63,0,.43-.4Z"/>
            <path class="cls-2" d="M525.87,38.75c.83,7.95,1.94,15.94,1.13,23.93-.49,4.82-2.79,19.5-5.23,23.1-.15.23-.97,1.32-1.24,1.1,1.54-2.38,2.48-5.28,3.1-8.04,1.79-7.97,3.25-19.15,2.82-27.28-.22-4.14-1.04-8.25-1.03-12.4l.45-.41Z"/>
            <path class="cls-2" d="M505.14,39.9c.85,3.12,1.61,6.28,2.2,9.46,2.16,11.72,3.23,23.6.88,35.4-.34,1.69-.95,4.32-2.05,5.55.47-1.93,1.2-3.81,1.5-5.79,1.9-12.72,1.25-23.71-1.18-36.31-.44-2.27-1.35-4.67-1.7-6.93-.07-.48-.41-1.54.36-1.4Z"/>
            <path class="cls-2" d="M481.05,38.22c-1.51.41-5.19,4.07-6.2,5.41-2.29,3.02-4.68,11.26-4.99,15.06-.37,4.38.32,9.13,1.07,13.43-.65-.24-.83-1.37-.95-1.98-1.85-9.98-.23-22.97,7.32-30.31,2.38-2.32,5.71-3.9,8.75-1.89-.43.26-1.14-.13-1.36-.1-1.05.11-2.71.12-3.64.38Z"/>
            <path class="cls-2" d="M523.81,30.62c-.64.23-.62-.38-.79-.79-.88-2.09-1.43-4.64-2.22-6.85-3.54-9.92-7.66-18.77-13.33-27.64-.25-.39-.5-.35-.01-.8.84.85,1.54,1.79,2.17,2.79,2.1,3.34,4.41,7.78,6.1,11.37,3.28,6.97,5.77,14.58,8.08,21.92Z"/>
            <path class="cls-2" d="M472.23,3.81c.21.69-.16.41-.48.6-9.53,5.91-12.43,16.46-16.06,26.31-.13.34.23.65-.49.59-.09-.58.12-1.12.28-1.66,2.48-8.53,5.88-16.6,12.28-22.92,1.22-1.2,2.66-2.81,4.47-2.92Z"/>
            <path class="cls-2" d="M499.61,74.32c-.04,5.22-.44,13.2-4.24,17.11-.25.26-.33.63-.8.57l1.88-2.81c1.83-3.24,2.56-10.64,2.73-14.46.02-.43-.17-.4.44-.41Z"/>
            <path class="cls-2" d="M502.37,32.09c-.62.18-.44-.08-.65-.42-2.95-4.93-4.17-12.12-10.64-13.87l.31-.51c6.35,2.2,8.53,9.21,10.97,14.8Z"/>
            <path class="cls-2" d="M509.83,16.36l4.12,13.8-2.46-6.41c-.4-2.08-1.41-4.07-1.95-6.08-.12-.46-.51-1.44.29-1.32Z"/>
            <path class="cls-2" d="M477.88,84.89l-2.24-1.75c-1.67-2.58-3.23-5.26-4.41-8.11l6.65,9.86Z"/>
            <path class="cls-2" d="M493.17,49.97c1.57,3.35,3.29,6.71,4.01,10.38l-4.43-10.01.41-.37Z"/>
            <path class="cls-2" d="M516.82,46.18c.01.61-.25,1.67-.25,2.35-.7-.07-.14-1.39-.16-1.58l-.63-6.07s.29-.42.45-.41c.08,1.87.55,3.85.59,5.7Z"/>
            <path class="cls-2" d="M515.62,36.86c-.35.09-.38-.39-.48-.64-.63-1.57-.9-3.64-1.11-5.33.37-.07.47.57.55.83.46,1.61.66,3.49,1.04,5.14Z"/>
            <path class="cls-2" d="M503.28-11.41l.86,1.13-1.24-.12.05.7-.95.13c.2-.67,0-1.05.82-1.11v-.5s.46-.24.46-.24Z"/>
          </g>
          <g>
            <path class="cls-2" d="M649.02,42.53c.52-1.89,1.25-4.37,1.93-6.17.61-1.61,3.49-5.01,1.47-6.7-2.7-2.25-13.84-1.17-17.51-.94-1,.07-1.77.92-1.66,1.95l1.9,9.77-1.77,23.19c-2.11.06-1.27,1.27-1.58,1.98-.15.35-.86.56-1.07,1.2-.25.77.75,1.63.42,2.14-.18.29-1.5.54-1.98.92-1.19.93-2.09,2.54-1.41,4.02-1.7.24-3.25-.41-5-.22-8.38.89-24.48,14.95-30.56,21.03-18.14,18.11-36.2,38.78-35.99,66.16.09,11.51,7.94,25.91,16.6,33.31,14.16,12.09,29.31,20.43,48.35,21.21,26.86,1.11,40.58-22.79,44.62-46.37,2.06-12.02,2.88-25.62,3.81-37.86.83-11,2.69-25.62.43-36.25-1.6-7.55-9.23-11.28-15.72-14.01-1.74-.73-4.66-1.02-6.21-1.9-1.01-.58-1.34-2.09-2.88-2.23,3.32-2.21,3.44-4.39-.52-5.88,4.26-4.2-.56-4.57-4.03-5.01-2.6-.33-5.4-.04-8.01-.4-.43-1.22,2.94-.7,3.36-.67,2.09.15,6.85.58,8.68,1.16.46.14.71.51,1.11.72l.42-1.11-1.8-1.14c2.1-7.13,2.64-14.72,4.61-21.9ZM638.08,30.47c1.69-.64,4.43-.61,6.25-.46.78.07,6.39.83,6.68,1s.3.67.09.95l-13.02-1.5ZM635.68,57.09c.92-6.24,1.86-15.98.6-22.03-.1-.5-1.3-3.59-.9-3.73,4.7,1.87,10.38,2.16,15.36,1.48-5.24,9.48-5.25,20.85-7.54,31.25l-9.04-.61c.68-1.99,1.21-4.28,1.52-6.36ZM644,70.05l-.6.25c-.66-.17-1.25-.55-1.92-.68-1.72-.34-7.48-.86-8.52-1.37-.34-.17-.68-.77-.68-1.1.01-.63.5-.26.83-.23,1.43.13,11.46.81,11.68,1.35l-.8,1.78ZM660.49,98.19l.37-.81.84.32.43-1.81c-1.07-.76-1.68,1.99-2.39,1.33-.22-.2.04-.57-.15-.87-.51-.8-1.42-2.1-2.26-2.48l.65,1.6c-.33-.15-.56-.3-.95-.18-.95.31-.61,1.51-1.32,1.22-.73-1.26.88-1.59,1.11-2.54l-.33-2.45c-1.43.57-.31,2.35-2.24,2.55l.21,1.08c-.48.66-2.06-1.75.15-1.94l-.33-.8c1.17-.69,1.17-.14,1.44-1.87l-1.39-.6.16,1.23-2.31,1.87-1.12-1.65,1.31.05.13-2.27c-.52.34-1.62,1.62-2.25,1.65-.19,0-2.13-1.68-3.48-.75l-.4,2.17-1.13-.47c.46-.5.42-2.06.79-2.32.09-.06,1.91-.68,2.09-.7.83-.09,1.88.88,2.13-.19-.8-.74-1.76-.9-2.75-.38-.64.33-.16,1.17-2.09,0l2.36-1.66-.96-.08c1.07-1.92.26-3.16-1.76-3.74l1.45-1.33,6.71,2.1c4.36,2.26,8.74,4.03,11.62,8.18,1.09,1.57,3.17,6,.18,6.45l-.59-.89c-.71.14-.59.41-.65,1h-3.27ZM626.74,79.47l-1.08.21c.21,1.14.98.35,1.62.52,1.35.36.46,1.93-.22.9-.61.55.32.78.28.95-.42,1.57-2.22-.04-2.66,1.53.27,1.09.93-.05,2.01.34.58.21.43.27.19.76-.72-.71-1.74.06-2.14-.03-.83-.18-.76-1.8-2.1-1.76l.67-.09c0-1.14.6-1.05,1.13-1.81-1.04,0-1.58.66-2.1,1.44-.57-.29-.84-1.56-.9-1.63-.16-.19-.61-.09-.79-.29-3.31-3.66,5.31-4.36,6-3.22l.1,2.18ZM649.85,91.04c.64.51-.51,1.45-.23,2.06.4.88,1.82.9,1.86,1.95-1.96-.66-3.48-2.19-1.63-4.01ZM652.17,121.84c.04-.92-.2-2.84-.3-3.86-.59-6.27-1.61-12.92-3.02-19.03,6.05,1.46,12.41,3.7,18.52,1.49.84,7.49-.47,14.98-1.06,22.45-.97,12.35-1.75,25.08-3.18,37.37-2.18,18.77-7.05,37.9-24.39,48.3l-2.88.97c5.13-5.78,10.82-12.06,14.59-18.85.3-.53.12-.43-.38-.63-3.72,5.59-7.49,11.21-12.05,16.16-3.86,4.18-5.57,5.41-11.39,5.99-25.54,2.55-60.1-17.85-66.22-43.66-2.54-10.7,2.77-26.36,9.13-35.02,7.61-10.35,24.07-25.33,36.73-28.33,2.26-.54,11.45-1.73,13.34-1.19,1.47.42,4.15,1.74,5.33,2.7.18.15,1.8,2.68,1.72,1.41-.12-1.95-5.45-4.35-7.12-4.84s-11.18.75-13.31,1.25c-6.41,1.5-11.83,4.78-17.12,8.59-8.19,5.89-19.92,17.48-24.36,26.5-1.46,2.97-2.38,6.09-3.52,9.16-.12.32-.37,1.42-.83,1.16,1.65-7.78,4.78-14.88,8.55-21.87,7.18-13.29,25.18-31.79,37.04-41.38,1.24-1,10.48-7.83,11.15-7.73.7.85.65,2,1.25,3,4.76,7.91,18.1,12.72,26.39,15.99.93.37,2.03.23,2.86.92.66.55,1.25,3.6,1.45,4.57,1.19,5.97,1.71,12.55,2.35,18.61.34.22.7.38.72-.18Z"/>
            <path class="cls-2" d="M655.66,161.76c-3.89,9.27-7.5,18.75-13.23,27.07-3.45,5.01-14.87,19.81-19.74,22.31-.3.16-1.86.87-2.04.46,3.13-1.69,5.93-4.32,8.28-6.99,6.8-7.71,15.18-19.15,19.61-28.37,2.26-4.7,3.84-9.72,6.37-14.3l.74-.18Z"/>
            <path class="cls-2" d="M632.1,150.49c-.96,3.96-2.02,7.9-3.3,11.77-4.71,14.23-10.71,27.98-20.44,39.57-1.39,1.66-3.66,4.2-5.63,4.88,1.68-1.84,3.63-3.47,5.15-5.48,9.79-12.87,15.72-25.39,20.66-40.75.89-2.77,1.33-5.97,2.31-8.67.21-.57.49-1.95,1.24-1.33Z"/>
            <path class="cls-2" d="M606.56,134.06c-1.92-.46-8.19,1.35-10.11,2.22-4.35,1.95-11.97,9.59-14.62,13.59-3.05,4.61-5.17,10.26-6.95,15.46-.57-.66-.09-2.02.15-2.75,3.99-12.12,13.64-25.47,26.4-29,4.03-1.11,8.65-.85,10.8,3.21-.63.02-1.18-.83-1.44-.94-1.23-.52-3.07-1.51-4.24-1.79Z"/>
            <path class="cls-2" d="M658.3,151.55c-.84-.13-.46-.79-.4-1.35.3-2.84,1.23-5.99,1.69-8.89,2.1-13.08,2.91-25.33,2.03-38.54-.04-.59-.34-.69.47-.89.41,1.44.61,2.9.7,4.39.3,4.96.16,11.24-.15,16.22-.6,9.67-2.46,19.56-4.35,29.06Z"/>
            <path class="cls-2" d="M617.64,90.79c-.19.88-.43.35-.89.38-14.09.75-23.67,10.63-33.63,19.3-.35.3-.15.86-.9.35.25-.7.81-1.16,1.31-1.67,7.89-7.91,16.52-14.75,27.41-17.85,2.08-.59,4.63-1.49,6.7-.51Z"/>
            <path class="cls-2" d="M605.19,185.1c-3.2,5.73-8.48,14.29-15.03,16.3-.43.13-.75.49-1.23.15l3.77-1.96c3.98-2.47,9.26-10.19,11.76-14.3.28-.46.05-.54.74-.19Z"/>
            <path class="cls-2" d="M633.77,140.21c-.8-.17-.44-.35-.46-.85-.27-7.22,2.73-15.88-3.34-21.73l.66-.38c5.67,6.26,3.83,15.32,3.14,22.96Z"/>
            <path class="cls-2" d="M651.51,127.37l-3.81,17.71,1.16-8.55c.81-2.54.9-5.35,1.52-7.88.14-.59.31-1.9,1.12-1.28Z"/>
            <path class="cls-2" d="M574.84,183.62l-1.41-3.29c-.28-3.85-.38-7.75.04-11.61l1.37,14.9Z"/>
            <path class="cls-2" d="M612.82,154.35c-.3,4.64-.43,9.38-1.85,13.87l1.17-13.71.68-.16Z"/>
            <path class="cls-2" d="M641.19,164.48c-.36.68-1.29,1.7-1.7,2.44-.74-.5.69-1.62.78-1.83l2.98-7.07s.57-.28.74-.19c-1.04,2.11-1.72,4.58-2.8,6.64Z"/>
            <path class="cls-2" d="M645.5,153.48c-.44-.11-.18-.66-.14-.99.26-2.11,1.2-4.56,2-6.55.45.14.18.92.1,1.24-.46,2.05-1.38,4.25-1.96,6.3Z"/>
            <path class="cls-2" d="M661.09,92.79l.26,1.77-1.29-.88-.37.8-1.12-.43c.62-.62.63-1.16,1.57-.73l.31-.54h.64Z"/>
          </g>
          <g>
            <path class="cls-2" d="M392.35,87.69l-2.79.96.21,1.63c.61-.17,1.06-.57,1.73-.62,2.65-.19,9.22.75,12.08,1.23.57.09,5.29.48,4.31,1.98-3.63-.36-7.32-1.64-10.93-2.03-4.82-.52-11.45-1.57-7.05,5.46-5.82.73-6.36,3.72-2.59,7.77-2.13-.3-3.05,1.63-4.6,2.09-2.37.7-6.41.14-8.98.57-9.63,1.6-21.12,4.18-25.7,13.86-6.46,13.62-8.65,33.94-11.06,49.05-2.68,16.81-5.93,35.42-7.02,52.31-2.12,33.11,8.72,69.78,45.32,76.9,25.94,5.05,49.06-1.33,72.05-13.1,14.06-7.2,29.28-24.11,33.09-39.61,9.08-36.87-8.66-70.57-27.32-100.83-6.26-10.16-23.47-34.3-34.49-38.19-2.31-.82-4.6-.44-6.82-1.31,1.39-1.79.69-4.24-.62-5.88-.53-.66-2.23-1.43-2.38-1.88-.28-.8,1.34-1.63,1.25-2.76-.07-.94-.97-1.44-1.06-1.97-.18-1.06,1.33-2.42-1.49-3.18l5.06-31.86,5.7-12.58c.48-1.35-.29-2.75-1.62-3.17-4.88-1.48-19.56-6.52-23.93-4.35-3.26,1.62-.47,7.13-.17,9.51.34,2.66.52,6.23.62,8.95.35,10.32-1.35,20.74-.81,31.04ZM393.74,41.71c-.19-.44,0-1.11.42-1.25s8.27.63,9.34.79c2.52.38,6.22,1.22,8.29,2.63l-18.05-2.16ZM406.49,89.64l-12.39-2.08c.26-14.76,3.89-30.1-.14-44.58,6.49,2.51,14.26,3.96,21.2,2.94.49.31-2.11,4.1-2.41,4.75-3.63,7.77-5.49,21.21-6.26,29.92-.25,2.9-.28,6.16,0,9.06ZM390.61,92.73c.47-.67,14.23,1.65,16.2,1.93.45.06,1.23-.28,1.05.58-.1.44-.76,1.15-1.27,1.27-1.56.36-9.5-.8-11.94-.89-.95-.04-1.86.28-2.8.3l-.73-.52-.5-2.66ZM355.41,127.02c.12-.83.36-1.15-.55-1.56l-1.08,1.02c-3.89-1.57.34-6.89,2.31-8.65,5.21-4.67,11.7-5.65,18.3-7.3l9.72-.67,1.53,2.26c-2.9.13-4.4,1.55-3.57,4.48l-1.32-.21,2.66,3c-2.98.97-2.07-.01-2.82-.67-1.16-1.01-2.51-1.11-3.83-.37,0,1.52,1.73.54,2.81.93.24.09,2.5,1.51,2.6,1.62.43.47-.14,2.57.33,3.39l-1.67.28.16-3.06c-1.52-1.68-4.69-.03-4.94-.1-.84-.24-1.91-2.33-2.5-2.95l-.56,3.11,1.78.36-2.04,1.86-2.52-3.26.61-1.61-2.07.37c-.18,2.42,0,1.67,1.35,2.99l-.71.98c2.92.96,0,3.71-.42,2.66l.63-1.39c-2.55-.89-.47-2.94-2.21-4.16l-1.24,3.21c0,1.36,2.07,2.32.68,3.78-1.04.16-.2-1.35-1.38-2.07-.48-.29-.84-.17-1.34-.06l1.4-1.95c-1.26.25-2.91,1.71-3.85,2.62-.35.34-.13.92-.49,1.12-1.17.67-1.11-3.24-2.79-2.56v2.59s1.23-.16,1.23-.16l.24,1.21-4.41-1.05ZM412.21,110.73c1.29-1.31,12.69,2.4,7.06,6.28-.31.21-.89-.06-1.16.14-.11.08-.88,1.7-1.74,1.91-.46-1.22-.97-2.29-2.37-2.62.48,1.2,1.32,1.28.94,2.81l.87.34c-1.8-.49-2.23,1.73-3.4,1.7-.57-.01-1.7-1.38-2.9-.65-.16-.74-.34-.86.5-.96,1.58-.19,2.11,1.57,2.82.19-.08-2.27-3.04-.68-3.1-2.92,0-.24,1.32-.27.68-1.2-1.24,1.17-1.95-1.24,0-1.29.92-.03,1.7,1.29,2.35-.18l-1.39-.63.84-2.91ZM372.98,126.73c.39-1.41,2.31-.98,3.14-2.04.58-.73-.68-2.37.35-2.86,1.9,3.05-.64,4.62-3.49,4.89ZM364.37,163.12c2.8-7.97,5.62-16.68,9.14-24.36.57-1.25,2.36-5.17,3.42-5.7,1.34-.67,2.78-.13,4.15-.33,12.23-1.76,31.78-3.96,40.74-13.1,1.13-1.16,1.43-2.73,2.65-3.65.94.08,11.21,12.27,12.56,14.01,12.92,16.75,31.27,47.5,36.69,67.74,2.85,10.64,4.79,21.22,4.52,32.25-.7.2-.7-1.37-.75-1.83-.54-4.5-.79-9.01-1.8-13.48-3.09-13.6-15.2-33-24.35-43.58-5.91-6.84-12.17-13.01-20.34-17.09-2.71-1.35-15.11-6.09-17.56-5.96-2.4.13-10.38,1.65-11.16,4.24-.51,1.69,2.49-1.21,2.78-1.35,1.9-.91,5.95-1.84,8.06-1.93,2.72-.12,14.73,4.44,17.61,5.89,16.12,8.13,33.52,33.62,40.46,50.03,5.81,13.73,7.94,36.57,1.08,50.19-16.54,32.85-69.73,49.28-103.37,37.65-7.66-2.65-9.58-4.86-13.44-11.74-4.57-8.13-7.85-16.93-11.08-25.67-.73.11-.94-.09-.71.73,2.91,10.37,8.57,20.68,13.63,30.12l-3.58-2.24c-20.05-19.6-20.49-46.98-17.4-73,2.02-17.04,5.06-34.47,7.71-51.44,1.6-10.26,2.24-20.8,5.78-30.63,7.54,4.94,16.85,3.97,25.47,3.94-3.86,7.79-7.39,16.44-10.19,24.71-.46,1.35-1.4,3.87-1.64,5.12-.15.76.39.65.92.47Z"/>
            <path class="cls-2" d="M345.92,215.4c2.28,13.75,4.11,27.7,9.16,40.77,3.05,7.87,13.71,31.5,19.47,36.45.36.31,2.23,1.77,2.6,1.28-3.68-3.29-6.61-7.73-8.93-12.09-6.7-12.59-14.33-30.72-17.36-44.58-1.54-7.06-2.06-14.35-4-21.34l-.94-.48Z"/>
            <path class="cls-2" d="M381.33,207.76c.02,5.65.18,11.3.67,16.94,1.79,20.72,5.47,41.19,14.87,59.96,1.34,2.68,3.59,6.84,6.02,8.39-1.68-3.03-3.78-5.85-5.19-9.04-9.07-20.51-13.05-39.31-14.8-61.62-.31-4.02.12-8.48-.34-12.44-.1-.84-.03-2.79-1.24-2.19Z"/>
            <path class="cls-2" d="M421.07,193.79c2.74,0,10.61,4.46,12.93,6.24,5.24,4.03,13.07,16.79,15.36,23.03,2.64,7.2,3.68,15.5,4.41,23.09.98-.71.77-2.69.68-3.77-1.49-17.64-10.23-38.74-26.31-47.61-5.07-2.8-11.4-3.93-15.6.86.85.23,1.86-.74,2.24-.8,1.82-.3,4.62-1.05,6.3-1.05Z"/>
            <path class="cls-2" d="M345.63,200.77c1.18.09.87-.92.97-1.7.51-3.92.27-8.47.57-12.55,1.36-18.32,4.21-35.12,9.64-52.66.24-.78.68-.82-.35-1.35-1.02,1.81-1.76,3.72-2.36,5.7-2,6.59-3.83,15.12-5.01,21.94-2.3,13.24-2.96,27.18-3.46,40.6Z"/>
            <path class="cls-2" d="M420.01,131.84c-.03,1.25.47.61,1.08.79,18.77,5.54,28.52,21.95,39.18,36.84.37.52-.08,1.2,1.1.76-.11-1.02-.72-1.83-1.23-2.67-8.11-13.21-17.55-25.21-31.25-32.88-2.61-1.46-5.77-3.5-8.88-2.84Z"/>
            <path class="cls-2" d="M406.53,263.1c2.48,8.76,6.85,22,15.05,26.83.54.32.85.9,1.61.59l-4.45-3.86c-4.57-4.61-9.22-16.72-11.27-23.07-.23-.71.1-.74-.93-.49Z"/>
            <path class="cls-2" d="M382.37,193.34c1.13.02.7-.33.89-1.01,2.68-9.66,1.42-22.31,11.49-28.25l-.76-.72c-9.66,6.63-10.09,19.43-11.61,29.97Z"/>
            <path class="cls-2" d="M362.56,170.33l-.55,25.12,1.18-11.91c-.28-3.68.5-7.5.47-11.12,0-.84.2-2.66-1.1-2.08Z"/>
            <path class="cls-2" d="M447.96,270.85l2.96-3.98c1.62-5.11,3.01-10.34,3.67-15.68l-6.64,19.66Z"/>
            <path class="cls-2" d="M406.11,219.16c-1.09,6.35-2.43,12.8-1.96,19.31l2.82-18.88-.86-.43Z"/>
            <path class="cls-2" d="M364.57,223.72c.26,1.03,1.19,2.7,1.51,3.84,1.16-.44-.41-2.4-.46-2.72l-1.75-10.49c-.01-.07-.68-.57-.94-.49.73,3.18.85,6.73,1.65,9.87Z"/>
            <path class="cls-2" d="M362.29,207.48c.62,0,.46-.84.51-1.29.33-2.93-.16-6.54-.59-9.48-.66.05-.53,1.18-.54,1.64-.04,2.91.5,6.18.62,9.13Z"/>
            <path class="cls-2" d="M360.74,120.59l-.92,2.3,2.02-.77.24,1.2,1.65-.22c-.64-1.03-.47-1.76-1.89-1.5l-.25-.83-.86-.19Z"/>
          </g>
          <g>
            <path class="cls-2" d="M66.4,11.84l-1.24-.02-.15.67c.26.02.5-.08.77,0,1.07.3,3.53,1.61,4.6,2.2.21.12,2.02.94,1.42,1.39-1.38-.66-2.66-1.69-4.03-2.36-1.83-.89-4.3-2.25-3.56,1.16-2.4-.54-3.04.57-2.12,2.7-.8-.42-1.43.21-2.11.17-1.03-.06-2.55-.85-3.63-1.05-4.03-.74-8.93-1.35-12.12,1.82-4.49,4.46-8.23,12.18-11.33,17.8-3.45,6.26-7.37,13.15-10.2,19.66-5.54,12.78-6.47,28.8,6.98,36.81,9.53,5.68,19.57,6.44,30.32,5.06,6.57-.85,14.99-5.37,18.7-10.94,8.82-13.27,6.6-29.1,3.53-43.7-1.03-4.9-4.4-16.88-8.2-19.98-.8-.65-1.76-.83-2.51-1.49.8-.51.88-1.58.59-2.41-.12-.34-.68-.88-.67-1.08,0-.36.76-.45.89-.91.1-.38-.18-.71-.14-.93.08-.44.87-.77-.14-1.47l6.52-11.87,4.04-4.16c.38-.47.28-1.13-.19-1.48-1.72-1.28-6.8-5.35-8.83-5.12-1.52.18-1.2,2.75-1.42,3.73-.24,1.1-.68,2.53-1.03,3.62-1.33,4.13-3.48,8-4.73,12.14ZM73.48-6.11c-.01-.2.15-.44.34-.43s3.18,1.42,3.58,1.64c.94.51,2.28,1.37,2.9,2.21l-6.82-3.42ZM71.7,14.63l-4.6-2.58c2.2-5.79,5.81-11.34,6.28-17.63,2.21,1.92,5.07,3.59,7.96,4.17.15.19-1.42,1.32-1.63,1.53-2.54,2.55-5.18,7.6-6.72,10.93-.51,1.11-.98,2.39-1.29,3.58ZM64.99,13.59c.28-.2,5.38,2.67,6.12,3.06.17.09.53.07.33.38-.1.16-.46.35-.68.32-.67-.08-3.64-1.66-4.59-2.05-.37-.15-.78-.15-1.15-.28l-.22-.31.18-1.12ZM46.22,22.13c.16-.31.31-.4,0-.7l-.57.25c-1.31-1.17,1.11-2.67,2.14-3.09,2.72-1.1,5.42-.57,8.27-.29l3.94,1.11.28,1.11c-1.16-.36-1.96-.01-2.05,1.26l-.49-.27.62,1.56c-1.31-.04-.81-.3-1.02-.66-.31-.56-.83-.79-1.46-.69-.22.6.6.46.98.77.08.07.77.95.8,1.01.1.25-.42,1-.35,1.38l-.7-.13.5-1.18c-.36-.88-1.85-.68-1.94-.74-.3-.22-.42-1.19-.57-1.52l-.66,1.15.65.39-1.07.45-.53-1.64.47-.55-.87-.15c-.41.93-.24.66.11,1.37l-.42.28c1.02.79-.52,1.47-.55.99l.45-.46c-.88-.71.23-1.23-.28-1.96l-.94,1.09c-.19.54.49,1.21-.27,1.59-.43-.08.11-.56-.25-1.01-.15-.18-.31-.19-.52-.22l.83-.57c-.53-.08-1.39.26-1.89.49-.19.09-.18.34-.35.37-.56.1.02-1.44-.74-1.41l-.37,1.02.51.11-.08.51-1.59-1.04ZM70.97,23.77c.7-.33,4.67,2.75,1.9,3.48-.15.04-.34-.15-.48-.11-.05.02-.59.55-.96.51,0-.55-.06-1.04-.56-1.37.02.54.34.69-.03,1.24l.3.26c-.64-.45-1.13.37-1.58.19-.22-.09-.48-.79-1.05-.67.04-.31-.01-.39.34-.31.65.15.61.92,1.09.48.29-.91-1.1-.7-.81-1.59.03-.1.56.08.44-.38-.66.29-.59-.76.18-.51.37.12.49.75.96.26l-.46-.45.74-1.03ZM53.2,24.52c.35-.5,1.05-.06,1.53-.36.33-.21.07-1.03.55-1.08.32,1.48-.91,1.74-2.07,1.44ZM44.63,37.67c2.24-2.75,4.59-5.79,7.07-8.32.4-.41,1.67-1.71,2.16-1.77.63-.07,1.12.34,1.69.46,5.08,1.04,13.11,2.95,17.95.61.61-.3.95-.88,1.57-1.07.36.17,2.69,6.44,2.97,7.32,2.73,8.45,5.61,23.2,4.87,31.96-.39,4.61-1.12,9.06-2.8,13.38-.31-.02-.08-.64-.04-.83.42-1.85.97-3.67,1.2-5.58.71-5.81-1.32-15.19-3.43-20.67-1.36-3.54-2.96-6.87-5.61-9.64-.88-.92-5.1-4.55-6.09-4.85s-4.33-.82-5.01.09c-.44.59,1.15-.12,1.29-.14.88-.09,2.61.12,3.46.38,1.09.34,5.19,3.85,6.12,4.83,5.21,5.5,8.47,18.04,8.88,25.5.34,6.25-2.06,15.57-6.7,19.98-11.2,10.63-34.54,9.56-46.17.19-2.65-2.14-3.09-3.28-3.64-6.54-.65-3.86-.7-7.8-.73-11.71-.31-.06-.36-.17-.38.19-.32,4.51.45,9.38,1.11,13.83l-1.1-1.39c-5.14-10.59-1.42-21.46,3.49-31.3,3.22-6.44,6.89-12.9,10.35-19.22,2.09-3.82,3.84-7.89,6.63-11.28,2.28,3.02,6.09,3.96,9.5,5.17-2.63,2.53-5.25,5.44-7.53,8.31-.37.47-1.1,1.33-1.38,1.79-.17.28.06.31.29.32Z"/>
            <path class="cls-2" d="M29.92,55.69c-1.05,5.76-2.31,11.53-2.17,17.4.09,3.54.94,14.39,2.51,17.16.1.17.63,1.01.84.87-.99-1.82-1.51-3.99-1.81-6.04-.86-5.92-1.3-14.17-.52-20.07.39-3.01,1.22-5.96,1.45-9l-.3-.32Z"/>
            <path class="cls-2" d="M44.99,57.7c-.79,2.23-1.53,4.49-2.14,6.79-2.24,8.44-3.69,17.05-2.64,25.79.15,1.25.45,3.21,1.19,4.17-.23-1.43-.66-2.85-.77-4.31-.67-9.39.43-17.38,2.91-26.44.45-1.63,1.25-3.33,1.63-4.96.08-.35.38-1.1-.18-1.04Z"/>
            <path class="cls-2" d="M62.67,57.83c1.08.39,3.56,3.27,4.22,4.3,1.5,2.34,2.78,8.49,2.8,11.28.02,3.22-.75,6.64-1.54,9.75.49-.14.69-.95.8-1.39,1.92-7.18,1.46-16.76-3.63-22.54-1.61-1.83-3.94-3.17-6.28-1.87.3.21.84-.03,1,0,.76.14,1.97.24,2.64.48Z"/>
            <path class="cls-2" d="M31.89,49.87c.45.2.47-.24.62-.53.76-1.48,1.31-3.31,2.01-4.87,3.14-7.04,6.65-13.27,11.29-19.43.21-.27.38-.23.05-.58-.66.57-1.22,1.22-1.74,1.92-1.72,2.32-3.66,5.43-5.09,7.95-2.79,4.9-5.03,10.32-7.13,15.55Z"/>
            <path class="cls-2" d="M71.05,33.21c-.19.49.1.31.31.47,6.63,4.85,8.15,12.72,10.24,20.12.07.26-.2.46.33.46.1-.42-.02-.82-.11-1.23-1.33-6.37-3.35-12.45-7.67-17.43-.82-.95-1.78-2.2-3.1-2.38Z"/>
            <path class="cls-2" d="M47.09,83.14c-.26,3.81-.42,9.66,2.13,12.73.17.2.21.48.55.46l-1.21-2.16c-1.15-2.47-1.27-7.91-1.18-10.71.01-.31.15-.28-.3-.33Z"/>
            <path class="cls-2" d="M47.45,52.16c.44.17.33-.03.5-.27,2.43-3.43,3.73-8.61,8.55-9.52l-.2-.39c-4.76,1.25-6.75,6.24-8.84,10.19Z"/>
            <path class="cls-2" d="M42.9,40.25l-3.78,9.84,2.16-4.54c.41-1.49,1.26-2.89,1.77-4.33.12-.33.46-1.02-.14-.98Z"/>
            <path class="cls-2" d="M62.35,92.08l1.74-1.15c1.36-1.79,2.66-3.66,3.68-5.67l-5.41,6.82Z"/>
            <path class="cls-2" d="M53.16,65.72c-1.33,2.36-2.78,4.71-3.52,7.35l3.79-7.06-.28-.29Z"/>
            <path class="cls-2" d="M36.11,61.63c-.04.44.09,1.24.05,1.73.52,0,.18-1.01.21-1.14l.8-4.39s-.19-.32-.3-.33c-.16,1.36-.62,2.78-.75,4.13Z"/>
            <path class="cls-2" d="M37.51,54.89c.25.09.3-.27.38-.44.55-1.11.87-2.61,1.11-3.83-.27-.07-.38.39-.45.57-.43,1.15-.68,2.51-1.05,3.69Z"/>
            <path class="cls-2" d="M49.24,20.35l-.69.78.91-.02-.08.51.68.15c-.11-.5.06-.76-.53-.86l.02-.36-.31-.2Z"/>
          </g>
        </g>
        <path class="cls-2" d="M55.68,621.95c2.45-1.85,4.1-3.76,4.87-6.8.81-3.21-2.39-6.48-4.47-8.59-3.92-3.97-8.65-7.42-12.66-11.42-2.31-2.3-8.99-9.15-9.87-11.79-2.94-8.77,5.25-29.46,6.75-39.38.54-3.58.64-6.44-1.27-9.64-3.81-6.39-16.05-12.26-21.65-17.65-1.57-1.51-4.62-5.37-4.31-7.49.53-3.65,3.72-11.58,5.13-15.42,2.54-6.91,6.38-13.26,6.7-20.85.58-13.51-12.85-23.42-20.12-33.33-1.59-2.17-1.01-5.17-.55-7.7,1.46-8.03,4.66-16.75,6.07-24.71.28-1.56-.02-4.05.25-5.08s1.72-3.3,2.26-4.62c7.26-18.08,13.07-36.69,20.37-54.76,1.94-4.8,4.55-9.3,6.5-14.09,11.87-29.29,11.86-61.29-23.12-72.17-19.03-5.92-39.98-9.38-59.7-12.3-20.22-2.99-44.18-7.12-64.41-2.81-7.14,1.52-25.78,6.62-31.04,10.92-24.16,19.76-8.47,50.05-3.46,74.72,3.23,15.86,5.26,34.79,6.08,50.96.25,5.01-.42,7.28-1.16,11.93-1.57,9.93.37,20.23.3,30.23-.81,5.54-12.12,14.35-16.36,18.22-.94.86-1.78,1.99-2.72,2.85-3.13,2.85-7.83,5.42-9.66,9.4-2.01,4.35-1.9,18.89-1.59,24.19.32,5.62,3.31,17.15.79,21.77-.9,1.66-5.15,4.84-6.82,6.32-1.34,1.19-4.32,4.81-5.9,5.13-.69.14-4.12.06-5.04-.02-30.37-2.52-48.86-23.13-54.59-51.94-4.41-22.2-4.66-50.32-17.85-69.38-2.38-3.44-4.94-6.94-7.4-10.34-2.02-2.79-5.56-5.34-5.7-8.92-.03-.73.33-1.24.31-1.79-.04-1.13-.5-3.51-1.58-4.08-.64-.34-4.9,0-6.04-.09-2.89-.22-5.22-.71-7.91-1.79-2.25-.9-10.8-6.42-12.69-3.87-1.27,1.71-.02,3.52,1.26,4.64,3.85,3.35,10.92,6.78,15.32,9.9,14.89,10.52,22.05,33.79,24.2,51.06,3.54,28.48,2.77,57.54,17.33,83.3,8.86,15.68,20.37,22.35,38.11,24.76,1.03.14,3.4-.4,3.8.36.45,4.78.4,9.63.81,14.41.35,4.04,2.63,17.09,1.89,19.99-1.29,5.03-6.07,7.38-9.49,10.4-2.45,2.16-4.85,4.38-7.28,6.52s-6.78,5.39-8.64,7.55c-1.03,1.19-1.42,3.36-.52,4.73.39.6,1.3.67,1.33.74.1.18-.52.91-.45,1.44.26,1.99,8.99,7.36,11.21,8.06-.33,3.8-1.92,6.72-1.78,10.7.18,5.26,2.24,4.29,5.78,6.63,32.23,21.23,78.44,28.29,116.37,31.42,40.24,3.32,77.95,4.35,116.9-7.25,3.9-1.16,9.76-.82,11-5.61l-1.06.23-1.16-7.68-1.37-1.26c6.45-1.56,14.36-4.83,19.68-8.86ZM26.96,264.05c-13.72-2.4-27.19-7.35-40.91-10.23-11.83-2.48-24-3.07-35.95-4.83-13.67-2.01-25.26-4.69-39.39-4.86-8.16-.1-16.4.84-24.55.7,7.03-2.16,14.38-3.15,21.75-3.39,16.85-.55,33.89,2.14,50.5,4.59,18.69,2.76,43.48,6.53,60.99,13.14,3.23,1.22,6.15,3.04,9.15,4.69,0,.6-1.23.25-1.59.19ZM-47.53,330.28c-2.12-2.39-6.76-3.5-9.84-2.85-2,.42-7,4.01-8.83,5.39-6,4.51-12.46,11.37-12.11,19.38-5.18-.74-10.58-.24-15.75.52-8.2,1.22-17.5,4.39-23.87,9.69-1.39,1.16-2.66,2.9-4.22,3.9-1.6-11.55-2.62-23.19-4.21-34.74-2.7-19.62-11.74-56.25,2.92-72.2,17.98-19.56,49.1-10.75,71.84-7.42,12.29,1.8,24.81,2.41,36.98,4.93,8.16,1.69,24.26,5.17,31.4,8.5,11.89,5.55,13.99,27.23,12.07,38.61-4.08,24.14-16.47,46.51-23.02,70.5-.65,2.37-1.26,4.8-1.52,7.25l-2.4-5.43c-.46-1.41-2.58-2.47-3.19-3.23-.49-.61-.75-2.51-1.63-3.55-7.47-8.85-26.1-10.87-36.95-11.9-.54-.05-1.06,0-1.56.2.14-.33-.27-.77-.26-.9.25-2.42.74-5.18.8-7.55.15-6.39-2.43-14.31-6.67-19.1ZM4.95,382.75c4.41-7.45,5.72-16.56,8.57-24.77,6.6-19.06,14.96-34.13,18.19-54.74,1.04-6.62.49-13.97-1.16-20.43-1.44-5.63-3.47-12.28-7.82-16.28,1.96-.74,4,2.35,4.94,3.85,11.69,18.51,4,42.47-2.24,61.58-2.81,8.62-6.09,17.99-9.38,26.44-1.58,4.06-3.88,8.1-5.25,12.14-1.76,5.19-2.39,10.78-4.56,15.9l-1.29-3.69ZM-142.27,265.96c-6.79,17.65-.4,32.37,3.81,49.34,3.19,12.84,3.79,28.63,5.23,41.92.87,8.03,2.52,16.03,2.55,24.13l-3.4,1.04c-.04-2.23.2-4.5.19-6.74-.09-22.95-3.55-45.74-9.23-67.88-1.17-4.57-3.06-8.99-4.03-13.69-3.18-15.49-2.16-30.94,12.1-40.55.42-.28.65-.77,1.27-.56-3.7,3.82-6.56,7.98-8.48,12.99ZM-74.78,357.65c-.39-1.26-1.25-3.42.16-4.21.16-.27-.6-.1-.65-.46-.89-6.58,5.99-13.89,10.88-17.55,1.02-.76,6.67-4.63,7.43-4.78,2.8-.55,5.66.33,7.4,2.53,5.34,6.74,5.06,15.57,4.45,23.72-.43,5.71-2.43,6.96-7.46,9.05-5.38,2.24-10.08,1.44-15.65.05-2.82-2.46-5.36-4.45-6.56-8.34ZM-12.73,377.16c-2.61.66-5.31,1.23-7.98,1.58l10.57-3.81c2.62-.94,4.18-4.4,7.08-2.3,1.15,1.95-8.67,4.28-9.67,4.53ZM-103.33,368.19c12.91,3.99,26.14,5.47,39.32,8.07,1.32.26,2.86.14,4.12.44.47.11,1.05.37.43.74l-19.86-1.04c-9.58-2.29-23.21-3.48-31.19-9.62-1.72-1.32-5.03-4.63-1.38-5.64-.22,4.15,5.29,6.04,8.56,7.05ZM-83.42,379.08c-4.45-1.1-9.46-1.59-13.82-2.95-3.06-.95-4.87-2.52-8.45-2.53-2.06,0-3.06,1.04-1.91,2.9l-2.98.02c-.66,1.25.42,1.7.97,2.55l-3.2-.27c-1.05.21-.91,1.48-1.31,1.55-1.13.2-4.9-.94-5.84-1.85,3.87.64,3.73-1.54,5.46-3.73.69-.88,2.03-1.28,2.42-2.45.91-2.77-.82-2.47-2.14-3.79-1.53-1.54-3.55-3.88-.83-5.29.32,2.2,2.19,4.01,3.87,5.34,3.98,3.17,10.16,5.57,15.02,7,4.7,1.38,9.54,2.38,14.34,3.31l-1.6.19ZM-2.1,376.49c-.92,1.04-11.32,3.64-13.52,4.46-1.13.42-2.53,1.07-2.79,2.4-.12.62.19,1.25.1,1.72-.39,2.01-2.4,6.15.26,7.07,4.1,1.41,11.45-.79,16.04-.97,1.68-.07,3.35.65,5.01-.21-.25,1.37-1.39,2.03-2.59,2.43-3.84,1.28-14.58,2.37-19.07,2.82-11.78,1.19-27.18.38-39.05-.53-7.08-.55-14.13-1.46-21.05-2.93l3.72-.17c15.07.51,33.32,5.55,48.19,2.43,2.03-.43,5.35-1.99,5.61-4.34.22-1.99-1.81-2.23-2.02-3.41s.5-2.26-.07-3.71c-.48-1.23-1.63-1.19-2.15-2.18,5.83-1.66,13.81-1.6,19.27-3.93,1.53-.65,2.47-1.95,3.95-2.3l.18,1.36ZM-2.44,389.1c-5.17.13-10.21,2.23-15.35,1.41l.49-7.34c.22-.86,1.52-1.51,2.32-1.8,4.23-1.52,9.41-1.63,13.34-4.04.64.07,5.23,11.41,4.81,11.91-1.86.45-3.71-.18-5.61-.14ZM-72.73,379.92l4.57,1.11-9.27-.98,4.7-.13ZM-294.64,358.11l4.3,3.28c-1.13-.35-5.41-1.83-5.99-2.53-.36-.43-.34-.88-.16-1.38.21-.5.93-.66,1.34-.36.11.08.15.83.51.98ZM-273.66,371.13l2.6-1.64c.76,2.97,3.29,4.88,4.96,7.29,2.63,3.8,5.42,7.63,7.98,11.44,2.44,3.63,3.85,8.09,5.68,12.05-.04,1.03-.42.22-.62-.12-1.62-2.67-2.39-5.77-3.87-8.49-2.75-5.07-8.98-13.29-13.08-17.36-.25-.24-2.23-2.05-1.82-.73.19.61,3.42,4.6,4.1,5.48,9.45,12.25,15.63,24.27,18.38,39.76,5,28.19,2.47,64.28,24.99,85.58,2.15,2.03,4.98,4.26,8.05,4.16-1.06-1.75-3.47-2.62-5.1-4.04-4.97-4.31-9.32-11.23-12.25-17.09-1.26-2.52-3.1-6.17-3.86-8.8-.09-.33-.51-1.38.21-1.27,1.83,5.99,5.62,11.27,8.66,16.7,4.06,3.72,7.55,8.3,11.76,11.84,7.82,6.58,18.07,10.06,28.19,10.95-2.22,1.31-4.2,4.18-6.84,4.15-11.46-.14-30.74-10.65-37.11-20.24-15.16-22.84-12.49-50.32-18.12-75.76-4.14-18.7-10.49-37.23-23.63-51.52-3.94-4.28-8.71-6.83-13.33-10.25l7.81,4.05c3.58,1.14,8.43.53,6.09-4.13l2.47-.44c1.46,3.47-1.88,5.28-2.27,8.44ZM-85.95,389.5c-8.11.42-14.13-1.92-21.79-3.94-4.11-1.08-7.95-1.67-12.02-3.15-2.2-.8-5.53-1.83-6.82-3.74,3.32.78,6.37,2.41,9.63,3.35,7.4,2.13,16.03,4.23,23.61,5.71,3.2.62,6.51,1.01,9.74,1.38-.27.48-1.78.36-2.35.39ZM5.35,414.62c-1.11,6.52-6.29,18.59-4.68,24.53.54,1.99,1.88,2.86,2.88,4.26,3.17,4.43,6.57,8.71,9.88,13.04,2.45,3.21,5.54,5.67,6.56,9.77-.01.88-3.68,2.75-4.56,3.16-18.88,8.83-47.72,9.83-68.54,10.36-32.01.81-65.49-6.49-94.93-18.56-5.3-2.17-10.38-5.04-15.19-7.96-.64-.87,2.92-4.65,3.67-5.32,6.03-5.38,12.73-10.66,18.22-16.68,2.43-2.67,4.3-5.81,6.5-8.65,3,3.61,8.58,5.6,12.93,7.43,25.55,10.75,64.53,15.1,92.08,12.91,6.56-.52,12.52-1.86,18.48-4.71.21-.71-.21-.59-.74-.53-5.77.73-10.88,2.46-16.79,2.92-10.48.81-21.36.69-31.81-.12-21.12-1.63-50.63-6.64-69.46-16.36-1.61-.83-3.97-2.24-4.15-4.18-.31-3.36.08-7.31-.04-10.64-.17-4.53-.86-9.09-.61-13.63.15-2.73.67-11.14,3.51-11.99,5.54-1.67,9.82,1.58,14.78,3.16,13.97,4.47,33.18,9.47,47.59,11.42,15.83,2.14,35.74,3,51.65,1,5.75-.72,13.3-2.91,18.77-3.19,4.34-.22,7.19,3.43,6.49,7.63-.22,1.34-3.07,8.79-2.89,9.24.12.3.75-.21.43,1.67ZM-133.05,510.27c16.93,6.17,40.33,9.28,58.35,9.93,19.08.69,37.6-1.09,56.45-3.58,9.42-1.25,18.41-3.19,27.39-6.31-.15.7-.03,1.22.21,1.88,2.15,6.09,12.28,12.89,17.49,16.93,3.23,2.51,7.51,4.19,9.32,8.15-13.05,7.54-27.58,10.03-42.22,12.63-29.04,5.16-57.52,6.98-86.99,2.73-12.88-1.85-25.57-5.45-38.42-7.54-7.58-1.23-15.35-1.52-22.84-3.5-10.8-2.84-25-7.39-34.34-13.35-1.55-.99-2.91-2.14-4.4-3.2-.08-.51.2-.56.42-.82,1.55-1.81,5.06-3.76,6.96-5.37,6.3-5.32,13.65-12.05,19.44-17.88,7.27-7.31,2.35-17.24,1.78-26.22-.15-2.33.05-19.77.74-20.53,3.51,2.92,7.93,5.62,12.03,7.69,26.49,13.37,67.22,21.84,96.79,21.46,19.72-.25,53.6-1.21,70.69-10.81,1.82-1.02,3.19-2.68,5-3.72.86,9.13-3.95,16.74-6.97,24.94-1.77,4.79-3.42,9.95-4.57,14.91-.24.56-1.25.7-1.79.89-7.16,2.62-17.2,4.1-24.81,5.03-14.28,1.75-29.93,3.51-44.29,3.48-27.22-.06-54.12-4.34-80.1-12.27,2.14,2.08,5.86,3.4,8.69,4.43ZM-47.13,594.23c1.13-.01,2.39-.29,3.54-.29,20.8.02,49.69-.48,69.37-7.01.82-.27,4.06-1.91,4.47-1.87.55.05,2.02,3.29,2.66,4.13,5.58,7.25,13.07,13.07,19.48,19.4,2.31,2.28,4.74,4.63,5.6,7.87-2.88,1.2-5.32,3.35-8.11,4.92-15.76,8.88-39.34,11.38-57.3,13-10.69.96-19.52.5-30.08.47-10.55-.03-21.1.53-31.64.48-34.99-.17-69.44-4.91-102.68-16.15-14.61-4.94-27.52-13.14-40.79-20.69-2.21-1.26-4.22-3.08-6.53-3.98l.04-.34c1.43.06.93-1.79,1.66-2.8,1.91-2.64,7.85-6.69,10.53-9.1,1.37-1.23,2.52-2.86,3.9-4.11,3.3-3,8.16-5.3,9.23-10.13,4.59,3.82,10.99,7.06,16.53,9.39,22.81,9.59,44.57,14.94,69.58,14.97.9,0,6.75-.21,6.85-.83.11-.7-.98-.34-1.21-.35-9.62-.3-20.32-1.57-29.85-3.09-17.08-2.72-34.32-8.42-50.09-15.36-2.05-.9-10.7-4.47-10.88-6.59-.03-.38.8-1.25.89-2.26.46-5-1.38-14.39-1.67-20.03s-.56-11.73.06-17.47c.8.52,1.18,1.47,1.88,2.09,11.24,9.91,36.14,16.67,50.88,19.12,16.73,2.78,33.32,6.62,50.08,9.09,29.26,4.32,58.51,2.14,87.39-3.37,10.19-1.94,23.14-4.2,32.3-8.98,2.9-1.51,5.21-3.79,8.02-5.41-.19,2.7-.65,5.38-1.2,8.02-2.09,10.21-6.93,23.39-6.24,33.62.06.94,1.03,2.69.28,3.23-1.75,1.26-6.19,2.36-8.38,2.86-22.4,5.09-46.2,4.8-69.03,6.86-.07.59-.27.71.41.71Z"/>
        <path class="cls-2" d="M141.95,6.81l-1.37.69-2.68,5.81-.79-.43c-.12,4.07,4.6,5.15,7.42,6.96,28.18,18.1,58.28,25.91,90.89,32.49,30.74,6.2,68.95,11.19,99.32,1.76,3.34-1.04,4.75.2,6.09-3.92,1.02-3.12.43-5.8,1.04-8.88,1.91-.05,10.06-2.3,10.72-3.82.17-.4-.15-1.13-.03-1.24.05-.04.78.11,1.23-.28,1.03-.88,1.21-2.69.67-3.86-.98-2.14-3.71-5.76-5.11-7.96s-2.83-4.56-4.27-6.83c-2.02-3.18-5.27-6.13-5.14-10.41.08-2.47,4.87-12.27,6.07-15.39,1.42-3.69,2.49-7.54,3.94-11.23.49-.51,2.25.46,3.09.59,14.6,2.15,25.23-.5,35.84-10.88,17.43-17.06,23.46-40.24,32.79-61.98,5.66-13.19,16.65-29.96,30.84-34.89,4.2-1.46,10.58-2.56,14.4-4.33,1.27-.59,2.67-1.74,2.06-3.38-.91-2.45-8.94-.04-10.93.16-2.37.24-4.33.1-6.67-.39-.92-.19-4.22-1.43-4.8-1.31-.98.21-1.89,1.98-2.18,2.87-.14.43.03.92-.16,1.49-.93,2.81-4.32,4.01-6.55,5.76-2.72,2.13-5.55,4.31-8.22,6.49-14.81,12.07-21.44,34.28-30.01,50.84-11.13,21.5-30.48,33.58-55.1,28.63-.74-.15-3.48-.87-3.99-1.14-1.18-.62-2.71-4.16-3.5-5.41-.98-1.55-3.61-5.05-3.95-6.57-.94-4.23,4.07-12.68,5.61-17.06,1.46-4.13,4.87-15.62,4.27-19.52-.54-3.57-3.68-6.68-5.5-9.65-.55-.89-.95-1.98-1.5-2.88-2.47-4.03-9.41-13.6-8.78-18.17,2.23-7.93,6.13-15.64,7.16-23.86.48-3.86.47-5.81,1.81-9.71,4.35-12.62,10.29-27.14,16.48-38.96,9.62-18.38,28.97-38.77,14.36-59.95-3.18-4.61-16.77-12.91-22.07-15.75-15.03-8.04-34.95-10.26-51.64-12.52-16.28-2.21-33.66-4.26-50.08-3.93-30.18.61-37.51,25.94-34.82,51.84.44,4.24,1.48,8.4,1.92,12.64,1.64,15.98,1.98,32.04,3.59,48.02.12,1.17.74,3.26.73,4.17s-.82,2.79-.96,4.08c-.71,6.62-.17,14.26-.85,20.95-.22,2.11-.45,4.62-2.2,5.97-8.02,6.18-20.93,10.96-23.56,21.78-1.48,6.08.11,11.99.53,18.04.24,3.36.95,10.36.53,13.38-.24,1.75-3.54,4.11-5.13,4.95-5.67,2.98-16.7,4.83-21.18,9.01-2.24,2.1-2.82,4.38-3.21,7.35-1.08,8.19.67,26.45-3.66,32.72-1.3,1.89-8.16,5.78-10.51,7.08-4.09,2.25-8.63,3.9-12.64,6.14-2.14,1.2-5.41,3.05-5.51,5.78-.09,2.59.78,4.47,2.3,6.5,3.29,4.41,8.8,8.8,13.56,11.52ZM231.82-282c2.75-.62,5.48-1.39,8.32-1.62,15.38-1.22,35.87,1.47,51.3,3.56,13.71,1.86,27.82,3.63,41.03,7.93,5.78,1.88,11.37,4.34,16.45,7.66-6.49-1.76-12.79-4.38-19.28-6.18-11.22-3.1-21.01-3.62-32.3-5.16-9.86-1.35-19.63-3.66-29.57-4.41-11.52-.86-23.32-.02-34.73-1.27-.3-.03-1.36-.04-1.22-.51ZM267.21-198.41c-.5,1.89-.75,4.19-1.1,6.16-.02.1-.44.36-.41.65-.35-.28-.75-.43-1.19-.52-8.82-1.66-24.03-4.33-31.98.97-.93.62-1.57,2.07-2.1,2.44-.66.46-2.58.82-3.26,1.83l-3.14,3.75c.36-2,.43-4.06.46-6.08.3-20.49-4.39-41.03-2.09-61.08,1.08-9.45,7.71-26.13,18.39-27.81,6.41-1,19.96-.07,26.81.45,10.22.79,20.26,3.17,30.41,4.56,18.77,2.57,45.42,2.71,55.18,22.32,7.95,15.98-7.58,42.91-14.21,57.83-3.9,8.78-7.37,17.76-11.28,26.54-1-1.15-1.61-2.82-2.45-4.05-3.84-5.65-10.47-10.29-16.68-13.13-3.91-1.79-8.08-3.42-12.35-4.02,2.11-6.26-1.43-13.17-5.15-18.11-1.13-1.51-4.27-5.49-5.76-6.28-2.29-1.22-6.22-1.4-8.44,0-4.45,2.82-8.31,8.5-9.65,13.59ZM221.43-179.84c-.55-4.55.23-9.12.03-13.63-.16-3.51-1.05-7.24-1.38-10.81-.67-7.44-1.12-15.6-1.37-23.08-.56-16.56-1.17-37.28,12.32-49.27,1.09-.97,3.41-2.95,4.79-1.92-4.36,2.17-7.49,6.97-9.92,11.1-2.79,4.74-4.9,10.44-5.6,15.91-2.16,17.05,1.01,30.9,1.87,47.5.37,7.15-.68,14.66,1.11,21.57l-1.87,2.63ZM362.84-253.47c.55-.03.61.41.88.73,9.09,10.88,6.36,23.34.3,34.87-1.84,3.5-4.35,6.57-6.32,9.92-9.57,16.22-17.52,33.48-22.85,51.62-.52,1.77-.85,3.62-1.39,5.38l-2.45-1.6c1.88-6.41,5.02-12.37,7.54-18.52,4.18-10.2,8.27-22.55,13.73-31.99,7.22-12.47,15.65-22.66,14.31-38.19-.38-4.41-1.69-8.35-3.74-12.22ZM285.07-178.99c-4.72-.18-8.63-.62-12.37-3.62-3.5-2.81-4.8-4.26-3.83-8.87,1.38-6.59,3.17-13.64,8.95-17.76,1.88-1.34,4.35-1.39,6.44-.31.57.29,4.16,4.65,4.79,5.49,3.03,4.02,6.81,11.38,4.6,16.38-.12.28-.68-.03-.62.22.93.95-.24,2.46-.84,3.37-1.84,2.8-4.31,3.8-7.1,5.1ZM231.95-188.65c2.78-1,3.22,2.1,5.08,3.44l7.5,5.43c-2.03-.88-4.05-1.96-5.96-3.08-.74-.43-7.97-4.53-6.62-5.8ZM320.75-172.84c2.67,1.63-.72,3.49-2.38,4.15-7.72,3.03-18.79.86-26.9.47l-15.96-3.72c-.4-.43.12-.5.51-.49,1.07.05,2.26.5,3.36.6,11.03.96,21.84,2.82,32.97,2.61,2.82-.05,7.61-.28,8.39-3.62ZM292.88-165.67c4.02.37,8.08.68,12.11.66,4.17-.02,9.61-.51,13.49-2.11,1.64-.67,3.53-1.68,4.29-3.35,1.83,1.74-.3,3.13-1.87,4-1.35.75-2.65.11-2.56,2.51.04,1.02,1.01,1.64,1.35,2.5.86,2.13.25,3.82,3.46,4.2-.95.51-4.2.55-5.05.13-.3-.15.1-1.12-.68-1.53l-2.6-.52c.63-.54,1.59-.65,1.35-1.79l-2.35-.7c1.33-1.22.78-2.27-.85-2.74-2.83-.81-4.63.02-7.27.07-3.77.08-7.84-.68-11.62-.83l-1.22-.52ZM230.77-186.85c1.09.61,1.53,1.85,2.6,2.72,3.79,3.09,10.12,4.88,14.36,7.52-.64.67-1.54.36-2.2,1.23-.78,1.02-.45,1.99-.91,2.92s-2.1.61-2.38,2.24c-.33,1.92,1.93,3.92,3.45,4.72,11.06,5.87,26.66,6.06,38.7,9.11l2.91.98c-5.82-.42-11.61-1.31-17.34-2.5-9.61-1.99-21.99-4.88-31.04-8.51-3.45-1.39-11.7-4.7-14.45-6.6-.86-.59-1.61-1.37-1.49-2.51,1.12,1.06,2.61.87,3.92,1.31,3.59,1.19,8.91,4.62,12.48,4.44,2.32-.12,1.68-3.86,1.83-5.54.03-.39.42-.81.47-1.34.1-1.12-.86-1.96-1.66-2.54-1.56-1.15-9.2-5.59-9.69-6.62l.45-1.03ZM223.23-176.93c-.22-.49,6.01-8.43,6.53-8.33,2.56,2.81,6.64,4.08,9.63,6.25.57.41,1.44,1.23,1.42,1.96l-1.29,5.92c-4.25-.52-7.76-3.35-11.83-4.63-1.49-.47-3.1-.39-4.47-1.18ZM289.14-165.76l-7.56-1.35,3.87.17,3.69,1.18ZM466.75-134.08c.4-.15.93.15.98.59.02.43-.06.79-.44,1.05-.62.42-4.35.61-5.32.63l4.16-1.61c.31-.04.52-.62.63-.66ZM446.67-135.11l1.86.91c-2.92,3.15.78,4.75,3.87,4.67l7.11-1.42c-4.45,1.65-8.8,2.57-12.9,5.06-13.68,8.31-22.95,21.53-30.5,35.38-10.28,18.86-14.45,41.22-31.68,55.84-7.24,6.14-24.91,10.05-34.01,7.53-2.1-.58-3.01-3.31-4.47-4.85,8.22,1.61,17.13,1.2,24.82-2.22,4.14-1.84,7.95-4.67,12.02-6.68,3.65-3.61,7.86-6.92,10.68-11.24.59.07.02.81-.13,1.05-1.2,1.91-3.5,4.38-5.07,6.09-3.66,3.96-8.69,8.46-13.61,10.73-1.62.75-3.73.89-4.96,2.03,2.41.78,5.16-.33,7.33-1.45,22.71-11.71,28.96-40.87,39.37-62.04,5.72-11.63,13.36-19.73,23.65-27.27.73-.54,4.21-2.96,4.5-3.4.63-.96-1.36.02-1.61.16-4.18,2.29-10.99,7.37-14.33,10.75-1.79,1.81-3.11,4.09-5,5.84-.24.22-.72.78-.52-.04,2.35-2.72,4.49-5.92,7.25-8.24,2.9-2.43,5.98-4.83,8.93-7.23,1.87-1.53,4.32-2.46,5.6-4.64l1.69,1.89c.41-2.59-1.82-4.78.13-7.2ZM291.95-157.17c2.65.45,5.36.9,8.03,1.13,6.34.56,13.65.88,20,.89,2.8,0,5.59-.59,8.39-.45-1.46,1.21-4.33,1.27-6.26,1.4-3.56.23-6.74-.18-10.24-.26-6.53-.15-11.82.32-18.15-1.87-.45-.15-1.67-.4-1.77-.84ZM216.41-158.55c.24-.32-.31-6.87-.18-7.98.41-3.48,3.5-5.72,6.89-4.56,4.27,1.47,9.74,4.93,14.13,6.82,12.14,5.23,28.1,9.1,41.12,11.03,11.86,1.75,28.21,2.19,40.29,1.85,4.29-.12,8.42-1.71,12.43.88,2.05,1.33.54,8.1.03,10.3-.84,3.65-2.43,7.11-3.61,10.65-.86,2.61-1.46,5.82-2.47,8.41-.58,1.49-2.77,2.07-4.24,2.36-17.13,3.39-41.64.59-58.74-2.95-8.46-1.75-17.1-4.15-25.21-7.19-4.58-1.71-8.23-4.25-12.63-6.15-.4-.17-.71-.36-.71.25,4.06,3.62,8.48,6.05,13.55,7.96,21.31,8.04,53.17,13.52,75.85,10.85,3.86-.45,8.73-.75,11.94-2.92,1.09,2.75,1.85,5.67,3.16,8.33,2.96,6.02,7.06,11.74,10.61,17.37.44.71,2.39,4.51,1.69,5.05-4.48,1.21-9.16,2.32-13.85,2.83-26.08,2.82-54.25.93-79.41-7.04-16.37-5.18-38.97-12.58-51.9-23.89-.6-.53-3.08-2.84-2.89-3.54,1.75-3.01,4.76-4.26,7.43-6.23,3.61-2.67,7.28-5.28,10.81-8.06,1.11-.88,2.37-1.27,3.26-2.72,2.63-4.33,1.29-15.08,1.9-20.49.18-1.56.57-1.02.73-1.22ZM311.26-51.45c-22.39.33-44.66-2.44-66.23-8.62-11.37-3.26-23.36-8.24-34.27-12.89-5.82-2.48-13.43-5.95-18.49-9.66-.38-.28-1.15-.62-1.21-1.12.22-4.19.09-8.65-.21-12.85-.52-7.19-2.59-14.31.19-21.34,1.19,1.23,1.9,2.86,3.1,4.09,11.33,11.52,37.94,20.03,53.49,24.74,23.33,7.07,57.51,9.68,81.54,5.16,3.72-.7,7.84-1.82,11.29-3.33.37.76-3.46,14.61-4.11,16.42-2.51,6.98-8.67,13.71-4.59,21.17,3.25,5.94,7.53,12.95,11.3,18.6,1.14,1.7,3.47,4.05,4.28,5.84.12.26.33.36.15.75-1.42.5-2.76,1.1-4.21,1.53-8.75,2.59-21.04,2.93-30.24,2.71-6.38-.15-12.6-1.7-18.89-2.46-10.65-1.29-21.52-1.35-32.14-2.83-24.3-3.38-46.43-11.34-68.24-22.07-11-5.41-21.93-10.71-30.54-19.66,2.34-2.73,6.11-3.07,9.24-4.32,5.05-2.01,14.63-5.07,17.72-9.41.33-.47.55-.85.59-1.44,6.39,4.52,13.07,8.12,20.24,11.26,14.35,6.29,28.61,11.93,43.87,15.75,14.42,3.61,33.66,6.51,48.47,5.49,2.48-.17,5.72-.36,7.89-1.52ZM216.62-3.58c-17.6-6.85-36.51-12.07-53.08-21.22-1.62-.89-4.88-2.78-5.98-4.18-.47-.6.7-1.77.96-2.49,2.89-7.94,2.07-19.48,2.76-28.05.18-2.22.43-4.44.89-6.63,1.86,1.93,3.16,4.26,5.11,6.12,6.15,5.88,15.89,10.63,23.51,14.5,21.6,10.97,44.26,19.39,68.42,22.67,13.84,1.88,27.85,2.63,41.73,4.26,12.23,1.44,33.49,1.79,44.66-3.49.69-.33,1.22-.99,1.97-1.22-.82,4.69-2.39,9.33-3.95,13.85s-5.12,11.42-5.9,15.48c-.16.82.3,1.7.19,2-.63,1.64-8.29,2.48-10.12,2.72-14.08,1.89-29.03,2.45-43.18.7-7.9-.98-16.66-2.42-24.34-4.38-.18-.05-.97-.58-1.04,0-.06.52,4.52,2.02,5.24,2.23,19.81,5.71,38.26,6.45,58.52,4.07,4.92-.58,10.72-1.68,15.23-3.65-.25,4.07,3.07,7,4.99,10.13.8,1.3,1.34,2.86,2.14,4.15,1.57,2.53,5.34,7.09,6.26,9.62.35.97-.47,2.31.67,2.6l-.05.27c-2.03.19-4.04,1.17-6.08,1.66-12.24,2.94-24.33,6.47-37.03,7.04-28.89,1.3-57.25-2.84-84.99-10.71-8.36-2.37-16.58-5.23-24.94-7.62-8.36-2.39-15.46-4.04-23.7-7.25-13.85-5.39-31.95-12.77-42.39-23.41-1.85-1.89-3.29-4.15-5.29-5.75,1.42-2.36,3.88-3.67,6.23-4.95,6.53-3.54,13.79-6.43,19.87-10.9.7-.52,2.6-2.74,3.05-2.66.33.06,2.52,2.1,3.11,2.5,14.09,9.68,36.84,16.68,53.32,21.43.91.26,1.84.77,2.74,1.04.54.16.41.02.49-.47Z"/>
      </g>
    </pattern>
  </defs>
  <rect class="cls-4" y="0" width="1200" height="1200"/>
  <rect class="cls-3" width="1200" height="1200"/>
</svg>