<?xml version="1.0" encoding="UTF-8"?>
<svg id="Layer_1" data-name="Layer 1" xmlns="http://www.w3.org/2000/svg" viewBox="0 0 472.79 317.39">
  <defs>
    <style>
      .cls-1 {
        fill: #ffe5b0;
      }
    </style>
  </defs>
  <g>
    <path class="cls-1" d="M210.14,268.77c-3.39,10.28-10.77,15.11-20.55,15.11-8.96,0-14.51-2.9-18.38-8.22-3.27-4.35-5.08-11.24-5.08-18.13,0-14.99,8.46-28.66,24.42-28.66s19.83,13.3,19.71,20.55c0,2.41-.73,4.23-2.79,4.95-2.18.85-8.58,1.33-16.57,1.46-4.47,0-11,0-15.83-.13-.25,7.14,1.81,13.55,4.23,17.05,2.89,4.11,7.01,6.04,12.44,6.04,7.87,0,12.22-3.5,15.47-11.61l2.91,1.58ZM175.31,252.08h11.73c6.64,0,10.15-.36,12.21-.73,1.69-.36,2.42-1.57,2.42-3.99.12-7.25-3.15-15.11-12.09-15.11-9.68,0-13.78,10.88-14.27,19.83Z"/>
    <path class="cls-1" d="M294.47,151.8c-.12,1.58-.73,2.79-1.94,3.63-1.21.96-2.9,1.45-4.47,1.33-3.27-.25-5.21-2.54-4.96-5.81.25-3.02,3.02-5.2,6.29-4.95,3.27.24,5.32,2.54,5.08,5.8ZM285.52,150.59c-.13,3.02,1.09,5.08,3.14,5.21,1.81.12,3.15-1.09,3.39-3.87.12-3.02-1.08-4.96-3.02-5.08-1.94-.13-3.26,1.08-3.5,3.74Z"/>
    <path class="cls-1" d="M333,140.78c0-4.35,0-5.43-1.33-6.41l-.12-.36,10.03-4.95v.73c-.48,1.08-1.21,3.02-1.21,7.37v57.06c0,7.01.61,12.81,6.77,12.81h7.74v4.6h-11.12c-10.63,0-10.76-9.91-10.76-12.45v-58.39Z"/>
    <path class="cls-1" d="M163.62,230.76c-1.54.71-3,1.12-4.42,2.21-1.19.9-2.35,2.25-3.52,4.6-1.77,3.48-5.42,15.06-7.1,20.52-.02.04-.04.08-.04.12-.85,2.46-1.73,5-2.58,7.54-2.06,6.12-4.1,12.27-5.81,17.52-1.58,0-3.27.23-4.73.48-2.77-8.83-9.42-26.85-14.37-41.22-4.73,14.27-10.39,29.75-14.16,41.22-1.44-.35-3.12-.35-4.58-.48-2.79-9.69-8.77-28.1-12.54-38.85-.19-.52-.37-1.04-.56-1.54-.15-.44-.29-.87-.44-1.27-.83-2.31-1.37-3.06-2.69-3.48l-.27-.33,1.04-1.04,6.37-6.29,1.48-1.46s.19.52.27.77c-.02.19-.04.4-.04.65-.06,1.15,0,2.87.77,5.62.04.25.12.52.21.79.1.4.23.79.35,1.21,2.71,9.17,7.19,22.41,10.87,34.22,3.65-10.29,10.17-31.43,13.66-41.83,1.81.1,2.92.1,4.73-.25,2.29,7.98,10.87,31.54,14.5,42.31.92-2.71,1.79-5.37,2.65-7.96,2.06-6.42,3.87-12.29,5.29-17.12,4.12-12.35,5.33-14.64,10.08-16.93h.02c.19-.08.35-.17.54-.25l1.69.17,3.33.35Z"/>
    <path class="cls-1" d="M386.85,279.4l-.25,3.15c-3.52,0-7.98-.35-12.81-.35-4.48,0-8.1.35-11.25.35v-3.15c6.04-.35,7.25-.98,7.5-3.15.25-2.9.6-8.71.6-18.25,0-14.39-.25-16.21-1.08-18.14-1.46-3.5-4.6-5.56-9.31-5.56-6.42,0-11.5,3.87-14.16,8.71-.83,1.58-1.19,3.4-1.19,5.44v16.21c0,4.35.1,9.06.23,11.6.25,2.42,1.33,2.9,8.1,3.15l-.48,3.15c-3.15,0-8.23-.35-12.58-.35-3.85,0-7.6.35-11.12.35v-3.15c6.06-.25,7.27-.6,7.5-3.5.25-3.62.37-7.5.37-15.25v-8.33c0-9.19-.12-10.64-1.1-12.81-1.56-3.62-4.1-5.21-8.71-5.21-6.27,0-11.73,3.62-14.62,9.31-.96,1.94-1.31,3.27-1.31,5.69v15.83c0,4.85.1,8.58.23,11.12.23,2.42,1.21,2.9,7.98,3.15l-.48,3.15c-3.15,0-8.58-.35-12.58-.35-3.37,0-7.5.35-11.12.35v-3.15c6.29-.25,7.5-.6,7.62-3.5.23-3.04.35-7.87.35-14.87v-9.69c0-5.1-.08-9.5-.21-12.69-.17-1.19-.52-1.79-1.31-2.35l-.12-.4,1.19-.58,8.08-4,1.81-.9v.79c-.52,1.19-1.31,3.29-1.31,8.02,4.35-4.83,11-10.37,19.33-10.37,6.87,0,10.27,3.02,11.73,5.31,1.08,1.58,1.56,3.27,2.04,4.73,3.87-4,10.04-10.04,19.48-10.04,7.62,0,11.48,3.98,13.06,7.02,1.21,2.04,1.56,5.06,1.56,7.73v32.52c0,2.67.6,2.92,8.35,3.27Z"/>
    <path class="cls-1" d="M370.85,132.4c2.05-.36,4.95-.85,6.16-3.5.24,2.06-.36,5.32-5.93,6.28-1.45.25-3.02.49-7.62,1.09-2.41.36-4.95,1.21-6.28,3.14.61-4.72,3.87-5.32,5.93-5.68,1.33-.24,4.35-.73,7.74-1.33Z"/>
    <path class="cls-1" d="M378.73,199.17c0,2.54-.12,12.45-10.76,12.45h-14.26v-4.6h10.88c6.16,0,6.76-5.8,6.76-12.81v-6.29c0-4.35,0-5.44-1.32-6.41l-.12-.36,10.02-4.95v.72c-.47,1.09-1.2,3.02-1.2,7.37v14.87ZM360.35,159.34c.36-5.08,5.2-8.22,10.28-7.49,2.66.24,5.44,1.81,6.53,3.74l-3.87.97c-.72-1.82-2.06-2.67-3.38-2.67-2.07-.24-3.88,1.33-4.23,4.11-.37,3.75.96,7.62,5.43,7.62,2.06,0,2.9-.25,5.56-1.58l.13,2.66c-1.34.96-3.27,1.94-5.93,1.94h-15.47l2.41-4.11.36.12c.48.97,2.18.97,4.59.97-1.44-1.09-2.66-3.75-2.41-6.29Z"/>
    <path class="cls-1" d="M409.31,258.97c2.05-.36,4.95-.85,6.16-3.51.24,2.06-.36,5.33-5.93,6.29-1.45.25-3.02.48-7.62,1.09-2.41.35-4.95,1.2-6.28,3.14.61-4.72,3.87-5.32,5.93-5.68,1.33-.25,4.35-.73,7.74-1.33Z"/>
    <path class="cls-1" d="M248.35,272.61c.4,1.08.96,2.06,1.62,2.87-.62-.87-1.17-1.83-1.62-2.87Z"/>
    <path class="cls-1" d="M306.97,177.91c-11.12,0-19.83,7.85-19.83,18v.85c-.25,5.79-1.46,10.27-6.77,10.27H100.04c-5.08,0-9.56,1.4-12.56,4.31-2.42,2.35-3.87,5.71-3.87,10.08,0,.56,0,1.1.02,1.6.06,2.12.46,4.21,1.1,6.21l.6,1.9.79,2.42,6.48-6.42-2.31-7.1s-.02-.06-.02-.1c-.9-2.85.35-6.04,3.06-7.31.62-.29,1.35-.54,2.19-.73h.02c.23-.04.46-.08.67-.1.15-.02.29-.04.44-.06.06-.02.15-.02.23-.02.12-.02.25-.02.4-.04.4-.02.79-.04,1.23-.04h.31c.87,0,1.52.04,1.73.02h183.32c3.75,0,6.17-1.21,7.75-2.92,3.15,3.27,7.85,5.33,13.41,5.33s10.87-1.94,14.87-5.33c3.75-3.25,5.44-7.25,5.44-12.81,0-10.77-7.37-18-18.37-18ZM306.84,211.63c-6.64,0-11.5-7.37-11.5-17.54,0-8.81,4-14.02,10.54-14.02s11.23,6.77,11.23,16.81c0,9.29-3.85,14.75-10.27,14.75Z"/>
    <line class="cls-1" x1="92.61" y1="227.13" x2="86.13" y2="233.54"/>
    <path class="cls-1" d="M406.78,175.47c-11.84,0-20.79,7.86-20.79,18.13s7.01,18.01,16.32,18.01c4.96,0,9.31-1.58,13.17-5.2v21.7s-.02,12.18-13.9,12.93c-6.5.35-16.14-3.65-23.28-7.05.5.64.93,1.27,1.25,1.88.56.95.92,2.12,1.17,3.36,6.52,3.62,15.29,7.25,24.75,6.42,9.75-.86,17.4-7.26,17.4-16.45v-41.28c0-9.31-10.28-12.45-16.08-12.45ZM415.48,196.15c0,7.98-2.66,11.85-8.33,11.85-6.77,0-12.34-7.38-12.34-16.2,0-7.74,5.33-14.03,11.97-14.03,8.95,0,8.7,7.5,8.7,18.38Z"/>
    <path class="cls-1" d="M289.24,272.63c-1.57,8.46-6.04,11.24-10.64,11.24-6.04,0-7.97-3.99-8.34-9.07-5.44,5.93-11.85,9.07-17.53,9.07-9.19,0-14.39-6.53-14.39-14.75,0-4.48,1.69-8.71,6.77-10.89,8.47-3.62,21.04-7.61,25.27-11v-4.6c0-4.96-2.66-10.4-10.52-10.4s-11.24,3.99-11.24,8.95c0,1.33.25,2.66.49,3.62.24.85-.37,1.69-.96,2.06-.85.6-1.69,1.08-3.15,1.08-2.18,0-4.23-1.45-4.23-5.07,0-6.04,8.35-14.03,20.79-14.03,9.19,0,13.43,4.11,15,6.53.96,1.58,1.69,4.23,1.69,6.53v30.95c0,4.96,1.57,5.81,3.13,5.81,1.94,0,3.76-2.18,4.96-7.14l2.9,1.09ZM270.38,250.99c-3.63,2.06-11.12,5.08-16.19,7.74-3.88,1.94-6.65,3.75-6.65,9.08,0,6.04,3.27,10.63,9.07,10.63,6.41,0,10.64-3.62,13.06-9.18.47-1.45.72-3.39.72-4.72v-13.55Z"/>
  </g>
  <g>
    <path class="cls-1" d="M161.49,69.46c.53,0,1.57.83,1.83,1.33,1.83,3.53-2.22,7.53-4.47,9.79,1.56-.4,3.5.89,3.64,2.52.27,3.05-3.29,6.32-5.33,8.2,1.53.29,2.6.25,3.51,1.68.82,1.29.72,2.31.14,3.68-.76,1.81-2.32,3.44-3.88,4.55l1.24.51c1.58.83,1.24,2.4.74,3.83-.47,1.35-1.6,2.16-2.57,3.14,1.58-.44,3.27-.69,4.59.51,2.24,2.04.15,4.51-1.45,6.13,2.65-.91,5.88.51,4.77,3.71-.4,1.15-1.2,1.65-1.98,2.48,1.13-.21,2.04-.31,3,.42,1.83,1.39,1.39,3.49.12,5.09,1.91.13,4.61.19,5.36,2.37.56,1.65.01,3.02-1.2,4.15,1.18-.22,2.24-.35,3.42,0,2.83.83,3.23,3.72,1,5.5l-1.74,1.15c2.34-.02,5.31.26,4.65,3.37-.23,1.06-.88,1.94-1.79,2.51-.64.4-1.43.57-1.99,1.02,5.94.61,11.72,1.57,17.48,3.13,7.18,1.94,13.45,4.29,20.17,7.42,5.81,2.7,11.57,5.5,16.89,9.06,11.84-.64,23.71-.65,35.54-.3,1,.03,2.07-.1,3.07-.05.45.03,1.9.11,1.14.79-.23.2-1.2.4-1.55.5-3.48.94-7.1,1.33-10.62,2.05-6.16,1.26-12.17,3.03-18.22,4.7-1.93.53-3.93.86-5.8,1.61,1.97.67,4.11.71,6.16,1.02,10.87,1.66,21.75,3.36,32.55,5.4.75.14,2.81.43,3.36.69.76.36.15,1.01-.41,1.22-2.33.9-5.79.55-8.32.72-1.69.11-3.39.51-5.08.63-10.54.77-21.15.36-31.7.37-37.85.05-75.76.94-113.58,0-8.88-.22-17.76-1.03-26.63-1.61-6.18-.4-11.22-1.16-16.91-3.77-2.5-1.15-5.06-2.41-6.84-4.57-4.22-1.66-9.05-2.75-13.19-4.48-.77-.32-.96-1.05-.32-1.61l13.92-3.5c2.68-4.88,6.25-10.49,11.02-13.55,7.04-4.52,16.38-7.87,24.74-8.52l8.21-.21c-.91-.98-2.13-1.72-3.03-2.68-2.75-2.9-5.39-6.56-7.83-9.75-.85-1.11-1.89-2.18-2.67-3.34-4.52-6.77-8.3-19.7-5.73-27.59,1.27-3.89,5.7-9.67,8.45-12.79,9.82-11.17,20.15-22.35,31.33-32.18,6.38-5.61,12.34-11.73,19-17.03,2.06-1.64,4.43-3,6.38-4.51,1.43-1.1,3.29-1.16,4.84-.25,1.12.66,1.27,1.27,1.2,2.55-.17,2.73-1.54,5.04-3.2,7.11,1.99-.46,5.46-.91,6.33,1.48.92,2.52-.68,6.57-2.15,8.69-.54.78-1.23,1.46-1.76,2.25,4.12-.54,5.73,2.49,4.57,6.2-.39,1.25-1.24,2.27-1.97,3.34l-3.12,3.72,2.66-.03ZM64.89,174.91c6.39,4.51,13.98,7.12,21.84,7.54,5.41.29,10.8.55,16.21.94,17.56,1.26,35.19.91,52.78,1.18,6.65-.48,13.92.35,20.5-.25,5.5-.5,11.75-2.31,17.23-3.43,6.66-1.37,13.58-2.44,20.08-4.45,2.94-.91,5.67-2.39,8.59-3.3.1-.11-.37-.62-.46-.73-1.13-1.31-3.35-3.26-4.7-4.47-7.06-6.31-16.18-11.55-24.83-15.37-2.88-1.27-7.23-2.21-10.36-2.8-11.39-2.17-23.99-3.31-35.57-3.57-2.04-.05-4.2.09-6.23-.04-.26-.02-1.08-.12-1.2-.29l.03-.58c.11-.11.84-.24,1.05-.26,4.74-.46,10.06.26,14.83.16,1.4.1,2.8.29,4.2.4,3.75.3,7.5.59,11.22,1.12,1.74-.43,5.11-1.3,5.52-3.35.17-.85.04-1.28-.73-1.68-.6-.31-3.08-.88-3.73-.88-.68,0-2.69.9-3.52,1.15-1.65.49-3.67,1.06-5.39.89-.44-.04-1.07-.23-.8-.78.42-.55,1.12-.28,1.7-.36,2.31-.32,8.5-2.25,10.11-3.85,2.08-2.07-.82-3.45-2.72-3.47-2.8-.02-4.58,1.42-7.15,2.19-1.86.56-4.74,1.31-6.63,1.47-.36.03-1.31.12-1.48-.21-.14-.27-.04-.55.25-.65,4.19-1.31,9-1.84,12.65-4.44,1.04-.74,1.54-1.35,1.33-2.71-.26-1.66-3.54-1.83-4.81-2.25-.83.68-1.72,1.24-2.66,1.76-2.79,1.56-6.72,3.51-9.78,4.33-.39.1-1.89.61-2.12.29-.16-.32.03-.56.29-.74,3.82-1.85,8.15-3.42,11.78-5.62,1.52-.92,4.36-3.36,2.01-4.96-.6-.41-2.41-.66-3.06-.41-.34.13-1.49,1.16-1.94,1.45-2.44,1.6-10.06,5.83-12.68,6.3-.96.17-1.31-.17-.51-.83,3.57-1.97,7.43-3.7,10.91-5.79,1.45-.87,5.49-3.62,5.94-5.16.7-2.38-3.2-2.38-4.67-1.98-3.96,2.92-8.33,5.56-12.67,7.88-.7.37-4.97,2.48-5.41,2.04-.12-.55.5-.82.9-1.08,5.03-3.25,10.52-5.69,15.32-9.33,1.04-.79,4.46-3.52,4.01-4.98-.61-1.99-4.38-.89-5.82-.81-4.79,3.59-10.13,7.16-15.43,9.99-.79.42-2.74,1.42-3.54,1.59-.25.05-.64.02-.69-.27-.12-.62,2.46-1.78,2.98-2.09,5.65-3.43,14.04-8.03,18.51-12.69.74-.77,1.39-1.93,1.38-3.03,0-.72-1.78-1.13-2.38-.97-6.28,4.59-12.96,9.09-19.7,12.99-.79.46-1.74,1.04-2.55,1.43-.44.21-1.52.76-1.96.62-.72-.54.06-1,.53-1.35,7.07-4.65,14.68-8.77,21.4-13.91,1.83-1.4,5.9-4.58,6.45-6.8.16-.63.08-1.24-.31-1.75-.61-.81-1.13-.62-1.98-.83-.51-.13-1.3-.54-1.76-.36-.39.14-1.54,1.41-1.97,1.77-5.52,4.64-11.37,8.52-17.19,12.75-2.5,1.27-5.33,4.18-7.8,5.25-1.18.51-1.54-.42-.73-1.16,8.1-5.99,16.77-11.22,24.47-17.73.79-.67,1.52-1.44,2.3-2.12,1.96-1.72,6.55-5.22,6.25-8.12-.12-1.2-2.07-1.39-2.97-1.88-4.5,3.55-8.96,7.14-13.4,10.75-5.84,4.75-11.59,9.59-17.57,14.18-.39.3-1.61,1.33-1.98,1.43-.54.14-.88-.26-.66-.76.05-.1.33-.35.44-.46,3.26-3.24,7.42-6.04,10.99-8.96,4.17-3.41,8.28-6.91,12.45-10.33,3.69-3.02,11.93-8.64,13.62-12.88.44-1.1.63-2.95-.82-3.32-.74-.19-2.71-.13-3.48.02-.2.04-.34.18-.5.29-7.55,8-16.25,14.75-24.72,21.74-3.82,3.16-7.99,7.21-12.07,9.92-.3.2-1.13.76-1.24.13s1.07-1.7,1.51-2.11c4.51-4.16,9.85-8.08,14.57-12.07,7.77-6.56,16.68-13.67,23.36-21.27,1.04-1.19,3.32-3.91,3.87-5.28.73-1.8.79-4.32-1.67-4.54-.47-.04-2.54-.04-2.83.14-.33.2-.77.91-1.05,1.21-13.19,13.82-28.47,25.61-42.8,38.21-.48.42-1.04,1.37-1.74,1.33-.4-.02-.55-.25-.53-.63.05-.9,3.26-3.31,4.04-4.01,12.25-10.98,24.98-21.18,36.69-32.77,3.56-3.52,9.86-9.07,9.63-14.54-.05-1.24-.51-1.59-1.7-1.71-.5-.05-4.84.42-5.07.59-2.49,3.04-5.47,5.64-8.27,8.37-7.77,7.56-15.61,15.03-23.4,22.58-4.12,4-8.3,7.84-12.48,11.76-1.9,1.78-3.65,3.8-5.65,5.45-.65-.19-.05-.92.21-1.25,3.45-4.46,8.63-8.59,12.71-12.55,3.5-3.39,6.85-6.97,10.35-10.37,6.6-6.42,13.43-12.62,19.99-19.08,3.15-3.1,9.02-8.71,9.75-13.08.18-1.09.52-1.81-.77-2.2-2.07-.64-4.01.86-5.65,1.98-7.36,5.02-13.04,11.48-19.48,17.46-3.08,2.85-6.48,5.36-9.42,8.37-6.5,6.68-13.23,13.22-19.4,20.22-.86.98-1.58,2.11-2.45,3.09-4.51,5.12-11.27,11.84-11.39,19.09-.1,6.06,1.37,12.06,3.79,17.56,1.47,3.35,3.21,5.43,5.34,8.28,2.27,3.03,4.75,6.61,7.27,9.4,1.01,1.11,2.54,2.14,3.49,3.3.63.76.61.9.17,1.73-1.92,3.6-4.27,7.04-6.14,10.68-2.21,4.32-3.62,9.33-5.65,13.73-.43.94-.98,1.78-1.52,2.66-.15.18-.41.16-.58.01-1.94-2.3-3.61-5.54-6.17-7.21-1.9-1.24-6.18-2.1-8.43-1.91-2.96.25-6.52,2.53-8.38,4.8-.55.67-.84,1.65-1.87,1.86-2.18.01-4.36-.21-6.54-.17-3.4.06-6.83.58-10.24.63l10.51,3.97Z"/>
    <path class="cls-1" d="M82.97,168.6c-1.28-1.24-4.28-1.14-5.51.08-3.46,3.42,2.04,8.6,5.62,5.37,1.61-1.45,1.38-4.01-.11-5.45Z"/>
  </g>
  <path class="cls-1" d="M229.98,256.13c-.12,1.58-.73,2.79-1.94,3.63-1.21.96-2.9,1.45-4.47,1.33-3.27-.25-5.21-2.54-4.96-5.81.25-3.02,3.02-5.2,6.29-4.95,3.27.24,5.32,2.54,5.08,5.8ZM221.04,254.91c-.13,3.02,1.09,5.08,3.14,5.21,1.81.12,3.15-1.09,3.39-3.87.12-3.02-1.08-4.96-3.02-5.08-1.94-.13-3.26,1.08-3.5,3.74Z"/>
</svg>