<?xml version="1.0" encoding="UTF-8"?>
<svg id="Layer_1" data-name="Layer 1" xmlns="http://www.w3.org/2000/svg" viewBox="0 0 429.95 196.41">
  <defs>
    <style>
      .cls-1 {
        fill: #ffe5b0;
      }
    </style>
  </defs>
  <g>
    <path class="cls-1" d="M171.87,160.58c-3.39,10.28-10.77,15.11-20.55,15.11-8.96,0-14.51-2.9-18.38-8.22-3.27-4.35-5.08-11.24-5.08-18.13,0-14.99,8.46-28.66,24.42-28.66s19.83,13.3,19.71,20.55c0,2.41-.73,4.23-2.79,4.95-2.18.85-8.58,1.33-16.57,1.46-4.47,0-11,0-15.83-.13-.25,7.14,1.81,13.55,4.23,17.05,2.89,4.11,7.01,6.04,12.44,6.04,7.87,0,12.22-3.5,15.47-11.61l2.91,1.58ZM137.04,143.9h11.73c6.64,0,10.15-.36,12.21-.73,1.69-.36,2.42-1.57,2.42-3.99.12-7.25-3.15-15.11-12.09-15.11-9.68,0-13.78,10.88-14.27,19.83Z"/>
    <path class="cls-1" d="M256.2,43.62c-.12,1.58-.73,2.79-1.94,3.63-1.21.96-2.9,1.45-4.47,1.33-3.27-.25-5.21-2.54-4.96-5.81.25-3.02,3.02-5.2,6.29-4.95,3.27.24,5.32,2.54,5.08,5.8ZM247.25,42.41c-.13,3.02,1.09,5.08,3.14,5.21,1.81.12,3.15-1.09,3.39-3.87.12-3.02-1.08-4.96-3.02-5.08-1.94-.13-3.26,1.08-3.5,3.74Z"/>
    <path class="cls-1" d="M294.74,32.59c0-4.35,0-5.43-1.33-6.41l-.12-.36,10.03-4.95v.73c-.48,1.08-1.21,3.02-1.21,7.37v57.06c0,7.01.61,12.81,6.77,12.81h7.74v4.6h-11.12c-10.63,0-10.76-9.91-10.76-12.45v-58.39Z"/>
    <path class="cls-1" d="M125.35,122.58c-1.54.71-3,1.12-4.42,2.21-1.19.9-2.35,2.25-3.52,4.6-1.77,3.48-5.42,15.06-7.1,20.52-.02.04-.04.08-.04.12-.85,2.46-1.73,5-2.58,7.54-2.06,6.12-4.1,12.27-5.81,17.52-1.58,0-3.27.23-4.73.48-2.77-8.83-9.42-26.85-14.37-41.22-4.73,14.27-10.39,29.75-14.16,41.22-1.44-.35-3.12-.35-4.58-.48-2.79-9.69-8.77-28.1-12.54-38.85-.19-.52-.37-1.04-.56-1.54-.15-.44-.29-.87-.44-1.27-.83-2.31-1.37-3.06-2.69-3.48l-.27-.33,1.04-1.04,6.37-6.29,1.48-1.46s.19.52.27.77c-.02.19-.04.4-.04.65-.06,1.15,0,2.87.77,5.62.04.25.12.52.21.79.1.4.23.79.35,1.21,2.71,9.17,7.19,22.41,10.87,34.22,3.65-10.29,10.17-31.43,13.66-41.83,1.81.1,2.92.1,4.73-.25,2.29,7.98,10.87,31.54,14.5,42.31.92-2.71,1.79-5.37,2.65-7.96,2.06-6.42,3.87-12.29,5.29-17.12,4.12-12.35,5.33-14.64,10.08-16.93h.02c.19-.08.35-.17.54-.25l1.69.17,3.33.35Z"/>
    <path class="cls-1" d="M348.59,171.22l-.25,3.15c-3.52,0-7.98-.35-12.81-.35-4.48,0-8.1.35-11.25.35v-3.15c6.04-.35,7.25-.98,7.5-3.15.25-2.9.6-8.71.6-18.25,0-14.39-.25-16.21-1.08-18.14-1.46-3.5-4.6-5.56-9.31-5.56-6.42,0-11.5,3.87-14.16,8.71-.83,1.58-1.19,3.4-1.19,5.44v16.21c0,4.35.1,9.06.23,11.6.25,2.42,1.33,2.9,8.1,3.15l-.48,3.15c-3.15,0-8.23-.35-12.58-.35-3.85,0-7.6.35-11.12.35v-3.15c6.06-.25,7.27-.6,7.5-3.5.25-3.62.37-7.5.37-15.25v-8.33c0-9.19-.12-10.64-1.1-12.81-1.56-3.62-4.1-5.21-8.71-5.21-6.27,0-11.73,3.62-14.62,9.31-.96,1.94-1.31,3.27-1.31,5.69v15.83c0,4.85.1,8.58.23,11.12.23,2.42,1.21,2.9,7.98,3.15l-.48,3.15c-3.15,0-8.58-.35-12.58-.35-3.37,0-7.5.35-11.12.35v-3.15c6.29-.25,7.5-.6,7.62-3.5.23-3.04.35-7.87.35-14.87v-9.69c0-5.1-.08-9.5-.21-12.69-.17-1.19-.52-1.79-1.31-2.35l-.12-.4,1.19-.58,8.08-4,1.81-.9v.79c-.52,1.19-1.31,3.29-1.31,8.02,4.35-4.83,11-10.37,19.33-10.37,6.87,0,10.27,3.02,11.73,5.31,1.08,1.58,1.56,3.27,2.04,4.73,3.87-4,10.04-10.04,19.48-10.04,7.62,0,11.48,3.98,13.06,7.02,1.21,2.04,1.56,5.06,1.56,7.73v32.52c0,2.67.6,2.92,8.35,3.27Z"/>
    <path class="cls-1" d="M332.59,24.22c2.05-.36,4.95-.85,6.16-3.5.24,2.06-.36,5.32-5.93,6.28-1.45.25-3.02.49-7.62,1.09-2.41.36-4.95,1.21-6.28,3.14.61-4.72,3.87-5.32,5.93-5.68,1.33-.24,4.35-.73,7.74-1.33Z"/>
    <path class="cls-1" d="M340.46,90.99c0,2.54-.12,12.45-10.76,12.45h-14.26v-4.6h10.88c6.16,0,6.76-5.8,6.76-12.81v-6.29c0-4.35,0-5.44-1.32-6.41l-.12-.36,10.02-4.95v.72c-.47,1.09-1.2,3.02-1.2,7.37v14.87ZM322.08,51.15c.36-5.08,5.2-8.22,10.28-7.49,2.66.24,5.44,1.81,6.53,3.74l-3.87.97c-.72-1.82-2.06-2.67-3.38-2.67-2.07-.24-3.88,1.33-4.23,4.11-.37,3.75.96,7.62,5.43,7.62,2.06,0,2.9-.25,5.56-1.58l.13,2.66c-1.34.96-3.27,1.94-5.93,1.94h-15.47l2.41-4.11.36.12c.48.97,2.18.97,4.59.97-1.44-1.09-2.66-3.75-2.41-6.29Z"/>
    <path class="cls-1" d="M371.05,150.79c2.05-.36,4.95-.85,6.16-3.51.24,2.06-.36,5.33-5.93,6.29-1.45.25-3.02.48-7.62,1.09-2.41.35-4.95,1.2-6.28,3.14.61-4.72,3.87-5.32,5.93-5.68,1.33-.25,4.35-.73,7.74-1.33Z"/>
    <path class="cls-1" d="M210.09,164.43c.4,1.08.96,2.06,1.62,2.87-.62-.87-1.17-1.83-1.62-2.87Z"/>
    <path class="cls-1" d="M268.7,69.72c-11.12,0-19.83,7.85-19.83,18v.85c-.25,5.79-1.46,10.27-6.77,10.27H61.78c-5.08,0-9.56,1.4-12.56,4.31-2.42,2.35-3.87,5.71-3.87,10.08,0,.56,0,1.1.02,1.6.06,2.12.46,4.21,1.1,6.21l.6,1.9.79,2.42,6.48-6.42-2.31-7.1s-.02-.06-.02-.1c-.9-2.85.35-6.04,3.06-7.31.62-.29,1.35-.54,2.19-.73h.02c.23-.04.46-.08.67-.1.15-.02.29-.04.44-.06.06-.02.15-.02.23-.02.12-.02.25-.02.4-.04.4-.02.79-.04,1.23-.04h.31c.87,0,1.52.04,1.73.02h183.32c3.75,0,6.17-1.21,7.75-2.92,3.15,3.27,7.85,5.33,13.41,5.33s10.87-1.94,14.87-5.33c3.75-3.25,5.44-7.25,5.44-12.81,0-10.77-7.37-18-18.37-18ZM268.58,103.45c-6.64,0-11.5-7.37-11.5-17.54,0-8.81,4-14.02,10.54-14.02s11.23,6.77,11.23,16.81c0,9.29-3.85,14.75-10.27,14.75Z"/>
    <line class="cls-1" x1="54.34" y1="118.94" x2="47.87" y2="125.36"/>
    <path class="cls-1" d="M368.52,67.29c-11.84,0-20.79,7.86-20.79,18.13s7.01,18.01,16.32,18.01c4.96,0,9.31-1.58,13.17-5.2v21.7s-.02,12.18-13.9,12.93c-6.5.35-16.14-3.65-23.28-7.05.5.64.93,1.27,1.25,1.88.56.95.92,2.12,1.17,3.36,6.52,3.62,15.29,7.25,24.75,6.42,9.75-.86,17.4-7.26,17.4-16.45v-41.28c0-9.31-10.28-12.45-16.08-12.45ZM377.22,87.97c0,7.98-2.66,11.85-8.33,11.85-6.77,0-12.34-7.38-12.34-16.2,0-7.74,5.33-14.03,11.97-14.03,8.95,0,8.7,7.5,8.7,18.38Z"/>
    <path class="cls-1" d="M250.98,164.45c-1.57,8.46-6.04,11.24-10.64,11.24-6.04,0-7.97-3.99-8.34-9.07-5.44,5.93-11.85,9.07-17.53,9.07-9.19,0-14.39-6.53-14.39-14.75,0-4.48,1.69-8.71,6.77-10.89,8.47-3.62,21.04-7.61,25.27-11v-4.6c0-4.96-2.66-10.4-10.52-10.4s-11.24,3.99-11.24,8.95c0,1.33.25,2.66.49,3.62.24.85-.37,1.69-.96,2.06-.85.6-1.69,1.08-3.15,1.08-2.18,0-4.23-1.45-4.23-5.07,0-6.04,8.35-14.03,20.79-14.03,9.19,0,13.43,4.11,15,6.53.96,1.58,1.69,4.23,1.69,6.53v30.95c0,4.96,1.57,5.81,3.13,5.81,1.94,0,3.76-2.18,4.96-7.14l2.9,1.09ZM232.12,142.81c-3.63,2.06-11.12,5.08-16.19,7.74-3.88,1.94-6.65,3.75-6.65,9.08,0,6.04,3.27,10.63,9.07,10.63,6.41,0,10.64-3.62,13.06-9.18.47-1.45.72-3.39.72-4.72v-13.55Z"/>
  </g>
  <path class="cls-1" d="M191.72,147.94c-.12,1.58-.73,2.79-1.94,3.63-1.21.96-2.9,1.45-4.47,1.33-3.27-.25-5.21-2.54-4.96-5.81.25-3.02,3.02-5.2,6.29-4.95,3.27.24,5.32,2.54,5.08,5.8ZM182.77,146.73c-.13,3.02,1.09,5.08,3.14,5.21,1.81.12,3.15-1.09,3.39-3.87.12-3.02-1.08-4.96-3.02-5.08-1.94-.13-3.26,1.08-3.5,3.74Z"/>
</svg>