<?xml version="1.0" encoding="UTF-8"?>
<svg id="Layer_1" data-name="Layer 1" xmlns="http://www.w3.org/2000/svg" viewBox="0 0 236.36 298.34">
  <defs>
    <style>
      .cls-1 {
        fill: #1f2b5f;
      }
    </style>
  </defs>
  <g>
    <path class="cls-1" d="M77.04,61.93c-.12,1.58-.73,2.79-1.94,3.63-1.21.96-2.9,1.45-4.47,1.33-3.27-.25-5.21-2.54-4.96-5.81.25-3.02,3.02-5.2,6.29-4.95,3.27.24,5.32,2.54,5.08,5.8ZM68.09,60.72c-.13,3.02,1.09,5.08,3.14,5.21,1.81.12,3.15-1.09,3.39-3.87.12-3.02-1.08-4.96-3.02-5.08-1.94-.13-3.26,1.08-3.5,3.74Z"/>
    <path class="cls-1" d="M115.57,50.91c0-4.35,0-5.43-1.33-6.41l-.12-.36,10.03-4.95v.73c-.48,1.08-1.21,3.02-1.21,7.37v57.06c0,7.01.61,12.81,6.77,12.81h7.74v4.6h-11.12c-10.63,0-10.76-9.91-10.76-12.45v-58.39Z"/>
    <path class="cls-1" d="M153.42,42.54c2.05-.36,4.95-.85,6.16-3.5.24,2.06-.36,5.32-5.93,6.28-1.45.25-3.02.49-7.62,1.09-2.41.36-4.95,1.21-6.28,3.14.61-4.72,3.87-5.32,5.93-5.68,1.33-.24,4.35-.73,7.74-1.33Z"/>
    <path class="cls-1" d="M161.3,109.3c0,2.54-.12,12.45-10.76,12.45h-14.26v-4.6h10.88c6.16,0,6.76-5.8,6.76-12.81v-6.29c0-4.35,0-5.44-1.32-6.41l-.12-.36,10.02-4.95v.72c-.47,1.09-1.2,3.02-1.2,7.37v14.87ZM142.92,69.47c.36-5.08,5.2-8.22,10.28-7.49,2.66.24,5.44,1.81,6.53,3.74l-3.87.97c-.72-1.82-2.06-2.67-3.38-2.67-2.07-.24-3.88,1.33-4.23,4.11-.37,3.75.96,7.62,5.43,7.62,2.06,0,2.9-.25,5.56-1.58l.13,2.66c-1.34.96-3.27,1.94-5.93,1.94h-15.47l2.41-4.11.36.12c.48.97,2.18.97,4.59.97-1.44-1.09-2.66-3.75-2.41-6.29Z"/>
    <path class="cls-1" d="M191.88,169.11c2.05-.36,4.95-.85,6.16-3.51.24,2.06-.36,5.33-5.93,6.29-1.45.25-3.02.48-7.62,1.09-2.41.35-4.95,1.2-6.28,3.14.61-4.72,3.87-5.32,5.93-5.68,1.33-.25,4.35-.73,7.74-1.33Z"/>
    <path class="cls-1" d="M30.92,182.74c.4,1.08.96,2.06,1.62,2.87-.62-.87-1.17-1.83-1.62-2.87Z"/>
    <path class="cls-1" d="M89.54,88.04c-11.12,0-19.83,7.85-19.83,18v.85c-.25,5.79-1.46,10.27-6.77,10.27h-8.59c-5.08,0-9.56,1.4-12.56,4.31-2.42,2.35-3.87,5.71-3.87,10.08,0,.56,0,1.1.02,1.6.06,2.12.46,4.21,1.1,6.21l.6,1.9.79,2.42,6.48-6.42-2.31-7.1s-.02-.06-.02-.1c-.9-2.85.35-6.04,3.06-7.31.62-.29,1.35-.54,2.19-.73h.02c.23-.04.46-.08.67-.1.15-.02.29-.04.44-.06.06-.02.15-.02.23-.02.12-.02.25-.02.4-.04.4-.02.79-.04,1.23-.04h.31c.87,0,1.52.04,1.73.02h11.59c3.75,0,6.17-1.21,7.75-2.92,3.15,3.27,7.85,5.33,13.41,5.33s10.87-1.94,14.87-5.33c3.75-3.25,5.44-7.25,5.44-12.81,0-10.77-7.37-18-18.37-18ZM89.41,121.76c-6.64,0-11.5-7.37-11.5-17.54,0-8.81,4-14.02,10.54-14.02s11.23,6.77,11.23,16.81c0,9.29-3.85,14.75-10.27,14.75Z"/>
    <line class="cls-1" x1="46.91" y1="137.26" x2="40.43" y2="143.68"/>
    <path class="cls-1" d="M189.35,85.61c-11.84,0-20.79,7.86-20.79,18.13s7.01,18.01,16.32,18.01c4.96,0,9.31-1.58,13.17-5.2v21.7s-.02,12.18-13.9,12.93c-6.5.35-16.14-3.65-23.28-7.05.5.64.93,1.27,1.25,1.88.56.95.92,2.12,1.17,3.36,6.52,3.62,15.29,7.25,24.75,6.42,9.75-.86,17.4-7.26,17.4-16.45v-41.28c0-9.31-10.28-12.45-16.08-12.45ZM198.05,106.28c0,7.98-2.66,11.85-8.33,11.85-6.77,0-12.34-7.38-12.34-16.2,0-7.74,5.33-14.03,11.97-14.03,8.95,0,8.7,7.5,8.7,18.38Z"/>
  </g>
  <path class="cls-1" d="M163.1,179.13c-3.33,10.12-10.6,14.88-20.23,14.88-8.82,0-14.28-2.86-18.09-8.09-3.22-4.28-5-11.07-5-17.85,0-14.76,8.32-28.21,24.04-28.21s19.52,13.09,19.4,20.23c0,2.37-.72,4.17-2.74,4.87-2.14.83-8.45,1.31-16.31,1.43-4.4,0-10.82,0-15.58-.13-.24,7.03,1.78,13.33,4.17,16.78,2.85,4.05,6.9,5.95,12.25,5.95,7.74,0,12.03-3.45,15.23-11.43l2.87,1.55ZM128.81,162.71h11.55c6.54,0,9.99-.36,12.02-.72,1.67-.36,2.38-1.54,2.38-3.92.12-7.14-3.1-14.88-11.9-14.88-9.53,0-13.57,10.71-14.05,19.52Z"/>
  <path class="cls-1" d="M117.3,141.72c-1.52.7-2.95,1.11-4.35,2.17-1.17.88-2.32,2.21-3.47,4.53-1.74,3.42-5.33,14.83-6.99,20.2-.02.04-.04.08-.04.12-.84,2.42-1.7,4.92-2.54,7.42-2.03,6.03-4.04,12.08-5.72,17.25-1.56,0-3.22.23-4.65.47-2.73-8.69-9.27-26.43-14.15-40.58-4.65,14.05-10.23,29.28-13.94,40.58-1.41-.35-3.08-.35-4.51-.47-2.75-9.54-8.63-27.66-12.34-38.24-.18-.51-.37-1.03-.55-1.52-.14-.43-.29-.86-.43-1.25-.82-2.28-1.35-3.01-2.65-3.42l-.27-.33,1.03-1.03,6.27-6.19,1.46-1.44s.18.51.27.76c-.02.18-.04.39-.04.64-.06,1.13,0,2.83.76,5.54.04.25.12.51.21.78.1.39.23.78.35,1.19,2.67,9.02,7.07,22.06,10.7,33.69,3.59-10.13,10.01-30.94,13.45-41.18,1.78.1,2.87.1,4.65-.25,2.26,7.85,10.7,31.05,14.27,41.65.9-2.67,1.76-5.29,2.6-7.83,2.03-6.32,3.81-12.1,5.21-16.86,4.06-12.16,5.25-14.42,9.92-16.67h.02c.18-.08.35-.16.53-.25l1.66.16,3.28.35Z"/>
  <path class="cls-1" d="M198.89,254.9l-.25,3.1c-3.47,0-7.85-.35-12.61-.35-4.41,0-7.98.35-11.07.35v-3.1c5.95-.35,7.14-.96,7.38-3.1.25-2.85.59-8.57.59-17.96,0-14.17-.25-15.95-1.07-17.86-1.44-3.44-4.53-5.48-9.17-5.48-6.32,0-11.32,3.81-13.94,8.57-.82,1.56-1.17,3.34-1.17,5.35v15.95c0,4.29.1,8.92.23,11.42.25,2.38,1.31,2.85,7.98,3.1l-.47,3.1c-3.1,0-8.1-.35-12.39-.35-3.79,0-7.48.35-10.95.35v-3.1c5.97-.25,7.16-.59,7.38-3.44.25-3.57.37-7.38.37-15.01v-8.2c0-9.04-.12-10.48-1.09-12.61-1.54-3.57-4.04-5.13-8.57-5.13-6.17,0-11.54,3.57-14.4,9.17-.94,1.91-1.29,3.22-1.29,5.6v15.58c0,4.78.1,8.45.23,10.95.23,2.38,1.19,2.85,7.85,3.1l-.47,3.1c-3.1,0-8.45-.35-12.39-.35-3.32,0-7.38.35-10.95.35v-3.1c6.19-.25,7.38-.59,7.51-3.44.23-2.99.35-7.75.35-14.64v-9.54c0-5.02-.08-9.35-.21-12.49-.16-1.17-.51-1.76-1.29-2.32l-.12-.39,1.17-.57,7.96-3.94,1.78-.88v.78c-.51,1.17-1.29,3.24-1.29,7.89,4.29-4.76,10.83-10.21,19.03-10.21,6.77,0,10.11,2.97,11.54,5.23,1.07,1.56,1.54,3.22,2.01,4.65,3.81-3.94,9.88-9.88,19.17-9.88,7.51,0,11.3,3.92,12.86,6.91,1.19,2.01,1.54,4.98,1.54,7.61v32.01c0,2.62.59,2.87,8.22,3.22Z"/>
  <path class="cls-1" d="M50.55,253.52c.39,1.07.94,2.03,1.6,2.83-.62-.86-1.15-1.8-1.6-2.83Z"/>
  <path class="cls-1" d="M102.8,248.24c-1.54,8.32-5.95,11.07-10.48,11.07-5.95,0-7.85-3.92-8.21-8.93-5.36,5.83-11.67,8.93-17.26,8.93-9.05,0-14.17-6.42-14.17-14.52,0-4.41,1.67-8.58,6.67-10.72,8.33-3.57,20.71-7.49,24.88-10.82v-4.53c0-4.88-2.62-10.23-10.36-10.23s-11.07,3.92-11.07,8.81c0,1.31.24,2.62.48,3.57.23.83-.37,1.67-.95,2.03-.83.59-1.67,1.07-3.1,1.07-2.14,0-4.17-1.42-4.17-4.99,0-5.95,8.22-13.81,20.47-13.81,9.05,0,13.22,4.05,14.77,6.42.95,1.55,1.67,4.17,1.67,6.42v30.47c0,4.88,1.54,5.72,3.08,5.72,1.91,0,3.7-2.14,4.88-7.03l2.86,1.08ZM84.23,226.93c-3.58,2.03-10.95,5-15.94,7.62-3.82,1.91-6.55,3.69-6.55,8.93,0,5.95,3.22,10.47,8.93,10.47,6.31,0,10.48-3.57,12.86-9.04.47-1.42.71-3.33.71-4.64v-13.33Z"/>
</svg>