<?xml version="1.0" encoding="UTF-8"?>
<svg id="Layer_1" data-name="Layer 1" xmlns="http://www.w3.org/2000/svg" xmlns:xlink="http://www.w3.org/1999/xlink" viewBox="0 0 1200 1200">
  <defs>
    <style>
      .cls-1 {
        fill: none;
      }

      .cls-2 {
        fill: #988c9c;
      }

      .cls-3 {
        fill: url(#New_Pattern);
      }

      .cls-4 {
        fill: #645f6f;
      }
    </style>
    <pattern id="New_Pattern" data-name="New Pattern" x="0" y="0" width="402.35" height="560.07" patternTransform="translate(-8667.5 -400.66) scale(.93)" patternUnits="userSpaceOnUse" viewBox="0 0 402.35 560.07">
      <g>
        <rect class="cls-1" width="402.35" height="560.07"/>
        <g>
          <g>
            <path class="cls-2" d="M541.12,402.23l6.59-1.49c1.7-.56,3.5-.98,4.99-2.03,4.4-3.13,5.17-7.83.16-10.71,1.26-.42,2.59-.59,3.85-1,3.41-1.11,8.59-4.24,9.7-7.8,1.06-3.39-3.16-5.81-5.75-6.97,3.58-.9,7.05-2.3,9.53-5.18,1.17-1.35,1.51-2.15.83-3.83-.94-2.31-3.06-3.82-5.56-3.8-3.43.02-7.19-.47-10.86-.39-11.83.25-23.57,2.01-35.36,2.84-20.65,1.46-41.48,5.14-61.76,9.23-5.67,1.14-15.43,3.8-20.11,7.03-9.49,6.55-16.2,24.05-16.9,35.34-.12,1.94.14,4,.14,5.94,0,5.58-.15,11.85.45,17.37.2,1.82.92,3.67,1.1,5.52l-9.26-6.69c-9.79-6.32-22.95-10.48-34.54-11.41-7.85-.63-16.53,2.57-23.6,5.71l-18.35-7.85c-1.17.08-1.58,1.05-1,2.05,3.13,5.4,7.55,10.68,10.82,16.07.15,3.89,1.92,7.44,3.71,10.82,4.09,7.67,9.03,12.76,15.53,18.41,9.33,8.1,18.47,16.48,28.11,24.2,41.04,32.88,83.73,63.82,125.65,95.64,11.68,8.87,23.08,18.26,35.38,26.29,1.98,1.29,4.19,2.28,6.16,3.58,2.93,1.94,6.47,5.23,9.81,6.2.8.23,2.02.02,1.48-1.01-.39-.75-2.42-2.8-3.13-3.59-10.23-11.35-20.83-22.4-31.46-33.38-2-2.07-4.35-3.92-5.96-6.32,2.69.75,5.18,2.07,7.77,3.11,8.1,3.24,16.24,6.34,24.12,10.13,4.5,2.17,8.84,4.79,13.48,6.68.47.19,1.71.78,2.14.75,1.41-.11-.12-1.43-.6-1.84-1.05-.9-2.35-1.65-3.43-2.53-12.8-10.35-25.94-20.33-39.58-29.6-2.89-8.42-6.9-16.37-11.05-24.25-4.81-9.12-9.77-17-16.07-25.19-5.06-6.57-10.64-12.5-16.7-18.18,1.01-.03,2.02.45,3.06.54,1.49.14,2.95-.28,4.09-1.27,3.34-2.88.29-5.69-2.31-7.64l2.9.19c3.97-.1,5.95-3.63,3.52-6.93-1.01-1.37-2.3-2.12-3.79-2.87,2.3-.23,4.06-1.29,4.83-3.58,1.01-3.03-1.93-5.38-3.93-7.13,2.75-.7,5.01-2.66,4.15-5.73-.45-1.61-1.54-2.28-2.97-2.99,1.57-.27,2.88-.14,4.28-1.08,3.92-2.61,1.54-6.9-2.16-8.13,3.13-.45,7.53-1.4,6.77-5.56-.45-2.44-2.53-3.58-4.65-4.43,1.9-.27,3.82-.21,5.49-1.31,1.76-1.16,3.46-2.61,2.4-4.86l-.94-1.6c2.66.08,5.76-.42,8.12-1.77,1.79-1.03,2.76-2.07,2.94-4.19.2-2.34-1.03-3.2-2.47-4.81,3.84-.37,10.54-.98,12.8-4.59,1.21-1.93.16-4.99-1.91-5.86,4.41-.61,12.25-1.61,13.2-7.07.13-.77-.31-2.58-.9-3.02l-2.97-2.21ZM340.15,426.51c3.81,2.83,8.04,5.13,11.86,7.93,2.45,1.79,4.67,3.88,7.09,5.7,1.32.63,2.47-.21,3.64-.49,3.97-.93,9.82-.46,13.31,1.75,2.65,1.68,6.66,6.23,7.71,9.21,1.42,4,.54,8.99.75,13.16.06.3.34.54.65.47,1.33-.52,2.64-.99,3.92-1.67,5.95-3.16,11.73-7.53,17.81-10.44,5.13-2.46,10.62-4.28,15.78-6.65,1.19-.54,1.33-.69,1.28-2.06-.09-2.08-.91-4.51-1.09-6.59-.45-5.21-.18-11.26-.13-16.52.05-4.95-.13-8.72,1.07-13.66,1.96-8.12,5.38-15.99,10.6-22.62,6.24-7.92,19.37-9.67,28.67-11.53,1.79-.36,3.53-1,5.31-1.35,12.72-2.54,25.67-4.11,38.49-6.03,5.79-.87,11.66-.77,17.47-1.33,12.16-1.19,23.89-3.56,36.25-2.91,2.75.14,6.16.12,7.92,2.57,1.09,1.52.12,2.03-1,3.08-4.49,4.22-15.71,5.47-21.8,6.25-12.7,1.63-25.48,2.74-38.19,4.28-6.73.82-13.45,1.96-20.18,2.77-7.84.94-17.05,1.15-24.62,3.18-.57.15-1.85.46-1.29,1.21,3.61-.14,7.24-.9,10.84-1.27,7.93-.81,15.79-1.54,23.71-2.49,14.97-1.8,29.94-3.46,44.9-5.28,5.41-.66,10.88-1.03,16.2-2.29.38,0,5.59,3.14,6.1,3.62,1.21,1.13,1.43,1.9.44,3.32-4.35,6.24-15.99,7.08-22.9,7.98-22.71,2.97-45.39,3.52-68.18,5.35-1.45.12-7.04.08-7.85,1.03-.34.4-.37.78.06,1.14.74.62,2.16.05,3.05-.01,26.47-1.87,53.3-2.04,79.53-6.22.57-.09,1.65-.52,2.18-.45.48.06,2.77,1.79,3.25,2.23,2.54,2.31.35,5.05-1.97,6.43-1.77,1.05-6.58,2.15-8.73,2.58-13.8,2.79-29.64,3.15-43.76,3.86-8.58.43-17.79.27-26.28,1.08-.83.08-3.05.3-3.45,1.06-.41.79.99.86,1.48.9,6.79.43,14.82-.54,21.71-.82,15.25-.61,30.56-.75,45.65-3.24.27,0,.55-.03.8.1.97.48,3.2,2.07,3.86,2.91,1.29,1.64-.47,3.52-1.89,4.37-5.44,3.28-19.29,2.55-25.92,2.78-7.49.26-14.99.69-22.48.94-6.41.22-13.37-.18-19.71.66-.22.03-.74.06-.88.14-.67.36-.63,1.1.09,1.39.49.2,2.7.09,3.39.09,10.48-.05,20.91-.56,31.37-.89,7.96-.26,15.91-.47,23.88-.61.59,1.31,2.58,3.16,1.71,4.59-2.12,3.46-10.13,3.46-13.75,3.72-1.44.1-2.89.34-4.33.41-14,.73-28-.79-42-.98-1.52.14-1.9,1.47-.17,1.9,3.63.9,9.21.05,13.05.76,10,.21,19.74.85,29.76.37.78-.04,3.12-.47,3.67-.3.66.2,1.19,1.32,1.64,1.89.76.96,1.5,1.19,1.49,2.59,0,.9-.43,1.63-1.14,2.2-2.47,2-9.65,2.09-12.86,2.09-11.76.02-23.65-1.82-35.38-2.63-.81,0-2.06-.15-1.72,1.05.36.52,2.03.82,2.69.96,1.22.25,2.76.4,4.02.56,10.74,1.37,21.92,2.01,32.74,2.22.8.33,2.41,2.28,1.82,3.08-.92,1.23-2.6,1.97-4.08,2.2-8.88,1.39-22.04-.58-31.17-1.54-.83-.09-4.67-.98-5.06-.19-.18.37.23.73.54.88,1.02.49,4.02,1.03,5.25,1.23,8.24,1.33,17.16,1.87,25.48,1.94,1.66,1.12,6.76,3.07,5.76,5.79-.73,1.99-6.81,2.13-8.63,2.13-8.37-.01-16.5-1.94-24.8-2.58-.66-.05-1.57-.28-1.91.43.12.86,6.63,2.13,7.71,2.3,6.76,1.08,13.81,1.84,20.65,1.95,1.96.8,6.28,4.08,3.49,6.12-1.8,1.32-8.58.96-10.92.7-5.61-.62-11.35-1.96-16.95-2.78-1.44.06-1.34.72-.14,1.34,3.29,1.69,15.29,3.42,19.34,3.71.74.05,2.88-.11,3.36.03.93.26,2.72,2.07,3.04,3.03,1.25,3.76-3.94,4.06-6.4,3.8-5.86-.62-11.97-2.52-17.76-3.7-.44-.03-.85.08-.94.57,0,.55,2.08,1.25,2.6,1.47,4.07,1.67,10.06,2.82,14.46,3.45,1.47.21,2.93.34,4.42.29,1.05,1.53,4.54,4.48,3.43,6.54-.91,1.68-1.97,1.94-3.75,1.88-6.22-.2-11.99-3.67-17.73-5.74-.41-.13-.75.09-.83.51-.09.51,1.04,1.21,1.46,1.47,2.23,1.42,6.05,3.01,8.57,3.96,3.49,1.31,6.68,1.22,9.76,3.6,2.09,1.61,4.13,5.59.08,6.12-3.14.41-11.61-2.66-14.44-4.25-.71-.4-1.25-1.28-2.18-1.03-.75.39-.22,1.13.23,1.54,1.76,1.64,4.48,2.71,6.71,3.56,1.13.43,4.11,1.13,4.86,1.7s2.98,3.28,3.38,4.12c.52,1.08.29,1.67-.61,2.47-2.18,1.93-6.64.05-8.92-.94-3.67-3.73-7.58-7.21-11.47-10.69-1.45-1.3-2.84-2.69-4.3-3.98-5.36-3.92-10.65-9.19-16.27-12.67-.24-.15-1.17-.62-1.38-.59l-.52.61c-.02.3.81,1.1,1.08,1.33,2.14,1.85,4.64,3.52,6.86,5.29,12.59,10.04,25.57,21.91,36.35,33.9,2.96,3.29,6.98,7.99,9.1,11.82,6.36,11.51,12.04,24.98,14.53,37.91.48,2.47,1.29,6.49,1.43,8.9.01.2.09,1.16-.11,1.2-4.01-1.45-8.28-2.11-12.29-3.58-8.88-3.25-17.44-7.89-25.96-11.98-7-3.36-15.44-6.64-21.95-10.71-7.79-4.87-15.12-11.91-22.89-16.98-19.23-15.12-39.03-29.58-57.39-45.76-5.66-4.98-11.4-9.8-17.14-14.68-8.34-7.09-14.55-16.37-17.82-26.74l-8.28-13.23Z"/>
            <path class="cls-2" d="M373.74,447.99c-.37-2.45-3.77-4.87-6.16-4.55-6.7.87-4.99,11.23,1.69,10.67,2.99-.25,4.91-3.28,4.47-6.12Z"/>
          </g>
          <g>
            <path class="cls-2" d="M294.08,490.52l3.55-1.2c.91-.41,1.88-.74,2.63-1.41,2.24-1.98,2.4-4.62-.53-5.91.67-.3,1.39-.48,2.06-.77,1.82-.81,4.49-2.83,4.9-4.86.39-1.93-2.08-3.02-3.57-3.51,1.92-.7,3.75-1.68,4.96-3.41.56-.81.71-1.27.24-2.16-.65-1.22-1.91-1.93-3.29-1.78-1.89.21-3.99.16-6.01.41-6.51.82-12.88,2.47-19.34,3.61-11.3,2-22.58,5.23-33.53,8.65-3.06.96-8.29,2.99-10.69,5.04-4.86,4.16-7.55,14.2-7.28,20.47.05,1.08.31,2.2.42,3.27.33,3.08.6,6.54,1.25,9.56.21.99.72,1.97.93,2.98l-5.49-3.15c-5.76-2.92-13.26-4.46-19.71-4.3-4.37.11-8.97,2.37-12.69,4.51l-10.57-3.27c-.64.11-.81.67-.43,1.19,2.04,2.8,4.78,5.46,6.9,8.24.3,2.14,1.49,3.99,2.67,5.75,2.7,4,5.71,6.52,9.63,9.26,5.62,3.93,11.13,8.02,16.9,11.73,24.53,15.77,49.86,30.37,74.82,45.5,6.95,4.22,13.78,8.74,21.03,12.46,1.17.6,2.44,1.02,3.6,1.62,1.73.9,3.87,2.51,5.77,2.86.46.08,1.12-.1.76-.64-.26-.39-1.5-1.41-1.93-1.8-6.3-5.67-12.78-11.15-19.28-16.6-1.22-1.03-2.63-1.91-3.65-3.14,1.53.26,2.98.84,4.47,1.27,4.65,1.32,9.32,2.56,13.88,4.2,2.61.94,5.15,2.13,7.82,2.91.27.08.99.33,1.22.29.77-.14-.15-.78-.44-.98-.63-.43-1.39-.78-2.04-1.2-7.65-4.97-15.48-9.71-23.53-14.04-2.08-4.48-4.75-8.63-7.5-12.73-3.18-4.75-6.37-8.81-10.32-12.97-3.17-3.33-6.59-6.28-10.26-9.06.55-.07,1.14.13,1.72.12.83,0,1.61-.33,2.18-.93,1.68-1.78-.17-3.16-1.71-4.08l1.61-.06c2.18-.28,3.07-2.34,1.54-4.02-.64-.7-1.39-1.04-2.26-1.37,1.25-.26,2.17-.94,2.45-2.25.38-1.73-1.38-2.86-2.58-3.7,1.48-.54,2.61-1.75,1.96-3.4-.34-.86-.98-1.17-1.81-1.48.85-.24,1.58-.24,2.3-.84,2.01-1.67.45-3.89-1.66-4.36,1.7-.43,4.07-1.21,3.41-3.45-.39-1.32-1.6-1.83-2.82-2.18,1.03-.26,2.1-.34,2.95-1.04.9-.74,1.76-1.64,1.05-2.82l-.61-.83c1.47-.11,3.15-.56,4.38-1.45.93-.67,1.4-1.3,1.38-2.48-.02-1.3-.75-1.71-1.64-2.51,2.1-.42,5.75-1.15,6.8-3.27.56-1.13-.2-2.76-1.39-3.12,2.4-.59,6.66-1.6,6.87-4.66.03-.43-.32-1.4-.67-1.61l-1.77-1.04ZM184.64,515.5c2.26,1.34,4.73,2.37,7,3.69,1.45.85,2.8,1.87,4.24,2.73.76.27,1.35-.26,1.98-.48,2.14-.74,5.39-.82,7.44.2,1.56.77,4.03,3.05,4.79,4.63,1.01,2.12.82,4.93,1.18,7.22.05.16.22.28.38.22.71-.36,1.4-.7,2.06-1.14,3.1-2.09,6.03-4.83,9.22-6.78,2.69-1.65,5.61-2.97,8.32-4.58.62-.37.7-.46.59-1.21-.17-1.14-.76-2.44-.98-3.57-.55-2.85-.75-6.2-1.02-9.1-.26-2.73-.57-4.8-.2-7.6.61-4.59,2.05-9.13,4.54-13.09,2.98-4.73,10.13-6.45,15.15-8.02.96-.3,1.89-.75,2.85-1.05,6.87-2.14,13.92-3.75,20.88-5.54,3.14-.81,6.39-1.1,9.56-1.74,6.64-1.36,12.97-3.34,19.82-3.7,1.53-.08,3.4-.29,4.51.96.69.77.18,1.11-.38,1.76-2.23,2.58-8.35,3.92-11.66,4.71-6.91,1.63-13.89,2.98-20.81,4.56-3.67.84-7.31,1.86-10.97,2.69-4.27.97-9.34,1.62-13.4,3.17-.3.12-.99.36-.64.74,1.98-.29,3.94-.92,5.91-1.33,4.32-.91,8.62-1.76,12.93-2.74,8.15-1.86,16.32-3.63,24.46-5.5,2.94-.68,5.94-1.19,8.8-2.2.21-.02,3.26,1.41,3.57,1.64.73.55.9.97.43,1.81-2.04,3.69-8.41,4.83-12.17,5.72-12.35,2.95-24.83,4.56-37.3,6.89-.79.15-3.88.45-4.27,1.02-.16.24-.16.45.1.62.44.3,1.2-.1,1.68-.18,14.49-2.56,29.28-4.2,43.5-8.02.31-.08.88-.38,1.18-.38.27,0,1.63.83,1.92,1.04,1.53,1.13.48,2.77-.72,3.66-.91.68-3.5,1.56-4.67,1.93-7.45,2.33-16.17,3.45-23.91,4.66-4.71.73-9.8,1.18-14.43,2.11-.46.09-1.67.34-1.84.78s.59.42.87.41c3.77-.15,8.14-1.15,11.93-1.7,8.38-1.22,16.81-2.18,24.99-4.42.15-.01.3-.05.45,0,.56.21,1.89.96,2.3,1.38.81.83-.06,1.97-.79,2.52-2.81,2.12-10.49,2.52-14.13,3.03-4.12.58-8.23,1.24-12.34,1.82-3.52.49-7.38.67-10.83,1.5-.12.03-.4.08-.48.13-.35.24-.28.64.13.76.28.08,1.5-.1,1.88-.15,5.78-.63,11.5-1.51,17.25-2.3,4.37-.6,8.75-1.18,13.13-1.71.4.69,1.61,1.59,1.21,2.43-.97,2.03-5.39,2.49-7.37,2.84-.79.14-1.57.35-2.36.48-7.68,1.21-15.49,1.18-23.22,1.88-.83.17-.96.92.02,1.06,2.06.29,5.08-.5,7.24-.33,5.53-.46,10.94-.67,16.43-1.52.43-.07,1.7-.44,2.01-.38.38.07.73.66,1.02.95.47.49.9.57.97,1.34.05.5-.14.92-.5,1.28-1.25,1.25-5.2,1.71-6.97,1.9-6.48.69-13.15.36-19.67.59-.45.04-1.14.03-.89.68.23.27,1.17.34,1.54.37.68.07,1.55.06,2.25.08,6,.14,12.21-.16,18.18-.66.46.14,1.46,1.12,1.18,1.59-.44.73-1.32,1.23-2.12,1.45-4.82,1.28-12.19.95-17.28.95-.46,0-2.63-.27-2.8.19-.08.21.17.39.35.45.59.21,2.28.34,2.97.37,4.62.26,9.57.04,14.16-.4.98.52,3.9,1.3,3.51,2.86-.29,1.14-3.63,1.57-4.63,1.67-4.62.48-9.21-.12-13.83,0-.37.01-.88-.06-1.03.35.12.46,3.78.79,4.38.82,3.79.21,7.72.22,11.5-.12,1.13.33,3.7,1.89,2.28,3.17-.92.83-4.68,1.03-5.98,1.02-3.13-.02-6.37-.42-9.51-.56-.79.12-.7.48,0,.75,1.91.74,8.63,1,10.88.93.41-.01,1.58-.23,1.86-.18.53.09,1.62.99,1.85,1.5.91,2-1.94,2.46-3.31,2.46-3.27,0-6.75-.7-10.01-1.01-.24,0-.47.09-.49.37.03.3,1.22.57,1.52.66,2.34.69,5.71.98,8.17,1.07.82.03,1.64.02,2.46-.1.67.79,2.76,2.21,2.27,3.41-.4.98-.98,1.18-1.96,1.26-3.44.25-6.82-1.33-10.11-2.14-.23-.05-.41.09-.43.33-.02.28.64.6.89.73,1.31.65,3.51,1.31,4.96,1.69,2,.52,3.76.29,5.59,1.42,1.24.77,2.6,2.84.4,3.37-1.71.41-6.56-.79-8.21-1.51-.41-.18-.76-.63-1.26-.44-.39.26-.06.63.22.84,1.07.8,2.63,1.24,3.91,1.57.65.17,2.33.38,2.78.66s1.83,1.64,2.1,2.08c.35.57.26.9-.19,1.39-1.09,1.19-3.66.41-4.98,0-2.24-1.84-4.59-3.54-6.94-5.23-.88-.63-1.72-1.32-2.6-1.95-3.18-1.85-6.4-4.45-9.71-6.05-.14-.07-.68-.27-.8-.25l-.25.37c0,.17.51.56.67.67,1.29.9,2.76,1.67,4.09,2.52,7.52,4.81,15.37,10.61,22,16.6,1.82,1.65,4.31,4,5.7,5.99,4.17,5.98,8.08,13.08,10.2,20.07.41,1.34,1.08,3.51,1.3,4.83.02.11.11.64,0,.67-2.29-.57-4.69-.69-6.98-1.27-5.08-1.28-10.08-3.35-15.01-5.11-4.06-1.45-8.9-2.77-12.72-4.64-4.58-2.24-9.03-5.7-13.6-8.05-11.48-7.23-23.23-14.06-34.29-21.92-3.41-2.42-6.85-4.75-10.3-7.11-5.01-3.43-8.97-8.19-11.37-13.72l-5.33-6.82Z"/>
            <path class="cls-2" d="M204.4,525.41c-.35-1.33-2.36-2.47-3.66-2.16-3.65.87-2.1,6.48,1.55,5.79,1.64-.31,2.52-2.09,2.11-3.63Z"/>
          </g>
        </g>
        <path class="cls-2" d="M138.77,402.23l6.59-1.49c1.7-.56,3.5-.98,4.99-2.03,4.4-3.13,5.17-7.83.16-10.71,1.26-.42,2.59-.59,3.85-1,3.41-1.11,8.59-4.24,9.7-7.8,1.06-3.39-3.16-5.81-5.75-6.97,3.58-.9,7.05-2.3,9.53-5.18,1.17-1.35,1.51-2.15.83-3.83-.94-2.31-3.06-3.82-5.56-3.8-3.43.02-7.19-.47-10.86-.39-11.83.25-23.57,2.01-35.36,2.84-20.65,1.46-41.48,5.14-61.76,9.23-5.67,1.14-15.43,3.8-20.11,7.03-9.49,6.55-16.2,24.05-16.9,35.34-.12,1.94.14,4,.14,5.94,0,5.58-.15,11.85.45,17.37.2,1.82.92,3.67,1.1,5.52l-9.26-6.69c-9.79-6.32-22.95-10.48-34.54-11.41-7.85-.63-16.53,2.57-23.6,5.71l-18.35-7.85c-1.17.08-1.58,1.05-1,2.05,3.13,5.4,7.55,10.68,10.82,16.07.15,3.89,1.92,7.44,3.71,10.82,4.09,7.67,9.03,12.76,15.53,18.41,9.33,8.1,18.47,16.48,28.11,24.2,41.04,32.88,83.73,63.82,125.65,95.64,11.68,8.87,23.08,18.26,35.38,26.29,1.98,1.29,4.19,2.28,6.16,3.58,2.93,1.94,6.47,5.23,9.81,6.2.8.23,2.02.02,1.48-1.01-.39-.75-2.42-2.8-3.13-3.59-10.23-11.35-20.83-22.4-31.46-33.38-2-2.07-4.35-3.92-5.96-6.32,2.69.75,5.18,2.07,7.77,3.11,8.1,3.24,16.24,6.34,24.12,10.13,4.5,2.17,8.84,4.79,13.48,6.68.47.19,1.71.78,2.14.75,1.41-.11-.12-1.43-.6-1.84-1.05-.9-2.35-1.65-3.43-2.53-12.8-10.35-25.94-20.33-39.58-29.6-2.89-8.42-6.9-16.37-11.05-24.25-4.81-9.12-9.77-17-16.07-25.19-5.06-6.57-10.64-12.5-16.7-18.18,1.01-.03,2.02.45,3.06.54,1.49.14,2.95-.28,4.09-1.27,3.34-2.88.29-5.69-2.31-7.64l2.9.19c3.97-.1,5.95-3.63,3.52-6.93-1.01-1.37-2.3-2.12-3.79-2.87,2.3-.23,4.06-1.29,4.83-3.58,1.01-3.03-1.93-5.38-3.93-7.13,2.75-.7,5.01-2.66,4.15-5.73-.45-1.61-1.54-2.28-2.97-2.99,1.57-.27,2.88-.14,4.28-1.08,3.92-2.61,1.54-6.9-2.16-8.13,3.13-.45,7.53-1.4,6.77-5.56-.45-2.44-2.53-3.58-4.65-4.43,1.9-.27,3.82-.21,5.49-1.31,1.76-1.16,3.46-2.61,2.4-4.86l-.94-1.6c2.66.08,5.76-.42,8.12-1.77,1.79-1.03,2.76-2.07,2.94-4.19.2-2.34-1.03-3.2-2.47-4.81,3.84-.37,10.54-.98,12.8-4.59,1.21-1.93.16-4.99-1.91-5.86,4.41-.61,12.25-1.61,13.2-7.07.13-.77-.31-2.58-.9-3.02l-2.97-2.21ZM-62.2,426.51c3.81,2.83,8.04,5.13,11.86,7.93,2.45,1.79,4.67,3.88,7.09,5.7,1.32.63,2.47-.21,3.64-.49,3.97-.93,9.82-.46,13.31,1.75,2.65,1.68,6.66,6.23,7.71,9.21,1.42,4,.54,8.99.75,13.16.06.3.34.54.65.47,1.33-.52,2.64-.99,3.92-1.67,5.95-3.16,11.73-7.53,17.81-10.44,5.13-2.46,10.62-4.28,15.78-6.65,1.19-.54,1.33-.69,1.28-2.06-.09-2.08-.91-4.51-1.09-6.59-.45-5.21-.18-11.26-.13-16.52.05-4.95-.13-8.72,1.07-13.66,1.96-8.12,5.38-15.99,10.6-22.62,6.24-7.92,19.37-9.67,28.67-11.53,1.79-.36,3.53-1,5.31-1.35,12.72-2.54,25.67-4.11,38.49-6.03,5.79-.87,11.66-.77,17.47-1.33,12.16-1.19,23.89-3.56,36.25-2.91,2.75.14,6.16.12,7.92,2.57,1.09,1.52.12,2.03-1,3.08-4.49,4.22-15.71,5.47-21.8,6.25-12.7,1.63-25.48,2.74-38.19,4.28-6.73.82-13.45,1.96-20.18,2.77-7.84.94-17.05,1.15-24.62,3.18-.57.15-1.85.46-1.29,1.21,3.61-.14,7.24-.9,10.84-1.27,7.93-.81,15.79-1.54,23.71-2.49,14.97-1.8,29.94-3.46,44.9-5.28,5.41-.66,10.88-1.03,16.2-2.29.38,0,5.59,3.14,6.1,3.62,1.21,1.13,1.43,1.9.44,3.32-4.35,6.24-15.99,7.08-22.9,7.98-22.71,2.97-45.39,3.52-68.18,5.35-1.45.12-7.04.08-7.85,1.03-.34.4-.37.78.06,1.14.74.62,2.16.05,3.05-.01,26.47-1.87,53.3-2.04,79.53-6.22.57-.09,1.65-.52,2.18-.45.48.06,2.77,1.79,3.25,2.23,2.54,2.31.35,5.05-1.97,6.43-1.77,1.05-6.58,2.15-8.73,2.58-13.8,2.79-29.64,3.15-43.76,3.86-8.58.43-17.79.27-26.28,1.08-.83.08-3.05.3-3.45,1.06-.41.79.99.86,1.48.9,6.79.43,14.82-.54,21.71-.82,15.25-.61,30.56-.75,45.65-3.24.27,0,.55-.03.8.1.97.48,3.2,2.07,3.86,2.91,1.29,1.64-.47,3.52-1.89,4.37-5.44,3.28-19.29,2.55-25.92,2.78-7.49.26-14.99.69-22.48.94-6.41.22-13.37-.18-19.71.66-.22.03-.74.06-.88.14-.67.36-.63,1.1.09,1.39.49.2,2.7.09,3.39.09,10.48-.05,20.91-.56,31.37-.89,7.96-.26,15.91-.47,23.88-.61.59,1.31,2.58,3.16,1.71,4.59-2.12,3.46-10.13,3.46-13.75,3.72-1.44.1-2.89.34-4.33.41-14,.73-28-.79-42-.98-1.52.14-1.9,1.47-.17,1.9,3.63.9,9.21.05,13.05.76,10,.21,19.74.85,29.76.37.78-.04,3.12-.47,3.67-.3.66.2,1.19,1.32,1.64,1.89.76.96,1.5,1.19,1.49,2.59,0,.9-.43,1.63-1.14,2.2-2.47,2-9.65,2.09-12.86,2.09-11.76.02-23.65-1.82-35.38-2.63-.81,0-2.06-.15-1.72,1.05.36.52,2.03.82,2.69.96,1.22.25,2.76.4,4.02.56,10.74,1.37,21.92,2.01,32.74,2.22.8.33,2.41,2.28,1.82,3.08-.92,1.23-2.6,1.97-4.08,2.2-8.88,1.39-22.04-.58-31.17-1.54-.83-.09-4.67-.98-5.06-.19-.18.37.23.73.54.88,1.02.49,4.02,1.03,5.25,1.23,8.24,1.33,17.16,1.87,25.48,1.94,1.66,1.12,6.76,3.07,5.76,5.79-.73,1.99-6.81,2.13-8.63,2.13-8.37-.01-16.5-1.94-24.8-2.58-.66-.05-1.57-.28-1.91.43.12.86,6.63,2.13,7.71,2.3,6.76,1.08,13.81,1.84,20.65,1.95,1.96.8,6.28,4.08,3.49,6.12-1.8,1.32-8.58.96-10.92.7-5.61-.62-11.35-1.96-16.95-2.78-1.44.06-1.34.72-.14,1.34,3.29,1.69,15.29,3.42,19.34,3.71.74.05,2.88-.11,3.36.03.93.26,2.72,2.07,3.04,3.03,1.25,3.76-3.94,4.06-6.4,3.8-5.86-.62-11.97-2.52-17.76-3.7-.44-.03-.85.08-.94.57,0,.55,2.08,1.25,2.6,1.47,4.07,1.67,10.06,2.82,14.46,3.45,1.47.21,2.93.34,4.42.29,1.05,1.53,4.54,4.48,3.43,6.54-.91,1.68-1.97,1.94-3.75,1.88-6.22-.2-11.99-3.67-17.73-5.74-.41-.13-.75.09-.83.51-.09.51,1.04,1.21,1.46,1.47,2.23,1.42,6.05,3.01,8.57,3.96,3.49,1.31,6.68,1.22,9.76,3.6,2.09,1.61,4.13,5.59.08,6.12-3.14.41-11.61-2.66-14.44-4.25-.71-.4-1.25-1.28-2.18-1.03-.75.39-.22,1.13.23,1.54,1.76,1.64,4.48,2.71,6.71,3.56,1.13.43,4.11,1.13,4.86,1.7s2.98,3.28,3.38,4.12c.52,1.08.29,1.67-.61,2.47-2.18,1.93-6.64.05-8.92-.94-3.67-3.73-7.58-7.21-11.47-10.69-1.45-1.3-2.84-2.69-4.3-3.98-5.36-3.92-10.65-9.19-16.27-12.67-.24-.15-1.17-.62-1.38-.59l-.52.61c-.02.3.81,1.1,1.08,1.33,2.14,1.85,4.64,3.52,6.86,5.29,12.59,10.04,25.57,21.91,36.35,33.9,2.96,3.29,6.98,7.99,9.1,11.82,6.36,11.51,12.04,24.98,14.53,37.91.48,2.47,1.29,6.49,1.43,8.9.01.2.09,1.16-.11,1.2-4.01-1.45-8.28-2.11-12.29-3.58-8.88-3.25-17.44-7.89-25.96-11.98-7-3.36-15.44-6.64-21.95-10.71-7.79-4.87-15.12-11.91-22.89-16.98-19.23-15.12-39.03-29.58-57.39-45.76-5.66-4.98-11.4-9.8-17.14-14.68-8.34-7.09-14.55-16.37-17.82-26.74l-8.28-13.23Z"/>
        <g>
          <path class="cls-2" d="M495.25,210.48l3.55-1.2c.91-.41,1.88-.74,2.63-1.41,2.24-1.98,2.4-4.62-.53-5.91.67-.3,1.39-.48,2.06-.77,1.82-.81,4.49-2.83,4.9-4.86.39-1.93-2.08-3.02-3.57-3.51,1.92-.7,3.75-1.68,4.96-3.41.56-.81.71-1.27.24-2.16-.65-1.22-1.91-1.93-3.29-1.78-1.89.21-3.99.16-6.01.41-6.51.82-12.88,2.47-19.34,3.61-11.3,2-22.58,5.23-33.53,8.65-3.06.96-8.29,2.99-10.69,5.04-4.86,4.16-7.55,14.2-7.28,20.47.05,1.08.31,2.2.42,3.27.33,3.08.6,6.54,1.25,9.56.21.99.72,1.97.93,2.98l-5.49-3.15c-5.76-2.92-13.26-4.46-19.71-4.3-4.37.11-8.97,2.37-12.69,4.51l-10.57-3.27c-.64.11-.81.67-.43,1.19,2.04,2.8,4.78,5.46,6.9,8.24.3,2.14,1.49,3.99,2.67,5.75,2.7,4,5.71,6.52,9.63,9.26,5.62,3.93,11.13,8.02,16.9,11.73,24.53,15.77,49.86,30.37,74.82,45.5,6.95,4.22,13.78,8.74,21.03,12.46,1.17.6,2.44,1.02,3.6,1.62,1.73.9,3.87,2.51,5.77,2.86.46.08,1.12-.1.76-.64-.26-.39-1.5-1.41-1.93-1.8-6.3-5.67-12.78-11.15-19.28-16.6-1.22-1.03-2.63-1.91-3.65-3.14,1.53.26,2.98.84,4.47,1.27,4.65,1.32,9.32,2.56,13.88,4.2,2.61.94,5.15,2.13,7.82,2.91.27.08.99.33,1.22.29.77-.14-.15-.78-.44-.98-.63-.43-1.39-.78-2.04-1.2-7.65-4.97-15.48-9.71-23.53-14.04-2.08-4.48-4.75-8.63-7.5-12.73-3.18-4.75-6.37-8.81-10.32-12.97-3.17-3.33-6.59-6.28-10.26-9.06.55-.07,1.14.13,1.72.12.83,0,1.61-.33,2.18-.93,1.68-1.78-.17-3.16-1.71-4.08l1.61-.06c2.18-.28,3.07-2.34,1.54-4.02-.64-.7-1.39-1.04-2.26-1.37,1.25-.26,2.17-.94,2.45-2.25.38-1.73-1.38-2.86-2.58-3.7,1.48-.54,2.61-1.75,1.96-3.4-.34-.86-.98-1.17-1.81-1.48.85-.24,1.58-.24,2.3-.84,2.01-1.67.45-3.89-1.66-4.36,1.7-.43,4.07-1.21,3.41-3.45-.39-1.32-1.6-1.83-2.82-2.18,1.03-.26,2.1-.34,2.95-1.04.9-.74,1.76-1.64,1.05-2.82l-.61-.83c1.47-.11,3.15-.56,4.38-1.45.93-.67,1.4-1.3,1.38-2.48-.02-1.3-.75-1.71-1.64-2.51,2.1-.42,5.75-1.15,6.8-3.27.56-1.13-.2-2.76-1.39-3.12,2.4-.59,6.66-1.6,6.87-4.66.03-.43-.32-1.4-.67-1.61l-1.77-1.04ZM385.81,235.47c2.26,1.34,4.73,2.37,7,3.69,1.45.85,2.8,1.87,4.24,2.73.76.27,1.35-.26,1.98-.48,2.14-.74,5.39-.82,7.44.2,1.56.77,4.03,3.05,4.79,4.63,1.01,2.12.82,4.93,1.18,7.22.05.16.22.28.38.22.71-.36,1.4-.7,2.06-1.14,3.1-2.09,6.03-4.83,9.22-6.78,2.69-1.65,5.61-2.97,8.32-4.58.62-.37.7-.46.59-1.21-.17-1.14-.76-2.44-.98-3.57-.55-2.85-.75-6.2-1.02-9.1-.26-2.73-.57-4.8-.2-7.6.61-4.59,2.05-9.13,4.54-13.09,2.98-4.73,10.13-6.45,15.15-8.02.96-.3,1.89-.75,2.85-1.05,6.87-2.14,13.92-3.75,20.88-5.54,3.14-.81,6.39-1.1,9.56-1.74,6.64-1.36,12.97-3.34,19.82-3.7,1.53-.08,3.4-.29,4.51.96.69.77.18,1.11-.38,1.76-2.23,2.58-8.35,3.92-11.66,4.71-6.91,1.63-13.89,2.98-20.81,4.56-3.67.84-7.31,1.86-10.97,2.69-4.27.97-9.34,1.62-13.4,3.17-.3.12-.99.36-.64.74,1.98-.29,3.94-.92,5.91-1.33,4.32-.91,8.62-1.76,12.93-2.74,8.15-1.86,16.32-3.63,24.46-5.5,2.94-.68,5.94-1.19,8.8-2.2.21-.02,3.26,1.41,3.57,1.64.73.55.9.97.43,1.81-2.04,3.69-8.41,4.83-12.17,5.72-12.35,2.95-24.83,4.56-37.3,6.89-.79.15-3.88.45-4.27,1.02-.16.24-.16.45.1.62.44.3,1.2-.1,1.68-.18,14.49-2.56,29.28-4.2,43.5-8.02.31-.08.88-.38,1.18-.38.27,0,1.63.83,1.92,1.04,1.53,1.13.48,2.77-.72,3.66-.91.68-3.5,1.56-4.67,1.93-7.45,2.33-16.17,3.45-23.91,4.66-4.71.73-9.8,1.18-14.43,2.11-.46.09-1.67.34-1.84.78s.59.42.87.41c3.77-.15,8.14-1.15,11.93-1.7,8.38-1.22,16.81-2.18,24.99-4.42.15-.01.3-.05.45,0,.56.21,1.89.96,2.3,1.38.81.83-.06,1.97-.79,2.52-2.81,2.12-10.49,2.52-14.13,3.03-4.12.58-8.23,1.24-12.34,1.82-3.52.49-7.38.67-10.83,1.5-.12.03-.4.08-.48.13-.35.24-.28.64.13.76.28.08,1.5-.1,1.88-.15,5.78-.63,11.5-1.51,17.25-2.3,4.37-.6,8.75-1.18,13.13-1.71.4.69,1.61,1.59,1.21,2.43-.97,2.03-5.39,2.49-7.37,2.84-.79.14-1.57.35-2.36.48-7.68,1.21-15.49,1.18-23.22,1.88-.83.17-.96.92.02,1.06,2.06.29,5.08-.5,7.24-.33,5.53-.46,10.94-.67,16.43-1.52.43-.07,1.7-.44,2.01-.38.38.07.73.66,1.02.95.47.49.9.57.97,1.34.05.5-.14.92-.5,1.28-1.25,1.25-5.2,1.71-6.97,1.9-6.48.69-13.15.36-19.67.59-.45.04-1.14.03-.89.68.23.27,1.17.34,1.54.37.68.07,1.55.06,2.25.08,6,.14,12.21-.16,18.18-.66.46.14,1.46,1.12,1.18,1.59-.44.73-1.32,1.23-2.12,1.45-4.82,1.28-12.19.95-17.28.95-.46,0-2.63-.27-2.8.19-.08.21.17.39.35.45.59.21,2.28.34,2.97.37,4.62.26,9.57.04,14.16-.4.98.52,3.9,1.3,3.51,2.86-.29,1.14-3.63,1.57-4.63,1.67-4.62.48-9.21-.12-13.83,0-.37.01-.88-.06-1.03.35.12.46,3.78.79,4.38.82,3.79.21,7.72.22,11.5-.12,1.13.33,3.7,1.89,2.28,3.17-.92.83-4.68,1.03-5.98,1.02-3.13-.02-6.37-.42-9.51-.56-.79.12-.7.48,0,.75,1.91.74,8.63,1,10.88.93.41-.01,1.58-.23,1.86-.18.53.09,1.62.99,1.85,1.5.91,2-1.94,2.46-3.31,2.46-3.27,0-6.75-.7-10.01-1.01-.24,0-.47.09-.49.37.03.3,1.22.57,1.52.66,2.34.69,5.71.98,8.17,1.07.82.03,1.64.02,2.46-.1.67.79,2.76,2.21,2.27,3.41-.4.98-.98,1.18-1.96,1.26-3.44.25-6.82-1.33-10.11-2.14-.23-.05-.41.09-.43.33-.02.28.64.6.89.73,1.31.65,3.51,1.31,4.96,1.69,2,.52,3.76.29,5.59,1.42,1.24.77,2.6,2.84.4,3.37-1.71.41-6.56-.79-8.21-1.51-.41-.18-.76-.63-1.26-.44-.39.26-.06.63.22.84,1.07.8,2.63,1.24,3.91,1.57.65.17,2.33.38,2.78.66s1.83,1.64,2.1,2.08c.35.57.26.9-.19,1.39-1.09,1.19-3.66.41-4.98,0-2.24-1.84-4.59-3.54-6.94-5.23-.88-.63-1.72-1.32-2.6-1.95-3.18-1.85-6.4-4.45-9.71-6.05-.14-.07-.68-.27-.8-.25l-.25.37c0,.17.51.56.67.67,1.29.9,2.76,1.67,4.09,2.52,7.52,4.81,15.37,10.61,22,16.6,1.82,1.65,4.31,4,5.7,5.99,4.17,5.98,8.08,13.08,10.2,20.07.41,1.34,1.08,3.51,1.3,4.83.02.11.11.64,0,.67-2.29-.57-4.69-.69-6.98-1.27-5.08-1.28-10.08-3.35-15.01-5.11-4.06-1.45-8.9-2.77-12.72-4.64-4.58-2.24-9.03-5.7-13.6-8.05-11.48-7.23-23.23-14.06-34.29-21.92-3.41-2.42-6.85-4.75-10.3-7.11-5.01-3.43-8.97-8.19-11.37-13.72l-5.33-6.82Z"/>
          <path class="cls-2" d="M405.58,245.38c-.35-1.33-2.36-2.47-3.66-2.16-3.65.87-2.1,6.48,1.55,5.79,1.64-.31,2.52-2.09,2.11-3.63Z"/>
        </g>
        <g>
          <g>
            <path class="cls-2" d="M339.94,122.19l6.59-1.49c1.7-.56,3.5-.98,4.99-2.03,4.4-3.13,5.17-7.83.16-10.71,1.26-.42,2.59-.59,3.85-1,3.41-1.11,8.59-4.24,9.7-7.8,1.06-3.39-3.16-5.81-5.75-6.97,3.58-.9,7.05-2.3,9.53-5.18,1.17-1.35,1.51-2.15.83-3.83-.94-2.31-3.06-3.82-5.56-3.8-3.43.02-7.19-.47-10.86-.39-11.83.25-23.57,2.01-35.36,2.84-20.65,1.46-41.48,5.14-61.76,9.23-5.67,1.14-15.43,3.8-20.11,7.03-9.49,6.55-16.2,24.05-16.9,35.34-.12,1.94.14,4,.14,5.94,0,5.58-.15,11.85.45,17.37.2,1.82.92,3.67,1.1,5.52l-9.26-6.69c-9.79-6.32-22.95-10.48-34.54-11.41-7.85-.63-16.53,2.57-23.6,5.71l-18.35-7.85c-1.17.08-1.58,1.05-1,2.05,3.13,5.4,7.55,10.68,10.82,16.07.15,3.89,1.92,7.44,3.71,10.82,4.09,7.67,9.03,12.76,15.53,18.41,9.33,8.1,18.47,16.48,28.11,24.2,41.04,32.88,83.73,63.82,125.65,95.64,11.68,8.87,23.08,18.26,35.38,26.29,1.98,1.29,4.19,2.28,6.16,3.58,2.93,1.94,6.47,5.23,9.81,6.2.8.23,2.02.02,1.48-1.01-.39-.75-2.42-2.8-3.13-3.59-10.23-11.35-20.83-22.4-31.46-33.38-2-2.07-4.35-3.92-5.96-6.32,2.69.75,5.18,2.07,7.77,3.11,8.1,3.24,16.24,6.34,24.12,10.13,4.5,2.17,8.84,4.79,13.48,6.68.47.19,1.71.78,2.14.75,1.41-.11-.12-1.43-.6-1.84-1.05-.9-2.35-1.65-3.43-2.53-12.8-10.35-25.94-20.33-39.58-29.6-2.89-8.42-6.9-16.37-11.05-24.25-4.81-9.12-9.77-17-16.07-25.19-5.06-6.57-10.64-12.5-16.7-18.18,1.01-.03,2.02.45,3.06.54,1.49.14,2.95-.28,4.09-1.27,3.34-2.88.29-5.69-2.31-7.64l2.9.19c3.97-.1,5.95-3.63,3.52-6.93-1.01-1.37-2.3-2.12-3.79-2.87,2.3-.23,4.06-1.29,4.83-3.58,1.01-3.03-1.93-5.38-3.93-7.13,2.75-.7,5.01-2.66,4.15-5.73-.45-1.61-1.54-2.28-2.97-2.99,1.57-.27,2.88-.14,4.28-1.08,3.92-2.61,1.54-6.9-2.16-8.13,3.13-.45,7.53-1.4,6.77-5.56-.45-2.44-2.53-3.58-4.65-4.43,1.9-.27,3.82-.21,5.49-1.31,1.76-1.16,3.46-2.61,2.4-4.86l-.94-1.6c2.66.08,5.76-.42,8.12-1.77,1.79-1.03,2.76-2.07,2.94-4.19.2-2.34-1.03-3.2-2.47-4.81,3.84-.37,10.54-.98,12.8-4.59,1.21-1.93.16-4.99-1.91-5.86,4.41-.61,12.25-1.61,13.2-7.07.13-.77-.31-2.58-.9-3.02l-2.97-2.21ZM138.97,146.47c3.81,2.83,8.04,5.13,11.86,7.93,2.45,1.79,4.67,3.88,7.09,5.7,1.32.63,2.47-.21,3.64-.49,3.97-.93,9.82-.46,13.31,1.75,2.65,1.68,6.66,6.23,7.71,9.21,1.42,4,.54,8.99.75,13.16.06.3.34.54.65.47,1.33-.52,2.64-.99,3.92-1.67,5.95-3.16,11.73-7.53,17.81-10.44,5.13-2.46,10.62-4.28,15.78-6.65,1.19-.54,1.33-.69,1.28-2.06-.09-2.08-.91-4.51-1.09-6.59-.45-5.21-.18-11.26-.13-16.52.05-4.95-.13-8.72,1.07-13.66,1.96-8.12,5.38-15.99,10.6-22.62,6.24-7.92,19.37-9.67,28.67-11.53,1.79-.36,3.53-1,5.31-1.35,12.72-2.54,25.67-4.11,38.49-6.03,5.79-.87,11.66-.77,17.47-1.33,12.16-1.19,23.89-3.56,36.25-2.91,2.75.14,6.16.12,7.92,2.57,1.09,1.52.12,2.03-1,3.08-4.49,4.22-15.71,5.47-21.8,6.25-12.7,1.63-25.48,2.74-38.19,4.28-6.73.82-13.45,1.96-20.18,2.77-7.84.94-17.05,1.15-24.62,3.18-.57.15-1.85.46-1.29,1.21,3.61-.14,7.24-.9,10.84-1.27,7.93-.81,15.79-1.54,23.71-2.49,14.97-1.8,29.94-3.46,44.9-5.28,5.41-.66,10.88-1.03,16.2-2.29.38,0,5.59,3.14,6.1,3.62,1.21,1.13,1.43,1.9.44,3.32-4.35,6.24-15.99,7.08-22.9,7.98-22.71,2.97-45.39,3.52-68.18,5.35-1.45.12-7.04.08-7.85,1.03-.34.4-.37.78.06,1.14.74.62,2.16.05,3.05-.01,26.47-1.87,53.3-2.04,79.53-6.22.57-.09,1.65-.52,2.18-.45.48.06,2.77,1.79,3.25,2.23,2.54,2.31.35,5.05-1.97,6.43-1.77,1.05-6.58,2.15-8.73,2.58-13.8,2.79-29.64,3.15-43.76,3.86-8.58.43-17.79.27-26.28,1.08-.83.08-3.05.3-3.45,1.06-.41.79.99.86,1.48.9,6.79.43,14.82-.54,21.71-.82,15.25-.61,30.56-.75,45.65-3.24.27,0,.55-.03.8.1.97.48,3.2,2.07,3.86,2.91,1.29,1.64-.47,3.52-1.89,4.37-5.44,3.28-19.29,2.55-25.92,2.78-7.49.26-14.99.69-22.48.94-6.41.22-13.37-.18-19.71.66-.22.03-.74.06-.88.14-.67.36-.63,1.1.09,1.39.49.2,2.7.09,3.39.09,10.48-.05,20.91-.56,31.37-.89,7.96-.26,15.91-.47,23.88-.61.59,1.31,2.58,3.16,1.71,4.59-2.12,3.46-10.13,3.46-13.75,3.72-1.44.1-2.89.34-4.33.41-14,.73-28-.79-42-.98-1.52.14-1.9,1.47-.17,1.9,3.63.9,9.21.05,13.05.76,10,.21,19.74.85,29.76.37.78-.04,3.12-.47,3.67-.3.66.2,1.19,1.32,1.64,1.89.76.96,1.5,1.19,1.49,2.59,0,.9-.43,1.63-1.14,2.2-2.47,2-9.65,2.09-12.86,2.09-11.76.02-23.65-1.82-35.38-2.63-.81,0-2.06-.15-1.72,1.05.36.52,2.03.82,2.69.96,1.22.25,2.76.4,4.02.56,10.74,1.37,21.92,2.01,32.74,2.22.8.33,2.41,2.28,1.82,3.08-.92,1.23-2.6,1.97-4.08,2.2-8.88,1.39-22.04-.58-31.17-1.54-.83-.09-4.67-.98-5.06-.19-.18.37.23.73.54.88,1.02.49,4.02,1.03,5.25,1.23,8.24,1.33,17.16,1.87,25.48,1.94,1.66,1.12,6.76,3.07,5.76,5.79-.73,1.99-6.81,2.13-8.63,2.13-8.37-.01-16.5-1.94-24.8-2.58-.66-.05-1.57-.28-1.91.43.12.86,6.63,2.13,7.71,2.3,6.76,1.08,13.81,1.84,20.65,1.95,1.96.8,6.28,4.08,3.49,6.12-1.8,1.32-8.58.96-10.92.7-5.61-.62-11.35-1.96-16.95-2.78-1.44.06-1.34.72-.14,1.34,3.29,1.69,15.29,3.42,19.34,3.71.74.05,2.88-.11,3.36.03.93.26,2.72,2.07,3.04,3.03,1.25,3.76-3.94,4.06-6.4,3.8-5.86-.62-11.97-2.52-17.76-3.7-.44-.03-.85.08-.94.57,0,.55,2.08,1.25,2.6,1.47,4.07,1.67,10.06,2.82,14.46,3.45,1.47.21,2.93.34,4.42.29,1.05,1.53,4.54,4.48,3.43,6.54-.91,1.68-1.97,1.94-3.75,1.88-6.22-.2-11.99-3.67-17.73-5.74-.41-.13-.75.09-.83.51-.09.51,1.04,1.21,1.46,1.47,2.23,1.42,6.05,3.01,8.57,3.96,3.49,1.31,6.68,1.22,9.76,3.6,2.09,1.61,4.13,5.59.08,6.12-3.14.41-11.61-2.66-14.44-4.25-.71-.4-1.25-1.28-2.18-1.03-.75.39-.22,1.13.23,1.54,1.76,1.64,4.48,2.71,6.71,3.56,1.13.43,4.11,1.13,4.86,1.7s2.98,3.28,3.38,4.12c.52,1.08.29,1.67-.61,2.47-2.18,1.93-6.64.05-8.92-.94-3.67-3.73-7.58-7.21-11.47-10.69-1.45-1.3-2.84-2.69-4.3-3.98-5.36-3.92-10.65-9.19-16.27-12.67-.24-.15-1.17-.62-1.38-.59l-.52.61c-.02.3.81,1.1,1.08,1.33,2.14,1.85,4.64,3.52,6.86,5.29,12.59,10.04,25.57,21.91,36.35,33.9,2.96,3.29,6.98,7.99,9.1,11.82,6.36,11.51,12.04,24.98,14.53,37.91.48,2.47,1.29,6.49,1.43,8.9.01.2.09,1.16-.11,1.2-4.01-1.45-8.28-2.11-12.29-3.58-8.88-3.25-17.44-7.89-25.96-11.98-7-3.36-15.44-6.64-21.95-10.71-7.79-4.87-15.12-11.91-22.89-16.98-19.23-15.12-39.03-29.58-57.39-45.76-5.66-4.98-11.4-9.8-17.14-14.68-8.34-7.09-14.55-16.37-17.82-26.74l-8.28-13.23Z"/>
            <path class="cls-2" d="M172.56,167.95c-.37-2.45-3.77-4.87-6.16-4.55-6.7.87-4.99,11.23,1.69,10.67,2.99-.25,4.91-3.28,4.47-6.12Z"/>
          </g>
          <g>
            <path class="cls-2" d="M191.4,314.69c-.46.24-.97,1.46-.96,2.02.07,3.93,5.46,5.49,8.48,6.39-1.54.38-2.62,2.42-1.98,3.9,1.2,2.77,5.83,3.93,8.48,4.61-1.19.97-2.14,1.44-2.26,3.1-.1,1.51.46,2.35,1.61,3.26,1.51,1.21,3.63,1.89,5.5,2.13l-.84,1.02c-.98,1.46.05,2.67,1.16,3.67,1.05.95,2.41,1.12,3.71,1.51-1.58.37-3.16.94-3.74,2.6-.98,2.83,1.99,3.98,4.14,4.63-2.72.46-4.86,3.21-2.4,5.46.88.81,1.82.86,2.89,1.22-1.08.35-1.92.7-2.41,1.78-.93,2.06.44,3.68,2.29,4.47-1.59,1.01-3.91,2.34-3.53,4.57.29,1.69,1.41,2.62,2.99,3.04-1.13.37-2.11.75-2.97,1.6-2.06,2.05-1.06,4.74,1.72,5.24l2.05.18c-2.03,1.09-4.48,2.72-2.45,5.11.69.81,1.67,1.27,2.73,1.33.74.05,1.5-.18,2.21-.05-4.86,3.33-9.42,6.87-13.68,10.93-5.31,5.06-9.65,10.05-14.01,15.92-3.77,5.07-7.45,10.21-10.39,15.8-10.57,5.02-20.87,10.58-30.97,16.45-.86.5-1.85.89-2.68,1.4-.38.23-1.6.99-.62,1.22.29.07,1.23-.21,1.58-.29,3.46-.82,6.78-2.18,10.18-3.22,5.93-1.81,11.98-3.09,18.01-4.49,1.93-.45,3.82-1.1,5.79-1.34-1.39,1.51-3.24,2.55-4.87,3.78-8.65,6.55-17.28,13.14-25.69,19.99-.58.47-2.23,1.69-2.59,2.18-.49.67.34.95.93.87,2.45-.32,5.29-2.24,7.55-3.28,1.52-.7,3.17-1.15,4.71-1.84,9.5-4.29,18.51-9.64,27.67-14.59,32.85-17.76,66.15-34.81,98.51-53.41,7.6-4.37,14.92-9.25,22.34-13.92,5.17-3.25,9.19-6.28,12.89-11.22,1.63-2.17,3.26-4.47,3.78-7.18,2.88-3.42,6.56-6.64,9.34-10.09.52-.64.33-1.36-.48-1.55l-13.72,3.51c-4.62-2.97-10.35-6.16-15.93-6.57-8.23-.61-17.91.88-25.46,4.25l-7.22,3.68c.33-1.28,1.04-2.49,1.37-3.75,1.02-3.81,1.59-8.22,2.21-12.13.21-1.36.62-2.78.74-4.15.74-8-2.06-20.99-8.01-26.62-2.93-2.77-9.49-5.7-13.34-7.12-13.77-5.07-27.98-9.91-42.3-13.18-8.18-1.87-16.22-4.37-24.49-5.84-2.56-.45-5.25-.52-7.65-.91-1.75-.28-3.4.54-4.31,2.06-.66,1.1-.51,1.7.16,2.78,1.43,2.29,3.71,3.65,6.12,4.67-1.94.53-5.16,1.77-4.79,4.26.39,2.62,3.68,5.38,5.95,6.53.84.42,1.75.69,2.59,1.12-3.83,1.47-3.79,4.85-1.05,7.53.93.9,2.14,1.39,3.28,1.97l4.46,1.76-2.32,1.22ZM324.76,360.72c-3.42,6.92-8.78,12.75-15.4,16.81-4.56,2.8-9.11,5.55-13.62,8.43-14.64,9.34-30.09,17.33-45.22,25.85-5.99,2.71-11.9,6.85-17.89,9.42-5,2.15-11.28,3.53-16.56,5.12-6.42,1.94-12.93,4.27-19.51,5.58-2.97.59-6.04.59-9.01,1.18-.13-.05.02-.71.05-.85.36-1.67,1.37-4.4,1.97-6.09,3.15-8.79,8.6-17.63,14.31-25,1.9-2.45,5.23-5.31,7.67-7.3,8.86-7.24,19.25-14.15,29.17-19.82,1.75-1,3.68-1.9,5.38-2.96.21-.13.88-.61.9-.82l-.3-.49c-.15-.04-.85.19-1.03.26-4.32,1.83-8.6,4.95-12.79,7.12-1.17.75-2.29,1.57-3.45,2.32-3.11,2.02-6.23,4.03-9.21,6.25-1.71.45-5.04,1.28-6.36-.31-.55-.66-.64-1.09-.16-1.8.37-.55,2.25-2.21,2.82-2.52.59-.32,2.76-.49,3.59-.66,1.66-.35,3.68-.8,5.1-1.76.36-.24.82-.7.33-1.06-.62-.28-1.1.28-1.64.48-2.16.81-8.43,2.04-10.59,1.41-2.78-.81-.91-3.38.73-4.28,2.42-1.33,4.64-.92,7.23-1.46,1.87-.39,4.72-1.09,6.44-1.85.32-.14,1.19-.51,1.18-.87,0-.3-.22-.49-.52-.45-4.25.83-8.67,2.64-13.05,2.1-1.25-.15-1.97-.45-2.43-1.73-.55-1.56,2.21-3.25,3.12-4.21,1.04.2,2.08.26,3.13.28,3.15.04,7.48-.11,10.52-.84.39-.09,1.92-.36,1.98-.75-.01-.35-.29-.48-.6-.5-4.19.19-8.68.86-12.86.66-1.75-.09-5.36-.86-4.08-3.36.33-.64,1.78-1.71,2.46-1.79.35-.04,1.84.3,2.36.35,2.87.24,11.47.33,13.96-.5.91-.3,1.05-.76.05-.96-4.02-.03-8.19.28-12.19.11-1.67-.07-6.46-.56-7.58-1.68-1.73-1.74,1.65-3.56,3.11-3.91,4.81.67,9.84.9,14.69.88.78,0,5.48-.19,5.66-.77-.16-.53-.82-.47-1.29-.51-5.89-.45-11.8.01-17.67-.89-1.27-.2-5.52-.96-5.82-2.43-.4-2.02,3.38-2.83,4.67-3.44,5.84.86,12.15,1.45,18.08,1.41.89,0,3.05-.06,3.82-.29.24-.07.56-.28.48-.56-.19-.6-2.98-.39-3.57-.42-6.51-.32-15.95-.36-22.03-2.31-1.01-.32-2.11-1.02-2.62-1.98-.33-.62,1.01-1.81,1.61-1.96,7.61,1.02,15.52,1.8,23.2,2,.9.02,2,.09,2.88.04.48-.02,1.68-.05,1.99-.38.37-.81-.53-.84-1.09-.92-8.31-.71-16.85-.71-25.1-2-2.24-.35-7.27-1.19-8.79-2.86-.43-.48-.65-1.04-.56-1.67.14-.99.69-1.06,1.33-1.66.38-.35.87-1.08,1.36-1.14.4-.06,2,.5,2.54.61,6.97,1.43,13.87,2.04,20.91,2.98,2.77-.08,6.59,1.12,9.23.89,1.26-.11,1.14-1.09.09-1.35-9.84-1.38-19.82-1.84-29.56-3.88-1-.21-1.99-.53-2.99-.76-2.51-.57-8.13-1.45-9.24-4.1-.46-1.1,1.14-2.18,1.69-3.03,5.57.96,11.12,1.98,16.68,3.02,7.3,1.37,14.56,2.86,21.9,4.04.48.08,2.02.39,2.39.31.53-.13.64-.64.21-.97-.09-.07-.45-.15-.6-.19-4.35-1.28-9.27-1.75-13.75-2.61-5.22-.99-10.43-2.1-15.66-3.1-4.63-.89-14.41-1.88-17.87-4.77-.9-.75-1.93-2.26-.85-3.27.55-.52,2.29-1.39,3.03-1.62.19-.06.38,0,.57.02,10.31,3.39,21.03,5.15,31.66,7.24,4.8.94,10.32,2.5,15.13,2.93.35.03,1.34.13,1.14-.47s-1.73-.97-2.3-1.12c-5.87-1.49-12.34-2.38-18.31-3.62-9.82-2.03-20.89-4.01-30.27-7.47-1.46-.54-4.72-1.83-5.84-2.76-1.48-1.22-2.72-3.38-.68-4.72.39-.26,2.18-1.22,2.52-1.21.38.01,1.09.43,1.48.56,17.94,5.79,36.74,8.82,55.09,13.01.61.14,1.55.69,2.13.34.34-.2.36-.47.16-.79-.46-.76-4.38-1.34-5.39-1.58-15.78-3.76-31.63-6.62-47.23-11.17-4.74-1.38-12.82-3.23-15.19-8.08-.54-1.1-.3-1.62.67-2.28.41-.28,4.4-1.91,4.67-1.87,3.59,1.46,7.39,2.32,11.11,3.37,10.29,2.91,20.61,5.69,30.91,8.59,5.45,1.53,10.89,2.89,16.36,4.33,2.48.65,4.95,1.58,7.47,2.07.47-.47-.39-.82-.77-.99-5.09-2.25-11.52-3.4-16.92-4.91-4.63-1.3-9.22-2.83-13.85-4.13-8.74-2.46-17.58-4.63-26.31-7.15-4.19-1.21-11.92-3.31-14.61-6.76-.67-.86-1.3-1.33-.37-2.27,1.5-1.53,3.89-1.14,5.83-.94,8.74.89,16.71,3.83,25.1,5.98,4.01,1.03,8.14,1.6,12.1,2.83,8.78,2.74,17.69,5.24,26.34,8.41,1.21.44,2.36,1.08,3.58,1.53,6.32,2.32,15.34,4.97,18.85,11.21,2.94,5.21,4.48,11.1,4.97,17.01.3,3.6-.23,6.22-.74,9.69-.54,3.7-1.01,7.97-1.89,11.57-.35,1.44-1.19,3.05-1.48,4.5-.19.96-.1,1.07.67,1.58,3.36,2.22,7.01,4.1,10.34,6.38,3.95,2.7,7.53,6.39,11.35,9.26.82.61,1.69,1.09,2.56,1.59.21.08.43-.05.51-.26.6-2.91.53-6.5,1.96-9.15,1.06-1.97,4.37-4.73,6.41-5.62,2.69-1.17,6.84-.87,9.52.22.79.32,1.51,1.03,2.5.74,1.9-1.02,3.68-2.24,5.59-3.23,2.98-1.55,6.2-2.7,9.18-4.27l-7.25,8.38Z"/>
            <path class="cls-2" d="M306.12,363.75c.53-1.68,3.17-3,4.82-2.52,4.61,1.34,2.28,8.42-2.35,7.3-2.07-.5-3.08-2.83-2.47-4.78Z"/>
          </g>
          <g>
            <path class="cls-2" d="M92.9,210.48l3.55-1.2c.91-.41,1.88-.74,2.63-1.41,2.24-1.98,2.4-4.62-.53-5.91.67-.3,1.39-.48,2.06-.77,1.82-.81,4.49-2.83,4.9-4.86.39-1.93-2.08-3.02-3.57-3.51,1.92-.7,3.75-1.68,4.96-3.41.56-.81.71-1.27.24-2.16-.65-1.22-1.91-1.93-3.29-1.78-1.89.21-3.99.16-6.01.41-6.51.82-12.88,2.47-19.34,3.61-11.3,2-22.58,5.23-33.53,8.65-3.06.96-8.29,2.99-10.69,5.04-4.86,4.16-7.55,14.2-7.28,20.47.05,1.08.31,2.2.42,3.27.33,3.08.6,6.54,1.25,9.56.21.99.72,1.97.93,2.98l-5.49-3.15c-5.76-2.92-13.26-4.46-19.71-4.3-4.37.11-8.97,2.37-12.69,4.51l-10.57-3.27c-.64.11-.81.67-.43,1.19,2.04,2.8,4.78,5.46,6.9,8.24.3,2.14,1.49,3.99,2.67,5.75,2.7,4,5.71,6.52,9.63,9.26,5.62,3.93,11.13,8.02,16.9,11.73,24.53,15.77,49.86,30.37,74.82,45.5,6.95,4.22,13.78,8.74,21.03,12.46,1.17.6,2.44,1.02,3.6,1.62,1.73.9,3.87,2.51,5.77,2.86.46.08,1.12-.1.76-.64-.26-.39-1.5-1.41-1.93-1.8-6.3-5.67-12.78-11.15-19.28-16.6-1.22-1.03-2.63-1.91-3.65-3.14,1.53.26,2.98.84,4.47,1.27,4.65,1.32,9.32,2.56,13.88,4.2,2.61.94,5.15,2.13,7.82,2.91.27.08.99.33,1.22.29.77-.14-.15-.78-.44-.98-.63-.43-1.39-.78-2.04-1.2-7.65-4.97-15.48-9.71-23.53-14.04-2.08-4.48-4.75-8.63-7.5-12.73-3.18-4.75-6.37-8.81-10.32-12.97-3.17-3.33-6.59-6.28-10.26-9.06.55-.07,1.14.13,1.72.12.83,0,1.61-.33,2.18-.93,1.68-1.78-.17-3.16-1.71-4.08l1.61-.06c2.18-.28,3.07-2.34,1.54-4.02-.64-.7-1.39-1.04-2.26-1.37,1.25-.26,2.17-.94,2.45-2.25.38-1.73-1.38-2.86-2.58-3.7,1.48-.54,2.61-1.75,1.96-3.4-.34-.86-.98-1.17-1.81-1.48.85-.24,1.58-.24,2.3-.84,2.01-1.67.45-3.89-1.66-4.36,1.7-.43,4.07-1.21,3.41-3.45-.39-1.32-1.6-1.83-2.82-2.18,1.03-.26,2.1-.34,2.95-1.04.9-.74,1.76-1.64,1.05-2.82l-.61-.83c1.47-.11,3.15-.56,4.38-1.45.93-.67,1.4-1.3,1.38-2.48-.02-1.3-.75-1.71-1.64-2.51,2.1-.42,5.75-1.15,6.8-3.27.56-1.13-.2-2.76-1.39-3.12,2.4-.59,6.66-1.6,6.87-4.66.03-.43-.32-1.4-.67-1.61l-1.77-1.04ZM-16.54,235.47c2.26,1.34,4.73,2.37,7,3.69,1.45.85,2.8,1.87,4.24,2.73.76.27,1.35-.26,1.98-.48,2.14-.74,5.39-.82,7.44.2,1.56.77,4.03,3.05,4.79,4.63,1.01,2.12.82,4.93,1.18,7.22.05.16.22.28.38.22.71-.36,1.4-.7,2.06-1.14,3.1-2.09,6.03-4.83,9.22-6.78,2.69-1.65,5.61-2.97,8.32-4.58.62-.37.7-.46.59-1.21-.17-1.14-.76-2.44-.98-3.57-.55-2.85-.75-6.2-1.02-9.1-.26-2.73-.57-4.8-.2-7.6.61-4.59,2.05-9.13,4.54-13.09,2.98-4.73,10.13-6.45,15.15-8.02.96-.3,1.89-.75,2.85-1.05,6.87-2.14,13.92-3.75,20.88-5.54,3.14-.81,6.39-1.1,9.56-1.74,6.64-1.36,12.97-3.34,19.82-3.7,1.53-.08,3.4-.29,4.51.96.69.77.18,1.11-.38,1.76-2.23,2.58-8.35,3.92-11.66,4.71-6.91,1.63-13.89,2.98-20.81,4.56-3.67.84-7.31,1.86-10.97,2.69-4.27.97-9.34,1.62-13.4,3.17-.3.12-.99.36-.64.74,1.98-.29,3.94-.92,5.91-1.33,4.32-.91,8.62-1.76,12.93-2.74,8.15-1.86,16.32-3.63,24.46-5.5,2.94-.68,5.94-1.19,8.8-2.2.21-.02,3.26,1.41,3.57,1.64.73.55.9.97.43,1.81-2.04,3.69-8.41,4.83-12.17,5.72-12.35,2.95-24.83,4.56-37.3,6.89-.79.15-3.88.45-4.27,1.02-.16.24-.16.45.1.62.44.3,1.2-.1,1.68-.18,14.49-2.56,29.28-4.2,43.5-8.02.31-.08.88-.38,1.18-.38.27,0,1.63.83,1.92,1.04,1.53,1.13.48,2.77-.72,3.66-.91.68-3.5,1.56-4.67,1.93-7.45,2.33-16.17,3.45-23.91,4.66-4.71.73-9.8,1.18-14.43,2.11-.46.09-1.67.34-1.84.78s.59.42.87.41c3.77-.15,8.14-1.15,11.93-1.7,8.38-1.22,16.81-2.18,24.99-4.42.15-.01.3-.05.45,0,.56.21,1.89.96,2.3,1.38.81.83-.06,1.97-.79,2.52-2.81,2.12-10.49,2.52-14.13,3.03-4.12.58-8.23,1.24-12.34,1.82-3.52.49-7.38.67-10.83,1.5-.12.03-.4.08-.48.13-.35.24-.28.64.13.76.28.08,1.5-.1,1.88-.15,5.78-.63,11.5-1.51,17.25-2.3,4.37-.6,8.75-1.18,13.13-1.71.4.69,1.61,1.59,1.21,2.43-.97,2.03-5.39,2.49-7.37,2.84-.79.14-1.57.35-2.36.48-7.68,1.21-15.49,1.18-23.22,1.88-.83.17-.96.92.02,1.06,2.06.29,5.08-.5,7.24-.33,5.53-.46,10.94-.67,16.43-1.52.43-.07,1.7-.44,2.01-.38.38.07.73.66,1.02.95.47.49.9.57.97,1.34.05.5-.14.92-.5,1.28-1.25,1.25-5.2,1.71-6.97,1.9-6.48.69-13.15.36-19.67.59-.45.04-1.14.03-.89.68.23.27,1.17.34,1.54.37.68.07,1.55.06,2.25.08,6,.14,12.21-.16,18.18-.66.46.14,1.46,1.12,1.18,1.59-.44.73-1.32,1.23-2.12,1.45-4.82,1.28-12.19.95-17.28.95-.46,0-2.63-.27-2.8.19-.08.21.17.39.35.45.59.21,2.28.34,2.97.37,4.62.26,9.57.04,14.16-.4.98.52,3.9,1.3,3.51,2.86-.29,1.14-3.63,1.57-4.63,1.67-4.62.48-9.21-.12-13.83,0-.37.01-.88-.06-1.03.35.12.46,3.78.79,4.38.82,3.79.21,7.72.22,11.5-.12,1.13.33,3.7,1.89,2.28,3.17-.92.83-4.68,1.03-5.98,1.02-3.13-.02-6.37-.42-9.51-.56-.79.12-.7.48,0,.75,1.91.74,8.63,1,10.88.93.41-.01,1.58-.23,1.86-.18.53.09,1.62.99,1.85,1.5.91,2-1.94,2.46-3.31,2.46-3.27,0-6.75-.7-10.01-1.01-.24,0-.47.09-.49.37.03.3,1.22.57,1.52.66,2.34.69,5.71.98,8.17,1.07.82.03,1.64.02,2.46-.1.67.79,2.76,2.21,2.27,3.41-.4.98-.98,1.18-1.96,1.26-3.44.25-6.82-1.33-10.11-2.14-.23-.05-.41.09-.43.33-.02.28.64.6.89.73,1.31.65,3.51,1.31,4.96,1.69,2,.52,3.76.29,5.59,1.42,1.24.77,2.6,2.84.4,3.37-1.71.41-6.56-.79-8.21-1.51-.41-.18-.76-.63-1.26-.44-.39.26-.06.63.22.84,1.07.8,2.63,1.24,3.91,1.57.65.17,2.33.38,2.78.66s1.83,1.64,2.1,2.08c.35.57.26.9-.19,1.39-1.09,1.19-3.66.41-4.98,0-2.24-1.84-4.59-3.54-6.94-5.23-.88-.63-1.72-1.32-2.6-1.95-3.18-1.85-6.4-4.45-9.71-6.05-.14-.07-.68-.27-.8-.25l-.25.37c0,.17.51.56.67.67,1.29.9,2.76,1.67,4.09,2.52,7.52,4.81,15.37,10.61,22,16.6,1.82,1.65,4.31,4,5.7,5.99,4.17,5.98,8.08,13.08,10.2,20.07.41,1.34,1.08,3.51,1.3,4.83.02.11.11.64,0,.67-2.29-.57-4.69-.69-6.98-1.27-5.08-1.28-10.08-3.35-15.01-5.11-4.06-1.45-8.9-2.77-12.72-4.64-4.58-2.24-9.03-5.7-13.6-8.05-11.48-7.23-23.23-14.06-34.29-21.92-3.41-2.42-6.85-4.75-10.3-7.11-5.01-3.43-8.97-8.19-11.37-13.72l-5.33-6.82Z"/>
            <path class="cls-2" d="M3.23,245.38c-.35-1.33-2.36-2.47-3.66-2.16-3.65.87-2.1,6.48,1.55,5.79,1.64-.31,2.52-2.09,2.11-3.63Z"/>
          </g>
        </g>
        <g>
          <path class="cls-2" d="M541.12-157.85l6.59-1.49c1.7-.56,3.5-.98,4.99-2.03,4.4-3.13,5.17-7.83.16-10.71,1.26-.42,2.59-.59,3.85-1,3.41-1.11,8.59-4.24,9.7-7.8,1.06-3.39-3.16-5.81-5.75-6.97,3.58-.9,7.05-2.3,9.53-5.18,1.17-1.35,1.51-2.15.83-3.83-.94-2.31-3.06-3.82-5.56-3.8-3.43.02-7.19-.47-10.86-.39-11.83.25-23.57,2.01-35.36,2.84-20.65,1.46-41.48,5.14-61.76,9.23-5.67,1.14-15.43,3.8-20.11,7.03-9.49,6.55-16.2,24.05-16.9,35.34-.12,1.94.14,4,.14,5.94,0,5.58-.15,11.85.45,17.37.2,1.82.92,3.67,1.1,5.52l-9.26-6.69c-9.79-6.32-22.95-10.48-34.54-11.41-7.85-.63-16.53,2.57-23.6,5.71l-18.35-7.85c-1.17.08-1.58,1.05-1,2.05,3.13,5.4,7.55,10.68,10.82,16.07.15,3.89,1.92,7.44,3.71,10.82,4.09,7.67,9.03,12.76,15.53,18.41,9.33,8.1,18.47,16.48,28.11,24.2,41.04,32.88,83.73,63.82,125.65,95.64,11.68,8.87,23.08,18.26,35.38,26.29,1.98,1.29,4.19,2.28,6.16,3.58,2.93,1.94,6.47,5.23,9.81,6.2.8.23,2.02.02,1.48-1.01-.39-.75-2.42-2.8-3.13-3.59-10.23-11.35-20.83-22.4-31.46-33.38-2-2.07-4.35-3.92-5.96-6.32,2.69.75,5.18,2.07,7.77,3.11,8.1,3.24,16.24,6.34,24.12,10.13,4.5,2.17,8.84,4.79,13.48,6.68.47.19,1.71.78,2.14.75,1.41-.11-.12-1.43-.6-1.84-1.05-.9-2.35-1.65-3.43-2.53-12.8-10.35-25.94-20.33-39.58-29.6-2.89-8.42-6.9-16.37-11.05-24.25-4.81-9.12-9.77-17-16.07-25.19-5.06-6.57-10.64-12.5-16.7-18.18,1.01-.03,2.02.45,3.06.54,1.49.14,2.95-.28,4.09-1.27,3.34-2.88.29-5.69-2.31-7.64l2.9.19c3.97-.1,5.95-3.63,3.52-6.93-1.01-1.37-2.3-2.12-3.79-2.87,2.3-.23,4.06-1.29,4.83-3.58,1.01-3.03-1.93-5.38-3.93-7.13,2.75-.7,5.01-2.66,4.15-5.73-.45-1.61-1.54-2.28-2.97-2.99,1.57-.27,2.88-.14,4.28-1.08,3.92-2.61,1.54-6.9-2.16-8.13,3.13-.45,7.53-1.4,6.77-5.56-.45-2.44-2.53-3.58-4.65-4.43,1.9-.27,3.82-.21,5.49-1.31,1.76-1.16,3.46-2.61,2.4-4.86l-.94-1.6c2.66.08,5.76-.42,8.12-1.77,1.79-1.03,2.76-2.07,2.94-4.19.2-2.34-1.03-3.2-2.47-4.81,3.84-.37,10.54-.98,12.8-4.59,1.21-1.93.16-4.99-1.91-5.86,4.41-.61,12.25-1.61,13.2-7.07.13-.77-.31-2.58-.9-3.02l-2.97-2.21ZM340.15-133.56c3.81,2.83,8.04,5.13,11.86,7.93,2.45,1.79,4.67,3.88,7.09,5.7,1.32.63,2.47-.21,3.64-.49,3.97-.93,9.82-.46,13.31,1.75,2.65,1.68,6.66,6.23,7.71,9.21,1.42,4,.54,8.99.75,13.16.06.3.34.54.65.47,1.33-.52,2.64-.99,3.92-1.67,5.95-3.16,11.73-7.53,17.81-10.44,5.13-2.46,10.62-4.28,15.78-6.65,1.19-.54,1.33-.69,1.28-2.06-.09-2.08-.91-4.51-1.09-6.59-.45-5.21-.18-11.26-.13-16.52.05-4.95-.13-8.72,1.07-13.66,1.96-8.12,5.38-15.99,10.6-22.62,6.24-7.92,19.37-9.67,28.67-11.53,1.79-.36,3.53-1,5.31-1.35,12.72-2.54,25.67-4.11,38.49-6.03,5.79-.87,11.66-.77,17.47-1.33,12.16-1.19,23.89-3.56,36.25-2.91,2.75.14,6.16.12,7.92,2.57,1.09,1.52.12,2.03-1,3.08-4.49,4.22-15.71,5.47-21.8,6.25-12.7,1.63-25.48,2.74-38.19,4.28-6.73.82-13.45,1.96-20.18,2.77-7.84.94-17.05,1.15-24.62,3.18-.57.15-1.85.46-1.29,1.21,3.61-.14,7.24-.9,10.84-1.27,7.93-.81,15.79-1.54,23.71-2.49,14.97-1.8,29.94-3.46,44.9-5.28,5.41-.66,10.88-1.03,16.2-2.29.38,0,5.59,3.14,6.1,3.62,1.21,1.13,1.43,1.9.44,3.32-4.35,6.24-15.99,7.08-22.9,7.98-22.71,2.97-45.39,3.52-68.18,5.35-1.45.12-7.04.08-7.85,1.03-.34.4-.37.78.06,1.14.74.62,2.16.05,3.05-.01,26.47-1.87,53.3-2.04,79.53-6.22.57-.09,1.65-.52,2.18-.45.48.06,2.77,1.79,3.25,2.23,2.54,2.31.35,5.05-1.97,6.43-1.77,1.05-6.58,2.15-8.73,2.58-13.8,2.79-29.64,3.15-43.76,3.86-8.58.43-17.79.27-26.28,1.08-.83.08-3.05.3-3.45,1.06-.41.79.99.86,1.48.9,6.79.43,14.82-.54,21.71-.82,15.25-.61,30.56-.75,45.65-3.24.27,0,.55-.03.8.1.97.48,3.2,2.07,3.86,2.91,1.29,1.64-.47,3.52-1.89,4.37-5.44,3.28-19.29,2.55-25.92,2.78-7.49.26-14.99.69-22.48.94-6.41.22-13.37-.18-19.71.66-.22.03-.74.06-.88.14-.67.36-.63,1.1.09,1.39.49.2,2.7.09,3.39.09,10.48-.05,20.91-.56,31.37-.89,7.96-.26,15.91-.47,23.88-.61.59,1.31,2.58,3.16,1.71,4.59-2.12,3.46-10.13,3.46-13.75,3.72-1.44.1-2.89.34-4.33.41-14,.73-28-.79-42-.98-1.52.14-1.9,1.47-.17,1.9,3.63.9,9.21.05,13.05.76,10,.21,19.74.85,29.76.37.78-.04,3.12-.47,3.67-.3.66.2,1.19,1.32,1.64,1.89.76.96,1.5,1.19,1.49,2.59,0,.9-.43,1.63-1.14,2.2-2.47,2-9.65,2.09-12.86,2.09-11.76.02-23.65-1.82-35.38-2.63-.81,0-2.06-.15-1.72,1.05.36.52,2.03.82,2.69.96,1.22.25,2.76.4,4.02.56,10.74,1.37,21.92,2.01,32.74,2.22.8.33,2.41,2.28,1.82,3.08-.92,1.23-2.6,1.97-4.08,2.2-8.88,1.39-22.04-.58-31.17-1.54-.83-.09-4.67-.98-5.06-.19-.18.37.23.73.54.88,1.02.49,4.02,1.03,5.25,1.23,8.24,1.33,17.16,1.87,25.48,1.94,1.66,1.12,6.76,3.07,5.76,5.79-.73,1.99-6.81,2.13-8.63,2.13-8.37-.01-16.5-1.94-24.8-2.58-.66-.05-1.57-.28-1.91.43.12.86,6.63,2.13,7.71,2.3,6.76,1.08,13.81,1.84,20.65,1.95,1.96.8,6.28,4.08,3.49,6.12-1.8,1.32-8.58.96-10.92.7-5.61-.62-11.35-1.96-16.95-2.78-1.44.06-1.34.72-.14,1.34,3.29,1.69,15.29,3.42,19.34,3.71.74.05,2.88-.11,3.36.03.93.26,2.72,2.07,3.04,3.03,1.25,3.76-3.94,4.06-6.4,3.8-5.86-.62-11.97-2.52-17.76-3.7-.44-.03-.85.08-.94.57,0,.55,2.08,1.25,2.6,1.47,4.07,1.67,10.06,2.82,14.46,3.45,1.47.21,2.93.34,4.42.29,1.05,1.53,4.54,4.48,3.43,6.54-.91,1.68-1.97,1.94-3.75,1.88-6.22-.2-11.99-3.67-17.73-5.74-.41-.13-.75.09-.83.51-.09.51,1.04,1.21,1.46,1.47,2.23,1.42,6.05,3.01,8.57,3.96,3.49,1.31,6.68,1.22,9.76,3.6,2.09,1.61,4.13,5.59.08,6.12-3.14.41-11.61-2.66-14.44-4.25-.71-.4-1.25-1.28-2.18-1.03-.75.39-.22,1.13.23,1.54,1.76,1.64,4.48,2.71,6.71,3.56,1.13.43,4.11,1.13,4.86,1.7s2.98,3.28,3.38,4.12c.52,1.08.29,1.67-.61,2.47-2.18,1.93-6.64.05-8.92-.94-3.67-3.73-7.58-7.21-11.47-10.69-1.45-1.3-2.84-2.69-4.3-3.98-5.36-3.92-10.65-9.19-16.27-12.67-.24-.15-1.17-.62-1.38-.59l-.52.61c-.02.3.81,1.1,1.08,1.33,2.14,1.85,4.64,3.52,6.86,5.29,12.59,10.04,25.57,21.91,36.35,33.9,2.96,3.29,6.98,7.99,9.1,11.82C514.38-26.4,520.06-12.93,522.55,0c.48,2.47,1.29,6.49,1.43,8.9.01.2.09,1.16-.11,1.2-4.01-1.45-8.28-2.11-12.29-3.58-8.88-3.25-17.44-7.89-25.96-11.98-7-3.36-15.44-6.64-21.95-10.71-7.79-4.87-15.12-11.91-22.89-16.98-19.23-15.12-39.03-29.58-57.39-45.76-5.66-4.98-11.4-9.8-17.14-14.68-8.34-7.09-14.55-16.37-17.82-26.74l-8.28-13.23Z"/>
          <path class="cls-2" d="M392.57,34.65c-.46.24-.97,1.46-.96,2.02.07,3.93,5.46,5.49,8.48,6.39-1.54.38-2.62,2.42-1.98,3.9,1.2,2.77,5.83,3.93,8.48,4.61-1.19.97-2.14,1.44-2.26,3.1-.1,1.51.46,2.35,1.61,3.26,1.51,1.21,3.63,1.89,5.5,2.13l-.84,1.02c-.98,1.46.05,2.67,1.16,3.67,1.05.95,2.41,1.12,3.71,1.51-1.58.37-3.16.94-3.74,2.6-.98,2.83,1.99,3.98,4.14,4.63-2.72.46-4.86,3.21-2.4,5.46.88.81,1.82.86,2.89,1.22-1.08.35-1.92.7-2.41,1.78-.93,2.06.44,3.68,2.29,4.47-1.59,1.01-3.91,2.34-3.53,4.57.29,1.69,1.41,2.62,2.99,3.04-1.13.37-2.11.75-2.97,1.6-2.06,2.05-1.06,4.74,1.72,5.24l2.05.18c-2.03,1.09-4.48,2.72-2.45,5.11.69.81,1.67,1.27,2.73,1.33.74.05,1.5-.18,2.21-.05-4.86,3.33-9.42,6.87-13.68,10.93-5.31,5.06-9.65,10.05-14.01,15.92-3.77,5.07-7.45,10.21-10.39,15.8-10.57,5.02-20.87,10.58-30.97,16.45-.86.5-1.85.89-2.68,1.4-.38.23-1.6.99-.62,1.22.29.07,1.23-.21,1.58-.29,3.46-.82,6.78-2.18,10.18-3.22,5.93-1.81,11.98-3.09,18.01-4.49,1.93-.45,3.82-1.1,5.79-1.34-1.39,1.51-3.24,2.55-4.87,3.78-8.65,6.55-17.28,13.14-25.69,19.99-.58.47-2.23,1.69-2.59,2.18-.49.67.34.95.93.87,2.45-.32,5.29-2.24,7.55-3.28,1.52-.7,3.17-1.15,4.71-1.84,9.5-4.29,18.51-9.64,27.67-14.59,32.85-17.76,66.15-34.81,98.51-53.41,7.6-4.37,14.92-9.25,22.34-13.92,5.17-3.25,9.19-6.28,12.89-11.22,1.63-2.17,3.26-4.47,3.78-7.18,2.88-3.42,6.56-6.64,9.34-10.09.52-.64.33-1.36-.48-1.55l-13.72,3.51c-4.62-2.97-10.35-6.16-15.93-6.57-8.23-.61-17.91.88-25.46,4.25l-7.22,3.68c.33-1.28,1.04-2.49,1.37-3.75,1.02-3.81,1.59-8.22,2.21-12.13.21-1.36.62-2.78.74-4.15.74-8-2.06-20.99-8.01-26.62-2.93-2.77-9.49-5.7-13.34-7.12-13.77-5.07-27.98-9.91-42.3-13.18-8.18-1.87-16.22-4.37-24.49-5.84-2.56-.45-5.25-.52-7.65-.91-1.75-.28-3.4.54-4.31,2.06-.66,1.1-.51,1.7.16,2.78,1.43,2.29,3.71,3.65,6.12,4.67-1.94.53-5.16,1.77-4.79,4.26.39,2.62,3.68,5.38,5.95,6.53.84.42,1.75.69,2.59,1.12-3.83,1.47-3.79,4.85-1.05,7.53.93.9,2.14,1.39,3.28,1.97l4.46,1.76-2.32,1.22ZM525.93,80.69c-3.42,6.92-8.78,12.75-15.4,16.81-4.56,2.8-9.11,5.55-13.62,8.43-14.64,9.34-30.09,17.33-45.22,25.85-5.99,2.71-11.9,6.85-17.89,9.42-5,2.15-11.28,3.53-16.56,5.12-6.42,1.94-12.93,4.27-19.51,5.58-2.97.59-6.04.59-9.01,1.18-.13-.05.02-.71.05-.85.36-1.67,1.37-4.4,1.97-6.09,3.15-8.79,8.6-17.63,14.31-25,1.9-2.45,5.23-5.31,7.67-7.3,8.86-7.24,19.25-14.15,29.17-19.82,1.75-1,3.68-1.9,5.38-2.96.21-.13.88-.61.9-.82l-.3-.49c-.15-.04-.85.19-1.03.26-4.32,1.83-8.6,4.95-12.79,7.12-1.17.75-2.29,1.57-3.45,2.32-3.11,2.02-6.23,4.03-9.21,6.25-1.71.45-5.04,1.28-6.36-.31-.55-.66-.64-1.09-.16-1.8.37-.55,2.25-2.21,2.82-2.52.59-.32,2.76-.49,3.59-.66,1.66-.35,3.68-.8,5.1-1.76.36-.24.82-.7.33-1.06-.62-.28-1.1.28-1.64.48-2.16.81-8.43,2.04-10.59,1.41-2.78-.81-.91-3.38.73-4.28,2.42-1.33,4.64-.92,7.23-1.46,1.87-.39,4.72-1.09,6.44-1.85.32-.14,1.19-.51,1.18-.87,0-.3-.22-.49-.52-.45-4.25.83-8.67,2.64-13.05,2.1-1.25-.15-1.97-.45-2.43-1.73-.55-1.56,2.21-3.25,3.12-4.21,1.04.2,2.08.26,3.13.28,3.15.04,7.48-.11,10.52-.84.39-.09,1.92-.36,1.98-.75-.01-.35-.29-.48-.6-.5-4.19.19-8.68.86-12.86.66-1.75-.09-5.36-.86-4.08-3.36.33-.64,1.78-1.71,2.46-1.79.35-.04,1.84.3,2.36.35,2.87.24,11.47.33,13.96-.5.91-.3,1.05-.76.05-.96-4.02-.03-8.19.28-12.19.11-1.67-.07-6.46-.56-7.58-1.68-1.73-1.74,1.65-3.56,3.11-3.91,4.81.67,9.84.9,14.69.88.78,0,5.48-.19,5.66-.77-.16-.53-.82-.47-1.29-.51-5.89-.45-11.8.01-17.67-.89-1.27-.2-5.52-.96-5.82-2.43-.4-2.02,3.38-2.83,4.67-3.44,5.84.86,12.15,1.45,18.08,1.41.89,0,3.05-.06,3.82-.29.24-.07.56-.28.48-.56-.19-.6-2.98-.39-3.57-.42-6.51-.32-15.95-.36-22.03-2.31-1.01-.32-2.11-1.02-2.62-1.98-.33-.62,1.01-1.81,1.61-1.96,7.61,1.02,15.52,1.8,23.2,2,.9.02,2,.09,2.88.04.48-.02,1.68-.05,1.99-.38.37-.81-.53-.84-1.09-.92-8.31-.71-16.85-.71-25.1-2-2.24-.35-7.27-1.19-8.79-2.86-.43-.48-.65-1.04-.56-1.67.14-.99.69-1.06,1.33-1.66.38-.35.87-1.08,1.36-1.14.4-.06,2,.5,2.54.61,6.97,1.43,13.87,2.04,20.91,2.98,2.77-.08,6.59,1.12,9.23.89,1.26-.11,1.14-1.09.09-1.35-9.84-1.38-19.82-1.84-29.56-3.88-1-.21-1.99-.53-2.99-.76-2.51-.57-8.13-1.45-9.24-4.1-.46-1.1,1.14-2.18,1.69-3.03,5.57.96,11.12,1.98,16.68,3.02,7.3,1.37,14.56,2.86,21.9,4.04.48.08,2.02.39,2.39.31.53-.13.64-.64.21-.97-.09-.07-.45-.15-.6-.19-4.35-1.28-9.27-1.75-13.75-2.61-5.22-.99-10.43-2.1-15.66-3.1-4.63-.89-14.41-1.88-17.87-4.77-.9-.75-1.93-2.26-.85-3.27.55-.52,2.29-1.39,3.03-1.62.19-.06.38,0,.57.02,10.31,3.39,21.03,5.15,31.66,7.24,4.8.94,10.32,2.5,15.13,2.93.35.03,1.34.13,1.14-.47s-1.73-.97-2.3-1.12c-5.87-1.49-12.34-2.38-18.31-3.62-9.82-2.03-20.89-4.01-30.27-7.47-1.46-.54-4.72-1.83-5.84-2.76-1.48-1.22-2.72-3.38-.68-4.72.39-.26,2.18-1.22,2.52-1.21.38.01,1.09.43,1.48.56,17.94,5.79,36.74,8.82,55.09,13.01.61.14,1.55.69,2.13.34.34-.2.36-.47.16-.79-.46-.76-4.38-1.34-5.39-1.58-15.78-3.76-31.63-6.62-47.23-11.17-4.74-1.38-12.82-3.23-15.19-8.08-.54-1.1-.3-1.62.67-2.28.41-.28,4.4-1.91,4.67-1.87,3.59,1.46,7.39,2.32,11.11,3.37,10.29,2.91,20.61,5.69,30.91,8.59,5.45,1.53,10.89,2.89,16.36,4.33,2.48.65,4.95,1.58,7.47,2.07.47-.47-.39-.82-.77-.99-5.09-2.25-11.52-3.4-16.92-4.91-4.63-1.3-9.22-2.83-13.85-4.13-8.74-2.46-17.58-4.63-26.31-7.15-4.19-1.21-11.92-3.31-14.61-6.76-.67-.86-1.3-1.33-.37-2.27,1.5-1.53,3.89-1.14,5.83-.94,8.74.89,16.71,3.83,25.1,5.98,4.01,1.03,8.14,1.6,12.1,2.83,8.78,2.74,17.69,5.24,26.34,8.41,1.21.44,2.36,1.08,3.58,1.53,6.32,2.32,15.34,4.97,18.85,11.21,2.94,5.21,4.48,11.1,4.97,17.01.3,3.6-.23,6.22-.74,9.69-.54,3.7-1.01,7.97-1.89,11.57-.35,1.44-1.19,3.05-1.48,4.5-.19.96-.1,1.07.67,1.58,3.36,2.22,7.01,4.1,10.34,6.38,3.95,2.7,7.53,6.39,11.35,9.26.82.61,1.69,1.09,2.56,1.59.21.08.43-.05.51-.26.6-2.91.53-6.5,1.96-9.15,1.06-1.97,4.37-4.73,6.41-5.62,2.69-1.17,6.84-.87,9.52.22.79.32,1.51,1.03,2.5.74,1.9-1.02,3.68-2.24,5.59-3.23,2.98-1.55,6.2-2.7,9.18-4.27l-7.25,8.38Z"/>
          <path class="cls-2" d="M294.08-69.56l3.55-1.2c.91-.41,1.88-.74,2.63-1.41,2.24-1.98,2.4-4.62-.53-5.91.67-.3,1.39-.48,2.06-.77,1.82-.81,4.49-2.83,4.9-4.86.39-1.93-2.08-3.02-3.57-3.51,1.92-.7,3.75-1.68,4.96-3.41.56-.81.71-1.27.24-2.16-.65-1.22-1.91-1.93-3.29-1.78-1.89.21-3.99.16-6.01.41-6.51.82-12.88,2.47-19.34,3.61-11.3,2-22.58,5.23-33.53,8.65-3.06.96-8.29,2.99-10.69,5.04-4.86,4.16-7.55,14.2-7.28,20.47.05,1.08.31,2.2.42,3.27.33,3.08.6,6.54,1.25,9.56.21.99.72,1.97.93,2.98l-5.49-3.15c-5.76-2.92-13.26-4.46-19.71-4.3-4.37.11-8.97,2.37-12.69,4.51l-10.57-3.27c-.64.11-.81.67-.43,1.19,2.04,2.8,4.78,5.46,6.9,8.24.3,2.14,1.49,3.99,2.67,5.75,2.7,4,5.71,6.52,9.63,9.26,5.62,3.93,11.13,8.02,16.9,11.73,24.53,15.77,49.86,30.37,74.82,45.5,6.95,4.22,13.78,8.74,21.03,12.46,1.17.6,2.44,1.02,3.6,1.62,1.73.9,3.87,2.51,5.77,2.86.46.08,1.12-.1.76-.64-.26-.39-1.5-1.41-1.93-1.8-6.3-5.67-12.78-11.15-19.28-16.6-1.22-1.03-2.63-1.91-3.65-3.14,1.53.26,2.98.84,4.47,1.27,4.65,1.32,9.32,2.56,13.88,4.2,2.61.94,5.15,2.13,7.82,2.91.27.08.99.33,1.22.29.77-.14-.15-.78-.44-.98-.63-.43-1.39-.78-2.04-1.2-7.65-4.97-15.48-9.71-23.53-14.04-2.08-4.48-4.75-8.63-7.5-12.73-3.18-4.75-6.37-8.81-10.32-12.97-3.17-3.33-6.59-6.28-10.26-9.06.55-.07,1.14.13,1.72.12.83,0,1.61-.33,2.18-.93,1.68-1.78-.17-3.16-1.71-4.08l1.61-.06c2.18-.28,3.07-2.34,1.54-4.02-.64-.7-1.39-1.04-2.26-1.37,1.25-.26,2.17-.94,2.45-2.25.38-1.73-1.38-2.86-2.58-3.7,1.48-.54,2.61-1.75,1.96-3.4-.34-.86-.98-1.17-1.81-1.48.85-.24,1.58-.24,2.3-.84,2.01-1.67.45-3.89-1.66-4.36,1.7-.43,4.07-1.21,3.41-3.45-.39-1.32-1.6-1.83-2.82-2.18,1.03-.26,2.1-.34,2.95-1.04.9-.74,1.76-1.64,1.05-2.82l-.61-.83c1.47-.11,3.15-.56,4.38-1.45.93-.67,1.4-1.3,1.38-2.48-.02-1.3-.75-1.71-1.64-2.51,2.1-.42,5.75-1.15,6.8-3.27.56-1.13-.2-2.76-1.39-3.12,2.4-.59,6.66-1.6,6.87-4.66.03-.43-.32-1.4-.67-1.61l-1.77-1.04ZM184.64-44.57c2.26,1.34,4.73,2.37,7,3.69,1.45.85,2.8,1.87,4.24,2.73.76.27,1.35-.26,1.98-.48,2.14-.74,5.39-.82,7.44.2,1.56.77,4.03,3.05,4.79,4.63,1.01,2.12.82,4.93,1.18,7.22.05.16.22.28.38.22.71-.36,1.4-.7,2.06-1.14,3.1-2.09,6.03-4.83,9.22-6.78,2.69-1.65,5.61-2.97,8.32-4.58.62-.37.7-.46.59-1.21-.17-1.14-.76-2.44-.98-3.57-.55-2.85-.75-6.2-1.02-9.1-.26-2.73-.57-4.8-.2-7.6.61-4.59,2.05-9.13,4.54-13.09,2.98-4.73,10.13-6.45,15.15-8.02.96-.3,1.89-.75,2.85-1.05,6.87-2.14,13.92-3.75,20.88-5.54,3.14-.81,6.39-1.1,9.56-1.74,6.64-1.36,12.97-3.34,19.82-3.7,1.53-.08,3.4-.29,4.51.96.69.77.18,1.11-.38,1.76-2.23,2.58-8.35,3.92-11.66,4.71-6.91,1.63-13.89,2.98-20.81,4.56-3.67.84-7.31,1.86-10.97,2.69-4.27.97-9.34,1.62-13.4,3.17-.3.12-.99.36-.64.74,1.98-.29,3.94-.92,5.91-1.33,4.32-.91,8.62-1.76,12.93-2.74,8.15-1.86,16.32-3.63,24.46-5.5,2.94-.68,5.94-1.19,8.8-2.2.21-.02,3.26,1.41,3.57,1.64.73.55.9.97.43,1.81-2.04,3.69-8.41,4.83-12.17,5.72-12.35,2.95-24.83,4.56-37.3,6.89-.79.15-3.88.45-4.27,1.02-.16.24-.16.45.1.62.44.3,1.2-.1,1.68-.18,14.49-2.56,29.28-4.2,43.5-8.02.31-.08.88-.38,1.18-.38.27,0,1.63.83,1.92,1.04,1.53,1.13.48,2.77-.72,3.66-.91.68-3.5,1.56-4.67,1.93-7.45,2.33-16.17,3.45-23.91,4.66-4.71.73-9.8,1.18-14.43,2.11-.46.09-1.67.34-1.84.78s.59.42.87.41c3.77-.15,8.14-1.15,11.93-1.7,8.38-1.22,16.81-2.18,24.99-4.42.15-.01.3-.05.45,0,.56.21,1.89.96,2.3,1.38.81.83-.06,1.97-.79,2.52-2.81,2.12-10.49,2.52-14.13,3.03-4.12.58-8.23,1.24-12.34,1.82-3.52.49-7.38.67-10.83,1.5-.12.03-.4.08-.48.13-.35.24-.28.64.13.76.28.08,1.5-.1,1.88-.15,5.78-.63,11.5-1.51,17.25-2.3,4.37-.6,8.75-1.18,13.13-1.71.4.69,1.61,1.59,1.21,2.43-.97,2.03-5.39,2.49-7.37,2.84-.79.14-1.57.35-2.36.48-7.68,1.21-15.49,1.18-23.22,1.88-.83.17-.96.92.02,1.06,2.06.29,5.08-.5,7.24-.33,5.53-.46,10.94-.67,16.43-1.52.43-.07,1.7-.44,2.01-.38.38.07.73.66,1.02.95.47.49.9.57.97,1.34.05.5-.14.92-.5,1.28-1.25,1.25-5.2,1.71-6.97,1.9-6.48.69-13.15.36-19.67.59-.45.04-1.14.03-.89.68.23.27,1.17.34,1.54.37.68.07,1.55.06,2.25.08,6,.14,12.21-.16,18.18-.66.46.14,1.46,1.12,1.18,1.59-.44.73-1.32,1.23-2.12,1.45-4.82,1.28-12.19.95-17.28.95-.46,0-2.63-.27-2.8.19-.08.21.17.39.35.45.59.21,2.28.34,2.97.37,4.62.26,9.57.04,14.16-.4.98.52,3.9,1.3,3.51,2.86-.29,1.14-3.63,1.57-4.63,1.67-4.62.48-9.21-.12-13.83,0-.37.01-.88-.06-1.03.35.12.46,3.78.79,4.38.82,3.79.21,7.72.22,11.5-.12,1.13.33,3.7,1.89,2.28,3.17-.92.83-4.68,1.03-5.98,1.02-3.13-.02-6.37-.42-9.51-.56-.79.12-.7.48,0,.75,1.91.74,8.63,1,10.88.93.41-.01,1.58-.23,1.86-.18.53.09,1.62.99,1.85,1.5.91,2-1.94,2.46-3.31,2.46-3.27,0-6.75-.7-10.01-1.01-.24,0-.47.09-.49.37.03.3,1.22.57,1.52.66,2.34.69,5.71.98,8.17,1.07.82.03,1.64.02,2.46-.1.67.79,2.76,2.21,2.27,3.41-.4.98-.98,1.18-1.96,1.26-3.44.25-6.82-1.33-10.11-2.14-.23-.05-.41.09-.43.33-.02.28.64.6.89.73,1.31.65,3.51,1.31,4.96,1.69,2,.52,3.76.29,5.59,1.42,1.24.77,2.6,2.84.4,3.37-1.71.41-6.56-.79-8.21-1.51-.41-.18-.76-.63-1.26-.44-.39.26-.06.63.22.84,1.07.8,2.63,1.24,3.91,1.57.65.17,2.33.38,2.78.66s1.83,1.64,2.1,2.08c.35.57.26.9-.19,1.39-1.09,1.19-3.66.41-4.98,0-2.24-1.84-4.59-3.54-6.94-5.23-.88-.63-1.72-1.32-2.6-1.95-3.18-1.85-6.4-4.45-9.71-6.05-.14-.07-.68-.27-.8-.25l-.25.37c0,.17.51.56.67.67,1.29.9,2.76,1.67,4.09,2.52,7.52,4.81,15.37,10.61,22,16.6,1.82,1.65,4.31,4,5.7,5.99,4.17,5.98,8.08,13.08,10.2,20.07.41,1.34,1.08,3.51,1.3,4.83.02.11.11.64,0,.67-2.29-.57-4.69-.69-6.98-1.27-5.08-1.28-10.08-3.35-15.01-5.11-4.06-1.45-8.9-2.77-12.72-4.64-4.58-2.24-9.03-5.7-13.6-8.05-11.48-7.23-23.23-14.06-34.29-21.92-3.41-2.42-6.85-4.75-10.3-7.11-5.01-3.43-8.97-8.19-11.37-13.72l-5.33-6.82Z"/>
        </g>
        <g>
          <path class="cls-2" d="M138.77-157.85l6.59-1.49c1.7-.56,3.5-.98,4.99-2.03,4.4-3.13,5.17-7.83.16-10.71,1.26-.42,2.59-.59,3.85-1,3.41-1.11,8.59-4.24,9.7-7.8,1.06-3.39-3.16-5.81-5.75-6.97,3.58-.9,7.05-2.3,9.53-5.18,1.17-1.35,1.51-2.15.83-3.83-.94-2.31-3.06-3.82-5.56-3.8-3.43.02-7.19-.47-10.86-.39-11.83.25-23.57,2.01-35.36,2.84-20.65,1.46-41.48,5.14-61.76,9.23-5.67,1.14-15.43,3.8-20.11,7.03-9.49,6.55-16.2,24.05-16.9,35.34-.12,1.94.14,4,.14,5.94,0,5.58-.15,11.85.45,17.37.2,1.82.92,3.67,1.1,5.52l-9.26-6.69c-9.79-6.32-22.95-10.48-34.54-11.41-7.85-.63-16.53,2.57-23.6,5.71l-18.35-7.85c-1.17.08-1.58,1.05-1,2.05,3.13,5.4,7.55,10.68,10.82,16.07.15,3.89,1.92,7.44,3.71,10.82,4.09,7.67,9.03,12.76,15.53,18.41,9.33,8.1,18.47,16.48,28.11,24.2C32.26-33.58,74.96-2.64,116.87,29.18c11.68,8.87,23.08,18.26,35.38,26.29,1.98,1.29,4.19,2.28,6.16,3.58,2.93,1.94,6.47,5.23,9.81,6.2.8.23,2.02.02,1.48-1.01-.39-.75-2.42-2.8-3.13-3.59-10.23-11.35-20.83-22.4-31.46-33.38-2-2.07-4.35-3.92-5.96-6.32,2.69.75,5.18,2.07,7.77,3.11,8.1,3.24,16.24,6.34,24.12,10.13,4.5,2.17,8.84,4.79,13.48,6.68.47.19,1.71.78,2.14.75,1.41-.11-.12-1.43-.6-1.84-1.05-.9-2.35-1.65-3.43-2.53-12.8-10.35-25.94-20.33-39.58-29.6-2.89-8.42-6.9-16.37-11.05-24.25-4.81-9.12-9.77-17-16.07-25.19-5.06-6.57-10.64-12.5-16.7-18.18,1.01-.03,2.02.45,3.06.54,1.49.14,2.95-.28,4.09-1.27,3.34-2.88.29-5.69-2.31-7.64l2.9.19c3.97-.1,5.95-3.63,3.52-6.93-1.01-1.37-2.3-2.12-3.79-2.87,2.3-.23,4.06-1.29,4.83-3.58,1.01-3.03-1.93-5.38-3.93-7.13,2.75-.7,5.01-2.66,4.15-5.73-.45-1.61-1.54-2.28-2.97-2.99,1.57-.27,2.88-.14,4.28-1.08,3.92-2.61,1.54-6.9-2.16-8.13,3.13-.45,7.53-1.4,6.77-5.56-.45-2.44-2.53-3.58-4.65-4.43,1.9-.27,3.82-.21,5.49-1.31,1.76-1.16,3.46-2.61,2.4-4.86l-.94-1.6c2.66.08,5.76-.42,8.12-1.77,1.79-1.03,2.76-2.07,2.94-4.19.2-2.34-1.03-3.2-2.47-4.81,3.84-.37,10.54-.98,12.8-4.59,1.21-1.93.16-4.99-1.91-5.86,4.41-.61,12.25-1.61,13.2-7.07.13-.77-.31-2.58-.9-3.02l-2.97-2.21ZM-62.2-133.56c3.81,2.83,8.04,5.13,11.86,7.93,2.45,1.79,4.67,3.88,7.09,5.7,1.32.63,2.47-.21,3.64-.49,3.97-.93,9.82-.46,13.31,1.75,2.65,1.68,6.66,6.23,7.71,9.21,1.42,4,.54,8.99.75,13.16.06.3.34.54.65.47,1.33-.52,2.64-.99,3.92-1.67,5.95-3.16,11.73-7.53,17.81-10.44,5.13-2.46,10.62-4.28,15.78-6.65,1.19-.54,1.33-.69,1.28-2.06-.09-2.08-.91-4.51-1.09-6.59-.45-5.21-.18-11.26-.13-16.52.05-4.95-.13-8.72,1.07-13.66,1.96-8.12,5.38-15.99,10.6-22.62,6.24-7.92,19.37-9.67,28.67-11.53,1.79-.36,3.53-1,5.31-1.35,12.72-2.54,25.67-4.11,38.49-6.03,5.79-.87,11.66-.77,17.47-1.33,12.16-1.19,23.89-3.56,36.25-2.91,2.75.14,6.16.12,7.92,2.57,1.09,1.52.12,2.03-1,3.08-4.49,4.22-15.71,5.47-21.8,6.25-12.7,1.63-25.48,2.74-38.19,4.28-6.73.82-13.45,1.96-20.18,2.77-7.84.94-17.05,1.15-24.62,3.18-.57.15-1.85.46-1.29,1.21,3.61-.14,7.24-.9,10.84-1.27,7.93-.81,15.79-1.54,23.71-2.49,14.97-1.8,29.94-3.46,44.9-5.28,5.41-.66,10.88-1.03,16.2-2.29.38,0,5.59,3.14,6.1,3.62,1.21,1.13,1.43,1.9.44,3.32-4.35,6.24-15.99,7.08-22.9,7.98-22.71,2.97-45.39,3.52-68.18,5.35-1.45.12-7.04.08-7.85,1.03-.34.4-.37.78.06,1.14.74.62,2.16.05,3.05-.01,26.47-1.87,53.3-2.04,79.53-6.22.57-.09,1.65-.52,2.18-.45.48.06,2.77,1.79,3.25,2.23,2.54,2.31.35,5.05-1.97,6.43-1.77,1.05-6.58,2.15-8.73,2.58-13.8,2.79-29.64,3.15-43.76,3.86-8.58.43-17.79.27-26.28,1.08-.83.08-3.05.3-3.45,1.06-.41.79.99.86,1.48.9,6.79.43,14.82-.54,21.71-.82,15.25-.61,30.56-.75,45.65-3.24.27,0,.55-.03.8.1.97.48,3.2,2.07,3.86,2.91,1.29,1.64-.47,3.52-1.89,4.37-5.44,3.28-19.29,2.55-25.92,2.78-7.49.26-14.99.69-22.48.94-6.41.22-13.37-.18-19.71.66-.22.03-.74.06-.88.14-.67.36-.63,1.1.09,1.39.49.2,2.7.09,3.39.09,10.48-.05,20.91-.56,31.37-.89,7.96-.26,15.91-.47,23.88-.61.59,1.31,2.58,3.16,1.71,4.59-2.12,3.46-10.13,3.46-13.75,3.72-1.44.1-2.89.34-4.33.41-14,.73-28-.79-42-.98-1.52.14-1.9,1.47-.17,1.9,3.63.9,9.21.05,13.05.76,10,.21,19.74.85,29.76.37.78-.04,3.12-.47,3.67-.3.66.2,1.19,1.32,1.64,1.89.76.96,1.5,1.19,1.49,2.59,0,.9-.43,1.63-1.14,2.2-2.47,2-9.65,2.09-12.86,2.09-11.76.02-23.65-1.82-35.38-2.63-.81,0-2.06-.15-1.72,1.05.36.52,2.03.82,2.69.96,1.22.25,2.76.4,4.02.56,10.74,1.37,21.92,2.01,32.74,2.22.8.33,2.41,2.28,1.82,3.08-.92,1.23-2.6,1.97-4.08,2.2-8.88,1.39-22.04-.58-31.17-1.54-.83-.09-4.67-.98-5.06-.19-.18.37.23.73.54.88,1.02.49,4.02,1.03,5.25,1.23,8.24,1.33,17.16,1.87,25.48,1.94,1.66,1.12,6.76,3.07,5.76,5.79-.73,1.99-6.81,2.13-8.63,2.13-8.37-.01-16.5-1.94-24.8-2.58-.66-.05-1.57-.28-1.91.43.12.86,6.63,2.13,7.71,2.3,6.76,1.08,13.81,1.84,20.65,1.95,1.96.8,6.28,4.08,3.49,6.12-1.8,1.32-8.58.96-10.92.7-5.61-.62-11.35-1.96-16.95-2.78-1.44.06-1.34.72-.14,1.34,3.29,1.69,15.29,3.42,19.34,3.71.74.05,2.88-.11,3.36.03.93.26,2.72,2.07,3.04,3.03,1.25,3.76-3.94,4.06-6.4,3.8-5.86-.62-11.97-2.52-17.76-3.7-.44-.03-.85.08-.94.57,0,.55,2.08,1.25,2.6,1.47,4.07,1.67,10.06,2.82,14.46,3.45,1.47.21,2.93.34,4.42.29,1.05,1.53,4.54,4.48,3.43,6.54-.91,1.68-1.97,1.94-3.75,1.88-6.22-.2-11.99-3.67-17.73-5.74-.41-.13-.75.09-.83.51-.09.51,1.04,1.21,1.46,1.47,2.23,1.42,6.05,3.01,8.57,3.96,3.49,1.31,6.68,1.22,9.76,3.6,2.09,1.61,4.13,5.59.08,6.12-3.14.41-11.61-2.66-14.44-4.25-.71-.4-1.25-1.28-2.18-1.03-.75.39-.22,1.13.23,1.54,1.76,1.64,4.48,2.71,6.71,3.56,1.13.43,4.11,1.13,4.86,1.7s2.98,3.28,3.38,4.12c.52,1.08.29,1.67-.61,2.47-2.18,1.93-6.64.05-8.92-.94-3.67-3.73-7.58-7.21-11.47-10.69-1.45-1.3-2.84-2.69-4.3-3.98-5.36-3.92-10.65-9.19-16.27-12.67-.24-.15-1.17-.62-1.38-.59l-.52.61c-.02.3.81,1.1,1.08,1.33,2.14,1.85,4.64,3.52,6.86,5.29,12.59,10.04,25.57,21.91,36.35,33.9,2.96,3.29,6.98,7.99,9.1,11.82C112.03-26.4,117.71-12.93,120.2,0c.48,2.47,1.29,6.49,1.43,8.9.01.2.09,1.16-.11,1.2-4.01-1.45-8.28-2.11-12.29-3.58-8.88-3.25-17.44-7.89-25.96-11.98-7-3.36-15.44-6.64-21.95-10.71-7.79-4.87-15.12-11.91-22.89-16.98C19.2-48.27-.59-62.74-18.96-78.91c-5.66-4.98-11.4-9.8-17.14-14.68-8.34-7.09-14.55-16.37-17.82-26.74l-8.28-13.23Z"/>
          <g>
            <path class="cls-2" d="M-9.78,34.65c-.46.24-.97,1.46-.96,2.02.07,3.93,5.46,5.49,8.48,6.39-1.54.38-2.62,2.42-1.98,3.9,1.2,2.77,5.83,3.93,8.48,4.61-1.19.97-2.14,1.44-2.26,3.1-.1,1.51.46,2.35,1.61,3.26,1.51,1.21,3.63,1.89,5.5,2.13l-.84,1.02c-.98,1.46.05,2.67,1.16,3.67,1.05.95,2.41,1.12,3.71,1.51-1.58.37-3.16.94-3.74,2.6-.98,2.83,1.99,3.98,4.14,4.63-2.72.46-4.86,3.21-2.4,5.46.88.81,1.82.86,2.89,1.22-1.08.35-1.92.7-2.41,1.78-.93,2.06.44,3.68,2.29,4.47-1.59,1.01-3.91,2.34-3.53,4.57.29,1.69,1.41,2.62,2.99,3.04-1.13.37-2.11.75-2.97,1.6-2.06,2.05-1.06,4.74,1.72,5.24l2.05.18c-2.03,1.09-4.48,2.72-2.45,5.11.69.81,1.67,1.27,2.73,1.33.74.05,1.5-.18,2.21-.05-4.86,3.33-9.42,6.87-13.68,10.93-5.31,5.06-9.65,10.05-14.01,15.92-3.77,5.07-7.45,10.21-10.39,15.8-10.57,5.02-20.87,10.58-30.97,16.45-.86.5-1.85.89-2.68,1.4-.38.23-1.6.99-.62,1.22.29.07,1.23-.21,1.58-.29,3.46-.82,6.78-2.18,10.18-3.22,5.93-1.81,11.98-3.09,18.01-4.49,1.93-.45,3.82-1.1,5.79-1.34-1.39,1.51-3.24,2.55-4.87,3.78-8.65,6.55-17.28,13.14-25.69,19.99-.58.47-2.23,1.69-2.59,2.18-.49.67.34.95.93.87,2.45-.32,5.29-2.24,7.55-3.28,1.52-.7,3.17-1.15,4.71-1.84,9.5-4.29,18.51-9.64,27.67-14.59,32.85-17.76,66.15-34.81,98.51-53.41,7.6-4.37,14.92-9.25,22.34-13.92,5.17-3.25,9.19-6.28,12.89-11.22,1.63-2.17,3.26-4.47,3.78-7.18,2.88-3.42,6.56-6.64,9.34-10.09.52-.64.33-1.36-.48-1.55l-13.72,3.51c-4.62-2.97-10.35-6.16-15.93-6.57-8.23-.61-17.91.88-25.46,4.25l-7.22,3.68c.33-1.28,1.04-2.49,1.37-3.75,1.02-3.81,1.59-8.22,2.21-12.13.21-1.36.62-2.78.74-4.15.74-8-2.06-20.99-8.01-26.62-2.93-2.77-9.49-5.7-13.34-7.12-13.77-5.07-27.98-9.91-42.3-13.18C4.11,5.64-3.93,3.14-12.2,1.67c-2.56-.45-5.25-.52-7.65-.91-1.75-.28-3.4.54-4.31,2.06-.66,1.1-.51,1.7.16,2.78,1.43,2.29,3.71,3.65,6.12,4.67-1.94.53-5.16,1.77-4.79,4.26.39,2.62,3.68,5.38,5.95,6.53.84.42,1.75.69,2.59,1.12-3.83,1.47-3.79,4.85-1.05,7.53.93.9,2.14,1.39,3.28,1.97l4.46,1.76-2.32,1.22ZM123.58,80.69c-3.42,6.92-8.78,12.75-15.4,16.81-4.56,2.8-9.11,5.55-13.62,8.43-14.64,9.34-30.09,17.33-45.22,25.85-5.99,2.71-11.9,6.85-17.89,9.42-5,2.15-11.28,3.53-16.56,5.12-6.42,1.94-12.93,4.27-19.51,5.58-2.97.59-6.04.59-9.01,1.18-.13-.05.02-.71.05-.85.36-1.67,1.37-4.4,1.97-6.09,3.15-8.79,8.6-17.63,14.31-25,1.9-2.45,5.23-5.31,7.67-7.3,8.86-7.24,19.25-14.15,29.17-19.82,1.75-1,3.68-1.9,5.38-2.96.21-.13.88-.61.9-.82l-.3-.49c-.15-.04-.85.19-1.03.26-4.32,1.83-8.6,4.95-12.79,7.12-1.17.75-2.29,1.57-3.45,2.32-3.11,2.02-6.23,4.03-9.21,6.25-1.71.45-5.04,1.28-6.36-.31-.55-.66-.64-1.09-.16-1.8.37-.55,2.25-2.21,2.82-2.52.59-.32,2.76-.49,3.59-.66,1.66-.35,3.68-.8,5.1-1.76.36-.24.82-.7.33-1.06-.62-.28-1.1.28-1.64.48-2.16.81-8.43,2.04-10.59,1.41-2.78-.81-.91-3.38.73-4.28,2.42-1.33,4.64-.92,7.23-1.46,1.87-.39,4.72-1.09,6.44-1.85.32-.14,1.19-.51,1.18-.87,0-.3-.22-.49-.52-.45-4.25.83-8.67,2.64-13.05,2.1-1.25-.15-1.97-.45-2.43-1.73-.55-1.56,2.21-3.25,3.12-4.21,1.04.2,2.08.26,3.13.28,3.15.04,7.48-.11,10.52-.84.39-.09,1.92-.36,1.98-.75-.01-.35-.29-.48-.6-.5-4.19.19-8.68.86-12.86.66-1.75-.09-5.36-.86-4.08-3.36.33-.64,1.78-1.71,2.46-1.79.35-.04,1.84.3,2.36.35,2.87.24,11.47.33,13.96-.5.91-.3,1.05-.76.05-.96-4.02-.03-8.19.28-12.19.11-1.67-.07-6.46-.56-7.58-1.68-1.73-1.74,1.65-3.56,3.11-3.91,4.81.67,9.84.9,14.69.88.78,0,5.48-.19,5.66-.77-.16-.53-.82-.47-1.29-.51-5.89-.45-11.8.01-17.67-.89-1.27-.2-5.52-.96-5.82-2.43-.4-2.02,3.38-2.83,4.67-3.44,5.84.86,12.15,1.45,18.08,1.41.89,0,3.05-.06,3.82-.29.24-.07.56-.28.48-.56-.19-.6-2.98-.39-3.57-.42-6.51-.32-15.95-.36-22.03-2.31-1.01-.32-2.11-1.02-2.62-1.98-.33-.62,1.01-1.81,1.61-1.96,7.61,1.02,15.52,1.8,23.2,2,.9.02,2,.09,2.88.04.48-.02,1.68-.05,1.99-.38.37-.81-.53-.84-1.09-.92-8.31-.71-16.85-.71-25.1-2-2.24-.35-7.27-1.19-8.79-2.86-.43-.48-.65-1.04-.56-1.67.14-.99.69-1.06,1.33-1.66.38-.35.87-1.08,1.36-1.14.4-.06,2,.5,2.54.61,6.97,1.43,13.87,2.04,20.91,2.98,2.77-.08,6.59,1.12,9.23.89,1.26-.11,1.14-1.09.09-1.35-9.84-1.38-19.82-1.84-29.56-3.88-1-.21-1.99-.53-2.99-.76-2.51-.57-8.13-1.45-9.24-4.1-.46-1.1,1.14-2.18,1.69-3.03,5.57.96,11.12,1.98,16.68,3.02,7.3,1.37,14.56,2.86,21.9,4.04.48.08,2.02.39,2.39.31.53-.13.64-.64.21-.97-.09-.07-.45-.15-.6-.19-4.35-1.28-9.27-1.75-13.75-2.61-5.22-.99-10.43-2.1-15.66-3.1-4.63-.89-14.41-1.88-17.87-4.77-.9-.75-1.93-2.26-.85-3.27.55-.52,2.29-1.39,3.03-1.62.19-.06.38,0,.57.02,10.31,3.39,21.03,5.15,31.66,7.24,4.8.94,10.32,2.5,15.13,2.93.35.03,1.34.13,1.14-.47s-1.73-.97-2.3-1.12c-5.87-1.49-12.34-2.38-18.31-3.62-9.82-2.03-20.89-4.01-30.27-7.47-1.46-.54-4.72-1.83-5.84-2.76-1.48-1.22-2.72-3.38-.68-4.72.39-.26,2.18-1.22,2.52-1.21.38.01,1.09.43,1.48.56,17.94,5.79,36.74,8.82,55.09,13.01.61.14,1.55.69,2.13.34.34-.2.36-.47.16-.79-.46-.76-4.38-1.34-5.39-1.58-15.78-3.76-31.63-6.62-47.23-11.17-4.74-1.38-12.82-3.23-15.19-8.08-.54-1.1-.3-1.62.67-2.28.41-.28,4.4-1.91,4.67-1.87,3.59,1.46,7.39,2.32,11.11,3.37,10.29,2.91,20.61,5.69,30.91,8.59,5.45,1.53,10.89,2.89,16.36,4.33,2.48.65,4.95,1.58,7.47,2.07.47-.47-.39-.82-.77-.99-5.09-2.25-11.52-3.4-16.92-4.91-4.63-1.3-9.22-2.83-13.85-4.13C10.09,16.99,1.25,14.83-7.48,12.3c-4.19-1.21-11.92-3.31-14.61-6.76-.67-.86-1.3-1.33-.37-2.27,1.5-1.53,3.89-1.14,5.83-.94C-7.89,3.22.08,6.16,8.48,8.31c4.01,1.03,8.14,1.6,12.1,2.83,8.78,2.74,17.69,5.24,26.34,8.41,1.21.44,2.36,1.08,3.58,1.53,6.32,2.32,15.34,4.97,18.85,11.21,2.94,5.21,4.48,11.1,4.97,17.01.3,3.6-.23,6.22-.74,9.69-.54,3.7-1.01,7.97-1.89,11.57-.35,1.44-1.19,3.05-1.48,4.5-.19.96-.1,1.07.67,1.58,3.36,2.22,7.01,4.1,10.34,6.38,3.95,2.7,7.53,6.39,11.35,9.26.82.61,1.69,1.09,2.56,1.59.21.08.43-.05.51-.26.6-2.91.53-6.5,1.96-9.15,1.06-1.97,4.37-4.73,6.41-5.62,2.69-1.17,6.84-.87,9.52.22.79.32,1.51,1.03,2.5.74,1.9-1.02,3.68-2.24,5.59-3.23,2.98-1.55,6.2-2.7,9.18-4.27l-7.25,8.38Z"/>
            <path class="cls-2" d="M104.94,83.72c.53-1.68,3.17-3,4.82-2.52,4.61,1.34,2.28,8.42-2.35,7.3-2.07-.5-3.08-2.83-2.47-4.78Z"/>
          </g>
        </g>
      </g>
    </pattern>
  </defs>
  <rect class="cls-4" x="0" width="1200" height="1200"/>
  <rect class="cls-3" width="1200" height="1200"/>
</svg>